<?xml version="1.0" encoding="utf-8"?>
<svg version="1.1" id="Layer_1" xmlns="http://www.w3.org/2000/svg" x="0px" y="0px"
     viewBox="0 0 500 500" style="enable-background:new 0 0 500 500;" xml:space="preserve">
<style type="text/css">
	.st0{fill:#212121;}
	.st1{fill:#FEA537;}
</style>
    <g>
	<circle class="st0" cx="250" cy="250" r="250"/>
        <g>
		<path class="st1" d="M375.9,123.9c0.6,1.1-0.3,1.9-0.7,2.7c-10.9,19.6-21.8,39.2-32.7,58.8c-1.3,2.4-2.9,4.4-4.8,6.3
			c-13.8,13.7-27.5,27.6-41.3,41.3c-2.3,2.3-3.9,4.9-4.8,8c-2.5,7.9-5,15.8-7.5,23.7c-0.6,1.8-1.7,3.2-3,4.5
			c-34.8,34.8-69.7,69.6-104.5,104.5c-1.8,1.8-3.6,2.4-6.1,2.6c-6.7,0.7-11.5-1.5-16-6.5c-8.9-9.7-18.4-18.8-27.8-28
			c-2-2-2.8-4.1-3.1-6.9c-0.7-6.6,1.8-11,6.4-15.6c33.3-32.9,66.2-66,99.3-99.1c2.4-2.4,5-4.1,8.3-5.1c7.8-2.3,15.5-5.1,23.2-7.5
			c2.3-0.7,4.1-2.1,5.7-3.8c13.9-13.9,27.8-27.8,41.6-41.7c1.9-1.9,3.9-3.5,6.3-4.8c19.5-10.8,38.9-21.6,58.4-32.4
			C373.7,124.4,374.6,123.4,375.9,123.9z"/>
            <path class="st1" d="M444.6,191.6c-6.4,11.7-12.7,23.3-19.2,35c-4.7,8.4-9.4,16.8-14,25.3c-1.8,3.2-3.9,6.1-6.5,8.7
			c-13.5,13.4-26.8,26.9-40.3,40.2c-2.5,2.4-4.1,5.1-5,8.4c-2.4,7.9-5.1,15.8-7.5,23.8c-0.7,2.2-2.3,3.6-3.8,5.1
			c-32.4,32.4-64.7,64.7-97.1,97.1c-0.9,0.9-1.9,1.9-2.8,2.8c-6.9,6.9-7.8,7.2-17.5,6.3c-1.5-0.1-2.5-0.7-3.5-1.7
			c-11.3-11.3-22.6-22.6-33.9-33.9c-1.3-1.3-1.8-2.6-1.8-4.4c-0.3-10-0.4-10,6.6-16.9c33.1-33.1,66.2-66.1,99.2-99.2
			c2.3-2.3,4.8-3.8,8-4.8c7.9-2.4,15.8-5.2,23.7-7.6c2.2-0.7,3.7-2.1,5.2-3.7c13.5-13.5,27.1-27,40.5-40.7c3.2-3.3,6.9-5.6,10.9-7.8
			c19.2-10.7,38.3-21.4,57.5-32c0.3-0.2,0.6-0.2,0.9-0.3c0,0,0.1,0.4,0.1,0.4L444.6,191.6z"/>
            <path class="st1" d="M308.4,55.7c-11.4,20.6-22.9,41.3-34.3,62c-1.3,2.4-2.9,4.4-4.8,6.3c-13.9,13.9-27.8,27.8-41.7,41.6
			c-1.8,1.8-3.1,3.7-3.8,6.2c-2.4,8-5,15.8-7.6,23.7c-0.7,2.1-1.7,3.9-3.3,5.5c-34.9,34.8-69.7,69.6-104.5,104.5
			c-1.6,1.6-3.3,2.4-5.7,2.5c-9.8,0.1-9.8,0.2-16.8-6.8c-9.2-9.2-18.3-18.4-27.6-27.5c-1.9-1.9-2.5-3.8-2.8-6.5
			c-0.8-6.7,1.8-11.3,6.6-16c33.3-32.9,66.2-66,99.2-99.1c2.3-2.3,4.7-4,7.9-4.9c7.5-2.2,14.8-4.9,22.3-7.2c2.6-0.8,4.7-2.1,6.7-4.1
			c13.6-13.7,27.3-27.3,40.9-41c2.3-2.3,4.7-4.2,7.5-5.7c20.2-11.2,40.4-22.4,60.6-33.7C307.5,55.5,308,55.6,308.4,55.7z"/>
	</g>
</g>
</svg>
