<?xml version="1.0" encoding="utf-8"?>
<svg version="1.1" id="Layer_1" xmlns="http://www.w3.org/2000/svg" xmlns:xlink="http://www.w3.org/1999/xlink" x="0px" y="0px"
	 viewBox="0 0 2403.7 500" style="enable-background:new 0 0 2403.7 500;" xml:space="preserve">
<style type="text/css">
	.st0{fill:#2C2C2C;}
	.st1{fill:#FEA537;}
	.st2{fill:#FFFFFF;}
	.st3{display:none;}
	.st4{display:inline;fill:#FEA537;}
	.st5{font-family:'Khand-Medium';}
	.st6{font-size:344.1826px;}
	.st7{display:inline;fill:#FFFFFF;}
	.st8{font-family:'Khand-Light';}
</style>
<g>
	<circle class="st0" cx="250" cy="250" r="250"/>
	<g>
		<path class="st1" d="M375.9,123.9c0.6,1.1-0.3,1.9-0.7,2.7c-10.9,19.6-21.8,39.2-32.7,58.8c-1.3,2.4-2.9,4.4-4.8,6.3
			c-13.8,13.7-27.5,27.6-41.3,41.3c-2.3,2.3-3.9,4.9-4.8,8c-2.5,7.9-5,15.8-7.5,23.7c-0.6,1.8-1.7,3.2-3,4.5
			c-34.8,34.8-69.7,69.6-104.5,104.5c-1.8,1.8-3.6,2.4-6.1,2.6c-6.7,0.7-11.5-1.5-16-6.5c-8.9-9.7-18.4-18.8-27.8-28
			c-2-2-2.8-4.1-3.1-6.9c-0.7-6.6,1.8-11,6.4-15.6c33.3-32.9,66.2-66,99.3-99.1c2.4-2.4,5-4.1,8.3-5.1c7.8-2.3,15.5-5.1,23.2-7.5
			c2.3-0.7,4.1-2.1,5.7-3.8c13.9-13.9,27.8-27.8,41.6-41.7c1.9-1.9,3.9-3.5,6.3-4.8c19.5-10.8,38.9-21.6,58.4-32.4
			C373.7,124.4,374.6,123.4,375.9,123.9z"/>
		<path class="st1" d="M444.6,191.6c-6.4,11.7-12.7,23.3-19.2,35c-4.7,8.4-9.4,16.8-14,25.3c-1.8,3.2-3.9,6.1-6.5,8.7
			c-13.5,13.4-26.8,26.9-40.3,40.2c-2.5,2.4-4.1,5.1-5,8.4c-2.4,7.9-5.1,15.8-7.5,23.8c-0.7,2.2-2.3,3.6-3.8,5.1
			c-32.4,32.4-64.7,64.7-97.1,97.1c-0.9,0.9-1.9,1.9-2.8,2.8c-6.9,6.9-7.8,7.2-17.5,6.3c-1.5-0.1-2.5-0.7-3.5-1.7
			c-11.3-11.3-22.6-22.6-33.9-33.9c-1.3-1.3-1.8-2.6-1.8-4.4c-0.3-10-0.4-10,6.6-16.9c33.1-33.1,66.2-66.1,99.2-99.2
			c2.3-2.3,4.8-3.8,8-4.8c7.9-2.4,15.8-5.2,23.7-7.6c2.2-0.7,3.7-2.1,5.2-3.7c13.5-13.5,27.1-27,40.5-40.7c3.2-3.3,6.9-5.6,10.9-7.8
			c19.2-10.7,38.3-21.4,57.5-32c0.3-0.2,0.6-0.2,0.9-0.3l0.1,0.4L444.6,191.6z"/>
		<path class="st1" d="M308.4,55.7c-11.4,20.6-22.9,41.3-34.3,62c-1.3,2.4-2.9,4.4-4.8,6.3c-13.9,13.9-27.8,27.8-41.7,41.6
			c-1.8,1.8-3.1,3.7-3.8,6.2c-2.4,8-5,15.8-7.6,23.7c-0.7,2.1-1.7,3.9-3.3,5.5c-34.9,34.8-69.7,69.6-104.5,104.5
			c-1.6,1.6-3.3,2.4-5.7,2.5c-9.8,0.1-9.8,0.2-16.8-6.8c-9.2-9.2-18.3-18.4-27.6-27.5c-1.9-1.9-2.5-3.8-2.8-6.5
			c-0.8-6.7,1.8-11.3,6.6-16c33.3-32.9,66.2-66,99.2-99.1c2.3-2.3,4.7-4,7.9-4.9c7.5-2.2,14.8-4.9,22.3-7.2c2.6-0.8,4.7-2.1,6.7-4.1
			c13.6-13.7,27.3-27.3,40.9-41c2.3-2.3,4.7-4.2,7.5-5.7C266.8,78,287,66.8,307.2,55.5C307.5,55.5,308,55.6,308.4,55.7z"/>
	</g>
</g>
<g>
	<path class="st1" d="M752.4,233.9h-29.3l-8.9,60.6H740v25.1h-29.3l-8.6,59.2h-28.2l8.6-59.2h-44.4l-8.6,59.2h-28.2l8.6-59.2h-26.5
		v-25.1h29.9l8.9-60.6h-26.5v-24.8h29.9l8.6-59.5h28.6l-8.6,59.5h44.1l8.6-59.5h28.2l-8.6,59.5h25.8V233.9z M686,294.5l8.9-60.6
		h-44.4l-8.6,60.6H686z"/>
	<path class="st1" d="M784.8,145.5h67.5c18.4,0,32.4,4.6,42,13.8c9.6,9.2,14.5,22,14.5,38.5v127.3c0,16.8-4.5,29.9-13.6,39.4
		c-9.1,9.5-22.9,14.3-41.5,14.3h-68.8V145.5z M876.3,198.8c0-17.4-9.1-26.2-27.2-26.2h-32v177.9h32c18.1,0,27.2-9.1,27.2-27.2V198.8
		z"/>
	<path class="st1" d="M947.5,145.5h62.6c18.4,0,32.4,4.6,42.2,13.8c9.8,9.2,14.6,22,14.6,38.5v52.3c0,16.5-4.9,29.4-14.6,38.5
		c-9.8,9.2-23.8,13.8-42.2,13.8h-30.3v76.4h-32.4V145.5z M1034.6,200.6c0-17.7-9.2-26.5-27.5-26.5h-27.2v100.2h27.2
		c18.4,0,27.5-8.9,27.5-26.8V200.6z"/>
	<path class="st1" d="M1089.4,195c0-16.3,5.3-28.9,16-37.9c10.7-8.9,25.9-13.4,45.6-13.4c19.7,0,35.8,2.1,48.2,6.2v31
		c-12.4-4.8-27.4-7.2-45.1-7.2c-21.3,0-32,7.9-32,23.7v13.4c0,7.3,1.4,13.1,4.3,17.4c2.9,4.2,8,8.4,15.3,12.6l39.9,22.4
		c18.6,10.1,27.9,25.4,27.9,45.8v19.3c0,16.8-5.9,29.7-17.6,38.7c-11.7,9.1-28.2,13.6-49.4,13.6c-21.2,0-38.3-2.4-51.1-7.2v-31
		c15.1,5.5,31.1,8.3,47.8,8.3c25,0,37.5-8.5,37.5-25.5v-11.7c0-6.9-1.3-12.2-3.8-16c-2.5-3.8-7.2-7.5-14.1-11.2l-38.9-21.3
		c-20.4-11-30.6-27.4-30.6-49.2V195z"/>
	<path class="st2" d="M1241.5,194.4c0-31,19.4-46.5,58.2-46.5c13.1,0,26,1.8,38.9,5.5v16.2c-13.1-3.9-26.6-5.9-40.6-5.9
		c-14,0-24,2.6-30.1,7.7c-6.1,5.2-9.1,12.8-9.1,22.9v139.7c0,10.1,3,17.7,9.1,22.9c6.1,5.2,16.2,7.7,30.5,7.7
		c14.2,0,27.9-1.9,41-5.9v16.2c-11.5,3.7-24.7,5.5-39.6,5.5c-38.8,0-58.2-15.5-58.2-46.5V194.4z"/>
	<path class="st2" d="M1417.7,183.3c37.6,0,56.4,15.6,56.4,46.8v148.7h-16.9v-13.8c-4.4,3.4-8.1,6.1-11.4,7.9
		c-8,4.8-18.9,7.2-32.7,7.2c-32.1,0-48.2-15.4-48.2-46.1v-11c0-22.7,13.8-38,41.3-45.8l50.9-14.5v-32.7c0-10.3-2.8-18-8.4-22.9
		c-5.6-4.9-16.3-7.4-32-7.4c-15.7,0-30,2.3-42.9,6.9v-17.2C1386.8,185.4,1401.4,183.3,1417.7,183.3z M1381.9,323.8v10.7
		c0,10.6,2.5,18.3,7.4,23.2c4.9,4.9,13.3,7.4,25,7.4c16.7,0,31.1-5.3,43-15.8V279l-45.4,12.7c-11.2,3.4-19,7.6-23.4,12.4
		C1384.1,309,1381.9,315.5,1381.9,323.8z"/>
	<path class="st2" d="M1524,133.4h17.2v245.4H1524V133.4z"/>
	<path class="st2" d="M1589.4,229.8c0-31,18.5-46.5,55.4-46.5c13.3,0,24.9,1.5,34.8,4.5v15.8c-10.3-3-22.4-4.5-36.3-4.5
		c-13.9,0-23.5,2.5-28.7,7.6c-5.3,5-7.9,12.7-7.9,23.1v104.6c0,10.3,2.6,18,7.9,22.9c5.3,4.9,15,7.4,29.1,7.4
		c14.1,0,26.3-1.7,36.7-5.2v16.2c-11.5,3.2-23.3,4.8-35.5,4.8c-36.9,0-55.4-15.4-55.4-46.1V229.8z"/>
	<path class="st2" d="M1805.2,185.1h17.2v193.8h-16.9v-9.3c-10.6,6.9-23.6,10.3-39.1,10.3s-27.4-4.3-35.8-12.9
		c-8.4-8.6-12.6-20.9-12.6-37V185.1h17.2V330c0,23.2,10.9,34.8,32.7,34.8c6.7,0,13.1-1,19.3-3.1s12.2-5.2,17.9-9.3V185.1z"/>
	<path class="st2" d="M1874.1,133.4h17.2v245.4h-17.2V133.4z"/>
	<path class="st2" d="M1981.8,183.3c37.6,0,56.4,15.6,56.4,46.8v148.7h-16.9v-13.8c-4.4,3.4-8.1,6.1-11.4,7.9
		c-8,4.8-18.9,7.2-32.7,7.2c-32.1,0-48.2-15.4-48.2-46.1v-11c0-22.7,13.8-38,41.3-45.8l50.9-14.5v-32.7c0-10.3-2.8-18-8.4-22.9
		c-5.6-4.9-16.3-7.4-32-7.4c-15.7,0-30,2.3-42.9,6.9v-17.2C1950.9,185.4,1965.5,183.3,1981.8,183.3z M1946,323.8v10.7
		c0,10.6,2.5,18.3,7.4,23.2c4.9,4.9,13.3,7.4,25,7.4c16.7,0,31.1-5.3,43-15.8V279l-45.4,12.7c-11.2,3.4-19,7.6-23.4,12.4
		C1948.2,309,1946,315.5,1946,323.8z"/>
	<path class="st2" d="M2103.6,149.3v35.8h47.2v15.5h-47.2v138.4c0,9.2,2.2,15.7,6.5,19.6c4.4,3.9,11.2,5.9,20.7,5.9
		c9.4,0,17.3-1.1,23.7-3.4v15.8c-6.9,2.1-16.2,3.1-28.1,3.1c-11.8,0-21.5-3.5-28.9-10.5c-7.5-7-11.2-17.2-11.2-30.5V200.6h-22.4
		v-15.5h22.7l4.8-35.8H2103.6z"/>
	<path class="st2" d="M2182.1,234.3c0-15.8,4.4-28.6,13.1-38.2c8.7-9.6,22.1-14.5,40.3-14.5c18.1,0,31.5,4.8,40.3,14.5
		c8.7,9.6,13.1,22.4,13.1,38.2v95.3c0,15.8-4.4,28.6-13.1,38.2c-8.7,9.6-22.1,14.5-40.3,14.5c-18.1,0-31.6-4.8-40.3-14.5
		c-8.7-9.6-13.1-22.4-13.1-38.2V234.3z M2271.6,234.3c0-24.8-12-37.2-36.1-37.2s-36.1,12.4-36.1,37.2v95.3c0,24.8,12,37.2,36.1,37.2
		s36.1-12.4,36.1-37.2V234.3z"/>
	<path class="st2" d="M2393.8,184h9.3v16.9h-12.4c-6.9,0-12,1.1-15.5,3.3c-3.4,2.2-5.7,3.6-6.9,4.3c-1.2,0.7-3.3,2.3-6.5,4.8
		c-3.2,2.5-5.7,4.4-7.6,5.5v160H2337V185.1h16.9v15.1c3.7-2.5,6.4-4.5,8.3-6c1.8-1.5,3.8-2.9,6-4.1c2.2-1.3,4-2.1,5.3-2.6
		c1.4-0.5,3.2-1,5.5-1.7C2382.9,184.6,2387.8,184,2393.8,184z"/>
</g>
<text transform="matrix(1 0 0 1 539.8638 378.8424)" class="st3"><tspan x="0" y="0" class="st4 st5 st6">#DPS</tspan><tspan x="648.4" y="0" class="st7 st8 st6">Calculator</tspan></text>
</svg>
