<?xml version="1.0" encoding="utf-8"?>
<svg version="1.1" id="Layer_1" xmlns="http://www.w3.org/2000/svg" x="0px" y="0px"
     viewBox="0 0 548.2 792" style="enable-background:new 0 0 548.2 792;" xml:space="preserve">
<style type="text/css">
	.st0{fill-rule:evenodd;clip-rule:evenodd;fill:#A91E22;}
	.st1{fill-rule:evenodd;clip-rule:evenodd;fill:#FFFFFF;}
</style>
    <rect x="73.4" y="88.5" class="st0" width="401.9" height="649.9"/>
    <path class="st1" d="M548.2,275.8c0-152-122.7-275.2-274.1-275.2C122.7,0.7,0,123.8,0,275.8l58,439.6c1.7,12.6,10.7,23,23,26.4
	l177.5,48.1c10.2,2.8,21,2.8,31.3,0l177.5-48.1c12.3-3.3,21.3-13.7,23-26.4L548.2,275.8L548.2,275.8z M119.9,628.4V509.6h25.4
	l29.1,82.5l29.1-82.5H229v118.8h-26.4v-50.8l-19,50.8h-18.2l-19-50.8v50.8L119.9,628.4L119.9,628.4z M325.4,531v-21.4l0,0h-65.5
	v118.8h65.5V607h-37v-30.9h31.3v-21.4h-31.3V531H325.4z M350.1,628.4V509.6h39.1c12,0,21.5,2.7,28.5,8s10.6,12.4,10.6,21.3v60.2
	c0,8.8-3.5,15.8-10.6,21.2c-7,5.4-16.5,8.1-28.5,8.1L350.1,628.4L350.1,628.4z M378.6,607.1h10.6c3.4,0,6-0.7,7.8-2.2
	s2.8-3.4,2.8-5.8v-60.2c0-2.4-0.9-4.3-2.8-5.8s-4.4-2.2-7.8-2.2h-10.6V607.1L378.6,607.1z M119.9,635.4v66.3h14.7v-23h5.5
	c1.8,0,3.1,0.4,4,1.2s1.4,1.9,1.4,3.2v18.6h14.7v-18.6c0-2.6-0.9-4.8-2.6-6.5c-0.8-0.9-1.8-1.6-3-2.3c1.3-1.1,2.4-2.3,3.3-3.7
	c1.5-2.4,2.3-5.1,2.3-8.3v-10.6c0-4.9-1.8-8.9-5.5-11.9c-3.6-3-8.5-4.5-14.7-4.5L119.9,635.4L119.9,635.4z M140.1,666.8h-5.5l0,0
	v-19.5h5.5c1.8,0,3.1,0.4,4,1.2s1.4,1.9,1.4,3.2v10.6c0,1.3-0.5,2.4-1.4,3.2S141.9,666.8,140.1,666.8z M214.8,635.4v51.4
	c0,4.9-1.8,8.8-5.5,11.9c-3.6,3-8.6,4.5-14.7,4.5s-11.1-1.5-14.7-4.5c-3.6-3-5.5-7-5.5-11.9v-51.4h14.7v51.4c0,1.3,0.5,2.4,1.4,3.2
	s2.3,1.2,4,1.2s3.1-0.4,4-1.2s1.4-1.9,1.4-3.2v-51.4H214.8z M230.2,635.4v66.3h13.7v-33.9l14.7,33.9h10.9v-66.3h-13.6v33.9
	l-14.7-33.9H230.2z M285.4,701.8v-66.3h10.9l14.7,33.9v-33.9h13.7v66.3h-10.9l-14.7-33.9v33.9H285.4z M374.5,647.4v-11.9h-33.8v66.3
	h33.8v-11.9h-19.1v-17.2h16.1v-11.9h-16.1v-13.3L374.5,647.4L374.5,647.4z M387.2,701.7v-66.3h20.2c6.2,0,11.1,1.5,14.7,4.5
	s5.5,7,5.5,11.9v10.6c0,3.1-0.8,5.9-2.3,8.3c-0.9,1.4-2,2.6-3.3,3.7c1.2,0.7,2.1,1.4,3,2.3c1.7,1.8,2.6,4,2.6,6.5v18.6h-14.7v-18.6
	c0-1.3-0.5-2.4-1.4-3.2c-1-0.8-2.3-1.2-4-1.2H402v23L387.2,701.7L387.2,701.7z M402,666.8h5.5c1.7,0,3.1-0.4,4-1.2
	c1-0.8,1.4-1.9,1.4-3.2v-10.6c0-1.3-0.5-2.4-1.4-3.2c-1-0.8-2.3-1.2-4-1.2H402V666.8L402,666.8z M355.5,279.2l95.3,55.2
	c4.5,2.6,6.1,8.5,3.5,13.1l-31.1,54.1c-2.6,4.6-8.5,6.1-13,3.5L314.8,350v110.5c0,5.3-4.3,9.6-9.5,9.6H243c-5.2,0-9.5-4.3-9.5-9.6
	V350l-95.3,55.2c-4.5,2.6-10.4,1-13-3.5L94,347.6c-2.6-4.6-1.1-10.4,3.5-13.1l95.3-55.2L97.5,224c-4.5-2.6-6.1-8.5-3.5-13.1
	l31.1-54.1c2.6-4.6,8.5-6.1,13-3.5l95.3,55.2V98c0-5.3,4.3-9.6,9.5-9.6h62.3c5.2,0,9.5,4.3,9.5,9.6v110.5l95.3-55.2
	c4.5-2.6,10.4-1.1,13,3.5l31.1,54.1c2.6,4.6,1,10.4-3.5,13.1L355.5,279.2z"/>
</svg>
