<?xml version="1.0" encoding="utf-8"?>
<svg xmlns:xlink="http://www.w3.org/1999/xlink" version="1.1" id="Layer_1" xmlns="http://www.w3.org/2000/svg" x="0px"
     y="0px"
     viewBox="0 0 612 163.6" style="enable-background:new 0 0 612 163.6;" xml:space="preserve">
<style type="text/css">
	.st0{clip-path:url(#SVGID_00000176750723444963038870000017296187287182685611_);enable-background:new    ;}
	.st1{clip-path:url(#SVGID_00000042709779216966886490000001377880330442719649_);}
	.st2{filter:url(#Adobe_OpacityMaskFilter);}
	.st3{clip-path:url(#SVGID_00000131338224257841604910000004744845473791967666_);}
	.st4{enable-background:new    ;}
	.st5{clip-path:url(#SVGID_00000131338224257841604910000004744845473791967666_);fill:#010101;}

		.st6{clip-path:url(#SVGID_00000131338224257841604910000004744845473791967666_);mask:url(#SVGID_00000003823086461940068900000009643066902824843148_);enable-background:new    ;}
	.st7{clip-path:url(#SVGID_00000106845044039428628220000003126929981253342354_);}

		.st8{clip-path:url(#SVGID_00000179607855423807735220000008506295696068250551_);fill-rule:evenodd;clip-rule:evenodd;fill:#A91E22;}
	.st9{clip-path:url(#SVGID_00000179607855423807735220000008506295696068250551_);fill:#A91E22;}
	.st10{filter:url(#Adobe_OpacityMaskFilter_00000164503303978228807340000015647993003480514489_);}
	.st11{clip-path:url(#SVGID_00000017506453978858856510000016345040962743464875_);}

		.st12{clip-path:url(#SVGID_00000131338224257841604910000004744845473791967666_);mask:url(#SVGID_00000179614158316576243490000017006536918385325487_);enable-background:new    ;}
	.st13{clip-path:url(#SVGID_00000149377464127795144670000003468135231629908658_);}

		.st14{clip-path:url(#SVGID_00000066508898808918878290000002262172886771563147_);fill-rule:evenodd;clip-rule:evenodd;fill:#A91E22;}
	.st15{clip-path:url(#SVGID_00000066508898808918878290000002262172886771563147_);fill:#A91E22;}
</style>
    <g>
	<g>
		<defs>
			<rect id="SVGID_1_" x="0.1" y="2.5" width="611.9" height="163.2"/>
		</defs>
        <clipPath id="SVGID_00000078731507366694152850000010566253111150445997_">
			<use xlink:href="#SVGID_1_" style="overflow:visible;"/>
		</clipPath>
        <g style="clip-path:url(#SVGID_00000078731507366694152850000010566253111150445997_);enable-background:new    ;">
			<g>
				<defs>
					<rect id="SVGID_00000062876570191763363300000017195933584981698455_" x="0.1" y="2.5" width="612.3"
                          height="163.2"/>
				</defs>
                <clipPath id="SVGID_00000020364437034984190080000005385746760633084045_">
					<use xlink:href="#SVGID_00000062876570191763363300000017195933584981698455_"
                         style="overflow:visible;"/>
				</clipPath>
                <g style="clip-path:url(#SVGID_00000020364437034984190080000005385746760633084045_);">
					<defs>
						<rect id="SVGID_00000149361728661991893070000005669778324633830070_" x="0.1" y="2.5"
                              width="612.3" height="163.2"/>
					</defs>
                    <clipPath id="SVGID_00000183206503088985571690000007797913666857758102_">
						<use xlink:href="#SVGID_00000149361728661991893070000005669778324633830070_"
                             style="overflow:visible;"/>
					</clipPath>
                    <defs>
						<filter id="Adobe_OpacityMaskFilter" filterUnits="userSpaceOnUse" x="0.1" y="2.5" width="612.3"
                                height="163.2">

								<feColorMatrix type="matrix" values="-1 0 0 0 1  0 -1 0 0 1  0 0 -1 0 1  0 0 0 1 0"
                                               color-interpolation-filters="sRGB" result="source"/>
                            <feFlood style="flood-color:white;flood-opacity:1" result="back"/>
                            <feBlend in="source" in2="back" mode="normal"/>
						</filter>
					</defs>

                    <mask maskUnits="userSpaceOnUse" x="0.1" y="2.5" width="612.3" height="163.2"
                          id="SVGID_00000017492632502706992340000011977434436413080504_">
						<g class="st2">

								<rect x="0.1" y="2.5"
                                      style="clip-path:url(#SVGID_00000183206503088985571690000007797913666857758102_);"
                                      width="612.3" height="163.2"/>
                            <g class="st4">

									<rect x="0.1" y="2.5"
                                          style="clip-path:url(#SVGID_00000183206503088985571690000007797913666857758102_);fill:#010101;"
                                          width="612.3" height="163.2"/>
							</g>
						</g>
					</mask>

                    <g style="clip-path:url(#SVGID_00000183206503088985571690000007797913666857758102_);mask:url(#SVGID_00000017492632502706992340000011977434436413080504_);enable-background:new    ;">
						<g>
							<defs>
								<rect id="SVGID_00000080897168275181504440000018369388256277125265_" x="0.1" y="2.5"
                                      width="612.3" height="163.2"/>
							</defs>
                            <clipPath id="SVGID_00000053513743431287630530000009685595454383425951_">
								<use xlink:href="#SVGID_00000080897168275181504440000018369388256277125265_"
                                     style="overflow:visible;"/>
							</clipPath>
                            <g style="clip-path:url(#SVGID_00000053513743431287630530000009685595454383425951_);">
								<defs>
									<rect id="SVGID_00000091720013253674009730000009486277983688527284_" x="0.1" y="2.5"
                                          width="611.9" height="163.2"/>
								</defs>
                                <clipPath id="SVGID_00000062186226853369475750000006297291267653703086_">
									<use xlink:href="#SVGID_00000091720013253674009730000009486277983688527284_"
                                         style="overflow:visible;"/>
								</clipPath>

                                <path
                                    style="clip-path:url(#SVGID_00000062186226853369475750000006297291267653703086_);fill-rule:evenodd;clip-rule:evenodd;fill:#A91E22;"
                                    d="
									M71,58.1l19,11c0.9,0.5,1.2,1.7,0.7,2.6l-6.2,10.8c-0.5,0.9-1.7,1.2-2.6,0.7l-19-11v22.1c0,1.1-0.9,1.9-1.9,1.9H48.5
									c-1,0-1.9-0.9-1.9-1.9V72.2l-19,11c-0.9,0.5-2.1,0.2-2.6-0.7l-6.2-10.8c-0.5-0.9-0.2-2.1,0.7-2.6l19-11l-19-11
									c-0.9-0.5-1.2-1.7-0.7-2.6L25,33.7c0.5-0.9,1.7-1.2,2.6-0.7l19,11V21.9c0-1,0.9-1.9,1.9-1.9H61c1,0,1.9,0.9,1.9,1.9V44
									l19-11c0.9-0.5,2.1-0.2,2.6,0.7l6.2,10.8c0.5,0.9,0.2,2.1-0.7,2.6L71,58.1z M80.3,135.5h1.1c0.3,0,0.6-0.1,0.8-0.2
									s0.3-0.4,0.3-0.6v-2.1c0-0.3-0.1-0.5-0.3-0.6s-0.5-0.2-0.8-0.2h-1.1V135.5L80.3,135.5z M77.3,142.4v-13.2h4
									c1.2,0,2.2,0.3,2.9,0.9c0.7,0.6,1.1,1.4,1.1,2.4v2.1c0,0.6-0.2,1.2-0.5,1.7c-0.2,0.3-0.4,0.5-0.7,0.7
									c0.2,0.1,0.4,0.3,0.6,0.5c0.3,0.4,0.5,0.8,0.5,1.3v3.7h-2.9v-3.7c0-0.3-0.1-0.5-0.3-0.6c-0.2-0.2-0.5-0.2-0.8-0.2h-1.1v4.6
									H77.3z M74.8,131.6v-2.4H68v13.2h6.8v-2.4H71v-3.4h3.2v-2.4H71v-2.6H74.8z M57,142.5v-13.2h2.2l2.9,6.8v-6.8h2.7v13.2h-2.2
									l-2.9-6.8v6.8H57z M46,129.2v13.2h2.7v-6.8l2.9,6.8h2.2v-13.2h-2.7v6.8l-2.9-6.8H46z M42.9,129.2v10.3c0,1-0.4,1.8-1.1,2.4
									c-0.7,0.6-1.7,0.9-2.9,0.9c-1.2,0-2.2-0.3-2.9-0.9c-0.7-0.6-1.1-1.4-1.1-2.4v-10.3h2.9v10.3c0,0.3,0.1,0.5,0.3,0.6
									c0.2,0.2,0.5,0.2,0.8,0.2c0.4,0,0.6-0.1,0.8-0.2c0.2-0.2,0.3-0.4,0.3-0.6v-10.3H42.9z M28,135.5h-1.1v0v-3.9H28
									c0.3,0,0.6,0.1,0.8,0.2c0.2,0.2,0.3,0.4,0.3,0.6v2.1c0,0.3-0.1,0.5-0.3,0.6C28.6,135.4,28.4,135.5,28,135.5 M24,129.2v13.2
									h2.9v-4.6H28c0.3,0,0.6,0.1,0.8,0.2c0.2,0.2,0.3,0.4,0.3,0.6v3.7h2.9v-3.7c0-0.5-0.2-1-0.5-1.3c-0.2-0.2-0.4-0.3-0.6-0.5
									c0.3-0.2,0.5-0.5,0.7-0.7c0.3-0.5,0.5-1,0.5-1.7v-2.1c0-1-0.4-1.8-1.1-2.4c-0.7-0.6-1.7-0.9-2.9-0.9H24z M75.6,123.5h2.1
									c0.7,0,1.2-0.1,1.6-0.4c0.4-0.3,0.5-0.7,0.5-1.1v-12c0-0.5-0.2-0.9-0.5-1.1c-0.4-0.3-0.9-0.4-1.6-0.4h-2.1V123.5L75.6,123.5
									z M69.9,127.8v-23.7h7.8c2.4,0,4.3,0.5,5.7,1.6c1.4,1.1,2.1,2.5,2.1,4.2v12c0,1.8-0.7,3.2-2.1,4.2c-1.4,1.1-3.3,1.6-5.7,1.6
									H69.9z M65,108.4v-4.3v0H51.9v23.7H65v-4.3h-7.4v-6.2h6.2v-4.3h-6.2v-4.7H65z M24,127.8v-23.7h5.1l5.8,16.5l5.8-16.5h5.1
									v23.7h-5.3v-10.1l-3.8,10.1h-3.6l-3.8-10.1v10.1H24z M109.4,57.4c0-30.3-24.5-54.9-54.7-54.9C24.6,2.5,0.1,27.1,0.1,57.4
									l11.6,87.7c0.3,2.5,2.1,4.6,4.6,5.3l35.4,9.6c2,0.6,4.2,0.6,6.2,0l35.4-9.6c2.4-0.7,4.3-2.7,4.6-5.3L109.4,57.4L109.4,57.4z
									"/>
                                <polygon
                                    style="clip-path:url(#SVGID_00000062186226853369475750000006297291267653703086_);fill:#A91E22;"
                                    points="
									149.4,123.3 149.4,44.3 162,44.3 178.1,105.5 174.8,105.5 190.9,44.3 203.5,44.3 203.5,123.3 190.4,123.3 190.4,83.2
									192.1,83.5 180.9,123.3 171.9,123.3 160.8,83.5 162.5,83.2 162.5,123.3 								"/>
                                <polygon
                                    style="clip-path:url(#SVGID_00000062186226853369475750000006297291267653703086_);fill:#A91E22;"
                                    points="
									251.2,44.3 251.2,58.6 232.9,58.6 232.9,74.3 248.4,74.3 248.4,88.5 232.9,88.5 232.9,109.1 251.2,109.1 251.2,123.3
									218.8,123.3 218.8,44.3 								"/>
                                <path
                                    style="clip-path:url(#SVGID_00000062186226853369475750000006297291267653703086_);fill:#A91E22;"
                                    d="M277.7,109.1
									h5.2c1.7,0,3-0.5,3.9-1.4c0.9-1,1.4-2.2,1.4-3.8v-40c0-1.6-0.5-2.9-1.4-3.8c-0.9-1-2.2-1.4-3.9-1.4h-5.2V109.1z
									 M263.5,123.3V44.3h19.4c5.9,0,10.7,1.8,14.1,5.3c3.5,3.6,5.2,8.3,5.2,14.1v40c0,5.8-1.7,10.5-5.2,14.1
									c-3.5,3.6-8.2,5.4-14.1,5.4H263.5z"/>
                                <path
                                    style="clip-path:url(#SVGID_00000062186226853369475750000006297291267653703086_);fill:#A91E22;"
                                    d="M330.1,81.7h5.2
									c1.7,0,3-0.5,3.9-1.4c0.9-1,1.4-2.2,1.4-3.8V63.8c0-1.6-0.5-2.9-1.4-3.8c-0.9-1-2.2-1.4-3.9-1.4h-5.2V81.7z M316,123.3V44.3
									h19.4c5.9,0,10.7,1.8,14.1,5.3c3.5,3.6,5.2,8.3,5.2,14.1v12.6c0,3.7-0.7,7-2.2,9.8c-1.5,2.8-3.6,5.1-6.3,6.9l-1-4.6
									c3,1.1,5.4,2.7,7,4.8c1.7,2.1,2.5,4.7,2.5,7.8v22.1h-14.1v-22.1c0-1.6-0.5-2.9-1.4-3.8c-0.9-1-2.2-1.4-3.9-1.4h-5.2v27.4
									H316z"/>
                                <path
                                    style="clip-path:url(#SVGID_00000062186226853369475750000006297291267653703086_);fill:#A91E22;"
                                    d="M407.1,44.3
									v61.1c0,5.8-1.7,10.5-5.2,14.1c-3.5,3.6-8.2,5.4-14.1,5.4c-5.9,0-10.6-1.8-14.1-5.4c-3.5-3.6-5.3-8.3-5.3-14.1V44.3h14.1
									v61.1c0,1.6,0.5,2.9,1.4,3.8c0.9,1,2.2,1.4,3.9,1.4s3-0.5,3.9-1.4c0.9-1,1.4-2.2,1.4-3.8V44.3H407.1z"/>
                                <polygon
                                    style="clip-path:url(#SVGID_00000062186226853369475750000006297291267653703086_);fill:#A91E22;"
                                    points="
									421.8,123.3 421.8,44.3 432.3,44.3 450.2,95.5 446.5,95.6 446.5,44.3 459.5,44.3 459.5,123.3 449.1,123.3 431.1,72.1
									434.9,72 434.9,123.3 								"/>
                                <polygon
                                    style="clip-path:url(#SVGID_00000062186226853369475750000006297291267653703086_);fill:#A91E22;"
                                    points="
									474.8,123.3 474.8,44.3 485.3,44.3 503.2,95.5 499.5,95.6 499.5,44.3 512.6,44.3 512.6,123.3 502.1,123.3 484.2,72.1
									487.9,72 487.9,123.3 								"/>
                                <polygon
                                    style="clip-path:url(#SVGID_00000062186226853369475750000006297291267653703086_);fill:#A91E22;"
                                    points="
									560.3,44.3 560.3,58.6 542,58.6 542,74.3 557.5,74.3 557.5,88.5 542,88.5 542,109.1 560.3,109.1 560.3,123.3 527.9,123.3
									527.9,44.3 								"/>
                                <path
                                    style="clip-path:url(#SVGID_00000062186226853369475750000006297291267653703086_);fill:#A91E22;"
                                    d="M586.7,81.7h5.2
									c1.7,0,3-0.5,3.9-1.4c0.9-1,1.4-2.2,1.4-3.8V63.8c0-1.6-0.5-2.9-1.4-3.8c-0.9-1-2.2-1.4-3.9-1.4h-5.2V81.7z M572.6,123.3
									V44.3H592c5.9,0,10.7,1.8,14.1,5.3c3.5,3.6,5.2,8.3,5.2,14.1v12.6c0,3.7-0.7,7-2.2,9.8c-1.5,2.8-3.6,5.1-6.3,6.9l-1-4.6
									c3,1.1,5.4,2.7,7,4.8c1.7,2.1,2.5,4.7,2.5,7.8v22.1h-14.1v-22.1c0-1.6-0.5-2.9-1.4-3.8c-0.9-1-2.2-1.4-3.9-1.4h-5.2v27.4
									H572.6z"/>
							</g>
						</g>
					</g>
                    <defs>

							<filter id="Adobe_OpacityMaskFilter_00000044150953792142240630000008652972230717115827_"
                                    filterUnits="userSpaceOnUse" x="0.1" y="2.5" width="612.3" height="163.2">
							<feColorMatrix type="matrix" values="1 0 0 0 0  0 1 0 0 0  0 0 1 0 0  0 0 0 1 0"/>
						</filter>
					</defs>

                    <mask maskUnits="userSpaceOnUse" x="0.1" y="2.5" width="612.3" height="163.2"
                          id="SVGID_00000121279925478216603470000018252399389093218958_">
						<g style="filter:url(#Adobe_OpacityMaskFilter_00000044150953792142240630000008652972230717115827_);">

								<rect x="0.1" y="2.5"
                                      style="clip-path:url(#SVGID_00000183206503088985571690000007797913666857758102_);"
                                      width="612.3" height="163.2"/>
                            <g class="st4">
								<g class="st4">
									<g>
										<defs>
											<rect id="SVGID_00000119105187180151642480000011812241520043843219_" x="0.1"
                                                  y="2.5" width="611.9" height="163.2"/>
										</defs>

                                        <clipPath id="SVGID_00000022532454480078255580000003920359636935641269_"
                                                  style="clip-path:url(#SVGID_00000183206503088985571690000007797913666857758102_);">
											<use xlink:href="#SVGID_00000119105187180151642480000011812241520043843219_"
                                                 style="overflow:visible;"/>
										</clipPath>
                                        <g>
											<defs>
												<rect id="SVGID_00000070080879327434445230000016357342659755526321_"
                                                      x="0.1" y="2.5" width="612.3" height="163.2"/>
											</defs>

                                            <clipPath id="SVGID_00000152239447230881975490000011162969876768467330_"
                                                      style="clip-path:url(#SVGID_00000022532454480078255580000003920359636935641269_);">
												<use
                                                    xlink:href="#SVGID_00000070080879327434445230000016357342659755526321_"
                                                    style="overflow:visible;"/>
											</clipPath>

                                            <g transform="matrix(1 0 0 1 0 0)"
                                               style="clip-path:url(#SVGID_00000152239447230881975490000011162969876768467330_);">

													<image style="overflow:visible;" width="469" height="125"
                                                           xlink:href="7319C490.png"
                                                           transform="matrix(1.3055 0 0 1.3055 7.017203e-02 2.502)">
												</image>
											</g>
										</g>
									</g>
								</g>
							</g>
						</g>
					</mask>

                    <g style="clip-path:url(#SVGID_00000183206503088985571690000007797913666857758102_);mask:url(#SVGID_00000121279925478216603470000018252399389093218958_);enable-background:new    ;">
						<g>
							<defs>
								<rect id="SVGID_00000073695906231502811890000000639352113538275975_" x="0.1" y="2.5"
                                      width="612.3" height="163.2"/>
							</defs>
                            <clipPath id="SVGID_00000016059579938327821760000006902896266136619927_">
								<use xlink:href="#SVGID_00000073695906231502811890000000639352113538275975_"
                                     style="overflow:visible;"/>
							</clipPath>
                            <g style="clip-path:url(#SVGID_00000016059579938327821760000006902896266136619927_);">
								<defs>
									<rect id="SVGID_00000068665054537944074780000015341052787858450065_" x="0.1" y="2.5"
                                          width="611.9" height="163.2"/>
								</defs>
                                <clipPath id="SVGID_00000166665363294891976350000007335129344502175156_">
									<use xlink:href="#SVGID_00000068665054537944074780000015341052787858450065_"
                                         style="overflow:visible;"/>
								</clipPath>

                                <path
                                    style="clip-path:url(#SVGID_00000166665363294891976350000007335129344502175156_);fill-rule:evenodd;clip-rule:evenodd;fill:#A91E22;"
                                    d="
									M71,58.1l19,11c0.9,0.5,1.2,1.7,0.7,2.6l-6.2,10.8c-0.5,0.9-1.7,1.2-2.6,0.7l-19-11v22.1c0,1.1-0.9,1.9-1.9,1.9H48.5
									c-1,0-1.9-0.9-1.9-1.9V72.2l-19,11c-0.9,0.5-2.1,0.2-2.6-0.7l-6.2-10.8c-0.5-0.9-0.2-2.1,0.7-2.6l19-11l-19-11
									c-0.9-0.5-1.2-1.7-0.7-2.6L25,33.7c0.5-0.9,1.7-1.2,2.6-0.7l19,11V21.9c0-1,0.9-1.9,1.9-1.9H61c1,0,1.9,0.9,1.9,1.9V44
									l19-11c0.9-0.5,2.1-0.2,2.6,0.7l6.2,10.8c0.5,0.9,0.2,2.1-0.7,2.6L71,58.1z M80.3,135.5h1.1c0.3,0,0.6-0.1,0.8-0.2
									s0.3-0.4,0.3-0.6v-2.1c0-0.3-0.1-0.5-0.3-0.6s-0.5-0.2-0.8-0.2h-1.1V135.5L80.3,135.5z M77.3,142.4v-13.2h4
									c1.2,0,2.2,0.3,2.9,0.9c0.7,0.6,1.1,1.4,1.1,2.4v2.1c0,0.6-0.2,1.2-0.5,1.7c-0.2,0.3-0.4,0.5-0.7,0.7
									c0.2,0.1,0.4,0.3,0.6,0.5c0.3,0.4,0.5,0.8,0.5,1.3v3.7h-2.9v-3.7c0-0.3-0.1-0.5-0.3-0.6c-0.2-0.2-0.5-0.2-0.8-0.2h-1.1v4.6
									H77.3z M74.8,131.6v-2.4H68v13.2h6.8v-2.4H71v-3.4h3.2v-2.4H71v-2.6H74.8z M57,142.5v-13.2h2.2l2.9,6.8v-6.8h2.7v13.2h-2.2
									l-2.9-6.8v6.8H57z M46,129.2v13.2h2.7v-6.8l2.9,6.8h2.2v-13.2h-2.7v6.8l-2.9-6.8H46z M42.9,129.2v10.3c0,1-0.4,1.8-1.1,2.4
									c-0.7,0.6-1.7,0.9-2.9,0.9c-1.2,0-2.2-0.3-2.9-0.9c-0.7-0.6-1.1-1.4-1.1-2.4v-10.3h2.9v10.3c0,0.3,0.1,0.5,0.3,0.6
									c0.2,0.2,0.5,0.2,0.8,0.2c0.4,0,0.6-0.1,0.8-0.2c0.2-0.2,0.3-0.4,0.3-0.6v-10.3H42.9z M28,135.5h-1.1v0v-3.9H28
									c0.3,0,0.6,0.1,0.8,0.2c0.2,0.2,0.3,0.4,0.3,0.6v2.1c0,0.3-0.1,0.5-0.3,0.6C28.6,135.4,28.4,135.5,28,135.5 M24,129.2v13.2
									h2.9v-4.6H28c0.3,0,0.6,0.1,0.8,0.2c0.2,0.2,0.3,0.4,0.3,0.6v3.7h2.9v-3.7c0-0.5-0.2-1-0.5-1.3c-0.2-0.2-0.4-0.3-0.6-0.5
									c0.3-0.2,0.5-0.5,0.7-0.7c0.3-0.5,0.5-1,0.5-1.7v-2.1c0-1-0.4-1.8-1.1-2.4c-0.7-0.6-1.7-0.9-2.9-0.9H24z M75.6,123.5h2.1
									c0.7,0,1.2-0.1,1.6-0.4c0.4-0.3,0.5-0.7,0.5-1.1v-12c0-0.5-0.2-0.9-0.5-1.1c-0.4-0.3-0.9-0.4-1.6-0.4h-2.1V123.5L75.6,123.5
									z M69.9,127.8v-23.7h7.8c2.4,0,4.3,0.5,5.7,1.6c1.4,1.1,2.1,2.5,2.1,4.2v12c0,1.8-0.7,3.2-2.1,4.2c-1.4,1.1-3.3,1.6-5.7,1.6
									H69.9z M65,108.4v-4.3v0H51.9v23.7H65v-4.3h-7.4v-6.2h6.2v-4.3h-6.2v-4.7H65z M24,127.8v-23.7h5.1l5.8,16.5l5.8-16.5h5.1
									v23.7h-5.3v-10.1l-3.8,10.1h-3.6l-3.8-10.1v10.1H24z M109.4,57.4c0-30.3-24.5-54.9-54.7-54.9C24.6,2.5,0.1,27.1,0.1,57.4
									l11.6,87.7c0.3,2.5,2.1,4.6,4.6,5.3l35.4,9.6c2,0.6,4.2,0.6,6.2,0l35.4-9.6c2.4-0.7,4.3-2.7,4.6-5.3L109.4,57.4L109.4,57.4z
									"/>
                                <polygon
                                    style="clip-path:url(#SVGID_00000166665363294891976350000007335129344502175156_);fill:#A91E22;"
                                    points="
									149.4,123.3 149.4,44.3 162,44.3 178.1,105.5 174.8,105.5 190.9,44.3 203.5,44.3 203.5,123.3 190.4,123.3 190.4,83.2
									192.1,83.5 180.9,123.3 171.9,123.3 160.8,83.5 162.5,83.2 162.5,123.3 								"/>
                                <polygon
                                    style="clip-path:url(#SVGID_00000166665363294891976350000007335129344502175156_);fill:#A91E22;"
                                    points="
									251.2,44.3 251.2,58.6 232.9,58.6 232.9,74.3 248.4,74.3 248.4,88.5 232.9,88.5 232.9,109.1 251.2,109.1 251.2,123.3
									218.8,123.3 218.8,44.3 								"/>
                                <path
                                    style="clip-path:url(#SVGID_00000166665363294891976350000007335129344502175156_);fill:#A91E22;"
                                    d="M277.7,109.1
									h5.2c1.7,0,3-0.5,3.9-1.4c0.9-1,1.4-2.2,1.4-3.8v-40c0-1.6-0.5-2.9-1.4-3.8c-0.9-1-2.2-1.4-3.9-1.4h-5.2V109.1z
									 M263.5,123.3V44.3h19.4c5.9,0,10.7,1.8,14.1,5.3c3.5,3.6,5.2,8.3,5.2,14.1v40c0,5.8-1.7,10.5-5.2,14.1
									c-3.5,3.6-8.2,5.4-14.1,5.4H263.5z"/>
                                <path
                                    style="clip-path:url(#SVGID_00000166665363294891976350000007335129344502175156_);fill:#A91E22;"
                                    d="M330.1,81.7h5.2
									c1.7,0,3-0.5,3.9-1.4c0.9-1,1.4-2.2,1.4-3.8V63.8c0-1.6-0.5-2.9-1.4-3.8c-0.9-1-2.2-1.4-3.9-1.4h-5.2V81.7z M316,123.3V44.3
									h19.4c5.9,0,10.7,1.8,14.1,5.3c3.5,3.6,5.2,8.3,5.2,14.1v12.6c0,3.7-0.7,7-2.2,9.8c-1.5,2.8-3.6,5.1-6.3,6.9l-1-4.6
									c3,1.1,5.4,2.7,7,4.8c1.7,2.1,2.5,4.7,2.5,7.8v22.1h-14.1v-22.1c0-1.6-0.5-2.9-1.4-3.8c-0.9-1-2.2-1.4-3.9-1.4h-5.2v27.4
									H316z"/>
                                <path
                                    style="clip-path:url(#SVGID_00000166665363294891976350000007335129344502175156_);fill:#A91E22;"
                                    d="M407.1,44.3
									v61.1c0,5.8-1.7,10.5-5.2,14.1c-3.5,3.6-8.2,5.4-14.1,5.4c-5.9,0-10.6-1.8-14.1-5.4c-3.5-3.6-5.3-8.3-5.3-14.1V44.3h14.1
									v61.1c0,1.6,0.5,2.9,1.4,3.8c0.9,1,2.2,1.4,3.9,1.4s3-0.5,3.9-1.4c0.9-1,1.4-2.2,1.4-3.8V44.3H407.1z"/>
                                <polygon
                                    style="clip-path:url(#SVGID_00000166665363294891976350000007335129344502175156_);fill:#A91E22;"
                                    points="
									421.8,123.3 421.8,44.3 432.3,44.3 450.2,95.5 446.5,95.6 446.5,44.3 459.5,44.3 459.5,123.3 449.1,123.3 431.1,72.1
									434.9,72 434.9,123.3 								"/>
                                <polygon
                                    style="clip-path:url(#SVGID_00000166665363294891976350000007335129344502175156_);fill:#A91E22;"
                                    points="
									474.8,123.3 474.8,44.3 485.3,44.3 503.2,95.5 499.5,95.6 499.5,44.3 512.6,44.3 512.6,123.3 502.1,123.3 484.2,72.1
									487.9,72 487.9,123.3 								"/>
                                <polygon
                                    style="clip-path:url(#SVGID_00000166665363294891976350000007335129344502175156_);fill:#A91E22;"
                                    points="
									560.3,44.3 560.3,58.6 542,58.6 542,74.3 557.5,74.3 557.5,88.5 542,88.5 542,109.1 560.3,109.1 560.3,123.3 527.9,123.3
									527.9,44.3 								"/>
                                <path
                                    style="clip-path:url(#SVGID_00000166665363294891976350000007335129344502175156_);fill:#A91E22;"
                                    d="M586.7,81.7h5.2
									c1.7,0,3-0.5,3.9-1.4c0.9-1,1.4-2.2,1.4-3.8V63.8c0-1.6-0.5-2.9-1.4-3.8c-0.9-1-2.2-1.4-3.9-1.4h-5.2V81.7z M572.6,123.3
									V44.3H592c5.9,0,10.7,1.8,14.1,5.3c3.5,3.6,5.2,8.3,5.2,14.1v12.6c0,3.7-0.7,7-2.2,9.8c-1.5,2.8-3.6,5.1-6.3,6.9l-1-4.6
									c3,1.1,5.4,2.7,7,4.8c1.7,2.1,2.5,4.7,2.5,7.8v22.1h-14.1v-22.1c0-1.6-0.5-2.9-1.4-3.8c-0.9-1-2.2-1.4-3.9-1.4h-5.2v27.4
									H572.6z"/>
							</g>
						</g>
					</g>
				</g>
			</g>
		</g>
	</g>
</g>
</svg>
