<?xml version="1.0" encoding="utf-8"?>
<svg xmlns:xlink="http://www.w3.org/1999/xlink" version="1.1" id="Layer_1" xmlns="http://www.w3.org/2000/svg" x="0px"
     y="0px"
     viewBox="0 0 612 163.6" style="enable-background:new 0 0 612 163.6;" xml:space="preserve">
<style type="text/css">
	.st0{fill:#FFFFFF;}
	.st1{clip-path:url(#SVGID_00000167391874076250782930000005094513478662891702_);enable-background:new    ;}
	.st2{clip-path:url(#SVGID_00000011007565152688246990000011633293183934888339_);}
	.st3{filter:url(#Adobe_OpacityMaskFilter);}
	.st4{clip-path:url(#SVGID_00000127756541938576253260000017429905866416115601_);}
	.st5{enable-background:new    ;}
	.st6{clip-path:url(#SVGID_00000127756541938576253260000017429905866416115601_);fill:#010101;}

		.st7{clip-path:url(#SVGID_00000127756541938576253260000017429905866416115601_);mask:url(#SVGID_00000158002076332844801420000015584730834129944219_);enable-background:new    ;}
	.st8{clip-path:url(#SVGID_00000104704369954812067010000012189380895074810514_);}

		.st9{clip-path:url(#SVGID_00000043448945108026838870000018283606737198462086_);fill-rule:evenodd;clip-rule:evenodd;fill:#A91E22;}
	.st10{clip-path:url(#SVGID_00000043448945108026838870000018283606737198462086_);fill:#A91E22;}
	.st11{filter:url(#Adobe_OpacityMaskFilter_00000166668066681514902230000009695895355248877978_);}
	.st12{clip-path:url(#SVGID_00000044899472778419269780000009792072296586345632_);}

		.st13{clip-path:url(#SVGID_00000127756541938576253260000017429905866416115601_);mask:url(#SVGID_00000093166613679555394070000008134741164171955855_);enable-background:new    ;}
	.st14{clip-path:url(#SVGID_00000083058964328176063460000013425474402393657266_);}

		.st15{clip-path:url(#SVGID_00000086658765898993165810000013246633965153672587_);fill-rule:evenodd;clip-rule:evenodd;fill:#A91E22;}
	.st16{clip-path:url(#SVGID_00000086658765898993165810000013246633965153672587_);fill:#A91E22;}
</style>
    <rect x="16.3" y="18.6" class="st0" width="76.4" height="126.5"/>
    <g>
	<g>
		<defs>
			<rect id="SVGID_1_" x="0.1" y="2.5" width="611.9" height="163.2"/>
		</defs>
        <clipPath id="SVGID_00000001640544339306200430000007985504341059346344_">
			<use xlink:href="#SVGID_1_" style="overflow:visible;"/>
		</clipPath>
        <g style="clip-path:url(#SVGID_00000001640544339306200430000007985504341059346344_);enable-background:new    ;">
			<g>
				<defs>
					<rect id="SVGID_00000092435098538948454430000001329124383075753903_" x="0.1" y="2.5" width="612.3"
                          height="163.2"/>
				</defs>
                <clipPath id="SVGID_00000057130142305060800230000002902639691920219033_">
					<use xlink:href="#SVGID_00000092435098538948454430000001329124383075753903_"
                         style="overflow:visible;"/>
				</clipPath>
                <g style="clip-path:url(#SVGID_00000057130142305060800230000002902639691920219033_);">
					<defs>
						<rect id="SVGID_00000106826309413842200820000016970787949451180427_" x="0.1" y="2.5"
                              width="612.3" height="163.2"/>
					</defs>
                    <clipPath id="SVGID_00000039816965823827556020000011586182616232820888_">
						<use xlink:href="#SVGID_00000106826309413842200820000016970787949451180427_"
                             style="overflow:visible;"/>
					</clipPath>
                    <defs>
						<filter id="Adobe_OpacityMaskFilter" filterUnits="userSpaceOnUse" x="0.1" y="2.5" width="612.3"
                                height="163.2">

								<feColorMatrix type="matrix" values="-1 0 0 0 1  0 -1 0 0 1  0 0 -1 0 1  0 0 0 1 0"
                                               color-interpolation-filters="sRGB" result="source"/>
                            <feFlood style="flood-color:white;flood-opacity:1" result="back"/>
                            <feBlend in="source" in2="back" mode="normal"/>
						</filter>
					</defs>

                    <mask maskUnits="userSpaceOnUse" x="0.1" y="2.5" width="612.3" height="163.2"
                          id="SVGID_00000142134195042953038140000018157025165549639849_">
						<g class="st3">

								<rect x="0.1" y="2.5"
                                      style="clip-path:url(#SVGID_00000039816965823827556020000011586182616232820888_);"
                                      width="612.3" height="163.2"/>
                            <g class="st5">

									<rect x="0.1" y="2.5"
                                          style="clip-path:url(#SVGID_00000039816965823827556020000011586182616232820888_);fill:#010101;"
                                          width="612.3" height="163.2"/>
							</g>
						</g>
					</mask>

                    <g style="clip-path:url(#SVGID_00000039816965823827556020000011586182616232820888_);mask:url(#SVGID_00000142134195042953038140000018157025165549639849_);enable-background:new    ;">
						<g>
							<defs>
								<rect id="SVGID_00000070828184511314929040000007833092820038854576_" x="0.1" y="2.5"
                                      width="612.3" height="163.2"/>
							</defs>
                            <clipPath id="SVGID_00000117636142774162488040000012563684927377653182_">
								<use xlink:href="#SVGID_00000070828184511314929040000007833092820038854576_"
                                     style="overflow:visible;"/>
							</clipPath>
                            <g style="clip-path:url(#SVGID_00000117636142774162488040000012563684927377653182_);">
								<defs>
									<rect id="SVGID_00000017482210630997351480000006685850308438227343_" x="0.1" y="2.5"
                                          width="611.9" height="163.2"/>
								</defs>
                                <clipPath id="SVGID_00000167366352617490338810000009979641202634549120_">
									<use xlink:href="#SVGID_00000017482210630997351480000006685850308438227343_"
                                         style="overflow:visible;"/>
								</clipPath>

                                <path
                                    style="clip-path:url(#SVGID_00000167366352617490338810000009979641202634549120_);fill-rule:evenodd;clip-rule:evenodd;fill:#A91E22;"
                                    d="
									M71,58.1l19,11c0.9,0.5,1.2,1.7,0.7,2.6l-6.2,10.8c-0.5,0.9-1.7,1.2-2.6,0.7l-19-11v22.1c0,1.1-0.9,1.9-1.9,1.9H48.5
									c-1,0-1.9-0.9-1.9-1.9V72.2l-19,11c-0.9,0.5-2.1,0.2-2.6-0.7l-6.2-10.8c-0.5-0.9-0.2-2.1,0.7-2.6l19-11l-19-11
									c-0.9-0.5-1.2-1.7-0.7-2.6L25,33.7c0.5-0.9,1.7-1.2,2.6-0.7l19,11V21.9c0-1,0.9-1.9,1.9-1.9H61c1,0,1.9,0.9,1.9,1.9V44
									l19-11c0.9-0.5,2.1-0.2,2.6,0.7l6.2,10.8c0.5,0.9,0.2,2.1-0.7,2.6L71,58.1z M80.3,135.5h1.1c0.3,0,0.6-0.1,0.8-0.2
									s0.3-0.4,0.3-0.6v-2.1c0-0.3-0.1-0.5-0.3-0.6s-0.5-0.2-0.8-0.2h-1.1V135.5L80.3,135.5z M77.3,142.4v-13.2h4
									c1.2,0,2.2,0.3,2.9,0.9c0.7,0.6,1.1,1.4,1.1,2.4v2.1c0,0.6-0.2,1.2-0.5,1.7c-0.2,0.3-0.4,0.5-0.7,0.7
									c0.2,0.1,0.4,0.3,0.6,0.5c0.3,0.4,0.5,0.8,0.5,1.3v3.7h-2.9v-3.7c0-0.3-0.1-0.5-0.3-0.6c-0.2-0.2-0.5-0.2-0.8-0.2h-1.1v4.6
									H77.3z M74.8,131.6v-2.4H68v13.2h6.8v-2.4H71v-3.4h3.2v-2.4H71v-2.6H74.8z M57,142.5v-13.2h2.2l2.9,6.8v-6.8h2.7v13.2h-2.2
									l-2.9-6.8v6.8H57z M46,129.2v13.2h2.7v-6.8l2.9,6.8h2.2v-13.2h-2.7v6.8l-2.9-6.8H46z M42.9,129.2v10.3c0,1-0.4,1.8-1.1,2.4
									c-0.7,0.6-1.7,0.9-2.9,0.9c-1.2,0-2.2-0.3-2.9-0.9c-0.7-0.6-1.1-1.4-1.1-2.4v-10.3h2.9v10.3c0,0.3,0.1,0.5,0.3,0.6
									c0.2,0.2,0.5,0.2,0.8,0.2c0.4,0,0.6-0.1,0.8-0.2c0.2-0.2,0.3-0.4,0.3-0.6v-10.3H42.9z M28,135.5h-1.1v0v-3.9H28
									c0.3,0,0.6,0.1,0.8,0.2c0.2,0.2,0.3,0.4,0.3,0.6v2.1c0,0.3-0.1,0.5-0.3,0.6C28.6,135.4,28.4,135.5,28,135.5 M24,129.2v13.2
									h2.9v-4.6H28c0.3,0,0.6,0.1,0.8,0.2c0.2,0.2,0.3,0.4,0.3,0.6v3.7h2.9v-3.7c0-0.5-0.2-1-0.5-1.3c-0.2-0.2-0.4-0.3-0.6-0.5
									c0.3-0.2,0.5-0.5,0.7-0.7c0.3-0.5,0.5-1,0.5-1.7v-2.1c0-1-0.4-1.8-1.1-2.4c-0.7-0.6-1.7-0.9-2.9-0.9H24z M75.6,123.5h2.1
									c0.7,0,1.2-0.1,1.6-0.4c0.4-0.3,0.5-0.7,0.5-1.1v-12c0-0.5-0.2-0.9-0.5-1.1c-0.4-0.3-0.9-0.4-1.6-0.4h-2.1V123.5L75.6,123.5
									z M69.9,127.8v-23.7h7.8c2.4,0,4.3,0.5,5.7,1.6c1.4,1.1,2.1,2.5,2.1,4.2v12c0,1.8-0.7,3.2-2.1,4.2c-1.4,1.1-3.3,1.6-5.7,1.6
									H69.9z M65,108.4v-4.3v0H51.9v23.7H65v-4.3h-7.4v-6.2h6.2v-4.3h-6.2v-4.7H65z M24,127.8v-23.7h5.1l5.8,16.5l5.8-16.5h5.1
									v23.7h-5.3v-10.1l-3.8,10.1h-3.6l-3.8-10.1v10.1H24z M109.4,57.4c0-30.3-24.5-54.9-54.7-54.9C24.6,2.5,0.1,27.1,0.1,57.4
									l11.6,87.7c0.3,2.5,2.1,4.6,4.6,5.3l35.4,9.6c2,0.6,4.2,0.6,6.2,0l35.4-9.6c2.4-0.7,4.3-2.7,4.6-5.3L109.4,57.4L109.4,57.4z
									"/>
                                <polygon
                                    style="clip-path:url(#SVGID_00000167366352617490338810000009979641202634549120_);fill:#A91E22;"
                                    points="
									149.4,123.3 149.4,44.3 162,44.3 178.1,105.5 174.8,105.5 190.9,44.3 203.5,44.3 203.5,123.3 190.4,123.3 190.4,83.2
									192.1,83.5 180.9,123.3 171.9,123.3 160.8,83.5 162.5,83.2 162.5,123.3 								"/>
                                <polygon
                                    style="clip-path:url(#SVGID_00000167366352617490338810000009979641202634549120_);fill:#A91E22;"
                                    points="
									251.2,44.3 251.2,58.6 232.9,58.6 232.9,74.3 248.4,74.3 248.4,88.5 232.9,88.5 232.9,109.1 251.2,109.1 251.2,123.3
									218.8,123.3 218.8,44.3 								"/>
                                <path
                                    style="clip-path:url(#SVGID_00000167366352617490338810000009979641202634549120_);fill:#A91E22;"
                                    d="M277.7,109.1
									h5.2c1.7,0,3-0.5,3.9-1.4c0.9-1,1.4-2.2,1.4-3.8v-40c0-1.6-0.5-2.9-1.4-3.8c-0.9-1-2.2-1.4-3.9-1.4h-5.2V109.1z
									 M263.5,123.3V44.3h19.4c5.9,0,10.7,1.8,14.1,5.3c3.5,3.6,5.2,8.3,5.2,14.1v40c0,5.8-1.7,10.5-5.2,14.1
									c-3.5,3.6-8.2,5.4-14.1,5.4H263.5z"/>
                                <path
                                    style="clip-path:url(#SVGID_00000167366352617490338810000009979641202634549120_);fill:#A91E22;"
                                    d="M330.1,81.7h5.2
									c1.7,0,3-0.5,3.9-1.4c0.9-1,1.4-2.2,1.4-3.8V63.8c0-1.6-0.5-2.9-1.4-3.8c-0.9-1-2.2-1.4-3.9-1.4h-5.2V81.7z M316,123.3V44.3
									h19.4c5.9,0,10.7,1.8,14.1,5.3c3.5,3.6,5.2,8.3,5.2,14.1v12.6c0,3.7-0.7,7-2.2,9.8c-1.5,2.8-3.6,5.1-6.3,6.9l-1-4.6
									c3,1.1,5.4,2.7,7,4.8c1.7,2.1,2.5,4.7,2.5,7.8v22.1h-14.1v-22.1c0-1.6-0.5-2.9-1.4-3.8c-0.9-1-2.2-1.4-3.9-1.4h-5.2v27.4
									H316z"/>
                                <path
                                    style="clip-path:url(#SVGID_00000167366352617490338810000009979641202634549120_);fill:#A91E22;"
                                    d="M407.1,44.3
									v61.1c0,5.8-1.7,10.5-5.2,14.1c-3.5,3.6-8.2,5.4-14.1,5.4c-5.9,0-10.6-1.8-14.1-5.4c-3.5-3.6-5.3-8.3-5.3-14.1V44.3h14.1
									v61.1c0,1.6,0.5,2.9,1.4,3.8c0.9,1,2.2,1.4,3.9,1.4s3-0.5,3.9-1.4c0.9-1,1.4-2.2,1.4-3.8V44.3H407.1z"/>
                                <polygon
                                    style="clip-path:url(#SVGID_00000167366352617490338810000009979641202634549120_);fill:#A91E22;"
                                    points="
									421.8,123.3 421.8,44.3 432.3,44.3 450.2,95.5 446.5,95.6 446.5,44.3 459.5,44.3 459.5,123.3 449.1,123.3 431.1,72.1
									434.9,72 434.9,123.3 								"/>
                                <polygon
                                    style="clip-path:url(#SVGID_00000167366352617490338810000009979641202634549120_);fill:#A91E22;"
                                    points="
									474.8,123.3 474.8,44.3 485.3,44.3 503.2,95.5 499.5,95.6 499.5,44.3 512.6,44.3 512.6,123.3 502.1,123.3 484.2,72.1
									487.9,72 487.9,123.3 								"/>
                                <polygon
                                    style="clip-path:url(#SVGID_00000167366352617490338810000009979641202634549120_);fill:#A91E22;"
                                    points="
									560.3,44.3 560.3,58.6 542,58.6 542,74.3 557.5,74.3 557.5,88.5 542,88.5 542,109.1 560.3,109.1 560.3,123.3 527.9,123.3
									527.9,44.3 								"/>
                                <path
                                    style="clip-path:url(#SVGID_00000167366352617490338810000009979641202634549120_);fill:#A91E22;"
                                    d="M586.7,81.7h5.2
									c1.7,0,3-0.5,3.9-1.4c0.9-1,1.4-2.2,1.4-3.8V63.8c0-1.6-0.5-2.9-1.4-3.8c-0.9-1-2.2-1.4-3.9-1.4h-5.2V81.7z M572.6,123.3
									V44.3H592c5.9,0,10.7,1.8,14.1,5.3c3.5,3.6,5.2,8.3,5.2,14.1v12.6c0,3.7-0.7,7-2.2,9.8c-1.5,2.8-3.6,5.1-6.3,6.9l-1-4.6
									c3,1.1,5.4,2.7,7,4.8c1.7,2.1,2.5,4.7,2.5,7.8v22.1h-14.1v-22.1c0-1.6-0.5-2.9-1.4-3.8c-0.9-1-2.2-1.4-3.9-1.4h-5.2v27.4
									H572.6z"/>
							</g>
						</g>
					</g>
                    <defs>

							<filter id="Adobe_OpacityMaskFilter_00000141436057693767778590000002911781746660953766_"
                                    filterUnits="userSpaceOnUse" x="0.1" y="2.5" width="612.3" height="163.2">
							<feColorMatrix type="matrix" values="1 0 0 0 0  0 1 0 0 0  0 0 1 0 0  0 0 0 1 0"/>
						</filter>
					</defs>

                    <mask maskUnits="userSpaceOnUse" x="0.1" y="2.5" width="612.3" height="163.2"
                          id="SVGID_00000097496160575079621700000007503011770015079075_">
						<g style="filter:url(#Adobe_OpacityMaskFilter_00000141436057693767778590000002911781746660953766_);">

								<rect x="0.1" y="2.5"
                                      style="clip-path:url(#SVGID_00000039816965823827556020000011586182616232820888_);"
                                      width="612.3" height="163.2"/>
                            <g class="st5">
								<g class="st5">
									<g>
										<defs>
											<rect id="SVGID_00000181807255187846886470000005308095403991901345_" x="0.1"
                                                  y="2.5" width="611.9" height="163.2"/>
										</defs>

                                        <clipPath id="SVGID_00000112612276925798142600000017532543121505928344_"
                                                  style="clip-path:url(#SVGID_00000039816965823827556020000011586182616232820888_);">
											<use xlink:href="#SVGID_00000181807255187846886470000005308095403991901345_"
                                                 style="overflow:visible;"/>
										</clipPath>
                                        <g>
											<defs>
												<rect id="SVGID_00000054950979055968499270000017927877462708875944_"
                                                      x="0.1" y="2.5" width="612.3" height="163.2"/>
											</defs>

                                            <clipPath id="SVGID_00000021079945205701476620000009760784013518493063_"
                                                      style="clip-path:url(#SVGID_00000112612276925798142600000017532543121505928344_);">
												<use
                                                    xlink:href="#SVGID_00000054950979055968499270000017927877462708875944_"
                                                    style="overflow:visible;"/>
											</clipPath>

                                            <g transform="matrix(1 0 0 1 0 0)"
                                               style="clip-path:url(#SVGID_00000021079945205701476620000009760784013518493063_);">

													<image style="overflow:visible;" width="469" height="125"
                                                           xlink:href="281C3C4C.png"
                                                           transform="matrix(1.3055 0 0 1.3055 7.017203e-02 2.502)">
												</image>
											</g>
										</g>
									</g>
								</g>
							</g>
						</g>
					</mask>

                    <g style="clip-path:url(#SVGID_00000039816965823827556020000011586182616232820888_);mask:url(#SVGID_00000097496160575079621700000007503011770015079075_);enable-background:new    ;">
						<g>
							<defs>
								<rect id="SVGID_00000097486677252852945290000005531716977779863725_" x="0.1" y="2.5"
                                      width="612.3" height="163.2"/>
							</defs>
                            <clipPath id="SVGID_00000080179537058356238990000002429856597718938263_">
								<use xlink:href="#SVGID_00000097486677252852945290000005531716977779863725_"
                                     style="overflow:visible;"/>
							</clipPath>
                            <g style="clip-path:url(#SVGID_00000080179537058356238990000002429856597718938263_);">
								<defs>
									<rect id="SVGID_00000056428162771664783940000012211372867883469477_" x="0.1" y="2.5"
                                          width="611.9" height="163.2"/>
								</defs>
                                <clipPath id="SVGID_00000155851977382370286980000010676438173953760682_">
									<use xlink:href="#SVGID_00000056428162771664783940000012211372867883469477_"
                                         style="overflow:visible;"/>
								</clipPath>

                                <path
                                    style="clip-path:url(#SVGID_00000155851977382370286980000010676438173953760682_);fill-rule:evenodd;clip-rule:evenodd;fill:#A91E22;"
                                    d="
									M71,58.1l19,11c0.9,0.5,1.2,1.7,0.7,2.6l-6.2,10.8c-0.5,0.9-1.7,1.2-2.6,0.7l-19-11v22.1c0,1.1-0.9,1.9-1.9,1.9H48.5
									c-1,0-1.9-0.9-1.9-1.9V72.2l-19,11c-0.9,0.5-2.1,0.2-2.6-0.7l-6.2-10.8c-0.5-0.9-0.2-2.1,0.7-2.6l19-11l-19-11
									c-0.9-0.5-1.2-1.7-0.7-2.6L25,33.7c0.5-0.9,1.7-1.2,2.6-0.7l19,11V21.9c0-1,0.9-1.9,1.9-1.9H61c1,0,1.9,0.9,1.9,1.9V44
									l19-11c0.9-0.5,2.1-0.2,2.6,0.7l6.2,10.8c0.5,0.9,0.2,2.1-0.7,2.6L71,58.1z M80.3,135.5h1.1c0.3,0,0.6-0.1,0.8-0.2
									s0.3-0.4,0.3-0.6v-2.1c0-0.3-0.1-0.5-0.3-0.6s-0.5-0.2-0.8-0.2h-1.1V135.5L80.3,135.5z M77.3,142.4v-13.2h4
									c1.2,0,2.2,0.3,2.9,0.9c0.7,0.6,1.1,1.4,1.1,2.4v2.1c0,0.6-0.2,1.2-0.5,1.7c-0.2,0.3-0.4,0.5-0.7,0.7
									c0.2,0.1,0.4,0.3,0.6,0.5c0.3,0.4,0.5,0.8,0.5,1.3v3.7h-2.9v-3.7c0-0.3-0.1-0.5-0.3-0.6c-0.2-0.2-0.5-0.2-0.8-0.2h-1.1v4.6
									H77.3z M74.8,131.6v-2.4H68v13.2h6.8v-2.4H71v-3.4h3.2v-2.4H71v-2.6H74.8z M57,142.5v-13.2h2.2l2.9,6.8v-6.8h2.7v13.2h-2.2
									l-2.9-6.8v6.8H57z M46,129.2v13.2h2.7v-6.8l2.9,6.8h2.2v-13.2h-2.7v6.8l-2.9-6.8H46z M42.9,129.2v10.3c0,1-0.4,1.8-1.1,2.4
									c-0.7,0.6-1.7,0.9-2.9,0.9c-1.2,0-2.2-0.3-2.9-0.9c-0.7-0.6-1.1-1.4-1.1-2.4v-10.3h2.9v10.3c0,0.3,0.1,0.5,0.3,0.6
									c0.2,0.2,0.5,0.2,0.8,0.2c0.4,0,0.6-0.1,0.8-0.2c0.2-0.2,0.3-0.4,0.3-0.6v-10.3H42.9z M28,135.5h-1.1v0v-3.9H28
									c0.3,0,0.6,0.1,0.8,0.2c0.2,0.2,0.3,0.4,0.3,0.6v2.1c0,0.3-0.1,0.5-0.3,0.6C28.6,135.4,28.4,135.5,28,135.5 M24,129.2v13.2
									h2.9v-4.6H28c0.3,0,0.6,0.1,0.8,0.2c0.2,0.2,0.3,0.4,0.3,0.6v3.7h2.9v-3.7c0-0.5-0.2-1-0.5-1.3c-0.2-0.2-0.4-0.3-0.6-0.5
									c0.3-0.2,0.5-0.5,0.7-0.7c0.3-0.5,0.5-1,0.5-1.7v-2.1c0-1-0.4-1.8-1.1-2.4c-0.7-0.6-1.7-0.9-2.9-0.9H24z M75.6,123.5h2.1
									c0.7,0,1.2-0.1,1.6-0.4c0.4-0.3,0.5-0.7,0.5-1.1v-12c0-0.5-0.2-0.9-0.5-1.1c-0.4-0.3-0.9-0.4-1.6-0.4h-2.1V123.5L75.6,123.5
									z M69.9,127.8v-23.7h7.8c2.4,0,4.3,0.5,5.7,1.6c1.4,1.1,2.1,2.5,2.1,4.2v12c0,1.8-0.7,3.2-2.1,4.2c-1.4,1.1-3.3,1.6-5.7,1.6
									H69.9z M65,108.4v-4.3v0H51.9v23.7H65v-4.3h-7.4v-6.2h6.2v-4.3h-6.2v-4.7H65z M24,127.8v-23.7h5.1l5.8,16.5l5.8-16.5h5.1
									v23.7h-5.3v-10.1l-3.8,10.1h-3.6l-3.8-10.1v10.1H24z M109.4,57.4c0-30.3-24.5-54.9-54.7-54.9C24.6,2.5,0.1,27.1,0.1,57.4
									l11.6,87.7c0.3,2.5,2.1,4.6,4.6,5.3l35.4,9.6c2,0.6,4.2,0.6,6.2,0l35.4-9.6c2.4-0.7,4.3-2.7,4.6-5.3L109.4,57.4L109.4,57.4z
									"/>
                                <polygon
                                    style="clip-path:url(#SVGID_00000155851977382370286980000010676438173953760682_);fill:#A91E22;"
                                    points="
									149.4,123.3 149.4,44.3 162,44.3 178.1,105.5 174.8,105.5 190.9,44.3 203.5,44.3 203.5,123.3 190.4,123.3 190.4,83.2
									192.1,83.5 180.9,123.3 171.9,123.3 160.8,83.5 162.5,83.2 162.5,123.3 								"/>
                                <polygon
                                    style="clip-path:url(#SVGID_00000155851977382370286980000010676438173953760682_);fill:#A91E22;"
                                    points="
									251.2,44.3 251.2,58.6 232.9,58.6 232.9,74.3 248.4,74.3 248.4,88.5 232.9,88.5 232.9,109.1 251.2,109.1 251.2,123.3
									218.8,123.3 218.8,44.3 								"/>
                                <path
                                    style="clip-path:url(#SVGID_00000155851977382370286980000010676438173953760682_);fill:#A91E22;"
                                    d="M277.7,109.1
									h5.2c1.7,0,3-0.5,3.9-1.4c0.9-1,1.4-2.2,1.4-3.8v-40c0-1.6-0.5-2.9-1.4-3.8c-0.9-1-2.2-1.4-3.9-1.4h-5.2V109.1z
									 M263.5,123.3V44.3h19.4c5.9,0,10.7,1.8,14.1,5.3c3.5,3.6,5.2,8.3,5.2,14.1v40c0,5.8-1.7,10.5-5.2,14.1
									c-3.5,3.6-8.2,5.4-14.1,5.4H263.5z"/>
                                <path
                                    style="clip-path:url(#SVGID_00000155851977382370286980000010676438173953760682_);fill:#A91E22;"
                                    d="M330.1,81.7h5.2
									c1.7,0,3-0.5,3.9-1.4c0.9-1,1.4-2.2,1.4-3.8V63.8c0-1.6-0.5-2.9-1.4-3.8c-0.9-1-2.2-1.4-3.9-1.4h-5.2V81.7z M316,123.3V44.3
									h19.4c5.9,0,10.7,1.8,14.1,5.3c3.5,3.6,5.2,8.3,5.2,14.1v12.6c0,3.7-0.7,7-2.2,9.8c-1.5,2.8-3.6,5.1-6.3,6.9l-1-4.6
									c3,1.1,5.4,2.7,7,4.8c1.7,2.1,2.5,4.7,2.5,7.8v22.1h-14.1v-22.1c0-1.6-0.5-2.9-1.4-3.8c-0.9-1-2.2-1.4-3.9-1.4h-5.2v27.4
									H316z"/>
                                <path
                                    style="clip-path:url(#SVGID_00000155851977382370286980000010676438173953760682_);fill:#A91E22;"
                                    d="M407.1,44.3
									v61.1c0,5.8-1.7,10.5-5.2,14.1c-3.5,3.6-8.2,5.4-14.1,5.4c-5.9,0-10.6-1.8-14.1-5.4c-3.5-3.6-5.3-8.3-5.3-14.1V44.3h14.1
									v61.1c0,1.6,0.5,2.9,1.4,3.8c0.9,1,2.2,1.4,3.9,1.4s3-0.5,3.9-1.4c0.9-1,1.4-2.2,1.4-3.8V44.3H407.1z"/>
                                <polygon
                                    style="clip-path:url(#SVGID_00000155851977382370286980000010676438173953760682_);fill:#A91E22;"
                                    points="
									421.8,123.3 421.8,44.3 432.3,44.3 450.2,95.5 446.5,95.6 446.5,44.3 459.5,44.3 459.5,123.3 449.1,123.3 431.1,72.1
									434.9,72 434.9,123.3 								"/>
                                <polygon
                                    style="clip-path:url(#SVGID_00000155851977382370286980000010676438173953760682_);fill:#A91E22;"
                                    points="
									474.8,123.3 474.8,44.3 485.3,44.3 503.2,95.5 499.5,95.6 499.5,44.3 512.6,44.3 512.6,123.3 502.1,123.3 484.2,72.1
									487.9,72 487.9,123.3 								"/>
                                <polygon
                                    style="clip-path:url(#SVGID_00000155851977382370286980000010676438173953760682_);fill:#A91E22;"
                                    points="
									560.3,44.3 560.3,58.6 542,58.6 542,74.3 557.5,74.3 557.5,88.5 542,88.5 542,109.1 560.3,109.1 560.3,123.3 527.9,123.3
									527.9,44.3 								"/>
                                <path
                                    style="clip-path:url(#SVGID_00000155851977382370286980000010676438173953760682_);fill:#A91E22;"
                                    d="M586.7,81.7h5.2
									c1.7,0,3-0.5,3.9-1.4c0.9-1,1.4-2.2,1.4-3.8V63.8c0-1.6-0.5-2.9-1.4-3.8c-0.9-1-2.2-1.4-3.9-1.4h-5.2V81.7z M572.6,123.3
									V44.3H592c5.9,0,10.7,1.8,14.1,5.3c3.5,3.6,5.2,8.3,5.2,14.1v12.6c0,3.7-0.7,7-2.2,9.8c-1.5,2.8-3.6,5.1-6.3,6.9l-1-4.6
									c3,1.1,5.4,2.7,7,4.8c1.7,2.1,2.5,4.7,2.5,7.8v22.1h-14.1v-22.1c0-1.6-0.5-2.9-1.4-3.8c-0.9-1-2.2-1.4-3.9-1.4h-5.2v27.4
									H572.6z"/>
							</g>
						</g>
					</g>
				</g>
			</g>
		</g>
	</g>
</g>
</svg>
