<?xml version="1.0" encoding="utf-8"?>
<svg version="1.1" id="Layer_1" xmlns="http://www.w3.org/2000/svg" xmlns:xlink="http://www.w3.org/1999/xlink" x="0px" y="0px"
	 viewBox="0 0 548.25 792" style="enable-background:new 0 0 548.25 792;" xml:space="preserve">
<style type="text/css">
	.st0{fill:#FFFFFF;filter:url(#Adobe_OpacityMaskFilter);}
	.st1{mask:url(#mask0_493_11528_00000050645995398018169030000007739598598595013505_);}
	.st2{fill-rule:evenodd;clip-rule:evenodd;fill:#A91E22;}
</style>
<defs>
	<filter id="Adobe_OpacityMaskFilter" filterUnits="userSpaceOnUse" x="0" y="0.66" width="548.25" height="791.34">
		<feColorMatrix  type="matrix" values="1 0 0 0 0  0 1 0 0 0  0 0 1 0 0  0 0 0 1 0"/>
	</filter>
</defs>
<mask maskUnits="userSpaceOnUse" x="0" y="0.66" width="548.25" height="791.34" id="mask0_493_11528_00000050645995398018169030000007739598598595013505_">
	<path class="st0" d="M3067.24,0.66H0v817.47h3067.24V0.66z"/>
</mask>
<g class="st1">
	<path class="st2" d="M548.22,275.84c0-152-122.71-275.18-274.1-275.18C122.74,0.66,0,123.85,0,275.84l57.98,439.59
		c1.65,12.63,10.74,23.04,23,26.36l177.49,48.13c10.24,2.77,21.03,2.77,31.3,0l177.49-48.13c12.26-3.33,21.32-13.74,23-26.36
		l57.98-439.59H548.22z M119.95,628.44V509.64h25.37l29.15,82.47l29.15-82.47h25.37v118.81h-26.42v-50.84l-19.01,50.84h-18.17
		l-19.01-50.84v50.84H119.95z M325.36,531.01v-21.38v-0.03h-65.52v118.81h65.52v-21.38h-36.97v-30.89h31.28v-21.38h-31.28v-23.75
		H325.36z M350.07,628.44V509.63h39.1c11.97,0,21.48,2.69,28.52,8.04c7.04,5.35,10.56,12.44,10.56,21.27v60.21
		c0,8.78-3.52,15.84-10.56,21.22c-7.04,5.38-16.54,8.07-28.52,8.07H350.07z M378.59,607.06h10.56c3.39,0,5.99-0.74,7.83-2.19
		c1.84-1.45,2.76-3.37,2.76-5.75v-60.21c0-2.37-0.92-4.3-2.76-5.75c-1.84-1.45-4.44-2.19-7.83-2.19h-10.56v76.05V607.06z
		 M119.95,635.43v66.29h14.73v-22.98h5.46c1.76,0,3.1,0.4,4.04,1.21s1.42,1.9,1.42,3.22v18.56h14.73v-18.56
		c0-2.56-0.87-4.75-2.6-6.54c-0.82-0.86-1.81-1.62-2.97-2.28c1.31-1.07,2.41-2.3,3.29-3.68c1.52-2.4,2.28-5.14,2.28-8.28v-10.62
		c0-4.9-1.81-8.86-5.46-11.86c-3.62-2.98-8.53-4.48-14.73-4.48H119.95z M140.15,666.82h-5.46v-0.03v-19.45h5.46
		c1.76,0,3.1,0.4,4.04,1.21c0.95,0.82,1.42,1.9,1.42,3.22v10.62c0,1.34-0.47,2.4-1.42,3.22S141.88,666.82,140.15,666.82z
		 M214.81,635.43v51.38c0,4.9-1.81,8.83-5.46,11.86c-3.65,3.01-8.56,4.51-14.73,4.51c-6.17,0-11.06-1.5-14.71-4.51
		c-3.65-3.01-5.49-6.96-5.49-11.86v-51.38h14.73v51.38c0,1.32,0.47,2.4,1.42,3.22c0.95,0.82,2.28,1.21,4.04,1.21
		c1.76,0,3.1-0.39,4.04-1.21c0.95-0.82,1.42-1.87,1.42-3.22v-51.38H214.81z M230.19,635.43v66.32h13.66v-33.93l14.73,33.9h10.92
		V635.4h-13.65v33.93l-14.73-33.9H230.19z M285.42,701.75v-66.32h10.92l14.73,33.9V635.4h13.66v66.32H313.8l-14.73-33.9v33.93
		H285.42z M374.47,647.37v-11.94h-33.82v66.32h33.82v-11.94h-19.09v-17.24h16.15v-11.94h-16.15v-13.26H374.47z M387.25,701.72v-66.3
		h20.19c6.2,0,11.11,1.5,14.73,4.48c3.65,3.01,5.46,6.96,5.46,11.86v10.62c0,3.14-0.76,5.88-2.28,8.28
		c-0.88,1.38-1.97,2.61-3.29,3.68c1.16,0.66,2.15,1.42,2.97,2.28c1.73,1.79,2.6,3.98,2.6,6.54v18.56h-14.73v-18.56
		c0-1.32-0.47-2.4-1.42-3.22c-0.95-0.82-2.29-1.21-4.04-1.21h-5.46v22.99H387.25z M401.98,666.82h5.46c1.73,0,3.1-0.4,4.04-1.21
		c0.95-0.82,1.42-1.87,1.42-3.22v-10.62c0-1.32-0.47-2.4-1.42-3.22c-0.95-0.82-2.29-1.21-4.04-1.21h-5.46v19.45V666.82z
		 M355.48,279.24l95.32,55.25c4.54,2.64,6.12,8.51,3.49,13.08l-31.14,54.14c-2.63,4.56-8.48,6.14-13.03,3.51l-95.32-55.25v110.48
		c0,5.27-4.28,9.57-9.53,9.57h-62.29c-5.25,0-9.53-4.3-9.53-9.57V349.97l-95.32,55.25c-4.54,2.63-10.4,1.05-13.02-3.51l-31.14-54.14
		c-2.63-4.56-1.05-10.44,3.49-13.08l95.32-55.25l-95.32-55.25c-4.54-2.64-6.12-8.51-3.49-13.07l31.14-54.14
		c2.63-4.56,8.48-6.14,13.02-3.51l95.32,55.25V98.04c0-5.27,4.28-9.57,9.53-9.57h62.29c5.25,0,9.53,4.3,9.53,9.57v110.48
		l95.32-55.25c4.54-2.64,10.4-1.05,13.03,3.51l31.14,54.14c2.63,4.56,1.05,10.44-3.49,13.07L355.48,279.24z"/>
</g>
</svg>
