<?xml version="1.0" encoding="utf-8"?>
<svg xmlns:xlink="http://www.w3.org/1999/xlink" version="1.2" baseProfile="tiny" id="Layer_1"
     xmlns="http://www.w3.org/2000/svg"
     x="0px" y="0px" viewBox="0 0 841.9 135.2" overflow="visible" xml:space="preserve">
<g>
	<rect fill="#1F2937" width="842.2" height="135.2"/>
</g>
    <g>
	<g>
		<image width="830" height="78" xlink:href="6DD4325A.png" transform="matrix(1 0 0 1 6 53.6604)">
		</image>
	</g>
</g>
    <g>
	<path fill="#1F2937" d="M12,117V63c0-0.4,0-0.8,0.1-1.2c0.1-0.4,0.2-0.8,0.3-1.1c0.2-0.4,0.3-0.7,0.6-1c0.2-0.3,0.5-0.6,0.7-0.9
		c0.3-0.3,0.6-0.5,0.9-0.7c0.3-0.2,0.7-0.4,1-0.6c0.4-0.2,0.7-0.3,1.1-0.3C17.2,57,17.6,57,18,57h806.2c0.4,0,0.8,0,1.2,0.1
		c0.4,0.1,0.8,0.2,1.1,0.3c0.4,0.2,0.7,0.3,1,0.6c0.3,0.2,0.6,0.5,0.9,0.7c0.3,0.3,0.5,0.6,0.7,0.9c0.2,0.3,0.4,0.7,0.6,1
		c0.2,0.4,0.3,0.7,0.3,1.1c0.1,0.4,0.1,0.8,0.1,1.2v54c0,0.4,0,0.8-0.1,1.2c-0.1,0.4-0.2,0.8-0.3,1.1c-0.2,0.4-0.3,0.7-0.6,1
		c-0.2,0.3-0.5,0.6-0.7,0.9c-0.3,0.3-0.6,0.5-0.9,0.7c-0.3,0.2-0.7,0.4-1,0.6c-0.4,0.2-0.7,0.3-1.1,0.3c-0.4,0.1-0.8,0.1-1.2,0.1H18
		c-0.4,0-0.8,0-1.2-0.1c-0.4-0.1-0.8-0.2-1.1-0.3c-0.4-0.2-0.7-0.3-1-0.6c-0.3-0.2-0.6-0.5-0.9-0.7c-0.3-0.3-0.5-0.6-0.7-0.9
		c-0.2-0.3-0.4-0.7-0.6-1c-0.2-0.4-0.3-0.7-0.3-1.1C12,117.7,12,117.3,12,117z"/>
        <path fill="#374151" d="M12,90V63c0-0.4,0-0.8,0.1-1.2c0.1-0.4,0.2-0.8,0.3-1.1c0.2-0.4,0.3-0.7,0.6-1c0.2-0.3,0.5-0.6,0.7-0.9
		c0.3-0.3,0.6-0.5,0.9-0.7c0.3-0.2,0.7-0.4,1-0.6c0.4-0.2,0.7-0.3,1.1-0.3C17.2,57,17.6,57,18,57h806.2c0.4,0,0.8,0,1.2,0.1
		c0.4,0.1,0.8,0.2,1.1,0.3c0.4,0.2,0.7,0.3,1,0.6c0.3,0.2,0.6,0.5,0.9,0.7c0.3,0.3,0.5,0.6,0.7,0.9c0.2,0.3,0.4,0.7,0.6,1
		c0.2,0.4,0.3,0.7,0.3,1.1c0.1,0.4,0.1,0.8,0.1,1.2v27H12z"/>
        <path fill="#FFFFFF"
              d="M15.2,29.3h1.9L16,23h0.3L15.2,29.3z M12.3,33.7L15,20.2h2.2l2.6,13.5h-2.1l-0.4-2.3h-2.5l-0.4,2.3H12.3z"
        />
        <path fill="#FFFFFF" d="M23.7,26.3H25c0.4,0,0.6-0.1,0.8-0.3s0.3-0.5,0.3-0.9v-1.7c0-0.4-0.1-0.6-0.3-0.9c-0.2-0.2-0.5-0.3-0.8-0.3
		h-1.3V26.3z M21.6,33.7V20.2H25c1,0,1.8,0.3,2.3,0.9s0.9,1.4,0.9,2.4v1.7c0,1-0.3,1.7-0.9,2.3c-0.6,0.6-1.4,0.9-2.3,0.9h-1.3v5.3
		H21.6z"/>
        <rect x="30.1" y="20.2" fill="#FFFFFF" width="2.1" height="13.5"/>
        <polygon fill="#FFFFFF"
                 points="40.1,33.7 40.1,22.3 38,22.3 38,20.2 44.3,20.2 44.3,22.3 42.2,22.3 42.2,33.7 	"/>
        <path fill="#FFFFFF" d="M49,31.9c0.4,0,0.7-0.1,0.9-0.3c0.2-0.2,0.3-0.5,0.3-0.9v-7.4c0-0.4-0.1-0.7-0.3-0.9
		C49.7,22.1,49.4,22,49,22c-0.4,0-0.7,0.1-0.9,0.3c-0.2,0.2-0.3,0.5-0.3,0.9v7.4c0,0.4,0.1,0.7,0.3,0.9C48.3,31.8,48.6,31.9,49,31.9
		z M49,34c-1,0-1.8-0.3-2.4-0.9s-0.9-1.4-0.9-2.4v-7.4c0-1,0.3-1.8,0.9-2.4c0.6-0.6,1.4-0.9,2.4-0.9c1,0,1.8,0.3,2.4,0.9
		c0.6,0.6,0.9,1.4,0.9,2.4v7.4c0,1-0.3,1.8-0.9,2.4C50.8,33.7,50,34,49,34z"/>
        <path fill="#FFFFFF"
              d="M54.9,33.7V20.2H57v13.5H54.9z M59.9,33.7l-2.5-6.5l-0.6,0.9v-3.4l3.1-4.6h2.2l-3.3,4.9l3.3,8.6H59.9z"/>
        <polygon fill="#FFFFFF" points="69.4,20.2 69.4,22.3 65.9,22.3 65.9,25.6 68.9,25.6 68.9,27.7 65.9,27.7 65.9,31.6 69.4,31.6
		69.4,33.7 63.8,33.7 63.8,20.2 	"/>
        <polygon fill="#FFFFFF" points="71.6,33.7 71.6,20.2 73.2,20.2 76.6,29.7 76.1,29.7 76.1,20.2 78,20.2 78,33.7 76.4,33.7
		72.9,24.2 73.5,24.2 73.5,33.7 	"/>
        <path fill="#FFFFFF" d="M83.6,34c-1,0-1.8-0.3-2.4-0.9s-0.9-1.4-0.9-2.4V30h2.1v0.6c0,0.4,0.1,0.7,0.3,0.9c0.2,0.2,0.5,0.3,0.9,0.3
		c0.4,0,0.7-0.1,0.9-0.3c0.2-0.2,0.3-0.5,0.3-0.9v-1.3c0-0.2,0-0.4,0-0.5s-0.1-0.2-0.1-0.3s-0.2-0.1-0.4-0.2s-0.4-0.1-0.7-0.2
		c-0.8-0.3-1.5-0.5-1.9-0.6c-0.4-0.2-0.8-0.4-1-0.6c-0.2-0.2-0.3-0.5-0.4-0.8s-0.1-0.8-0.1-1.3v-1.6c0-1,0.3-1.8,0.9-2.4
		c0.6-0.6,1.4-0.9,2.4-0.9c1,0,1.8,0.3,2.4,0.9c0.6,0.6,0.9,1.4,0.9,2.4v0.6h-2.1v-0.6c0-0.4-0.1-0.7-0.3-0.9
		C84.3,22.1,84,22,83.6,22c-0.4,0-0.7,0.1-0.9,0.3c-0.2,0.2-0.3,0.5-0.3,0.9v1.6c0,0.2,0,0.4,0,0.5s0.1,0.2,0.1,0.3s0.2,0.1,0.4,0.2
		s0.4,0.1,0.7,0.2c0.8,0.3,1.5,0.5,1.9,0.6s0.8,0.4,1,0.6c0.2,0.2,0.3,0.5,0.4,0.8s0.1,0.8,0.1,1.3v1.3c0,1-0.3,1.8-0.9,2.4
		S84.6,34,83.6,34z"/>
</g>
    <g>
	<path fill="none" d="M93.8,16.5v12h12v-12H93.8z M103.2,25.9c0,0.3-0.1,0.6-0.3,0.8c-0.2,0.2-0.5,0.3-0.8,0.3h-5.8
		c-0.3,0-0.6-0.1-0.8-0.3c-0.2-0.2-0.3-0.5-0.3-0.8V20c0-0.3,0.1-0.6,0.3-0.8c0.2-0.2,0.5-0.3,0.8-0.3h2.3c0.3,0,0.5,0.2,0.5,0.5
		S98.9,20,98.6,20h-2.3L96.2,20v5.8l0.1,0.1h5.8l0.1-0.1v-2.4c0-0.3,0.2-0.5,0.5-0.5s0.5,0.2,0.5,0.5V25.9z M104.2,21.3
		c0,0.3-0.2,0.5-0.5,0.5s-0.5-0.2-0.5-0.5v-1.7l-3.1,3.1c-0.1,0.1-0.2,0.1-0.4,0.1s-0.3,0-0.4-0.1c-0.2-0.2-0.2-0.5,0-0.7l3.1-3.1
		h-1.7c-0.3,0-0.5-0.2-0.5-0.5s0.2-0.5,0.5-0.5h2.9c0.3,0,0.5,0.2,0.5,0.5V21.3z"/>
        <path fill="#FFFFFF" d="M102.8,23c-0.3,0-0.5,0.2-0.5,0.5v2.4l-0.1,0.1h-5.8l-0.1-0.1V20l0.1-0.1h2.3c0.3,0,0.5-0.2,0.5-0.5
		S98.9,19,98.6,19h-2.3c-0.3,0-0.6,0.1-0.8,0.3c-0.2,0.2-0.3,0.5-0.3,0.8v5.8c0,0.3,0.1,0.6,0.3,0.8c0.2,0.2,0.5,0.3,0.8,0.3h5.8
		c0.3,0,0.6-0.1,0.8-0.3c0.2-0.2,0.3-0.5,0.3-0.8v-2.4C103.2,23.2,103,23,102.8,23z"/>
        <path fill="#FFFFFF" d="M103.8,18h-2.9c-0.3,0-0.5,0.2-0.5,0.5s0.2,0.5,0.5,0.5h1.7L99.5,22c-0.2,0.2-0.2,0.5,0,0.7
		c0.1,0.1,0.2,0.1,0.4,0.1s0.3,0,0.4-0.1l3.1-3.1v1.7c0,0.3,0.2,0.5,0.5,0.5s0.5-0.2,0.5-0.5v-2.9C104.2,18.2,104,18,103.8,18z"/>
</g>
    <g>
	<path fill="#AA0000" d="M708.4,38.2V18.7c0-0.4,0-0.7,0.1-1.1c0.1-0.4,0.2-0.7,0.3-1.1c0.1-0.3,0.3-0.7,0.5-1
		c0.2-0.3,0.4-0.6,0.7-0.9c0.3-0.3,0.5-0.5,0.9-0.7c0.3-0.2,0.6-0.4,1-0.5c0.3-0.1,0.7-0.2,1.1-0.3c0.4-0.1,0.7-0.1,1.1-0.1h110.2
		c0.4,0,0.7,0,1.1,0.1c0.4,0.1,0.7,0.2,1.1,0.3c0.3,0.1,0.7,0.3,1,0.5c0.3,0.2,0.6,0.4,0.9,0.7c0.3,0.3,0.5,0.5,0.7,0.9
		c0.2,0.3,0.4,0.6,0.5,1c0.1,0.3,0.2,0.7,0.3,1.1c0.1,0.4,0.1,0.7,0.1,1.1v19.5c0,0.4,0,0.7-0.1,1.1c-0.1,0.4-0.2,0.7-0.3,1.1
		c-0.1,0.3-0.3,0.7-0.5,1c-0.2,0.3-0.4,0.6-0.7,0.9c-0.3,0.3-0.5,0.5-0.9,0.7c-0.3,0.2-0.6,0.4-1,0.5c-0.3,0.1-0.7,0.2-1.1,0.3
		c-0.4,0.1-0.7,0.1-1.1,0.1H714c-0.4,0-0.7,0-1.1-0.1c-0.4-0.1-0.7-0.2-1.1-0.3c-0.3-0.1-0.7-0.3-1-0.5c-0.3-0.2-0.6-0.4-0.9-0.7
		c-0.3-0.3-0.5-0.5-0.7-0.9c-0.2-0.3-0.4-0.6-0.5-1c-0.1-0.3-0.2-0.7-0.3-1.1C708.4,38.9,708.4,38.6,708.4,38.2z"/>
        <path fill="none" stroke="#AA0000" stroke-width="0.75" d="M708.4,38.2V18.7c0-0.4,0-0.7,0.1-1.1c0.1-0.4,0.2-0.7,0.3-1.1
		c0.1-0.3,0.3-0.7,0.5-1c0.2-0.3,0.4-0.6,0.7-0.9c0.3-0.3,0.5-0.5,0.9-0.7c0.3-0.2,0.6-0.4,1-0.5c0.3-0.1,0.7-0.2,1.1-0.3
		c0.4-0.1,0.7-0.1,1.1-0.1h110.2c0.4,0,0.7,0,1.1,0.1c0.4,0.1,0.7,0.2,1.1,0.3c0.3,0.1,0.7,0.3,1,0.5c0.3,0.2,0.6,0.4,0.9,0.7
		c0.3,0.3,0.5,0.5,0.7,0.9c0.2,0.3,0.4,0.6,0.5,1c0.1,0.3,0.2,0.7,0.3,1.1c0.1,0.4,0.1,0.7,0.1,1.1v19.5c0,0.4,0,0.7-0.1,1.1
		c-0.1,0.4-0.2,0.7-0.3,1.1c-0.1,0.3-0.3,0.7-0.5,1c-0.2,0.3-0.4,0.6-0.7,0.9c-0.3,0.3-0.5,0.5-0.9,0.7c-0.3,0.2-0.6,0.4-1,0.5
		c-0.3,0.1-0.7,0.2-1.1,0.3c-0.4,0.1-0.7,0.1-1.1,0.1H714c-0.4,0-0.7,0-1.1-0.1c-0.4-0.1-0.7-0.2-1.1-0.3c-0.3-0.1-0.7-0.3-1-0.5
		c-0.3-0.2-0.6-0.4-0.9-0.7c-0.3-0.3-0.5-0.5-0.7-0.9c-0.2-0.3-0.4-0.6-0.5-1c-0.1-0.3-0.2-0.7-0.3-1.1
		C708.4,38.9,708.4,38.6,708.4,38.2z"/>
        <path fill="#FFFFFF" d="M727.8,32.3c-0.7,0-1.2-0.2-1.8-0.5s-0.9-0.8-1.2-1.3s-0.4-1.3-0.4-2.1c0-0.8,0.1-1.5,0.4-2.1
		s0.7-1,1.2-1.4s1.1-0.5,1.8-0.5c0.4,0,0.8,0.1,1.1,0.2s0.7,0.3,0.9,0.5s0.5,0.5,0.7,0.8s0.3,0.7,0.4,1.1h-1.2
		c0-0.2-0.1-0.5-0.3-0.6s-0.3-0.3-0.4-0.5s-0.4-0.2-0.6-0.3s-0.4-0.1-0.7-0.1c-0.4,0-0.8,0.1-1.2,0.3s-0.6,0.5-0.8,1
		s-0.3,0.9-0.3,1.6s0.1,1.1,0.3,1.6s0.5,0.7,0.8,1s0.7,0.3,1.2,0.3c0.2,0,0.5,0,0.7-0.1s0.4-0.2,0.6-0.3s0.3-0.3,0.4-0.5
		s0.2-0.4,0.3-0.6h1.2c-0.1,0.4-0.2,0.7-0.4,1s-0.4,0.6-0.7,0.8s-0.6,0.4-1,0.5S728.2,32.3,727.8,32.3z"/>
        <path fill="#FFFFFF" d="M732.2,32.2v-5.7h1.1v0.9h0.1c0.1-0.3,0.3-0.6,0.6-0.7s0.6-0.3,0.9-0.3c0.1,0,0.2,0,0.2,0s0.2,0,0.2,0v1.1
		c0,0-0.1,0-0.2,0s-0.2,0-0.4,0c-0.3,0-0.5,0.1-0.7,0.2s-0.4,0.3-0.5,0.5s-0.2,0.4-0.2,0.7v3.5H732.2z"/>
        <path fill="#FFFFFF" d="M738.6,32.3c-0.6,0-1.1-0.1-1.5-0.4s-0.7-0.6-0.9-1s-0.3-1-0.3-1.6c0-0.6,0.1-1.1,0.3-1.6s0.5-0.8,0.9-1
		s0.9-0.4,1.4-0.4c0.3,0,0.6,0.1,0.9,0.2s0.6,0.3,0.8,0.5s0.4,0.5,0.6,0.9s0.2,0.8,0.2,1.3v0.4h-4.6v-0.8h4l-0.5,0.3
		c0-0.4-0.1-0.7-0.2-0.9s-0.3-0.5-0.5-0.6s-0.5-0.2-0.8-0.2c-0.3,0-0.6,0.1-0.8,0.2s-0.4,0.4-0.5,0.6S737,28.7,737,29v0.6
		c0,0.4,0.1,0.7,0.2,1s0.3,0.5,0.6,0.6s0.5,0.2,0.8,0.2c0.2,0,0.4,0,0.6-0.1s0.3-0.2,0.4-0.3s0.2-0.3,0.3-0.4l1.1,0.3
		c-0.1,0.3-0.2,0.6-0.5,0.8s-0.5,0.4-0.8,0.5S739,32.3,738.6,32.3z"/>
        <path fill="#FFFFFF" d="M744.2,31.4c0.3,0,0.6-0.1,0.8-0.2s0.4-0.3,0.5-0.5s0.2-0.4,0.2-0.6v-0.7c0,0-0.1,0.1-0.2,0.1
		s-0.2,0.1-0.4,0.1s-0.3,0-0.4,0.1s-0.2,0-0.3,0c-0.2,0-0.4,0.1-0.6,0.1s-0.3,0.2-0.4,0.3s-0.2,0.3-0.2,0.5c0,0.2,0,0.3,0.1,0.5
		s0.2,0.2,0.4,0.3S744,31.4,744.2,31.4z M744,32.3c-0.4,0-0.7-0.1-1-0.2s-0.5-0.3-0.7-0.6s-0.3-0.6-0.3-1c0-0.3,0.1-0.6,0.2-0.8
		s0.3-0.4,0.5-0.5s0.5-0.2,0.7-0.3s0.5-0.1,0.8-0.1c0.3,0,0.6-0.1,0.8-0.1s0.4-0.1,0.5-0.1s0.2-0.2,0.2-0.3v0c0-0.2,0-0.4-0.1-0.5
		s-0.2-0.3-0.4-0.3s-0.4-0.1-0.6-0.1c-0.2,0-0.5,0-0.6,0.1s-0.3,0.2-0.4,0.3s-0.2,0.2-0.2,0.4l-1.1-0.3c0.1-0.3,0.3-0.6,0.6-0.8
		s0.5-0.4,0.8-0.5s0.6-0.1,1-0.1c0.2,0,0.5,0,0.7,0.1s0.5,0.2,0.7,0.3s0.4,0.3,0.6,0.6s0.2,0.6,0.2,1v3.8h-1.1v-0.8h-0.1
		c-0.1,0.1-0.2,0.3-0.3,0.4s-0.3,0.3-0.6,0.3S744.3,32.3,744,32.3z"/>
        <path fill="#FFFFFF" d="M748.5,25.1h1.1v5.5c0,0.2,0,0.4,0.1,0.5s0.3,0.2,0.5,0.2c0.1,0,0.1,0,0.2,0s0.2,0,0.2,0l0.2,0.9
		c-0.1,0-0.2,0.1-0.4,0.1s-0.3,0-0.4,0c-0.5,0-0.9-0.1-1.2-0.4s-0.4-0.6-0.4-1.1V25.1z M750.8,26.5v0.9h-3.1v-0.9H750.8z"/>
        <path fill="#FFFFFF" d="M754.3,32.3c-0.6,0-1.1-0.1-1.5-0.4s-0.7-0.6-0.9-1s-0.3-1-0.3-1.6c0-0.6,0.1-1.1,0.3-1.6s0.5-0.8,0.9-1
		s0.9-0.4,1.4-0.4c0.3,0,0.6,0.1,0.9,0.2s0.6,0.3,0.8,0.5s0.4,0.5,0.6,0.9s0.2,0.8,0.2,1.3v0.4h-4.6v-0.8h4l-0.5,0.3
		c0-0.4-0.1-0.7-0.2-0.9s-0.3-0.5-0.5-0.6s-0.5-0.2-0.8-0.2c-0.3,0-0.6,0.1-0.8,0.2s-0.4,0.4-0.5,0.6s-0.2,0.5-0.2,0.8v0.6
		c0,0.4,0.1,0.7,0.2,1s0.3,0.5,0.6,0.6s0.5,0.2,0.8,0.2c0.2,0,0.4,0,0.6-0.1s0.3-0.2,0.4-0.3s0.2-0.3,0.3-0.4l1.1,0.3
		c-0.1,0.3-0.2,0.6-0.5,0.8s-0.5,0.4-0.8,0.5S754.7,32.3,754.3,32.3z"/>
        <polygon fill="#FFFFFF"
                 points="760.5,25.6 760.5,24.6 766.4,24.6 766.4,25.6 764,25.6 764,32.2 762.9,32.2 762.8,25.6 	"/>
        <path fill="#FFFFFF" d="M769.2,31.4c0.3,0,0.6-0.1,0.9-0.3s0.4-0.4,0.5-0.7s0.2-0.6,0.2-1c0-0.4-0.1-0.7-0.2-1s-0.3-0.6-0.5-0.7
		s-0.5-0.3-0.9-0.3c-0.3,0-0.6,0.1-0.9,0.3s-0.4,0.4-0.5,0.7s-0.2,0.6-0.2,1c0,0.4,0.1,0.7,0.2,1s0.3,0.5,0.5,0.7
		S768.9,31.4,769.2,31.4z M769.2,32.3c-0.5,0-1-0.1-1.4-0.4s-0.7-0.6-0.9-1s-0.3-1-0.3-1.5c0-0.6,0.1-1.1,0.3-1.6s0.5-0.8,0.9-1
		s0.9-0.4,1.4-0.4c0.5,0,1,0.1,1.4,0.4s0.7,0.6,0.9,1s0.3,1,0.3,1.6c0,0.6-0.1,1.1-0.3,1.5s-0.5,0.8-0.9,1S769.7,32.3,769.2,32.3z"
        />
        <path fill="#FFFFFF" d="M776.7,32.2l-2-2.7l0.8-0.8l2.7,3.5H776.7z M773.1,32.2v-7.6h1.1v7.6H773.1z M774.2,30.3v-1.4h0.2l2.3-2.4
		h1.4l-2.6,2.8h-0.2L774.2,30.3z"/>
        <path fill="#FFFFFF" d="M781.2,32.3c-0.6,0-1.1-0.1-1.5-0.4s-0.7-0.6-0.9-1s-0.3-1-0.3-1.6c0-0.6,0.1-1.1,0.3-1.6s0.5-0.8,0.9-1
		s0.9-0.4,1.4-0.4c0.3,0,0.6,0.1,0.9,0.2s0.6,0.3,0.8,0.5s0.4,0.5,0.6,0.9s0.2,0.8,0.2,1.3v0.4h-4.6v-0.8h4l-0.5,0.3
		c0-0.4-0.1-0.7-0.2-0.9s-0.3-0.5-0.5-0.6s-0.5-0.2-0.8-0.2c-0.3,0-0.6,0.1-0.8,0.2s-0.4,0.4-0.5,0.6s-0.2,0.5-0.2,0.8v0.6
		c0,0.4,0.1,0.7,0.2,1s0.3,0.5,0.6,0.6s0.5,0.2,0.8,0.2c0.2,0,0.4,0,0.6-0.1s0.3-0.2,0.4-0.3s0.2-0.3,0.3-0.4l1.1,0.3
		c-0.1,0.3-0.2,0.6-0.5,0.8s-0.5,0.4-0.8,0.5S781.7,32.3,781.2,32.3z"/>
        <path fill="#FFFFFF" d="M786.1,28.8v3.4h-1.1v-5.7h1.1l0,1.4h-0.1c0.2-0.5,0.4-0.9,0.7-1.1s0.7-0.4,1.2-0.4c0.4,0,0.7,0.1,1,0.2
		s0.5,0.4,0.7,0.7s0.2,0.7,0.2,1.2v3.6h-1.1v-3.5c0-0.4-0.1-0.7-0.3-1s-0.5-0.3-0.9-0.3c-0.3,0-0.5,0.1-0.7,0.2s-0.4,0.3-0.5,0.5
		S786.1,28.5,786.1,28.8z"/>
</g>
    <g>
	<path fill="none" d="M809.2,23.1v4.7h4.7c0.4,0,0.7,0.3,0.7,0.7v-6h-6C808.9,22.5,809.2,22.7,809.2,23.1z"/>
        <path fill="none" d="M807.8,33.8v-4.7h-4.7c-0.4,0-0.7-0.3-0.7-0.7s0.3-0.7,0.7-0.7h4.7v-4.7c0-0.4,0.3-0.7,0.7-0.7h-6v12h6
		C808.1,34.5,807.8,34.2,807.8,33.8z"/>
        <path fill="none" d="M813.8,29.1h-4.7v4.7c0,0.4-0.3,0.7-0.7,0.7h6v-6C814.5,28.8,814.2,29.1,813.8,29.1z"/>
        <path fill="#FFFFFF" d="M809.2,33.8v-4.7h4.7c0.4,0,0.7-0.3,0.7-0.7v0c0-0.4-0.3-0.7-0.7-0.7h-4.7v-4.7c0-0.4-0.3-0.7-0.7-0.7
		s-0.7,0.3-0.7,0.7v4.7h-4.7c-0.4,0-0.7,0.3-0.7,0.7s0.3,0.7,0.7,0.7h4.7v4.7c0,0.4,0.3,0.7,0.7,0.7S809.2,34.2,809.2,33.8z"/>
</g>
    <g>
	<polygon fill="#9CA3AF" points="21.8,76.5 21.8,68.6 22.8,68.6 24.8,74.1 24.4,74.1 24.4,68.6 25.6,68.6 25.6,76.5 24.6,76.5
		22.6,70.9 22.9,70.9 22.9,76.5 	"/>
        <path fill="#9CA3AF" d="M28.3,73.9h1.1l-0.6-3.7h0.2L28.3,73.9z M26.6,76.5l1.6-7.9h1.3l1.5,7.9h-1.2l-0.2-1.3h-1.5l-0.2,1.3H26.6z
		"/>
        <polygon fill="#9CA3AF" points="32,76.5 32,68.6 33.1,68.6 34.8,74.9 34.5,74.9 36.2,68.6 37.3,68.6 37.3,76.5 36.2,76.5
		36.2,71.9 36.3,71.9 35.1,76.5 34.3,76.5 33,71.9 33.1,71.9 33.1,76.5 	"/>
        <polygon fill="#9CA3AF" points="42.2,68.6 42.2,69.8 40.1,69.8 40.1,71.8 41.9,71.8 41.9,73 40.1,73 40.1,75.2 42.2,75.2
		42.2,76.5 38.9,76.5 38.9,68.6 	"/>
        <polygon fill="#9CA3AF" points="356.5,68.6 356.5,75.2 358.3,75.2 358.3,76.5 355.3,76.5 355.3,68.6 	"/>
        <path fill="#9CA3AF" d="M360.3,73.9h1.1l-0.6-3.7h0.2L360.3,73.9z M358.6,76.5l1.6-7.9h1.3l1.5,7.9h-1.2l-0.2-1.3h-1.5l-0.2,1.3
		H358.6z"/>
        <path fill="#9CA3AF" d="M365.7,76.6c-0.6,0-1-0.2-1.4-0.5c-0.3-0.4-0.5-0.8-0.5-1.4v-0.4h1.2v0.4c0,0.2,0.1,0.4,0.2,0.5
		s0.3,0.2,0.5,0.2s0.4-0.1,0.5-0.2s0.2-0.3,0.2-0.5v-0.7c0-0.1,0-0.2,0-0.3s0-0.1-0.1-0.2s-0.1-0.1-0.2-0.1c-0.1,0-0.2-0.1-0.4-0.1
		c-0.5-0.2-0.9-0.3-1.1-0.4c-0.3-0.1-0.5-0.2-0.6-0.3c-0.1-0.1-0.2-0.3-0.2-0.5c0-0.2,0-0.4,0-0.8v-0.9c0-0.6,0.2-1.1,0.5-1.4
		c0.3-0.4,0.8-0.5,1.4-0.5c0.6,0,1,0.2,1.4,0.5c0.3,0.4,0.5,0.8,0.5,1.4v0.4h-1.2v-0.4c0-0.2-0.1-0.4-0.2-0.5s-0.3-0.2-0.5-0.2
		s-0.4,0.1-0.5,0.2s-0.2,0.3-0.2,0.5v0.9c0,0.1,0,0.2,0,0.3c0,0.1,0,0.1,0.1,0.2c0,0,0.1,0.1,0.2,0.1c0.1,0,0.2,0.1,0.4,0.1
		c0.5,0.1,0.9,0.3,1.1,0.4c0.3,0.1,0.5,0.2,0.6,0.3c0.1,0.1,0.2,0.3,0.2,0.5c0,0.2,0,0.4,0,0.8v0.7c0,0.6-0.2,1.1-0.5,1.4
		C366.8,76.4,366.3,76.6,365.7,76.6z"/>
        <polygon fill="#9CA3AF"
                 points="369.5,76.5 369.5,69.8 368.3,69.8 368.3,68.6 372,68.6 372,69.8 370.7,69.8 370.7,76.5 	"/>
        <path fill="#9CA3AF" d="M379.1,68.6v6.1c0,0.6-0.2,1.1-0.5,1.4c-0.3,0.4-0.8,0.5-1.4,0.5c-0.6,0-1-0.2-1.4-0.5
		c-0.3-0.4-0.5-0.8-0.5-1.4v-6.1h1.2v6.1c0,0.2,0.1,0.4,0.2,0.5s0.3,0.2,0.5,0.2c0.2,0,0.4-0.1,0.5-0.2c0.1-0.1,0.2-0.3,0.2-0.5
		v-6.1H379.1z"/>
        <path fill="#9CA3AF" d="M382.4,76.6c-0.6,0-1-0.2-1.4-0.5c-0.3-0.4-0.5-0.8-0.5-1.4v-0.4h1.2v0.4c0,0.2,0.1,0.4,0.2,0.5
		s0.3,0.2,0.5,0.2s0.4-0.1,0.5-0.2s0.2-0.3,0.2-0.5v-0.7c0-0.1,0-0.2,0-0.3s0-0.1-0.1-0.2s-0.1-0.1-0.2-0.1c-0.1,0-0.2-0.1-0.4-0.1
		c-0.5-0.2-0.9-0.3-1.1-0.4c-0.3-0.1-0.5-0.2-0.6-0.3c-0.1-0.1-0.2-0.3-0.2-0.5c0-0.2,0-0.4,0-0.8v-0.9c0-0.6,0.2-1.1,0.5-1.4
		c0.3-0.4,0.8-0.5,1.4-0.5c0.6,0,1,0.2,1.4,0.5c0.3,0.4,0.5,0.8,0.5,1.4v0.4h-1.2v-0.4c0-0.2-0.1-0.4-0.2-0.5s-0.3-0.2-0.5-0.2
		s-0.4,0.1-0.5,0.2s-0.2,0.3-0.2,0.5v0.9c0,0.1,0,0.2,0,0.3c0,0.1,0,0.1,0.1,0.2c0,0,0.1,0.1,0.2,0.1c0.1,0,0.2,0.1,0.4,0.1
		c0.5,0.1,0.9,0.3,1.1,0.4c0.3,0.1,0.5,0.2,0.6,0.3c0.1,0.1,0.2,0.3,0.2,0.5c0,0.2,0,0.4,0,0.8v0.7c0,0.6-0.2,1.1-0.5,1.4
		C383.4,76.4,382.9,76.6,382.4,76.6z"/>
        <polygon fill="#9CA3AF" points="388.8,68.6 388.8,69.8 386.8,69.8 386.8,71.8 388.6,71.8 388.6,73 386.8,73 386.8,75.2 388.8,75.2
		388.8,76.5 385.6,76.5 385.6,68.6 	"/>
        <path fill="#9CA3AF" d="M391.3,75.2h0.7c0.2,0,0.4-0.1,0.5-0.2c0.1-0.1,0.2-0.3,0.2-0.5v-4c0-0.2-0.1-0.4-0.2-0.5
		c-0.1-0.1-0.3-0.2-0.5-0.2h-0.7V75.2z M390.1,76.5v-7.9h1.9c0.6,0,1,0.2,1.4,0.5c0.3,0.4,0.5,0.8,0.5,1.4v4c0,0.6-0.2,1.1-0.5,1.4
		c-0.3,0.4-0.8,0.5-1.4,0.5H390.1z"/>
        <polygon fill="#9CA3AF" points="558.5,68.6 558.5,69.8 556.5,69.8 556.5,71.8 558.3,71.8 558.3,73 556.5,73 556.5,75.2 558.5,75.2
		558.5,76.5 555.3,76.5 555.3,68.6 	"/>
        <polygon fill="#9CA3AF" points="559.2,76.5 560.8,72.5 559.2,68.6 560.4,68.6 561.6,71.4 561.2,71.4 562.3,68.6 563.6,68.6
		562,72.5 563.6,76.5 562.3,76.5 561.2,73.6 561.6,73.6 560.4,76.5 	"/>
        <path fill="#9CA3AF" d="M565.8,72.1h0.7c0.2,0,0.4-0.1,0.5-0.2s0.2-0.3,0.2-0.5v-1c0-0.2-0.1-0.4-0.2-0.5s-0.3-0.2-0.5-0.2h-0.7
		V72.1z M564.6,76.5v-7.9h1.9c0.6,0,1,0.2,1.4,0.5c0.3,0.3,0.5,0.8,0.5,1.4v1c0,0.6-0.2,1-0.5,1.4s-0.8,0.5-1.4,0.5h-0.7v3.1H564.6z
		"/>
        <rect x="569.5" y="68.6" fill="#9CA3AF" width="1.2" height="7.9"/>
        <path fill="#9CA3AF" d="M573.6,72.3h0.7c0.2,0,0.4-0.1,0.5-0.2c0.1-0.1,0.2-0.3,0.2-0.5v-1.2c0-0.2-0.1-0.4-0.2-0.5
		s-0.3-0.2-0.5-0.2h-0.7V72.3z M572.4,76.5v-7.9h1.9c0.6,0,1,0.2,1.4,0.5c0.3,0.3,0.5,0.8,0.5,1.4v1.2c0,0.4-0.1,0.7-0.2,1
		c-0.1,0.3-0.4,0.5-0.6,0.7l-0.1-0.4c0.3,0.1,0.5,0.3,0.7,0.5c0.2,0.2,0.2,0.5,0.2,0.8v2.2H575v-2.2c0-0.2-0.1-0.4-0.2-0.5
		c-0.1-0.1-0.3-0.2-0.5-0.2h-0.7v2.9H572.4z"/>
        <path fill="#9CA3AF" d="M578.7,73.9h1.1l-0.6-3.7h0.2L578.7,73.9z M577.1,76.5l1.6-7.9h1.3l1.5,7.9h-1.2l-0.2-1.3h-1.5l-0.2,1.3
		H577.1z"/>
        <polygon fill="#9CA3AF"
                 points="582.9,76.5 582.9,69.8 581.6,69.8 581.6,68.6 585.3,68.6 585.3,69.8 584.1,69.8 584.1,76.5 	"/>
        <rect x="586.2" y="68.6" fill="#9CA3AF" width="1.2" height="7.9"/>
        <path fill="#9CA3AF" d="M590.9,75.4c0.2,0,0.4-0.1,0.5-0.2c0.1-0.1,0.2-0.3,0.2-0.5v-4.3c0-0.2-0.1-0.4-0.2-0.5
		c-0.1-0.1-0.3-0.2-0.5-0.2s-0.4,0.1-0.5,0.2c-0.1,0.1-0.2,0.3-0.2,0.5v4.3c0,0.2,0.1,0.4,0.2,0.5C590.5,75.3,590.7,75.4,590.9,75.4
		z M590.9,76.6c-0.6,0-1-0.2-1.4-0.5c-0.3-0.4-0.5-0.8-0.5-1.4v-4.3c0-0.6,0.2-1.1,0.5-1.4c0.3-0.4,0.8-0.5,1.4-0.5
		c0.6,0,1,0.2,1.4,0.5c0.3,0.4,0.5,0.8,0.5,1.4v4.3c0,0.6-0.2,1.1-0.5,1.4C591.9,76.4,591.5,76.6,590.9,76.6z"/>
        <polygon fill="#9CA3AF" points="594.3,76.5 594.3,68.6 595.3,68.6 597.3,74.1 597,74.1 597,68.6 598.1,68.6 598.1,76.5 597.2,76.5
		595.1,70.9 595.5,70.9 595.5,76.5 	"/>
        <path fill="#FFFFFF" d="M22.7,108.2v-1h4v1H22.7z M21.3,110.2l2.7-7.6h1.4l2.8,7.6h-1.3l-1.5-4.3c-0.1-0.3-0.2-0.8-0.4-1.2
		s-0.3-1-0.5-1.7h0.2c-0.2,0.7-0.3,1.2-0.5,1.7s-0.3,0.9-0.4,1.2l-1.4,4.3H21.3z"/>
        <path fill="#FFFFFF" d="M29.2,110.2v-5.7h1.1v0.9h0.1c0.1-0.3,0.3-0.6,0.6-0.7s0.6-0.3,0.9-0.3c0.1,0,0.2,0,0.2,0s0.2,0,0.2,0v1.1
		c0,0-0.1,0-0.2,0s-0.2,0-0.4,0c-0.3,0-0.5,0.1-0.7,0.2s-0.4,0.3-0.5,0.5s-0.2,0.4-0.2,0.7v3.5H29.2z"/>
        <path fill="#FFFFFF" d="M37,110.2l-2-2.7l0.8-0.8l2.7,3.5H37z M33.4,110.2v-7.6h1.1v7.6H33.4z M34.5,108.3v-1.4h0.2l2.3-2.4h1.4
		l-2.6,2.8h-0.2L34.5,108.3z"/>
        <path fill="#FFFFFF" d="M41.2,109.4c0.3,0,0.6-0.1,0.8-0.2s0.4-0.3,0.5-0.5s0.2-0.4,0.2-0.6v-0.7c0,0-0.1,0.1-0.2,0.1
		s-0.2,0.1-0.4,0.1s-0.3,0-0.4,0.1s-0.2,0-0.3,0c-0.2,0-0.4,0.1-0.6,0.1s-0.3,0.2-0.4,0.3s-0.2,0.3-0.2,0.5c0,0.2,0,0.3,0.1,0.5
		s0.2,0.2,0.4,0.3S40.9,109.4,41.2,109.4z M40.9,110.3c-0.4,0-0.7-0.1-1-0.2s-0.5-0.3-0.7-0.6s-0.3-0.6-0.3-1c0-0.3,0.1-0.6,0.2-0.8
		s0.3-0.4,0.5-0.5s0.5-0.2,0.7-0.3s0.5-0.1,0.8-0.1c0.3,0,0.6-0.1,0.8-0.1s0.4-0.1,0.5-0.1s0.2-0.2,0.2-0.3v0c0-0.2,0-0.4-0.1-0.5
		s-0.2-0.3-0.4-0.3s-0.4-0.1-0.6-0.1c-0.2,0-0.5,0-0.6,0.1s-0.3,0.2-0.4,0.3s-0.2,0.2-0.2,0.4l-1.1-0.3c0.1-0.3,0.3-0.6,0.6-0.8
		s0.5-0.4,0.8-0.5s0.6-0.1,1-0.1c0.2,0,0.5,0,0.7,0.1s0.5,0.2,0.7,0.3s0.4,0.3,0.6,0.6s0.2,0.6,0.2,1v3.8h-1.1v-0.8h-0.1
		c-0.1,0.1-0.2,0.3-0.3,0.4s-0.3,0.3-0.6,0.3S41.2,110.3,40.9,110.3z"/>
        <path fill="#FFFFFF" d="M46.4,106.8v3.4h-1.1v-5.7h1.1l0,1.4h-0.1c0.2-0.5,0.4-0.9,0.7-1.1s0.7-0.4,1.2-0.4c0.4,0,0.7,0.1,1,0.2
		s0.5,0.4,0.7,0.7s0.2,0.7,0.2,1.2v3.6h-1.1v-3.5c0-0.4-0.1-0.7-0.3-1s-0.5-0.3-0.9-0.3c-0.3,0-0.5,0.1-0.7,0.2s-0.4,0.3-0.5,0.5
		S46.4,106.5,46.4,106.8z"/>
        <path fill="#FFFFFF" d="M52.1,103.6c-0.2,0-0.4-0.1-0.5-0.2s-0.2-0.3-0.2-0.5c0-0.2,0.1-0.3,0.2-0.5s0.3-0.2,0.5-0.2
		c0.2,0,0.4,0.1,0.5,0.2s0.2,0.3,0.2,0.5c0,0.2-0.1,0.3-0.2,0.5S52.3,103.6,52.1,103.6z M51.6,110.2v-5.7h1.1l0,5.7H51.6z"/>
        <path fill="#FFFFFF" d="M56.3,110.3c-0.4,0-0.8-0.1-1.1-0.2s-0.6-0.3-0.8-0.5s-0.3-0.5-0.4-0.9l1.1-0.2c0.1,0.3,0.2,0.5,0.4,0.7
		s0.5,0.2,0.8,0.2c0.4,0,0.7-0.1,0.9-0.2s0.3-0.3,0.3-0.5c0-0.2-0.1-0.3-0.2-0.5s-0.3-0.2-0.6-0.3l-1-0.2c-0.5-0.1-0.9-0.3-1.2-0.6
		s-0.4-0.6-0.4-1c0-0.3,0.1-0.6,0.3-0.9s0.5-0.5,0.8-0.6s0.7-0.2,1.1-0.2c0.4,0,0.8,0.1,1.1,0.2s0.5,0.3,0.7,0.5s0.3,0.5,0.4,0.7
		l-1,0.2c-0.1-0.2-0.2-0.4-0.4-0.5s-0.4-0.2-0.8-0.2c-0.3,0-0.6,0.1-0.8,0.2s-0.3,0.3-0.3,0.5c0,0.2,0.1,0.3,0.2,0.5
		s0.4,0.2,0.7,0.3l0.9,0.2c0.5,0.1,0.9,0.3,1.2,0.6s0.4,0.6,0.4,1c0,0.3-0.1,0.7-0.3,0.9s-0.5,0.5-0.8,0.6S56.7,110.3,56.3,110.3z"
        />
        <path fill="#FFFFFF" d="M65.9,109.2c0.4,0,0.8-0.1,1.2-0.3s0.6-0.5,0.8-1s0.3-0.9,0.3-1.6c0-0.6-0.1-1.1-0.3-1.6s-0.5-0.7-0.8-1
		s-0.7-0.3-1.2-0.3c-0.4,0-0.8,0.1-1.2,0.3s-0.6,0.5-0.8,1s-0.3,0.9-0.3,1.6c0,0.6,0.1,1.1,0.3,1.6s0.5,0.7,0.8,1
		S65.5,109.2,65.9,109.2z M65.9,110.3c-0.7,0-1.3-0.2-1.8-0.5s-0.9-0.8-1.2-1.3s-0.4-1.3-0.4-2.1c0-0.8,0.1-1.5,0.4-2.1
		s0.7-1,1.2-1.4s1.1-0.5,1.8-0.5s1.2,0.2,1.8,0.5s0.9,0.8,1.2,1.4s0.4,1.3,0.4,2.1c0,0.8-0.1,1.5-0.4,2.1s-0.7,1-1.2,1.3
		S66.6,110.3,65.9,110.3z"/>
        <path fill="#FFFFFF" d="M72.4,110.2l-2.2-5.7h1.2l1.1,3.3c0.1,0.4,0.2,0.7,0.3,1.1s0.2,0.7,0.3,1.1h-0.3c0.1-0.4,0.2-0.7,0.3-1.1
		s0.2-0.7,0.3-1.1l1.1-3.3h1.2l-2.2,5.7H72.4z"/>
        <path fill="#FFFFFF" d="M79,110.3c-0.6,0-1.1-0.1-1.5-0.4s-0.7-0.6-0.9-1s-0.3-1-0.3-1.6c0-0.6,0.1-1.1,0.3-1.6s0.5-0.8,0.9-1
		s0.9-0.4,1.4-0.4c0.3,0,0.6,0.1,0.9,0.2s0.6,0.3,0.8,0.5s0.4,0.5,0.6,0.9s0.2,0.8,0.2,1.3v0.4h-4.6v-0.8h4l-0.5,0.3
		c0-0.4-0.1-0.7-0.2-0.9s-0.3-0.5-0.5-0.6s-0.5-0.2-0.8-0.2c-0.3,0-0.6,0.1-0.8,0.2s-0.4,0.4-0.5,0.6s-0.2,0.5-0.2,0.8v0.6
		c0,0.4,0.1,0.7,0.2,1s0.3,0.5,0.6,0.6s0.5,0.2,0.8,0.2c0.2,0,0.4,0,0.6-0.1s0.3-0.2,0.4-0.3s0.2-0.3,0.3-0.4l1.1,0.3
		c-0.1,0.3-0.2,0.6-0.5,0.8s-0.5,0.4-0.8,0.5S79.4,110.3,79,110.3z"/>
        <path fill="#FFFFFF" d="M82.7,110.2v-5.7h1.1v0.9h0.1c0.1-0.3,0.3-0.6,0.6-0.7s0.6-0.3,0.9-0.3c0.1,0,0.2,0,0.2,0s0.2,0,0.2,0v1.1
		c0,0-0.1,0-0.2,0s-0.2,0-0.4,0c-0.3,0-0.5,0.1-0.7,0.2s-0.4,0.3-0.5,0.5s-0.2,0.4-0.2,0.7v3.5H82.7z"/>
        <rect x="87" y="102.6" fill="#FFFFFF" width="1.1" height="7.6"/>
        <path fill="#FFFFFF" d="M91.5,109.4c0.3,0,0.6-0.1,0.8-0.2s0.4-0.3,0.5-0.5s0.2-0.4,0.2-0.6v-0.7c0,0-0.1,0.1-0.2,0.1
		s-0.2,0.1-0.4,0.1s-0.3,0-0.4,0.1s-0.2,0-0.3,0c-0.2,0-0.4,0.1-0.6,0.1s-0.3,0.2-0.4,0.3s-0.2,0.3-0.2,0.5c0,0.2,0,0.3,0.1,0.5
		s0.2,0.2,0.4,0.3S91.2,109.4,91.5,109.4z M91.2,110.3c-0.4,0-0.7-0.1-1-0.2s-0.5-0.3-0.7-0.6s-0.3-0.6-0.3-1c0-0.3,0.1-0.6,0.2-0.8
		s0.3-0.4,0.5-0.5s0.5-0.2,0.7-0.3s0.5-0.1,0.8-0.1c0.3,0,0.6-0.1,0.8-0.1s0.4-0.1,0.5-0.1s0.2-0.2,0.2-0.3v0c0-0.2,0-0.4-0.1-0.5
		s-0.2-0.3-0.4-0.3s-0.4-0.1-0.6-0.1c-0.2,0-0.5,0-0.6,0.1s-0.3,0.2-0.4,0.3s-0.2,0.2-0.2,0.4l-1.1-0.3c0.1-0.3,0.3-0.6,0.6-0.8
		s0.5-0.4,0.8-0.5s0.6-0.1,1-0.1c0.2,0,0.5,0,0.7,0.1s0.5,0.2,0.7,0.3s0.4,0.3,0.6,0.6s0.2,0.6,0.2,1v3.8H93v-0.8h-0.1
		c-0.1,0.1-0.2,0.3-0.3,0.4s-0.3,0.3-0.6,0.3S91.5,110.3,91.2,110.3z"/>
        <path fill="#FFFFFF" d="M95.3,112.3l0.3-0.9l0.1,0c0.2,0.1,0.4,0.1,0.5,0s0.3-0.1,0.4-0.2s0.2-0.3,0.3-0.6l0.1-0.4l-2.2-5.8h1.2
		l1.1,3.3c0.1,0.4,0.2,0.7,0.3,1.1s0.2,0.7,0.3,1.1h-0.3c0.1-0.4,0.2-0.7,0.3-1.1s0.2-0.7,0.3-1.1l1.2-3.3h1.2L98,111
		c-0.1,0.3-0.3,0.6-0.4,0.8s-0.4,0.4-0.6,0.5s-0.5,0.2-0.8,0.2c-0.2,0-0.3,0-0.5,0S95.4,112.3,95.3,112.3z"/>
        <rect x="354" y="110.8" fill="#9CA3AF" width="0.8" height="1"/>
        <rect x="355.5" y="110.8" fill="#9CA3AF" width="0.8" height="1"/>
        <rect x="357" y="110.8" fill="#9CA3AF" width="0.8" height="1"/>
        <rect x="358.5" y="110.8" fill="#9CA3AF" width="0.8" height="1"/>
        <rect x="360" y="110.8" fill="#9CA3AF" width="0.8" height="1"/>
        <rect x="361.5" y="110.8" fill="#9CA3AF" width="0.8" height="1"/>
        <rect x="363" y="110.8" fill="#9CA3AF" width="0.8" height="1"/>
        <rect x="364.5" y="110.8" fill="#9CA3AF" width="0.8" height="1"/>
        <rect x="366" y="110.8" fill="#9CA3AF" width="0.8" height="1"/>
        <rect x="367.5" y="110.8" fill="#9CA3AF" width="0.8" height="1"/>
        <rect x="369" y="110.8" fill="#9CA3AF" width="0.8" height="1"/>
        <rect x="370.5" y="110.8" fill="#9CA3AF" width="0.8" height="1"/>
        <rect x="372" y="110.8" fill="#9CA3AF" width="0.8" height="1"/>
        <rect x="373.5" y="110.8" fill="#9CA3AF" width="0.8" height="1"/>
        <rect x="375" y="110.8" fill="#9CA3AF" width="0.8" height="1"/>
        <rect x="376.5" y="110.8" fill="#9CA3AF" width="0.8" height="1"/>
        <rect x="378" y="110.8" fill="#9CA3AF" width="0.8" height="1"/>
        <rect x="379.5" y="110.8" fill="#9CA3AF" width="0.8" height="1"/>
        <rect x="381" y="110.8" fill="#9CA3AF" width="0.8" height="1"/>
        <rect x="382.5" y="110.8" fill="#9CA3AF" width="0.8" height="1"/>
        <rect x="384" y="110.8" fill="#9CA3AF" width="0.8" height="1"/>
        <rect x="385.5" y="110.8" fill="#9CA3AF" width="0.8" height="1"/>
        <rect x="387" y="110.8" fill="#9CA3AF" width="0.8" height="1"/>
        <rect x="388.5" y="110.8" fill="#9CA3AF" width="0.8" height="1"/>
        <rect x="390" y="110.8" fill="#9CA3AF" width="0.8" height="1"/>
        <rect x="391.5" y="110.8" fill="#9CA3AF" width="0.8" height="1"/>
        <rect x="393" y="110.8" fill="#9CA3AF" width="0.8" height="1"/>
        <rect x="394.5" y="110.8" fill="#9CA3AF" width="0.8" height="1"/>
        <rect x="396" y="110.8" fill="#9CA3AF" width="0.8" height="1"/>
        <rect x="397.5" y="110.8" fill="#9CA3AF" width="0.8" height="1"/>
        <rect x="399" y="110.8" fill="#9CA3AF" width="0.8" height="1"/>
        <rect x="400.5" y="110.8" fill="#9CA3AF" width="0.8" height="1"/>
        <rect x="402" y="110.8" fill="#9CA3AF" width="0.8" height="1"/>
        <rect x="403.5" y="110.8" fill="#9CA3AF" width="0.8" height="1"/>
        <rect x="405" y="110.8" fill="#9CA3AF" width="0.8" height="1"/>
        <rect x="406.5" y="110.8" fill="#9CA3AF" width="0.8" height="1"/>
        <rect x="408" y="110.8" fill="#9CA3AF" width="0.8" height="1"/>
        <rect x="409.5" y="110.8" fill="#9CA3AF" width="0.8" height="1"/>
        <rect x="411" y="110.8" fill="#9CA3AF" width="0.8" height="1"/>
        <path fill="#9CA3AF" d="M357.7,109.5c0.4,0,0.7-0.1,0.9-0.4s0.5-0.6,0.6-1s0.2-1,0.2-1.7c0-0.6-0.1-1.2-0.2-1.7s-0.3-0.8-0.6-1.1
		s-0.6-0.4-0.9-0.4s-0.7,0.1-0.9,0.4s-0.5,0.6-0.6,1.1s-0.2,1-0.2,1.7c0,0.6,0.1,1.2,0.2,1.7s0.3,0.8,0.6,1S357.4,109.5,357.7,109.5
		z M357.7,110.3c-0.6,0-1.1-0.2-1.5-0.5s-0.7-0.8-0.9-1.3s-0.3-1.3-0.3-2.1c0-0.8,0.1-1.5,0.3-2.1s0.5-1,0.9-1.3s0.9-0.5,1.4-0.5
		s1,0.2,1.4,0.5s0.7,0.8,0.9,1.3s0.3,1.3,0.3,2.1s-0.1,1.5-0.3,2.1s-0.5,1-0.9,1.3S358.3,110.3,357.7,110.3z"/>
        <polygon fill="#9CA3AF" points="361.9,110.2 365.3,103.5 365.3,103.4 361.4,103.4 361.4,102.6 366.3,102.6 366.3,103.5
		362.9,110.2 	"/>
        <polygon fill="#9CA3AF" points="370.3,102.2 367.9,111.3 367,111.3 369.5,102.2 	"/>
        <path fill="#9CA3AF" d="M373.9,109.5c0.4,0,0.7-0.1,0.9-0.4s0.5-0.6,0.6-1s0.2-1,0.2-1.7c0-0.6-0.1-1.2-0.2-1.7s-0.3-0.8-0.6-1.1
		s-0.6-0.4-0.9-0.4s-0.7,0.1-0.9,0.4s-0.5,0.6-0.6,1.1s-0.2,1-0.2,1.7c0,0.6,0.1,1.2,0.2,1.7s0.3,0.8,0.6,1S373.5,109.5,373.9,109.5
		z M373.9,110.3c-0.6,0-1.1-0.2-1.5-0.5s-0.7-0.8-0.9-1.3s-0.3-1.3-0.3-2.1c0-0.8,0.1-1.5,0.3-2.1s0.5-1,0.9-1.3s0.9-0.5,1.4-0.5
		s1,0.2,1.4,0.5s0.7,0.8,0.9,1.3s0.3,1.3,0.3,2.1s-0.1,1.5-0.3,2.1s-0.5,1-0.9,1.3S374.5,110.3,373.9,110.3z"/>
        <path fill="#9CA3AF" d="M380.3,110.3c-0.4,0-0.8-0.1-1.2-0.3s-0.6-0.4-0.9-0.7s-0.3-0.7-0.3-1h0.9c0,0.2,0.1,0.4,0.2,0.6
		s0.3,0.3,0.5,0.4s0.4,0.2,0.7,0.2c0.3,0,0.6-0.1,0.8-0.2s0.4-0.3,0.6-0.6s0.2-0.5,0.2-0.9c0-0.3-0.1-0.6-0.2-0.9s-0.3-0.5-0.6-0.6
		s-0.5-0.2-0.9-0.2c-0.2,0-0.5,0-0.7,0.1s-0.4,0.2-0.6,0.3l-0.9-0.1l0.5-3.8h4v0.9h-3.2l-0.3,2.2h0c0.2-0.1,0.4-0.2,0.6-0.3
		s0.5-0.1,0.8-0.1c0.3,0,0.7,0.1,1,0.2s0.6,0.3,0.8,0.5s0.4,0.5,0.5,0.8s0.2,0.7,0.2,1c0,0.5-0.1,0.9-0.3,1.3s-0.5,0.7-0.9,0.9
		S380.8,110.3,380.3,110.3z"/>
        <polygon fill="#9CA3AF" points="387,102.2 384.5,111.3 383.7,111.3 386.1,102.2 	"/>
        <path fill="#9CA3AF" d="M388,110.2v-0.7l2.5-2.8c0.3-0.3,0.5-0.6,0.7-0.8s0.3-0.5,0.4-0.7s0.1-0.4,0.1-0.7c0-0.3-0.1-0.5-0.2-0.7
		s-0.3-0.3-0.5-0.4s-0.5-0.2-0.7-0.2c-0.3,0-0.5,0.1-0.8,0.2s-0.4,0.3-0.5,0.5s-0.2,0.5-0.2,0.8H388c0-0.5,0.1-0.8,0.3-1.2
		s0.5-0.6,0.9-0.8s0.8-0.3,1.2-0.3s0.9,0.1,1.2,0.3s0.6,0.4,0.8,0.8s0.3,0.7,0.3,1.1c0,0.3,0,0.5-0.1,0.8s-0.3,0.6-0.5,0.9
		s-0.6,0.7-1.1,1.2l-1.7,1.8v0.1h3.5v0.9H388z"/>
        <path fill="#9CA3AF" d="M396.9,109.5c0.4,0,0.7-0.1,0.9-0.4s0.5-0.6,0.6-1s0.2-1,0.2-1.7c0-0.6-0.1-1.2-0.2-1.7s-0.3-0.8-0.6-1.1
		s-0.6-0.4-0.9-0.4s-0.7,0.1-0.9,0.4s-0.5,0.6-0.6,1.1s-0.2,1-0.2,1.7c0,0.6,0.1,1.2,0.2,1.7s0.3,0.8,0.6,1S396.6,109.5,396.9,109.5
		z M396.9,110.3c-0.6,0-1.1-0.2-1.5-0.5s-0.7-0.8-0.9-1.3s-0.3-1.3-0.3-2.1c0-0.8,0.1-1.5,0.3-2.1s0.5-1,0.9-1.3s0.9-0.5,1.4-0.5
		s1,0.2,1.4,0.5s0.7,0.8,0.9,1.3s0.3,1.3,0.3,2.1s-0.1,1.5-0.3,2.1s-0.5,1-0.9,1.3S397.5,110.3,396.9,110.3z"/>
        <path fill="#9CA3AF" d="M401,110.2v-0.7l2.5-2.8c0.3-0.3,0.5-0.6,0.7-0.8s0.3-0.5,0.4-0.7s0.1-0.4,0.1-0.7c0-0.3-0.1-0.5-0.2-0.7
		s-0.3-0.3-0.5-0.4s-0.5-0.2-0.7-0.2c-0.3,0-0.5,0.1-0.8,0.2s-0.4,0.3-0.5,0.5s-0.2,0.5-0.2,0.8h-0.9c0-0.5,0.1-0.8,0.3-1.2
		s0.5-0.6,0.9-0.8s0.8-0.3,1.2-0.3s0.9,0.1,1.2,0.3s0.6,0.4,0.8,0.8s0.3,0.7,0.3,1.1c0,0.3,0,0.5-0.1,0.8s-0.3,0.6-0.5,0.9
		s-0.6,0.7-1.1,1.2l-1.7,1.8v0.1h3.5v0.9H401z"/>
        <path fill="#9CA3AF" d="M409.7,110.3c-0.4,0-0.8-0.1-1.2-0.3s-0.6-0.4-0.9-0.7s-0.3-0.7-0.3-1h0.9c0,0.2,0.1,0.4,0.2,0.6
		s0.3,0.3,0.5,0.4s0.4,0.2,0.7,0.2c0.3,0,0.6-0.1,0.8-0.2s0.4-0.3,0.6-0.6s0.2-0.5,0.2-0.9c0-0.3-0.1-0.6-0.2-0.9s-0.3-0.5-0.6-0.6
		s-0.5-0.2-0.9-0.2c-0.2,0-0.5,0-0.7,0.1s-0.4,0.2-0.6,0.3l-0.9-0.1l0.5-3.8h4v0.9h-3.2l-0.3,2.2h0c0.2-0.1,0.4-0.2,0.6-0.3
		s0.5-0.1,0.8-0.1c0.3,0,0.7,0.1,1,0.2s0.6,0.3,0.8,0.5s0.4,0.5,0.5,0.8s0.2,0.7,0.2,1c0,0.5-0.1,0.9-0.3,1.3s-0.5,0.7-0.9,0.9
		S410.2,110.3,409.7,110.3z"/>
        <path fill="#E3A008" d="M555.3,110.2v-7.6h1.3l2.9,4.5c0.1,0.2,0.2,0.3,0.3,0.5s0.2,0.4,0.4,0.7s0.3,0.5,0.4,0.9h-0.1
		c0-0.3-0.1-0.6-0.1-0.9s0-0.6,0-0.8s0-0.5,0-0.6v-4.3h1.2v7.6h-1.4l-2.6-4.1c-0.1-0.2-0.3-0.4-0.4-0.7s-0.3-0.5-0.4-0.8
		s-0.4-0.7-0.6-1.1h0.2c0,0.4,0,0.7,0.1,1.1s0,0.6,0,0.9s0,0.5,0,0.6v4.1H555.3z"/>
        <path fill="#E3A008" d="M565.7,110.3c-0.6,0-1.1-0.1-1.5-0.4s-0.7-0.6-0.9-1s-0.3-1-0.3-1.6c0-0.6,0.1-1.1,0.3-1.6s0.5-0.8,0.9-1
		s0.9-0.4,1.4-0.4c0.3,0,0.6,0.1,0.9,0.2s0.6,0.3,0.8,0.5s0.4,0.5,0.6,0.9s0.2,0.8,0.2,1.3v0.4h-4.6v-0.8h4l-0.5,0.3
		c0-0.4-0.1-0.7-0.2-0.9s-0.3-0.5-0.5-0.6s-0.5-0.2-0.8-0.2c-0.3,0-0.6,0.1-0.8,0.2s-0.4,0.4-0.5,0.6s-0.2,0.5-0.2,0.8v0.6
		c0,0.4,0.1,0.7,0.2,1s0.3,0.5,0.6,0.6s0.5,0.2,0.8,0.2c0.2,0,0.4,0,0.6-0.1s0.3-0.2,0.4-0.3s0.2-0.3,0.3-0.4l1.1,0.3
		c-0.1,0.3-0.2,0.6-0.5,0.8s-0.5,0.4-0.8,0.5S566.1,110.3,565.7,110.3z"/>
        <path fill="#E3A008" d="M570.8,110.2l-2.2-5.7h1.2l1.1,3.3c0.1,0.4,0.2,0.7,0.3,1.1s0.2,0.7,0.3,1.1h-0.3c0.1-0.4,0.2-0.7,0.3-1.1
		s0.2-0.7,0.3-1.1l1.1-3.3h1.2l-2.2,5.7H570.8z"/>
        <path fill="#E3A008" d="M577.5,110.3c-0.6,0-1.1-0.1-1.5-0.4s-0.7-0.6-0.9-1s-0.3-1-0.3-1.6c0-0.6,0.1-1.1,0.3-1.6s0.5-0.8,0.9-1
		s0.9-0.4,1.4-0.4c0.3,0,0.6,0.1,0.9,0.2s0.6,0.3,0.8,0.5s0.4,0.5,0.6,0.9s0.2,0.8,0.2,1.3v0.4h-4.6v-0.8h4l-0.5,0.3
		c0-0.4-0.1-0.7-0.2-0.9s-0.3-0.5-0.5-0.6s-0.5-0.2-0.8-0.2c-0.3,0-0.6,0.1-0.8,0.2s-0.4,0.4-0.5,0.6s-0.2,0.5-0.2,0.8v0.6
		c0,0.4,0.1,0.7,0.2,1s0.3,0.5,0.6,0.6s0.5,0.2,0.8,0.2c0.2,0,0.4,0,0.6-0.1s0.3-0.2,0.4-0.3s0.2-0.3,0.3-0.4l1.1,0.3
		c-0.1,0.3-0.2,0.6-0.5,0.8s-0.5,0.4-0.8,0.5S577.9,110.3,577.5,110.3z"/>
        <path fill="#E3A008" d="M581.2,110.2v-5.7h1.1v0.9h0.1c0.1-0.3,0.3-0.6,0.6-0.7s0.6-0.3,0.9-0.3c0.1,0,0.2,0,0.2,0s0.2,0,0.2,0v1.1
		c0,0-0.1,0-0.2,0s-0.2,0-0.4,0c-0.3,0-0.5,0.1-0.7,0.2s-0.4,0.3-0.5,0.5s-0.2,0.4-0.2,0.7v3.5H581.2z"/>
</g>
    <g>
	<path fill="none" d="M772.2,99c0.2,0,0.3,0,0.5,0.1s0.3,0.1,0.4,0.3c0.1,0.1,0.2,0.2,0.3,0.4c0.1,0.1,0.1,0.3,0.1,0.5v1.2h2.4
		c0.2,0,0.3,0.1,0.4,0.2c0.1,0.1,0.2,0.3,0.2,0.4c0,0.2-0.1,0.3-0.2,0.4c-0.1,0.1-0.3,0.2-0.4,0.2h-0.6v7.2c0,0.2,0,0.3-0.1,0.5
		c-0.1,0.1-0.1,0.3-0.3,0.4c-0.1,0.1-0.2,0.2-0.4,0.3c-0.1,0.1-0.3,0.1-0.5,0.1h3V99H772.2z"/>
        <path fill="none" d="M767.2,110.6c-0.1-0.1-0.2-0.2-0.3-0.4c-0.1-0.1-0.1-0.3-0.1-0.5v-7.2h-0.6c-0.2,0-0.3-0.1-0.4-0.2
		c-0.1-0.1-0.2-0.3-0.2-0.4c0-0.2,0.1-0.3,0.2-0.4c0.1-0.1,0.3-0.2,0.4-0.2h2.4v-1.2c0-0.2,0-0.3,0.1-0.5c0.1-0.1,0.1-0.3,0.3-0.4
		c0.1-0.1,0.2-0.2,0.4-0.3c0.1-0.1,0.3-0.1,0.5-0.1H765v12h3c-0.2,0-0.3,0-0.5-0.1C767.4,110.8,767.3,110.7,767.2,110.6z"/>
        <rect x="769.8" y="100.2" fill="none" width="2.4" height="1.2"/>
        <path fill="none" d="M772.2,103.2c-0.2,0-0.3,0.1-0.4,0.2c-0.1,0.1-0.2,0.3-0.2,0.4v4.8c0,0.2,0.1,0.3,0.2,0.4
		c0.1,0.1,0.3,0.2,0.4,0.2c0.2,0,0.3-0.1,0.4-0.2c0.1-0.1,0.2-0.3,0.2-0.4v-4.8c0-0.2-0.1-0.3-0.2-0.4
		C772.5,103.2,772.4,103.2,772.2,103.2z"/>
        <path fill="none" d="M769.8,103.2c-0.2,0-0.3,0.1-0.4,0.2c-0.1,0.1-0.2,0.3-0.2,0.4v4.8c0,0.2,0.1,0.3,0.2,0.4
		c0.1,0.1,0.3,0.2,0.4,0.2c0.2,0,0.3-0.1,0.4-0.2c0.1-0.1,0.2-0.3,0.2-0.4v-4.8c0-0.2-0.1-0.3-0.2-0.4
		C770.1,103.2,770,103.2,769.8,103.2z"/>
        <path fill="#E02424" d="M774.8,110.6c0.1-0.1,0.2-0.2,0.3-0.4c0.1-0.1,0.1-0.3,0.1-0.5v-7.2h0.6c0.2,0,0.3-0.1,0.4-0.2
		c0.1-0.1,0.2-0.3,0.2-0.4c0-0.2-0.1-0.3-0.2-0.4c-0.1-0.1-0.3-0.2-0.4-0.2h-2.4v-1.2c0-0.2,0-0.3-0.1-0.5c-0.1-0.1-0.1-0.3-0.3-0.4
		c-0.1-0.1-0.2-0.2-0.4-0.3s-0.3-0.1-0.5-0.1h-2.4c-0.2,0-0.3,0-0.5,0.1c-0.1,0.1-0.3,0.1-0.4,0.3c-0.1,0.1-0.2,0.2-0.3,0.4
		c-0.1,0.1-0.1,0.3-0.1,0.5v1.2h-2.4c-0.2,0-0.3,0.1-0.4,0.2c-0.1,0.1-0.2,0.3-0.2,0.4c0,0.2,0.1,0.3,0.2,0.4
		c0.1,0.1,0.3,0.2,0.4,0.2h0.6v7.2c0,0.2,0,0.3,0.1,0.5c0.1,0.1,0.1,0.3,0.3,0.4c0.1,0.1,0.2,0.2,0.4,0.3c0.1,0.1,0.3,0.1,0.5,0.1h6
		c0.2,0,0.3,0,0.5-0.1C774.6,110.8,774.7,110.7,774.8,110.6z M769.8,100.2h2.4v1.2h-2.4V100.2z M770.4,108.6c0,0.2-0.1,0.3-0.2,0.4
		c-0.1,0.1-0.3,0.2-0.4,0.2c-0.2,0-0.3-0.1-0.4-0.2c-0.1-0.1-0.2-0.3-0.2-0.4v-4.8c0-0.2,0.1-0.3,0.2-0.4c0.1-0.1,0.3-0.2,0.4-0.2
		c0.2,0,0.3,0.1,0.4,0.2c0.1,0.1,0.2,0.3,0.2,0.4V108.6z M772.8,108.6c0,0.2-0.1,0.3-0.2,0.4c-0.1,0.1-0.3,0.2-0.4,0.2
		c-0.2,0-0.3-0.1-0.4-0.2c-0.1-0.1-0.2-0.3-0.2-0.4v-4.8c0-0.2,0.1-0.3,0.2-0.4c0.1-0.1,0.3-0.2,0.4-0.2c0.2,0,0.3,0.1,0.4,0.2
		c0.1,0.1,0.2,0.3,0.2,0.4V108.6z"/>
</g>
    <g>
	<path fill="#E02424" d="M785.1,102.6v7.6h-1.2v-7.6H785.1z M786.4,110.2h-1.9v-1h1.8c0.6,0,1.1-0.1,1.4-0.3s0.7-0.5,0.9-1
		s0.3-0.9,0.3-1.5c0-0.6-0.1-1.1-0.3-1.5s-0.5-0.7-0.8-0.9s-0.8-0.3-1.4-0.3h-1.9v-1h2c0.8,0,1.4,0.2,1.9,0.5s0.9,0.7,1.2,1.3
		s0.4,1.3,0.4,2c0,0.8-0.1,1.5-0.4,2.1s-0.7,1-1.3,1.3S787.1,110.2,786.4,110.2z"/>
        <path fill="#E02424" d="M793.8,110.3c-0.6,0-1.1-0.1-1.5-0.4s-0.7-0.6-0.9-1s-0.3-1-0.3-1.6c0-0.6,0.1-1.1,0.3-1.6s0.5-0.8,0.9-1
		s0.9-0.4,1.4-0.4c0.3,0,0.6,0.1,0.9,0.2s0.6,0.3,0.8,0.5s0.4,0.5,0.6,0.9s0.2,0.8,0.2,1.3v0.4h-4.6v-0.8h4l-0.5,0.3
		c0-0.4-0.1-0.7-0.2-0.9s-0.3-0.5-0.5-0.6s-0.5-0.2-0.8-0.2c-0.3,0-0.6,0.1-0.8,0.2s-0.4,0.4-0.5,0.6s-0.2,0.5-0.2,0.8v0.6
		c0,0.4,0.1,0.7,0.2,1s0.3,0.5,0.6,0.6s0.5,0.2,0.8,0.2c0.2,0,0.4,0,0.6-0.1s0.3-0.2,0.4-0.3s0.2-0.3,0.3-0.4l1.1,0.3
		c-0.1,0.3-0.2,0.6-0.5,0.8s-0.5,0.4-0.8,0.5S794.3,110.3,793.8,110.3z"/>
        <rect x="797.5" y="102.6" fill="#E02424" width="1.1" height="7.6"/>
        <path fill="#E02424" d="M802.7,110.3c-0.6,0-1.1-0.1-1.5-0.4s-0.7-0.6-0.9-1s-0.3-1-0.3-1.6c0-0.6,0.1-1.1,0.3-1.6s0.5-0.8,0.9-1
		s0.9-0.4,1.4-0.4c0.3,0,0.6,0.1,0.9,0.2s0.6,0.3,0.8,0.5s0.4,0.5,0.6,0.9s0.2,0.8,0.2,1.3v0.4h-4.6v-0.8h4l-0.5,0.3
		c0-0.4-0.1-0.7-0.2-0.9s-0.3-0.5-0.5-0.6s-0.5-0.2-0.8-0.2c-0.3,0-0.6,0.1-0.8,0.2s-0.4,0.4-0.5,0.6s-0.2,0.5-0.2,0.8v0.6
		c0,0.4,0.1,0.7,0.2,1s0.3,0.5,0.6,0.6s0.5,0.2,0.8,0.2c0.2,0,0.4,0,0.6-0.1s0.3-0.2,0.4-0.3s0.2-0.3,0.3-0.4l1.1,0.3
		c-0.1,0.3-0.2,0.6-0.5,0.8s-0.5,0.4-0.8,0.5S803.1,110.3,802.7,110.3z"/>
        <path fill="#E02424" d="M806.5,103.1h1.1v5.5c0,0.2,0,0.4,0.1,0.5s0.3,0.2,0.5,0.2c0.1,0,0.1,0,0.2,0s0.2,0,0.2,0l0.2,0.9
		c-0.1,0-0.2,0.1-0.4,0.1s-0.3,0-0.4,0c-0.5,0-0.9-0.1-1.2-0.4s-0.4-0.6-0.4-1.1V103.1z M808.8,104.5v0.9h-3.1v-0.9H808.8z"/>
        <path fill="#E02424" d="M812.3,110.3c-0.6,0-1.1-0.1-1.5-0.4s-0.7-0.6-0.9-1s-0.3-1-0.3-1.6c0-0.6,0.1-1.1,0.3-1.6s0.5-0.8,0.9-1
		s0.9-0.4,1.4-0.4c0.3,0,0.6,0.1,0.9,0.2s0.6,0.3,0.8,0.5s0.4,0.5,0.6,0.9s0.2,0.8,0.2,1.3v0.4h-4.6v-0.8h4l-0.5,0.3
		c0-0.4-0.1-0.7-0.2-0.9s-0.3-0.5-0.5-0.6s-0.5-0.2-0.8-0.2c-0.3,0-0.6,0.1-0.8,0.2s-0.4,0.4-0.5,0.6s-0.2,0.5-0.2,0.8v0.6
		c0,0.4,0.1,0.7,0.2,1s0.3,0.5,0.6,0.6s0.5,0.2,0.8,0.2c0.2,0,0.4,0,0.6-0.1s0.3-0.2,0.4-0.3s0.2-0.3,0.3-0.4l1.1,0.3
		c-0.1,0.3-0.2,0.6-0.5,0.8s-0.5,0.4-0.8,0.5S812.7,110.3,812.3,110.3z"/>
</g>
</svg>
