<?xml version="1.0" encoding="utf-8"?>
<svg version="1.1" id="Layer_1" xmlns="http://www.w3.org/2000/svg" xmlns:xlink="http://www.w3.org/1999/xlink" x="0px" y="0px"
	 viewBox="0 0 612 163.6" style="enable-background:new 0 0 612 163.6;" xml:space="preserve">
<style type="text/css">
	.st0{fill-rule:evenodd;clip-rule:evenodd;fill:#A91E22;}
	.st1{fill:#A91E22;}
</style>
<g>
	<g>
		<g>
			<path class="st0" d="M71,58.1l19,11c0.9,0.5,1.2,1.7,0.7,2.6l-6.2,10.8c-0.5,0.9-1.7,1.2-2.6,0.7l-19-11v22.1
				c0,1.1-0.9,1.9-1.9,1.9H48.5c-1,0-1.9-0.9-1.9-1.9V72.2l-19,11c-0.9,0.5-2.1,0.2-2.6-0.7l-6.2-10.8c-0.5-0.9-0.2-2.1,0.7-2.6
				l19-11l-19-11c-0.9-0.5-1.2-1.7-0.7-2.6L25,33.7c0.5-0.9,1.7-1.2,2.6-0.7l19,11V21.9c0-1,0.9-1.9,1.9-1.9H61c1,0,1.9,0.9,1.9,1.9
				V44l19-11c0.9-0.5,2.1-0.2,2.6,0.7l6.2,10.8c0.5,0.9,0.2,2.1-0.7,2.6L71,58.1z M80.3,135.5h1.1c0.3,0,0.6-0.1,0.8-0.2
				s0.3-0.4,0.3-0.6v-2.1c0-0.3-0.1-0.5-0.3-0.6s-0.5-0.2-0.8-0.2h-1.1V135.5L80.3,135.5z M77.3,142.4v-13.2h4
				c1.2,0,2.2,0.3,2.9,0.9c0.7,0.6,1.1,1.4,1.1,2.4v2.1c0,0.6-0.2,1.2-0.5,1.7c-0.2,0.3-0.4,0.5-0.7,0.7c0.2,0.1,0.4,0.3,0.6,0.5
				c0.3,0.4,0.5,0.8,0.5,1.3v3.7h-2.9v-3.7c0-0.3-0.1-0.5-0.3-0.6c-0.2-0.2-0.5-0.2-0.8-0.2h-1.1v4.6h-2.8
				C77.3,142.6,77.3,142.4,77.3,142.4z M74.8,131.6v-2.4H68v13.2h6.8V140H71v-3.4h3.2v-2.4H71v-2.6H74.8L74.8,131.6z M57,142.5
				v-13.2h2.2l2.9,6.8v-6.8h2.7v13.2h-2.2l-2.9-6.8v6.8H57z M46,129.2v13.2h2.7v-6.8l2.9,6.8h2.2v-13.2h-2.7v6.8l-2.9-6.8H46z
				 M42.9,129.2v10.3c0,1-0.4,1.8-1.1,2.4c-0.7,0.6-1.7,0.9-2.9,0.9s-2.2-0.3-2.9-0.9c-0.7-0.6-1.1-1.4-1.1-2.4v-10.3h2.9v10.3
				c0,0.3,0.1,0.5,0.3,0.6c0.2,0.2,0.5,0.2,0.8,0.2c0.4,0,0.6-0.1,0.8-0.2c0.2-0.2,0.3-0.4,0.3-0.6v-10.3H42.9z M28,135.5h-1.1l0,0
				v-3.9H28c0.3,0,0.6,0.1,0.8,0.2c0.2,0.2,0.3,0.4,0.3,0.6v2.1c0,0.3-0.1,0.5-0.3,0.6C28.6,135.4,28.4,135.5,28,135.5 M24,129.2
				v13.2h2.9v-4.6H28c0.3,0,0.6,0.1,0.8,0.2c0.2,0.2,0.3,0.4,0.3,0.6v3.7H32v-3.7c0-0.5-0.2-1-0.5-1.3c-0.2-0.2-0.4-0.3-0.6-0.5
				c0.3-0.2,0.5-0.5,0.7-0.7c0.3-0.5,0.5-1,0.5-1.7v-2.1c0-1-0.4-1.8-1.1-2.4c-0.7-0.6-1.7-0.9-2.9-0.9H24V129.2z M75.6,123.5h2.1
				c0.7,0,1.2-0.1,1.6-0.4s0.5-0.7,0.5-1.1v-12c0-0.5-0.2-0.9-0.5-1.1c-0.4-0.3-0.9-0.4-1.6-0.4h-2.1V123.5L75.6,123.5z M69.9,127.8
				v-23.7h7.8c2.4,0,4.3,0.5,5.7,1.6c1.4,1.1,2.1,2.5,2.1,4.2v12c0,1.8-0.7,3.2-2.1,4.2c-1.4,1.1-3.3,1.6-5.7,1.6h-7.8V127.8z
				 M65,108.4v-4.3l0,0H51.9v23.7H65v-4.3h-7.4v-6.2h6.2V113h-6.2v-4.7L65,108.4L65,108.4z M24,127.8v-23.7h5.1l5.8,16.5l5.8-16.5
				h5.1v23.7h-5.3v-10.1l-3.8,10.1h-3.6l-3.8-10.1v10.1H24z M109.4,57.4c0-30.3-24.5-54.9-54.7-54.9C24.6,2.5,0.1,27.1,0.1,57.4
				l11.6,87.7c0.3,2.5,2.1,4.6,4.6,5.3l35.4,9.6c2,0.6,4.2,0.6,6.2,0l35.4-9.6c2.4-0.7,4.3-2.7,4.6-5.3L109.4,57.4L109.4,57.4z"/>
		</g>
	</g>
	<g>
		<g>
			<polygon class="st1" points="149.4,123.3 149.4,44.3 162,44.3 178.1,105.5 174.8,105.5 190.9,44.3 203.5,44.3 203.5,123.3
				190.4,123.3 190.4,83.2 192.1,83.5 180.9,123.3 171.9,123.3 160.8,83.5 162.5,83.2 162.5,123.3 			"/>
		</g>
	</g>
	<g>
		<g>
			<polygon class="st1" points="251.2,44.3 251.2,58.6 232.9,58.6 232.9,74.3 248.4,74.3 248.4,88.5 232.9,88.5 232.9,109.1
				251.2,109.1 251.2,123.3 218.8,123.3 218.8,44.3 			"/>
		</g>
	</g>
	<g>
		<g>
			<path class="st1" d="M277.7,109.1h5.2c1.7,0,3-0.5,3.9-1.4c0.9-1,1.4-2.2,1.4-3.8v-40c0-1.6-0.5-2.9-1.4-3.8
				c-0.9-1-2.2-1.4-3.9-1.4h-5.2V109.1z M263.5,123.3v-79h19.4c5.9,0,10.7,1.8,14.1,5.3c3.5,3.6,5.2,8.3,5.2,14.1v40
				c0,5.8-1.7,10.5-5.2,14.1s-8.2,5.4-14.1,5.4L263.5,123.3L263.5,123.3z"/>
		</g>
	</g>
	<g>
		<g>
			<path class="st1" d="M330.1,81.7h5.2c1.7,0,3-0.5,3.9-1.4c0.9-1,1.4-2.2,1.4-3.8V63.8c0-1.6-0.5-2.9-1.4-3.8
				c-0.9-1-2.2-1.4-3.9-1.4h-5.2V81.7z M316,123.3v-79h19.4c5.9,0,10.7,1.8,14.1,5.3c3.5,3.6,5.2,8.3,5.2,14.1v12.6
				c0,3.7-0.7,7-2.2,9.8s-3.6,5.1-6.3,6.9l-1-4.6c3,1.1,5.4,2.7,7,4.8c1.7,2.1,2.5,4.7,2.5,7.8v22.1h-14.1V101
				c0-1.6-0.5-2.9-1.4-3.8c-0.9-1-2.2-1.4-3.9-1.4h-5.2v27.4L316,123.3L316,123.3z"/>
		</g>
	</g>
	<g>
		<g>
			<path class="st1" d="M407.1,44.3v61.1c0,5.8-1.7,10.5-5.2,14.1s-8.2,5.4-14.1,5.4s-10.6-1.8-14.1-5.4s-5.3-8.3-5.3-14.1V44.3
				h14.1v61.1c0,1.6,0.5,2.9,1.4,3.8c0.9,1,2.2,1.4,3.9,1.4s3-0.5,3.9-1.4c0.9-1,1.4-2.2,1.4-3.8V44.3H407.1z"/>
		</g>
	</g>
	<g>
		<g>
			<polygon class="st1" points="421.8,123.3 421.8,44.3 432.3,44.3 450.2,95.5 446.5,95.6 446.5,44.3 459.5,44.3 459.5,123.3
				449.1,123.3 431.1,72.1 434.9,72 434.9,123.3 			"/>
		</g>
	</g>
	<g>
		<g>
			<polygon class="st1" points="474.8,123.3 474.8,44.3 485.3,44.3 503.2,95.5 499.5,95.6 499.5,44.3 512.6,44.3 512.6,123.3
				502.1,123.3 484.2,72.1 487.9,72 487.9,123.3 			"/>
		</g>
	</g>
	<g>
		<g>
			<polygon class="st1" points="560.3,44.3 560.3,58.6 542,58.6 542,74.3 557.5,74.3 557.5,88.5 542,88.5 542,109.1 560.3,109.1
				560.3,123.3 527.9,123.3 527.9,44.3 			"/>
		</g>
	</g>
	<g>
		<g>
			<path class="st1" d="M586.7,81.7h5.2c1.7,0,3-0.5,3.9-1.4c0.9-1,1.4-2.2,1.4-3.8V63.8c0-1.6-0.5-2.9-1.4-3.8
				c-0.9-1-2.2-1.4-3.9-1.4h-5.2V81.7z M572.6,123.3v-79H592c5.9,0,10.7,1.8,14.1,5.3c3.5,3.6,5.2,8.3,5.2,14.1v12.6
				c0,3.7-0.7,7-2.2,9.8s-3.6,5.1-6.3,6.9l-1-4.6c3,1.1,5.4,2.7,7,4.8c1.7,2.1,2.5,4.7,2.5,7.8v22.1h-14.1V101
				c0-1.6-0.5-2.9-1.4-3.8c-0.9-1-2.2-1.4-3.9-1.4h-5.2v27.4L572.6,123.3L572.6,123.3z"/>
		</g>
	</g>
</g>
</svg>
