<?xml version="1.0" encoding="utf-8"?>
<svg xmlns:xlink="http://www.w3.org/1999/xlink" version="1.1" id="Layer_1" xmlns="http://www.w3.org/2000/svg" x="0px"
     y="0px"
     viewBox="0 0 841.9 53.8" style="enable-background:new 0 0 841.9 53.8;" xml:space="preserve">
<style type="text/css">
	.st0{clip-path:url(#SVGID_00000132792958720648515160000015275605569065093289_);fill:#1F2937;}
	.st1{clip-path:url(#SVGID_00000123431863865821215090000000394771565689223604_);enable-background:new    ;}
	.st2{filter:url(#Adobe_OpacityMaskFilter);}
	.st3{clip-path:url(#SVGID_00000073001426428838564610000017274738771223483037_);}

		.st4{clip-path:url(#SVGID_00000073001426428838564610000017274738771223483037_);mask:url(#SVGID_00000123422366630266254420000015322971067930351018_);enable-background:new    ;}
	.st5{clip-path:url(#SVGID_00000117678897632630837090000002111102597842111126_);}

		.st6{clip-path:url(#SVGID_00000095309015979963424930000013468715184249004166_);fill-rule:evenodd;clip-rule:evenodd;fill:#AA0000;}
	.st7{clip-path:url(#SVGID_00000095309015979963424930000013468715184249004166_);fill:#AA0000;}
	.st8{filter:url(#Adobe_OpacityMaskFilter_00000158017070866572972690000016288742601228832152_);}
	.st9{enable-background:new    ;}
	.st10{clip-path:url(#SVGID_00000007390008480168563270000016705729203617015471_);}

		.st11{clip-path:url(#SVGID_00000073001426428838564610000017274738771223483037_);mask:url(#SVGID_00000037692358755683101190000014327001151008275110_);enable-background:new    ;}
	.st12{clip-path:url(#SVGID_00000052826217737758932270000005027397202525658508_);}

		.st13{clip-path:url(#SVGID_00000183961223241753085240000018367185022704614041_);fill-rule:evenodd;clip-rule:evenodd;fill:#AA0000;}
	.st14{clip-path:url(#SVGID_00000183961223241753085240000018367185022704614041_);fill:#AA0000;}
	.st15{clip-path:url(#SVGID_00000059280993070796157540000010851036930874517695_);fill:#FFFFFF;}
	.st16{clip-path:url(#SVGID_00000059280993070796157540000010851036930874517695_);fill:none;stroke:#D1D5DB;stroke-width:0.75;}
	.st17{clip-path:url(#SVGID_00000059280993070796157540000010851036930874517695_);fill:#C81E1E;}
	.st18{clip-path:url(#SVGID_00000075851370402359286770000004518739583551391624_);fill:#F9FAFB;}
	.st19{clip-path:url(#SVGID_00000031925006868527790710000004754538034452431768_);fill:#FFFFFF;}
	.st20{clip-path:url(#SVGID_00000031925006868527790710000004754538034452431768_);enable-background:new    ;}
	.st21{filter:url(#Adobe_OpacityMaskFilter_00000038412683792537069880000001480210707811870341_);}
	.st22{clip-path:url(#SVGID_00000176731649433888542890000012098421461759013287_);}

		.st23{clip-path:url(#SVGID_00000176731649433888542890000012098421461759013287_);mask:url(#SVGID_00000049214438687180261590000004100166581437924237_);enable-background:new    ;}
	.st24{clip-path:url(#SVGID_00000057116797511835474370000014688569932945661321_);}

		.st25{clip-path:url(#SVGID_00000183929086129426616810000015696232990413141423_);fill-rule:evenodd;clip-rule:evenodd;fill:#D02F44;}
	.st26{clip-path:url(#SVGID_00000183929086129426616810000015696232990413141423_);fill:#46467F;}
	.st27{clip-path:url(#SVGID_00000183929086129426616810000015696232990413141423_);}
	.st28{filter:url(#Adobe_OpacityMaskFilter_00000006673129624680547950000014511601793552696966_);}
	.st29{clip-path:url(#SVGID_00000178188755539052870170000009611044042144114832_);}

		.st30{clip-path:url(#SVGID_00000176731649433888542890000012098421461759013287_);mask:url(#SVGID_00000036215132602226333210000016194479716769921705_);enable-background:new    ;}
	.st31{clip-path:url(#SVGID_00000012450720442118352030000006637685230866498747_);}

		.st32{clip-path:url(#SVGID_00000180362391358025366330000001922152254421639059_);fill-rule:evenodd;clip-rule:evenodd;fill:#D02F44;}
	.st33{clip-path:url(#SVGID_00000180362391358025366330000001922152254421639059_);fill:#46467F;}
	.st34{clip-path:url(#SVGID_00000180362391358025366330000001922152254421639059_);}
	.st35{clip-path:url(#SVGID_00000094578583970220142960000010528703864796073362_);fill:#FFFFFF;}

		.st36{clip-path:url(#SVGID_00000035526360375947441590000015753582793221751169_);fill:none;stroke:#FFFFFF;stroke-width:1.5;stroke-linecap:round;stroke-linejoin:round;}
</style>
    <g>
	<defs>
		<rect id="SVGID_1_" width="841.9" height="595.2"/>
	</defs>
        <clipPath id="SVGID_00000063634554207498044510000002117658688994321056_">
		<use xlink:href="#SVGID_1_" style="overflow:visible;"/>
	</clipPath>

        <rect style="clip-path:url(#SVGID_00000063634554207498044510000002117658688994321056_);fill:#1F2937;"
              width="842.2" height="54"/>
</g>
    <g>
	<defs>
		<rect id="SVGID_00000105415959052519682020000002730809478965992121_" x="12" y="12" width="112.5" height="30"/>
	</defs>
        <clipPath id="SVGID_00000029014630958394113400000012913093146840629123_">
		<use xlink:href="#SVGID_00000105415959052519682020000002730809478965992121_" style="overflow:visible;"/>
	</clipPath>
        <g style="clip-path:url(#SVGID_00000029014630958394113400000012913093146840629123_);enable-background:new    ;">
		<g>
			<defs>
				<rect id="SVGID_00000093159247192290925240000002947505411156622239_" x="12" y="12" width="112.6"
                      height="30"/>
			</defs>
            <clipPath id="SVGID_00000067919957897052321620000008976190830333766589_">
				<use xlink:href="#SVGID_00000093159247192290925240000002947505411156622239_" style="overflow:visible;"/>
			</clipPath>
            <defs>
				<filter id="Adobe_OpacityMaskFilter" filterUnits="userSpaceOnUse" x="12" y="12" width="112.6"
                        height="30">

						<feColorMatrix type="matrix" values="-1 0 0 0 1  0 -1 0 0 1  0 0 -1 0 1  0 0 0 1 0"
                                       color-interpolation-filters="sRGB" result="source"/>
                    <feFlood style="flood-color:white;flood-opacity:1" result="back"/>
                    <feBlend in="source" in2="back" mode="normal"/>
				</filter>
			</defs>

            <mask maskUnits="userSpaceOnUse" x="12" y="12" width="112.6" height="30"
                  id="SVGID_00000054986187304081378060000008730286983966179230_">
				<g class="st2">

						<rect x="12" y="12"
                              style="clip-path:url(#SVGID_00000067919957897052321620000008976190830333766589_);"
                              width="112.6" height="30"/>
				</g>
			</mask>

            <g style="clip-path:url(#SVGID_00000067919957897052321620000008976190830333766589_);mask:url(#SVGID_00000054986187304081378060000008730286983966179230_);enable-background:new    ;">
				<g>
					<defs>
						<rect id="SVGID_00000000193420852948960300000004366206285946749084_" x="12" y="12" width="112.6"
                              height="30"/>
					</defs>
                    <clipPath id="SVGID_00000167357587853371342620000018373775431346718895_">
						<use xlink:href="#SVGID_00000000193420852948960300000004366206285946749084_"
                             style="overflow:visible;"/>
					</clipPath>
                    <g style="clip-path:url(#SVGID_00000167357587853371342620000018373775431346718895_);">
						<defs>
							<rect id="SVGID_00000127754023357511181330000006018230591872734637_" x="12" y="12"
                                  width="112.5" height="30"/>
						</defs>
                        <clipPath id="SVGID_00000163044130100404722430000006106251158040752772_">
							<use xlink:href="#SVGID_00000127754023357511181330000006018230591872734637_"
                                 style="overflow:visible;"/>
						</clipPath>

                        <path
                            style="clip-path:url(#SVGID_00000163044130100404722430000006106251158040752772_);fill-rule:evenodd;clip-rule:evenodd;fill:#AA0000;"
                            d="
							M25,22.2l3.5,2c0.2,0.1,0.2,0.3,0.1,0.5l-1.1,2c-0.1,0.2-0.3,0.2-0.5,0.1l-3.5-2v4.1c0,0.2-0.2,0.4-0.3,0.4h-2.3
							c-0.2,0-0.3-0.2-0.3-0.4v-4.1l-3.5,2c-0.2,0.1-0.4,0-0.5-0.1l-1.1-2c-0.1-0.2,0-0.4,0.1-0.5l3.5-2l-3.5-2
							c-0.2-0.1-0.2-0.3-0.1-0.5l1.1-2c0.1-0.2,0.3-0.2,0.5-0.1l3.5,2v-4.1c0-0.2,0.2-0.4,0.3-0.4h2.3c0.2,0,0.3,0.2,0.3,0.4v4.1
							l3.5-2c0.2-0.1,0.4,0,0.5,0.1l1.1,2c0.1,0.2,0,0.4-0.1,0.5L25,22.2z M26.7,36.4h0.2c0.1,0,0.1,0,0.1,0c0,0,0.1-0.1,0.1-0.1
							v-0.4c0,0,0-0.1-0.1-0.1c0,0-0.1,0-0.1,0h-0.2V36.4L26.7,36.4z M26.2,37.7v-2.4h0.7c0.2,0,0.4,0.1,0.5,0.2
							c0.1,0.1,0.2,0.3,0.2,0.4v0.4c0,0.1,0,0.2-0.1,0.3c0,0.1-0.1,0.1-0.1,0.1c0,0,0.1,0.1,0.1,0.1c0.1,0.1,0.1,0.1,0.1,0.2v0.7
							h-0.5V37c0,0,0-0.1-0.1-0.1c0,0-0.1,0-0.1,0h-0.2v0.8H26.2z M25.7,35.7v-0.4h-1.2v2.4h1.2v-0.4H25v-0.6h0.6v-0.4H25v-0.5H25.7
							z M22.5,37.7v-2.4h0.4l0.5,1.2v-1.2h0.5v2.4h-0.4L23,36.5v1.2H22.5z M20.4,35.3v2.4h0.5v-1.2l0.5,1.2h0.4v-2.4h-0.5v1.2
							l-0.5-1.2H20.4z M19.9,35.3v1.9c0,0.2-0.1,0.3-0.2,0.4c-0.1,0.1-0.3,0.2-0.5,0.2c-0.2,0-0.4-0.1-0.5-0.2
							c-0.1-0.1-0.2-0.3-0.2-0.4v-1.9h0.5v1.9c0,0,0,0.1,0.1,0.1c0,0,0.1,0,0.1,0c0.1,0,0.1,0,0.1,0c0,0,0.1-0.1,0.1-0.1v-1.9H19.9z
							 M17.1,36.4h-0.2v0v-0.7h0.2c0.1,0,0.1,0,0.1,0c0,0,0.1,0.1,0.1,0.1v0.4c0,0,0,0.1-0.1,0.1C17.3,36.4,17.2,36.4,17.1,36.4z
							 M16.4,35.3v2.4h0.5v-0.8h0.2c0.1,0,0.1,0,0.1,0c0,0,0.1,0.1,0.1,0.1v0.7h0.5V37c0-0.1,0-0.2-0.1-0.2c0,0-0.1-0.1-0.1-0.1
							c0,0,0.1-0.1,0.1-0.1c0.1-0.1,0.1-0.2,0.1-0.3v-0.4c0-0.2-0.1-0.3-0.2-0.4c-0.1-0.1-0.3-0.2-0.5-0.2H16.4z M25.9,34.3h0.4
							c0.1,0,0.2,0,0.3-0.1c0.1-0.1,0.1-0.1,0.1-0.2v-2.2c0-0.1,0-0.2-0.1-0.2c-0.1-0.1-0.2-0.1-0.3-0.1h-0.4V34.3L25.9,34.3z
							 M24.8,35v-4.4h1.4c0.4,0,0.8,0.1,1,0.3c0.3,0.2,0.4,0.5,0.4,0.8V34c0,0.3-0.1,0.6-0.4,0.8c-0.3,0.2-0.6,0.3-1,0.3H24.8z
							 M23.9,31.5v-0.8v0h-2.4V35h2.4v-0.8h-1.4v-1.1h1.1v-0.8h-1.1v-0.9H23.9z M16.4,35v-4.4h0.9l1.1,3l1.1-3h0.9V35h-1v-1.9
							L18.7,35h-0.7l-0.7-1.9V35H16.4z M32.1,22.1c0-5.6-4.5-10.1-10.1-10.1C16.5,12,12,16.5,12,22.1l2.1,16.1
							c0.1,0.5,0.4,0.8,0.8,1l6.5,1.8c0.4,0.1,0.8,0.1,1.1,0l6.5-1.8c0.4-0.1,0.8-0.5,0.8-1L32.1,22.1L32.1,22.1z"/>
                        <polygon
                            style="clip-path:url(#SVGID_00000163044130100404722430000006106251158040752772_);fill:#AA0000;"
                            points="
							39.5,34.2 39.5,19.7 41.8,19.7 44.7,30.9 44.1,30.9 47.1,19.7 49.4,19.7 49.4,34.2 47,34.2 47,26.8 47.3,26.9 45.3,34.2
							43.6,34.2 41.6,26.9 41.9,26.8 41.9,34.2 						"/>
                        <polygon
                            style="clip-path:url(#SVGID_00000163044130100404722430000006106251158040752772_);fill:#AA0000;"
                            points="
							58.2,19.7 58.2,22.3 54.8,22.3 54.8,25.2 57.7,25.2 57.7,27.8 54.8,27.8 54.8,31.6 58.2,31.6 58.2,34.2 52.2,34.2 52.2,19.7
													"/>
                        <path
                            style="clip-path:url(#SVGID_00000163044130100404722430000006106251158040752772_);fill:#AA0000;"
                            d="M63,31.6h1
							c0.3,0,0.5-0.1,0.7-0.3c0.2-0.2,0.3-0.4,0.3-0.7v-7.4c0-0.3-0.1-0.5-0.3-0.7c-0.2-0.2-0.4-0.3-0.7-0.3h-1V31.6z M60.4,34.2
							V19.7H64c1.1,0,2,0.3,2.6,1c0.6,0.7,1,1.5,1,2.6v7.4c0,1.1-0.3,1.9-1,2.6c-0.6,0.7-1.5,1-2.6,1H60.4z"/>
                        <path
                            style="clip-path:url(#SVGID_00000163044130100404722430000006106251158040752772_);fill:#AA0000;"
                            d="M72.7,26.6h1
							c0.3,0,0.5-0.1,0.7-0.3c0.2-0.2,0.3-0.4,0.3-0.7v-2.3c0-0.3-0.1-0.5-0.3-0.7c-0.2-0.2-0.4-0.3-0.7-0.3h-1V26.6z M70.1,34.2
							V19.7h3.6c1.1,0,2,0.3,2.6,1c0.6,0.7,1,1.5,1,2.6v2.3c0,0.7-0.1,1.3-0.4,1.8c-0.3,0.5-0.7,0.9-1.2,1.3l-0.2-0.9
							c0.6,0.2,1,0.5,1.3,0.9s0.5,0.9,0.5,1.4v4.1h-2.6v-4.1c0-0.3-0.1-0.5-0.3-0.7c-0.2-0.2-0.4-0.3-0.7-0.3h-1v5H70.1z"/>
                        <path
                            style="clip-path:url(#SVGID_00000163044130100404722430000006106251158040752772_);fill:#AA0000;"
                            d="M86.8,19.7v11.2
							c0,1.1-0.3,1.9-1,2.6c-0.6,0.7-1.5,1-2.6,1s-2-0.3-2.6-1c-0.6-0.7-1-1.5-1-2.6V19.7h2.6v11.2c0,0.3,0.1,0.5,0.3,0.7
							c0.2,0.2,0.4,0.3,0.7,0.3s0.5-0.1,0.7-0.3c0.2-0.2,0.3-0.4,0.3-0.7V19.7H86.8z"/>
                        <polygon
                            style="clip-path:url(#SVGID_00000163044130100404722430000006106251158040752772_);fill:#AA0000;"
                            points="
							89.5,34.2 89.5,19.7 91.5,19.7 94.8,29.1 94.1,29.1 94.1,19.7 96.5,19.7 96.5,34.2 94.5,34.2 91.3,24.8 91.9,24.8 91.9,34.2
													"/>
                        <polygon
                            style="clip-path:url(#SVGID_00000163044130100404722430000006106251158040752772_);fill:#AA0000;"
                            points="
							99.3,34.2 99.3,19.7 101.2,19.7 104.5,29.1 103.8,29.1 103.8,19.7 106.2,19.7 106.2,34.2 104.3,34.2 101,24.8 101.7,24.8
							101.7,34.2 						"/>
                        <polygon
                            style="clip-path:url(#SVGID_00000163044130100404722430000006106251158040752772_);fill:#AA0000;"
                            points="115,19.7
							115,22.3 111.6,22.3 111.6,25.2 114.5,25.2 114.5,27.8 111.6,27.8 111.6,31.6 115,31.6 115,34.2 109,34.2 109,19.7 						"/>
                        <path
                            style="clip-path:url(#SVGID_00000163044130100404722430000006106251158040752772_);fill:#AA0000;"
                            d="M119.9,26.6h1
							c0.3,0,0.5-0.1,0.7-0.3c0.2-0.2,0.3-0.4,0.3-0.7v-2.3c0-0.3-0.1-0.5-0.3-0.7c-0.2-0.2-0.4-0.3-0.7-0.3h-1V26.6z M117.3,34.2
							V19.7h3.6c1.1,0,2,0.3,2.6,1c0.6,0.7,1,1.5,1,2.6v2.3c0,0.7-0.1,1.3-0.4,1.8c-0.3,0.5-0.7,0.9-1.2,1.3l-0.2-0.9
							c0.6,0.2,1,0.5,1.3,0.9c0.3,0.4,0.5,0.9,0.5,1.4v4.1h-2.6v-4.1c0-0.3-0.1-0.5-0.3-0.7c-0.2-0.2-0.4-0.3-0.7-0.3h-1v5H117.3z"
                        />
					</g>
				</g>
			</g>
            <defs>

					<filter id="Adobe_OpacityMaskFilter_00000144303737113984862270000001974026667166903739_"
                            filterUnits="userSpaceOnUse" x="12" y="12" width="112.6" height="30">
					<feColorMatrix type="matrix" values="1 0 0 0 0  0 1 0 0 0  0 0 1 0 0  0 0 0 1 0"/>
				</filter>
			</defs>

            <mask maskUnits="userSpaceOnUse" x="12" y="12" width="112.6" height="30"
                  id="SVGID_00000042708420333238558370000016540242070982508963_">
				<g style="filter:url(#Adobe_OpacityMaskFilter_00000144303737113984862270000001974026667166903739_);">
					<g class="st9">
						<g>
							<defs>
								<rect id="SVGID_00000043449148233383273820000010568000680513697172_" x="12" y="12"
                                      width="112.5" height="30"/>
							</defs>

                            <clipPath id="SVGID_00000001633851905265682330000017540127999318022027_"
                                      style="clip-path:url(#SVGID_00000067919957897052321620000008976190830333766589_);">
								<use xlink:href="#SVGID_00000043449148233383273820000010568000680513697172_"
                                     style="overflow:visible;"/>
							</clipPath>
                            <g>
								<defs>
									<rect id="SVGID_00000023987920404437401540000001472495947798907279_" x="12" y="12"
                                          width="112.6" height="30"/>
								</defs>

                                <clipPath id="SVGID_00000043454268179997556990000006387955608874877345_"
                                          style="clip-path:url(#SVGID_00000001633851905265682330000017540127999318022027_);">
									<use xlink:href="#SVGID_00000023987920404437401540000001472495947798907279_"
                                         style="overflow:visible;"/>
								</clipPath>
                                <g style="clip-path:url(#SVGID_00000043454268179997556990000006387955608874877345_);">

										<image style="overflow:visible;" width="469" height="125"
                                               xlink:href="FC9FC87B.png" transform="matrix(0.24 0 0 0.24 12 12)">
									</image>
								</g>
							</g>
						</g>
					</g>
				</g>
			</mask>

            <g style="clip-path:url(#SVGID_00000067919957897052321620000008976190830333766589_);mask:url(#SVGID_00000042708420333238558370000016540242070982508963_);enable-background:new    ;">
				<g>
					<defs>
						<rect id="SVGID_00000076597551038044661210000005751492166390934925_" x="12" y="12" width="112.6"
                              height="30"/>
					</defs>
                    <clipPath id="SVGID_00000125605316472478861630000008365637653281857419_">
						<use xlink:href="#SVGID_00000076597551038044661210000005751492166390934925_"
                             style="overflow:visible;"/>
					</clipPath>
                    <g style="clip-path:url(#SVGID_00000125605316472478861630000008365637653281857419_);">
						<defs>
							<rect id="SVGID_00000101067892456698486870000012077973934678389417_" x="12" y="12"
                                  width="112.5" height="30"/>
						</defs>
                        <clipPath id="SVGID_00000073689378921081998950000016925208669899781566_">
							<use xlink:href="#SVGID_00000101067892456698486870000012077973934678389417_"
                                 style="overflow:visible;"/>
						</clipPath>

                        <path
                            style="clip-path:url(#SVGID_00000073689378921081998950000016925208669899781566_);fill-rule:evenodd;clip-rule:evenodd;fill:#AA0000;"
                            d="
							M25,22.2l3.5,2c0.2,0.1,0.2,0.3,0.1,0.5l-1.1,2c-0.1,0.2-0.3,0.2-0.5,0.1l-3.5-2v4.1c0,0.2-0.2,0.4-0.3,0.4h-2.3
							c-0.2,0-0.3-0.2-0.3-0.4v-4.1l-3.5,2c-0.2,0.1-0.4,0-0.5-0.1l-1.1-2c-0.1-0.2,0-0.4,0.1-0.5l3.5-2l-3.5-2
							c-0.2-0.1-0.2-0.3-0.1-0.5l1.1-2c0.1-0.2,0.3-0.2,0.5-0.1l3.5,2v-4.1c0-0.2,0.2-0.4,0.3-0.4h2.3c0.2,0,0.3,0.2,0.3,0.4v4.1
							l3.5-2c0.2-0.1,0.4,0,0.5,0.1l1.1,2c0.1,0.2,0,0.4-0.1,0.5L25,22.2z M26.7,36.4h0.2c0.1,0,0.1,0,0.1,0c0,0,0.1-0.1,0.1-0.1
							v-0.4c0,0,0-0.1-0.1-0.1c0,0-0.1,0-0.1,0h-0.2V36.4L26.7,36.4z M26.2,37.7v-2.4h0.7c0.2,0,0.4,0.1,0.5,0.2
							c0.1,0.1,0.2,0.3,0.2,0.4v0.4c0,0.1,0,0.2-0.1,0.3c0,0.1-0.1,0.1-0.1,0.1c0,0,0.1,0.1,0.1,0.1c0.1,0.1,0.1,0.1,0.1,0.2v0.7
							h-0.5V37c0,0,0-0.1-0.1-0.1c0,0-0.1,0-0.1,0h-0.2v0.8H26.2z M25.7,35.7v-0.4h-1.2v2.4h1.2v-0.4H25v-0.6h0.6v-0.4H25v-0.5H25.7
							z M22.5,37.7v-2.4h0.4l0.5,1.2v-1.2h0.5v2.4h-0.4L23,36.5v1.2H22.5z M20.4,35.3v2.4h0.5v-1.2l0.5,1.2h0.4v-2.4h-0.5v1.2
							l-0.5-1.2H20.4z M19.9,35.3v1.9c0,0.2-0.1,0.3-0.2,0.4c-0.1,0.1-0.3,0.2-0.5,0.2c-0.2,0-0.4-0.1-0.5-0.2
							c-0.1-0.1-0.2-0.3-0.2-0.4v-1.9h0.5v1.9c0,0,0,0.1,0.1,0.1c0,0,0.1,0,0.1,0c0.1,0,0.1,0,0.1,0c0,0,0.1-0.1,0.1-0.1v-1.9H19.9z
							 M17.1,36.4h-0.2v0v-0.7h0.2c0.1,0,0.1,0,0.1,0c0,0,0.1,0.1,0.1,0.1v0.4c0,0,0,0.1-0.1,0.1C17.3,36.4,17.2,36.4,17.1,36.4z
							 M16.4,35.3v2.4h0.5v-0.8h0.2c0.1,0,0.1,0,0.1,0c0,0,0.1,0.1,0.1,0.1v0.7h0.5V37c0-0.1,0-0.2-0.1-0.2c0,0-0.1-0.1-0.1-0.1
							c0,0,0.1-0.1,0.1-0.1c0.1-0.1,0.1-0.2,0.1-0.3v-0.4c0-0.2-0.1-0.3-0.2-0.4c-0.1-0.1-0.3-0.2-0.5-0.2H16.4z M25.9,34.3h0.4
							c0.1,0,0.2,0,0.3-0.1c0.1-0.1,0.1-0.1,0.1-0.2v-2.2c0-0.1,0-0.2-0.1-0.2c-0.1-0.1-0.2-0.1-0.3-0.1h-0.4V34.3L25.9,34.3z
							 M24.8,35v-4.4h1.4c0.4,0,0.8,0.1,1,0.3c0.3,0.2,0.4,0.5,0.4,0.8V34c0,0.3-0.1,0.6-0.4,0.8c-0.3,0.2-0.6,0.3-1,0.3H24.8z
							 M23.9,31.5v-0.8v0h-2.4V35h2.4v-0.8h-1.4v-1.1h1.1v-0.8h-1.1v-0.9H23.9z M16.4,35v-4.4h0.9l1.1,3l1.1-3h0.9V35h-1v-1.9
							L18.7,35h-0.7l-0.7-1.9V35H16.4z M32.1,22.1c0-5.6-4.5-10.1-10.1-10.1C16.5,12,12,16.5,12,22.1l2.1,16.1
							c0.1,0.5,0.4,0.8,0.8,1l6.5,1.8c0.4,0.1,0.8,0.1,1.1,0l6.5-1.8c0.4-0.1,0.8-0.5,0.8-1L32.1,22.1L32.1,22.1z"/>
                        <polygon
                            style="clip-path:url(#SVGID_00000073689378921081998950000016925208669899781566_);fill:#AA0000;"
                            points="
							39.5,34.2 39.5,19.7 41.8,19.7 44.7,30.9 44.1,30.9 47.1,19.7 49.4,19.7 49.4,34.2 47,34.2 47,26.8 47.3,26.9 45.3,34.2
							43.6,34.2 41.6,26.9 41.9,26.8 41.9,34.2 						"/>
                        <polygon
                            style="clip-path:url(#SVGID_00000073689378921081998950000016925208669899781566_);fill:#AA0000;"
                            points="
							58.2,19.7 58.2,22.3 54.8,22.3 54.8,25.2 57.7,25.2 57.7,27.8 54.8,27.8 54.8,31.6 58.2,31.6 58.2,34.2 52.2,34.2 52.2,19.7
													"/>
                        <path
                            style="clip-path:url(#SVGID_00000073689378921081998950000016925208669899781566_);fill:#AA0000;"
                            d="M63,31.6h1
							c0.3,0,0.5-0.1,0.7-0.3c0.2-0.2,0.3-0.4,0.3-0.7v-7.4c0-0.3-0.1-0.5-0.3-0.7c-0.2-0.2-0.4-0.3-0.7-0.3h-1V31.6z M60.4,34.2
							V19.7H64c1.1,0,2,0.3,2.6,1c0.6,0.7,1,1.5,1,2.6v7.4c0,1.1-0.3,1.9-1,2.6c-0.6,0.7-1.5,1-2.6,1H60.4z"/>
                        <path
                            style="clip-path:url(#SVGID_00000073689378921081998950000016925208669899781566_);fill:#AA0000;"
                            d="M72.7,26.6h1
							c0.3,0,0.5-0.1,0.7-0.3c0.2-0.2,0.3-0.4,0.3-0.7v-2.3c0-0.3-0.1-0.5-0.3-0.7c-0.2-0.2-0.4-0.3-0.7-0.3h-1V26.6z M70.1,34.2
							V19.7h3.6c1.1,0,2,0.3,2.6,1c0.6,0.7,1,1.5,1,2.6v2.3c0,0.7-0.1,1.3-0.4,1.8c-0.3,0.5-0.7,0.9-1.2,1.3l-0.2-0.9
							c0.6,0.2,1,0.5,1.3,0.9s0.5,0.9,0.5,1.4v4.1h-2.6v-4.1c0-0.3-0.1-0.5-0.3-0.7c-0.2-0.2-0.4-0.3-0.7-0.3h-1v5H70.1z"/>
                        <path
                            style="clip-path:url(#SVGID_00000073689378921081998950000016925208669899781566_);fill:#AA0000;"
                            d="M86.8,19.7v11.2
							c0,1.1-0.3,1.9-1,2.6c-0.6,0.7-1.5,1-2.6,1s-2-0.3-2.6-1c-0.6-0.7-1-1.5-1-2.6V19.7h2.6v11.2c0,0.3,0.1,0.5,0.3,0.7
							c0.2,0.2,0.4,0.3,0.7,0.3s0.5-0.1,0.7-0.3c0.2-0.2,0.3-0.4,0.3-0.7V19.7H86.8z"/>
                        <polygon
                            style="clip-path:url(#SVGID_00000073689378921081998950000016925208669899781566_);fill:#AA0000;"
                            points="
							89.5,34.2 89.5,19.7 91.5,19.7 94.8,29.1 94.1,29.1 94.1,19.7 96.5,19.7 96.5,34.2 94.5,34.2 91.3,24.8 91.9,24.8 91.9,34.2
													"/>
                        <polygon
                            style="clip-path:url(#SVGID_00000073689378921081998950000016925208669899781566_);fill:#AA0000;"
                            points="
							99.3,34.2 99.3,19.7 101.2,19.7 104.5,29.1 103.8,29.1 103.8,19.7 106.2,19.7 106.2,34.2 104.3,34.2 101,24.8 101.7,24.8
							101.7,34.2 						"/>
                        <polygon
                            style="clip-path:url(#SVGID_00000073689378921081998950000016925208669899781566_);fill:#AA0000;"
                            points="115,19.7
							115,22.3 111.6,22.3 111.6,25.2 114.5,25.2 114.5,27.8 111.6,27.8 111.6,31.6 115,31.6 115,34.2 109,34.2 109,19.7 						"/>
                        <path
                            style="clip-path:url(#SVGID_00000073689378921081998950000016925208669899781566_);fill:#AA0000;"
                            d="M119.9,26.6h1
							c0.3,0,0.5-0.1,0.7-0.3c0.2-0.2,0.3-0.4,0.3-0.7v-2.3c0-0.3-0.1-0.5-0.3-0.7c-0.2-0.2-0.4-0.3-0.7-0.3h-1V26.6z M117.3,34.2
							V19.7h3.6c1.1,0,2,0.3,2.6,1c0.6,0.7,1,1.5,1,2.6v2.3c0,0.7-0.1,1.3-0.4,1.8c-0.3,0.5-0.7,0.9-1.2,1.3l-0.2-0.9
							c0.6,0.2,1,0.5,1.3,0.9c0.3,0.4,0.5,0.9,0.5,1.4v4.1h-2.6v-4.1c0-0.3-0.1-0.5-0.3-0.7c-0.2-0.2-0.4-0.3-0.7-0.3h-1v5H117.3z"
                        />
					</g>
				</g>
			</g>
		</g>
	</g>
</g>
    <g>
	<defs>
		<rect id="SVGID_00000119081170584824828910000012299534141951714231_" width="841.9" height="595.2"/>
	</defs>
        <clipPath id="SVGID_00000148649937076223281600000014377743951031838123_">
		<use xlink:href="#SVGID_00000119081170584824828910000012299534141951714231_" style="overflow:visible;"/>
	</clipPath>

        <rect x="249.4" y="34.5"
              style="clip-path:url(#SVGID_00000148649937076223281600000014377743951031838123_);fill:#FFFFFF;"
              width="33.9" height="1.5"/>
        <polygon style="clip-path:url(#SVGID_00000148649937076223281600000014377743951031838123_);fill:#FFFFFF;"
                 points="250.4,31.5
		250.4,22.8 251.7,22.8 251.7,26.5 256.1,26.5 256.1,22.8 257.4,22.8 257.4,31.5 256.1,31.5 256.1,27.6 251.7,27.6 251.7,31.5 	"/>
        <path style="clip-path:url(#SVGID_00000148649937076223281600000014377743951031838123_);fill:#FFFFFF;" d="M262,30.5
		c0.4,0,0.7-0.1,1-0.3s0.5-0.5,0.6-0.8s0.2-0.7,0.2-1.1c0-0.4-0.1-0.8-0.2-1.2s-0.3-0.6-0.6-0.8s-0.6-0.3-1-0.3
		c-0.4,0-0.7,0.1-1,0.3s-0.5,0.5-0.6,0.8s-0.2,0.7-0.2,1.2c0,0.4,0.1,0.8,0.2,1.1s0.3,0.6,0.6,0.8S261.6,30.5,262,30.5z M262,31.6
		c-0.6,0-1.1-0.1-1.6-0.4s-0.8-0.7-1.1-1.2s-0.4-1.1-0.4-1.8c0-0.7,0.1-1.3,0.4-1.8s0.6-0.9,1.1-1.2s1-0.4,1.6-0.4
		c0.6,0,1.2,0.1,1.6,0.4s0.8,0.7,1.1,1.2s0.4,1.1,0.4,1.8c0,0.7-0.1,1.3-0.4,1.8s-0.6,0.9-1.1,1.2S262.6,31.6,262,31.6z"/>
        <path style="clip-path:url(#SVGID_00000148649937076223281600000014377743951031838123_);fill:#FFFFFF;" d="M266.5,31.5v-6.6h1.2
		l0,1.5h-0.1c0.1-0.4,0.2-0.7,0.4-0.9s0.4-0.4,0.7-0.5s0.5-0.2,0.8-0.2c0.5,0,0.9,0.1,1.2,0.4s0.5,0.7,0.6,1.2h-0.2
		c0.1-0.4,0.2-0.7,0.4-0.9s0.5-0.4,0.8-0.6s0.6-0.2,1-0.2c0.4,0,0.7,0.1,1.1,0.3s0.6,0.4,0.7,0.8s0.3,0.7,0.3,1.2v4.4h-1.3v-4.3
		c0-0.4-0.1-0.8-0.4-0.9s-0.5-0.3-0.9-0.3c-0.3,0-0.5,0.1-0.7,0.2s-0.3,0.3-0.5,0.5s-0.2,0.4-0.2,0.7v4.2h-1.3v-4.4
		c0-0.4-0.1-0.6-0.3-0.8s-0.5-0.3-0.9-0.3c-0.2,0-0.5,0.1-0.7,0.2s-0.4,0.3-0.5,0.5s-0.2,0.5-0.2,0.8v4.1H266.5z"/>
        <path style="clip-path:url(#SVGID_00000148649937076223281600000014377743951031838123_);fill:#FFFFFF;" d="M280,31.6
		c-0.6,0-1.2-0.1-1.7-0.4s-0.8-0.7-1.1-1.2s-0.4-1.1-0.4-1.8c0-0.7,0.1-1.3,0.4-1.8s0.6-0.9,1.1-1.2s1-0.4,1.6-0.4
		c0.4,0,0.7,0.1,1.1,0.2s0.7,0.3,0.9,0.6s0.5,0.6,0.7,1s0.2,0.9,0.2,1.5v0.5h-5.2v-1h4.6l-0.6,0.3c0-0.4-0.1-0.8-0.2-1.1
		s-0.3-0.5-0.6-0.7s-0.5-0.3-0.9-0.3c-0.4,0-0.7,0.1-0.9,0.3s-0.5,0.4-0.6,0.7s-0.2,0.6-0.2,0.9v0.7c0,0.4,0.1,0.8,0.2,1.1
		s0.4,0.5,0.6,0.7s0.6,0.2,1,0.2c0.2,0,0.5,0,0.7-0.1s0.4-0.2,0.5-0.3s0.3-0.3,0.3-0.5l1.2,0.3c-0.1,0.3-0.3,0.6-0.5,0.9
		s-0.6,0.5-0.9,0.6S280.4,31.6,280,31.6z"/>
        <polygon style="clip-path:url(#SVGID_00000148649937076223281600000014377743951031838123_);fill:#FFFFFF;"
                 points="299.3,31.5
		299.3,22.8 304.8,22.8 304.8,23.9 300.6,23.9 300.6,26.5 304.5,26.5 304.5,27.7 300.6,27.7 300.6,30.4 304.8,30.4 304.8,31.5 	"/>
        <path style="clip-path:url(#SVGID_00000148649937076223281600000014377743951031838123_);fill:#FFFFFF;" d="M306.4,31.5v-6.6h1.2
		l0,1.5h-0.1c0.1-0.4,0.2-0.7,0.4-0.9s0.4-0.4,0.7-0.5s0.5-0.2,0.8-0.2c0.5,0,0.9,0.1,1.2,0.4s0.5,0.7,0.6,1.2h-0.2
		c0.1-0.4,0.2-0.7,0.4-0.9s0.5-0.4,0.8-0.6s0.6-0.2,1-0.2c0.4,0,0.7,0.1,1.1,0.3s0.6,0.4,0.7,0.8s0.3,0.7,0.3,1.2v4.4h-1.3v-4.3
		c0-0.4-0.1-0.8-0.4-0.9s-0.5-0.3-0.9-0.3c-0.3,0-0.5,0.1-0.7,0.2s-0.3,0.3-0.5,0.5s-0.2,0.4-0.2,0.7v4.2h-1.3v-4.4
		c0-0.4-0.1-0.6-0.3-0.8s-0.5-0.3-0.9-0.3c-0.2,0-0.5,0.1-0.7,0.2s-0.4,0.3-0.5,0.5s-0.2,0.5-0.2,0.8v4.1H306.4z"/>
        <path style="clip-path:url(#SVGID_00000148649937076223281600000014377743951031838123_);fill:#FFFFFF;" d="M319.9,31.6
		c-0.6,0-1.2-0.1-1.7-0.4s-0.8-0.7-1.1-1.2s-0.4-1.1-0.4-1.8c0-0.7,0.1-1.3,0.4-1.8s0.6-0.9,1.1-1.2s1-0.4,1.6-0.4
		c0.4,0,0.7,0.1,1.1,0.2s0.7,0.3,0.9,0.6s0.5,0.6,0.7,1s0.2,0.9,0.2,1.5v0.5h-5.2v-1h4.6l-0.6,0.3c0-0.4-0.1-0.8-0.2-1.1
		s-0.3-0.5-0.6-0.7s-0.5-0.3-0.9-0.3c-0.4,0-0.7,0.1-0.9,0.3s-0.5,0.4-0.6,0.7s-0.2,0.6-0.2,0.9v0.7c0,0.4,0.1,0.8,0.2,1.1
		s0.4,0.5,0.6,0.7s0.6,0.2,1,0.2c0.2,0,0.5,0,0.7-0.1s0.4-0.2,0.5-0.3s0.3-0.3,0.3-0.5l1.2,0.3c-0.1,0.3-0.3,0.6-0.5,0.9
		s-0.6,0.5-0.9,0.6S320.4,31.6,319.9,31.6z"/>
        <path style="clip-path:url(#SVGID_00000148649937076223281600000014377743951031838123_);fill:#FFFFFF;" d="M324.1,31.5v-6.6h1.2
		V26h0.1c0.1-0.4,0.3-0.6,0.6-0.8s0.6-0.3,1-0.3c0.1,0,0.2,0,0.3,0s0.2,0,0.3,0v1.2c0,0-0.1,0-0.3,0s-0.3,0-0.4,0
		c-0.3,0-0.6,0.1-0.8,0.2s-0.4,0.3-0.6,0.5s-0.2,0.5-0.2,0.8v4H324.1z"/>
        <path style="clip-path:url(#SVGID_00000148649937076223281600000014377743951031838123_);fill:#FFFFFF;" d="M331.3,30.3
		c0.4,0,0.7-0.1,0.9-0.3s0.4-0.4,0.6-0.7s0.2-0.7,0.2-1.2c0-0.4-0.1-0.8-0.2-1.2s-0.3-0.6-0.6-0.8s-0.6-0.3-0.9-0.3
		c-0.4,0-0.7,0.1-0.9,0.3s-0.4,0.5-0.6,0.8s-0.2,0.7-0.2,1.1c0,0.4,0.1,0.8,0.2,1.1s0.3,0.6,0.6,0.8S330.9,30.3,331.3,30.3z
		 M331.3,34.1c-0.5,0-0.9-0.1-1.3-0.2s-0.7-0.3-0.9-0.5s-0.4-0.5-0.5-0.7l1.1-0.5c0.1,0.1,0.2,0.3,0.3,0.4s0.3,0.3,0.5,0.4
		s0.5,0.1,0.9,0.1c0.5,0,0.9-0.1,1.2-0.4s0.5-0.6,0.5-1.1v-1.3h-0.1c-0.1,0.1-0.2,0.3-0.3,0.5s-0.3,0.3-0.6,0.4s-0.6,0.2-1,0.2
		c-0.5,0-1-0.1-1.4-0.4s-0.7-0.6-1-1.1s-0.4-1.1-0.4-1.8s0.1-1.3,0.4-1.8s0.6-0.9,1-1.1s0.9-0.4,1.4-0.4c0.4,0,0.7,0.1,1,0.2
		s0.4,0.3,0.6,0.5s0.3,0.3,0.3,0.5h0.1v-1.1h1.3v6.6c0,0.6-0.1,1-0.4,1.4s-0.6,0.6-1.1,0.8S331.9,34.1,331.3,34.1z"/>
        <path style="clip-path:url(#SVGID_00000148649937076223281600000014377743951031838123_);fill:#FFFFFF;" d="M338.8,31.6
		c-0.6,0-1.2-0.1-1.7-0.4s-0.8-0.7-1.1-1.2s-0.4-1.1-0.4-1.8c0-0.7,0.1-1.3,0.4-1.8s0.6-0.9,1.1-1.2s1-0.4,1.6-0.4
		c0.4,0,0.7,0.1,1.1,0.2s0.7,0.3,0.9,0.6s0.5,0.6,0.7,1s0.2,0.9,0.2,1.5v0.5h-5.2v-1h4.6l-0.6,0.3c0-0.4-0.1-0.8-0.2-1.1
		s-0.3-0.5-0.6-0.7s-0.5-0.3-0.9-0.3c-0.4,0-0.7,0.1-0.9,0.3s-0.5,0.4-0.6,0.7s-0.2,0.6-0.2,0.9v0.7c0,0.4,0.1,0.8,0.2,1.1
		s0.4,0.5,0.6,0.7s0.6,0.2,1,0.2c0.2,0,0.5,0,0.7-0.1s0.4-0.2,0.5-0.3s0.3-0.3,0.3-0.5l1.2,0.3c-0.1,0.3-0.3,0.6-0.5,0.9
		s-0.6,0.5-0.9,0.6S339.3,31.6,338.8,31.6z"/>
        <path style="clip-path:url(#SVGID_00000148649937076223281600000014377743951031838123_);fill:#FFFFFF;" d="M344.3,27.6v3.9H343
		v-6.6h1.2l0,1.6h-0.1c0.2-0.6,0.5-1,0.8-1.3s0.8-0.4,1.3-0.4c0.4,0,0.8,0.1,1.2,0.3s0.6,0.5,0.8,0.8s0.3,0.8,0.3,1.4v4.2h-1.3v-4
		c0-0.5-0.1-0.8-0.4-1.1s-0.6-0.4-1-0.4c-0.3,0-0.5,0.1-0.8,0.2s-0.4,0.3-0.5,0.6S344.3,27.3,344.3,27.6z"/>
        <path style="clip-path:url(#SVGID_00000148649937076223281600000014377743951031838123_);fill:#FFFFFF;" d="M353,31.6
		c-0.6,0-1.2-0.1-1.6-0.4s-0.8-0.7-1.1-1.2s-0.4-1.1-0.4-1.8c0-0.7,0.1-1.3,0.4-1.8s0.6-0.9,1.1-1.2s1-0.4,1.6-0.4
		c0.3,0,0.7,0,1,0.1s0.6,0.2,0.8,0.4s0.4,0.4,0.6,0.6s0.3,0.5,0.4,0.8l-1.2,0.3c0-0.2-0.1-0.3-0.2-0.5s-0.2-0.3-0.3-0.4
		s-0.3-0.2-0.4-0.2S353.2,26,353,26c-0.4,0-0.7,0.1-1,0.3s-0.5,0.5-0.6,0.8s-0.2,0.7-0.2,1.2c0,0.4,0.1,0.8,0.2,1.1s0.3,0.6,0.6,0.8
		s0.6,0.3,1,0.3c0.2,0,0.4,0,0.6-0.1s0.3-0.1,0.5-0.2s0.2-0.2,0.3-0.4s0.2-0.3,0.2-0.5l1.2,0.3c-0.1,0.3-0.2,0.6-0.4,0.8
		s-0.4,0.5-0.6,0.6s-0.5,0.3-0.8,0.4S353.4,31.6,353,31.6z"/>
        <path style="clip-path:url(#SVGID_00000148649937076223281600000014377743951031838123_);fill:#FFFFFF;" d="M356.9,33.9l0.3-1
		l0.1,0c0.2,0.1,0.4,0.1,0.6,0s0.3-0.1,0.5-0.2s0.2-0.3,0.3-0.6l0.1-0.5l-2.5-6.6h1.4l1.3,3.7c0.1,0.4,0.3,0.8,0.4,1.2
		s0.2,0.8,0.3,1.2h-0.4c0.1-0.4,0.2-0.8,0.3-1.2s0.2-0.8,0.4-1.2l1.3-3.7h1.4l-2.8,7.5c-0.1,0.4-0.3,0.6-0.5,0.9s-0.4,0.4-0.7,0.5
		s-0.6,0.2-0.9,0.2c-0.2,0-0.4,0-0.5,0S356.9,33.9,356.9,33.9z"/>
        <path style="clip-path:url(#SVGID_00000148649937076223281600000014377743951031838123_);fill:#FFFFFF;" d="M493.8,31.5l-2.1-3.9
		h1.5l2.2,3.9H493.8z M488.9,31.5v-8.7h3.1c0.7,0,1.2,0.1,1.7,0.3s0.8,0.6,1,1s0.3,0.9,0.3,1.4c0,0.5-0.1,1-0.3,1.4s-0.6,0.7-1,0.9
		s-1,0.3-1.7,0.3h-2.3v-1.1h2.2c0.4,0,0.8-0.1,1-0.2s0.5-0.3,0.6-0.5s0.2-0.5,0.2-0.8c0-0.3-0.1-0.6-0.2-0.8s-0.3-0.4-0.6-0.6
		s-0.6-0.2-1-0.2h-1.6v7.6H488.9z"/>
        <path style="clip-path:url(#SVGID_00000148649937076223281600000014377743951031838123_);fill:#FFFFFF;" d="M499.2,31.6
		c-0.6,0-1.2-0.1-1.7-0.4s-0.8-0.7-1.1-1.2s-0.4-1.1-0.4-1.8c0-0.7,0.1-1.3,0.4-1.8s0.6-0.9,1.1-1.2s1-0.4,1.6-0.4
		c0.4,0,0.7,0.1,1.1,0.2s0.7,0.3,0.9,0.6s0.5,0.6,0.7,1s0.2,0.9,0.2,1.5v0.5h-5.2v-1h4.6l-0.6,0.3c0-0.4-0.1-0.8-0.2-1.1
		s-0.3-0.5-0.6-0.7s-0.5-0.3-0.9-0.3c-0.4,0-0.7,0.1-0.9,0.3s-0.5,0.4-0.6,0.7s-0.2,0.6-0.2,0.9v0.7c0,0.4,0.1,0.8,0.2,1.1
		s0.4,0.5,0.6,0.7s0.6,0.2,1,0.2c0.2,0,0.5,0,0.7-0.1s0.4-0.2,0.5-0.3s0.3-0.3,0.3-0.5l1.2,0.3c-0.1,0.3-0.3,0.6-0.5,0.9
		s-0.6,0.5-0.9,0.6S499.7,31.6,499.2,31.6z"/>
        <path style="clip-path:url(#SVGID_00000148649937076223281600000014377743951031838123_);fill:#FFFFFF;" d="M506.1,30.5
		c0.4,0,0.7-0.1,0.9-0.3s0.4-0.5,0.6-0.8s0.2-0.7,0.2-1.2c0-0.5-0.1-0.9-0.2-1.2s-0.3-0.6-0.6-0.8s-0.6-0.3-0.9-0.3
		c-0.4,0-0.7,0.1-0.9,0.3s-0.4,0.5-0.6,0.8s-0.2,0.7-0.2,1.2c0,0.4,0.1,0.8,0.2,1.2s0.3,0.6,0.6,0.8S505.8,30.5,506.1,30.5z
		 M505.9,31.6c-0.5,0-1-0.1-1.4-0.4s-0.7-0.7-1-1.2s-0.4-1.1-0.4-1.8c0-0.7,0.1-1.3,0.4-1.8s0.6-0.9,1-1.2s0.9-0.4,1.4-0.4
		c0.4,0,0.7,0.1,1,0.2s0.4,0.3,0.6,0.5s0.2,0.3,0.3,0.5h0.1v-3.2h1.3v8.7h-1.3v-1h-0.1c-0.1,0.1-0.2,0.3-0.3,0.5s-0.3,0.3-0.6,0.5
		S506.2,31.6,505.9,31.6z"/>
        <path style="clip-path:url(#SVGID_00000148649937076223281600000014377743951031838123_);fill:#FFFFFF;" d="M513.7,31.6
		c-0.6,0-1.2-0.1-1.7-0.4c-0.5-0.3-0.8-0.7-1.1-1.2s-0.4-1.1-0.4-1.8c0-0.7,0.1-1.3,0.4-1.8s0.6-0.9,1.1-1.2c0.5-0.3,1-0.4,1.6-0.4
		c0.4,0,0.7,0.1,1.1,0.2s0.7,0.3,0.9,0.6s0.5,0.6,0.7,1s0.2,0.9,0.2,1.5v0.5h-5.2v-1h4.6l-0.6,0.3c0-0.4-0.1-0.8-0.2-1.1
		s-0.3-0.5-0.6-0.7s-0.5-0.3-0.9-0.3c-0.4,0-0.7,0.1-0.9,0.3s-0.5,0.4-0.6,0.7c-0.1,0.3-0.2,0.6-0.2,0.9v0.7c0,0.4,0.1,0.8,0.2,1.1
		c0.2,0.3,0.4,0.5,0.6,0.7s0.6,0.2,1,0.2c0.2,0,0.5,0,0.7-0.1s0.4-0.2,0.5-0.3s0.3-0.3,0.3-0.5l1.2,0.3c-0.1,0.3-0.3,0.6-0.5,0.9
		s-0.6,0.5-0.9,0.6S514.1,31.6,513.7,31.6z"/>
        <path style="clip-path:url(#SVGID_00000148649937076223281600000014377743951031838123_);fill:#FFFFFF;" d="M520.7,31.6
		c-0.6,0-1.2-0.1-1.7-0.4s-0.8-0.7-1.1-1.2s-0.4-1.1-0.4-1.8c0-0.7,0.1-1.3,0.4-1.8s0.6-0.9,1.1-1.2s1-0.4,1.6-0.4
		c0.4,0,0.7,0.1,1.1,0.2s0.7,0.3,0.9,0.6s0.5,0.6,0.7,1s0.2,0.9,0.2,1.5v0.5h-5.2v-1h4.6l-0.6,0.3c0-0.4-0.1-0.8-0.2-1.1
		s-0.3-0.5-0.6-0.7s-0.5-0.3-0.9-0.3c-0.4,0-0.7,0.1-0.9,0.3s-0.5,0.4-0.6,0.7s-0.2,0.6-0.2,0.9v0.7c0,0.4,0.1,0.8,0.2,1.1
		s0.4,0.5,0.6,0.7s0.6,0.2,1,0.2c0.2,0,0.5,0,0.7-0.1s0.4-0.2,0.5-0.3s0.3-0.3,0.3-0.5l1.2,0.3c-0.1,0.3-0.3,0.6-0.5,0.9
		s-0.6,0.5-0.9,0.6S521.2,31.6,520.7,31.6z"/>
        <path style="clip-path:url(#SVGID_00000148649937076223281600000014377743951031838123_);fill:#FFFFFF;" d="M524.9,31.5v-6.6h1.2
		l0,1.5h-0.1c0.1-0.4,0.2-0.7,0.4-0.9s0.4-0.4,0.7-0.5s0.5-0.2,0.8-0.2c0.5,0,0.9,0.1,1.2,0.4s0.5,0.7,0.6,1.2h-0.2
		c0.1-0.4,0.2-0.7,0.4-0.9s0.5-0.4,0.8-0.6s0.6-0.2,1-0.2c0.4,0,0.7,0.1,1.1,0.3s0.6,0.4,0.7,0.8s0.3,0.7,0.3,1.2v4.4h-1.3v-4.3
		c0-0.4-0.1-0.8-0.4-0.9s-0.5-0.3-0.9-0.3c-0.3,0-0.5,0.1-0.7,0.2s-0.3,0.3-0.5,0.5S530,27,530,27.3v4.2h-1.3v-4.4
		c0-0.4-0.1-0.6-0.3-0.8s-0.5-0.3-0.9-0.3c-0.2,0-0.5,0.1-0.7,0.2s-0.4,0.3-0.5,0.5s-0.2,0.5-0.2,0.8v4.1H524.9z"/>
        <path style="clip-path:url(#SVGID_00000148649937076223281600000014377743951031838123_);fill:#FFFFFF;" d="M541.5,31.6
		c-0.6,0-1.2-0.1-1.6-0.4s-0.8-0.7-1.1-1.2s-0.4-1.1-0.4-1.8c0-0.7,0.1-1.3,0.4-1.8s0.6-0.9,1.1-1.2s1-0.4,1.6-0.4
		c0.3,0,0.7,0,1,0.1s0.6,0.2,0.8,0.4s0.4,0.4,0.6,0.6s0.3,0.5,0.4,0.8l-1.2,0.3c0-0.2-0.1-0.3-0.2-0.5s-0.2-0.3-0.3-0.4
		s-0.3-0.2-0.4-0.2s-0.3-0.1-0.5-0.1c-0.4,0-0.7,0.1-1,0.3s-0.5,0.5-0.6,0.8s-0.2,0.7-0.2,1.2c0,0.4,0.1,0.8,0.2,1.1
		s0.3,0.6,0.6,0.8s0.6,0.3,1,0.3c0.2,0,0.4,0,0.6-0.1s0.3-0.1,0.5-0.2s0.2-0.2,0.3-0.4s0.2-0.3,0.2-0.5l1.2,0.3
		c-0.1,0.3-0.2,0.6-0.4,0.8s-0.4,0.5-0.6,0.6s-0.5,0.3-0.8,0.4S541.9,31.6,541.5,31.6z"/>
        <path style="clip-path:url(#SVGID_00000148649937076223281600000014377743951031838123_);fill:#FFFFFF;" d="M548.5,30.5
		c0.4,0,0.7-0.1,1-0.3s0.5-0.5,0.6-0.8s0.2-0.7,0.2-1.1c0-0.4-0.1-0.8-0.2-1.2s-0.3-0.6-0.6-0.8s-0.6-0.3-1-0.3
		c-0.4,0-0.7,0.1-1,0.3s-0.5,0.5-0.6,0.8s-0.2,0.7-0.2,1.2c0,0.4,0.1,0.8,0.2,1.1s0.3,0.6,0.6,0.8S548.1,30.5,548.5,30.5z
		 M548.5,31.6c-0.6,0-1.1-0.1-1.6-0.4s-0.8-0.7-1.1-1.2s-0.4-1.1-0.4-1.8c0-0.7,0.1-1.3,0.4-1.8s0.6-0.9,1.1-1.2s1-0.4,1.6-0.4
		c0.6,0,1.2,0.1,1.6,0.4s0.8,0.7,1.1,1.2s0.4,1.1,0.4,1.8c0,0.7-0.1,1.3-0.4,1.8s-0.6,0.9-1.1,1.2S549.1,31.6,548.5,31.6z"/>
        <path style="clip-path:url(#SVGID_00000148649937076223281600000014377743951031838123_);fill:#FFFFFF;" d="M555.7,30.5
		c0.4,0,0.7-0.1,0.9-0.3s0.4-0.5,0.6-0.8s0.2-0.7,0.2-1.2c0-0.5-0.1-0.9-0.2-1.2s-0.3-0.6-0.6-0.8S556,26,555.7,26
		c-0.4,0-0.7,0.1-0.9,0.3s-0.4,0.5-0.6,0.8s-0.2,0.7-0.2,1.2c0,0.4,0.1,0.8,0.2,1.2s0.3,0.6,0.6,0.8S555.3,30.5,555.7,30.5z
		 M555.4,31.6c-0.5,0-1-0.1-1.4-0.4s-0.7-0.7-1-1.2s-0.4-1.1-0.4-1.8c0-0.7,0.1-1.3,0.4-1.8s0.6-0.9,1-1.2s0.9-0.4,1.4-0.4
		c0.4,0,0.7,0.1,1,0.2s0.4,0.3,0.6,0.5s0.2,0.3,0.3,0.5h0.1v-3.2h1.3v8.7h-1.3v-1h-0.1c-0.1,0.1-0.2,0.3-0.3,0.5s-0.3,0.3-0.6,0.5
		S555.8,31.6,555.4,31.6z"/>
        <path style="clip-path:url(#SVGID_00000148649937076223281600000014377743951031838123_);fill:#FFFFFF;" d="M563.2,31.6
		c-0.6,0-1.2-0.1-1.7-0.4s-0.8-0.7-1.1-1.2s-0.4-1.1-0.4-1.8c0-0.7,0.1-1.3,0.4-1.8s0.6-0.9,1.1-1.2s1-0.4,1.6-0.4
		c0.4,0,0.7,0.1,1.1,0.2s0.7,0.3,0.9,0.6s0.5,0.6,0.7,1s0.2,0.9,0.2,1.5v0.5h-5.2v-1h4.6l-0.6,0.3c0-0.4-0.1-0.8-0.2-1.1
		s-0.3-0.5-0.6-0.7s-0.5-0.3-0.9-0.3c-0.4,0-0.7,0.1-0.9,0.3s-0.5,0.4-0.6,0.7s-0.2,0.6-0.2,0.9v0.7c0,0.4,0.1,0.8,0.2,1.1
		s0.4,0.5,0.6,0.7s0.6,0.2,1,0.2c0.2,0,0.5,0,0.7-0.1s0.4-0.2,0.5-0.3s0.3-0.3,0.3-0.5l1.2,0.3c-0.1,0.3-0.3,0.6-0.5,0.9
		s-0.6,0.5-0.9,0.6S563.7,31.6,563.2,31.6z"/>

        <rect x="581.6" y="21.4"
              style="clip-path:url(#SVGID_00000148649937076223281600000014377743951031838123_);fill:none;stroke:#D1D5DB;stroke-width:0.75;"
              width="0.8" height="11.2"/>
        <path style="clip-path:url(#SVGID_00000148649937076223281600000014377743951031838123_);fill:#C81E1E;" d="M604,31.5l-2.1-3.9h1.5
		l2.2,3.9H604z M599,31.5v-8.7h3.1c0.7,0,1.2,0.1,1.7,0.3s0.8,0.6,1,1s0.3,0.9,0.3,1.4c0,0.5-0.1,1-0.3,1.4s-0.6,0.7-1,0.9
		s-1,0.3-1.7,0.3h-2.3v-1.1h2.2c0.4,0,0.8-0.1,1-0.2s0.5-0.3,0.6-0.5s0.2-0.5,0.2-0.8c0-0.3-0.1-0.6-0.2-0.8s-0.3-0.4-0.6-0.6
		s-0.6-0.2-1-0.2h-1.6v7.6H599z"/>
        <path style="clip-path:url(#SVGID_00000148649937076223281600000014377743951031838123_);fill:#C81E1E;" d="M609.4,31.6
		c-0.6,0-1.2-0.1-1.7-0.4s-0.8-0.7-1.1-1.2s-0.4-1.1-0.4-1.8c0-0.7,0.1-1.3,0.4-1.8s0.6-0.9,1.1-1.2s1-0.4,1.6-0.4
		c0.4,0,0.7,0.1,1.1,0.2s0.7,0.3,0.9,0.6s0.5,0.6,0.7,1s0.2,0.9,0.2,1.5v0.5H607v-1h4.6l-0.6,0.3c0-0.4-0.1-0.8-0.2-1.1
		s-0.3-0.5-0.6-0.7s-0.5-0.3-0.9-0.3c-0.4,0-0.7,0.1-0.9,0.3s-0.5,0.4-0.6,0.7s-0.2,0.6-0.2,0.9v0.7c0,0.4,0.1,0.8,0.2,1.1
		s0.4,0.5,0.6,0.7s0.6,0.2,1,0.2c0.2,0,0.5,0,0.7-0.1s0.4-0.2,0.5-0.3s0.3-0.3,0.3-0.5l1.2,0.3c-0.1,0.3-0.3,0.6-0.5,0.9
		s-0.6,0.5-0.9,0.6S609.8,31.6,609.4,31.6z"/>
        <path style="clip-path:url(#SVGID_00000148649937076223281600000014377743951031838123_);fill:#C81E1E;" d="M616.6,30.5
		c0.4,0,0.7-0.1,0.9-0.3s0.4-0.5,0.6-0.8s0.2-0.7,0.2-1.2c0-0.4-0.1-0.8-0.2-1.2s-0.3-0.6-0.6-0.8s-0.6-0.3-0.9-0.3
		c-0.4,0-0.7,0.1-0.9,0.3s-0.4,0.5-0.6,0.8s-0.2,0.7-0.2,1.2c0,0.5,0.1,0.9,0.2,1.2s0.3,0.6,0.6,0.8S616.2,30.5,616.6,30.5z
		 M613.6,33.9v-9h1.3V26h0.1c0.1-0.1,0.2-0.3,0.3-0.5s0.3-0.3,0.6-0.5s0.6-0.2,1-0.2c0.5,0,1,0.1,1.4,0.4s0.7,0.7,1,1.2
		s0.4,1.1,0.4,1.8c0,0.7-0.1,1.3-0.4,1.8s-0.6,0.9-1,1.2s-0.9,0.4-1.4,0.4c-0.4,0-0.7-0.1-1-0.2s-0.4-0.3-0.6-0.5s-0.3-0.3-0.3-0.5
		h-0.1v3.5H613.6z"/>
        <path style="clip-path:url(#SVGID_00000148649937076223281600000014377743951031838123_);fill:#C81E1E;" d="M623.8,30.5
		c0.4,0,0.7-0.1,1-0.3s0.5-0.5,0.6-0.8s0.2-0.7,0.2-1.1c0-0.4-0.1-0.8-0.2-1.2s-0.3-0.6-0.6-0.8s-0.6-0.3-1-0.3
		c-0.4,0-0.7,0.1-1,0.3s-0.5,0.5-0.6,0.8s-0.2,0.7-0.2,1.2c0,0.4,0.1,0.8,0.2,1.1s0.3,0.6,0.6,0.8S623.4,30.5,623.8,30.5z
		 M623.8,31.6c-0.6,0-1.1-0.1-1.6-0.4s-0.8-0.7-1.1-1.2s-0.4-1.1-0.4-1.8c0-0.7,0.1-1.3,0.4-1.8s0.6-0.9,1.1-1.2s1-0.4,1.6-0.4
		c0.6,0,1.2,0.1,1.6,0.4s0.8,0.7,1.1,1.2s0.4,1.1,0.4,1.8c0,0.7-0.1,1.3-0.4,1.8s-0.6,0.9-1.1,1.2S624.4,31.6,623.8,31.6z"/>
        <path style="clip-path:url(#SVGID_00000148649937076223281600000014377743951031838123_);fill:#C81E1E;" d="M628.3,31.5v-6.6h1.2
		V26h0.1c0.1-0.4,0.3-0.6,0.6-0.8s0.6-0.3,1-0.3c0.1,0,0.2,0,0.3,0s0.2,0,0.3,0v1.2c0,0-0.1,0-0.3,0s-0.3,0-0.4,0
		c-0.3,0-0.6,0.1-0.8,0.2s-0.4,0.3-0.6,0.5s-0.2,0.5-0.2,0.8v4H628.3z"/>
        <path style="clip-path:url(#SVGID_00000148649937076223281600000014377743951031838123_);fill:#C81E1E;" d="M633.3,23.4h1.3v6.3
		c0,0.3,0.1,0.5,0.2,0.6s0.3,0.2,0.5,0.2c0.1,0,0.2,0,0.3,0s0.2,0,0.3,0l0.2,1c-0.1,0-0.3,0.1-0.4,0.1s-0.3,0-0.5,0
		c-0.6,0-1.1-0.2-1.4-0.5s-0.5-0.7-0.5-1.3V23.4z M635.9,24.9v1h-3.6v-1H635.9z"/>
        <path style="clip-path:url(#SVGID_00000148649937076223281600000014377743951031838123_);fill:#C81E1E;" d="M642.5,30.6
		c0.4,0,0.7-0.1,0.9-0.2s0.4-0.3,0.6-0.5s0.2-0.5,0.2-0.7v-0.8c0,0-0.1,0.1-0.3,0.1s-0.3,0.1-0.4,0.1s-0.3,0.1-0.5,0.1s-0.3,0-0.4,0
		c-0.2,0-0.5,0.1-0.7,0.2s-0.4,0.2-0.5,0.3s-0.2,0.3-0.2,0.5c0,0.2,0.1,0.4,0.2,0.5s0.3,0.2,0.4,0.3S642.3,30.6,642.5,30.6z
		 M642.2,31.6c-0.4,0-0.8-0.1-1.1-0.2s-0.6-0.4-0.8-0.7s-0.3-0.7-0.3-1.1c0-0.4,0.1-0.7,0.2-0.9s0.3-0.4,0.6-0.6s0.5-0.2,0.8-0.3
		s0.6-0.1,0.9-0.2c0.4,0,0.7-0.1,0.9-0.1s0.4-0.1,0.5-0.1s0.2-0.2,0.2-0.3v0c0-0.2,0-0.5-0.1-0.6s-0.2-0.3-0.4-0.4s-0.4-0.1-0.7-0.1
		c-0.3,0-0.5,0-0.7,0.1s-0.4,0.2-0.5,0.3s-0.2,0.3-0.3,0.4l-1.2-0.3c0.1-0.4,0.4-0.7,0.6-0.9s0.6-0.4,1-0.5s0.7-0.2,1.1-0.2
		c0.3,0,0.5,0,0.8,0.1s0.6,0.2,0.8,0.3s0.5,0.4,0.6,0.7s0.2,0.7,0.2,1.2v4.3h-1.2v-0.9h-0.1c-0.1,0.2-0.2,0.3-0.4,0.5
		s-0.4,0.3-0.6,0.4S642.6,31.6,642.2,31.6z"/>
        <path style="clip-path:url(#SVGID_00000148649937076223281600000014377743951031838123_);fill:#C81E1E;" d="M653.4,30.5
		c0.4,0,0.7-0.1,0.9-0.3s0.4-0.5,0.6-0.8s0.2-0.7,0.2-1.2c0-0.4-0.1-0.8-0.2-1.2s-0.3-0.6-0.6-0.8s-0.6-0.3-0.9-0.3
		c-0.4,0-0.7,0.1-0.9,0.3s-0.4,0.5-0.6,0.8s-0.2,0.7-0.2,1.2c0,0.5,0.1,0.9,0.2,1.2s0.3,0.6,0.6,0.8S653,30.5,653.4,30.5z
		 M653.7,31.6c-0.4,0-0.7-0.1-1-0.2s-0.4-0.3-0.6-0.5s-0.3-0.3-0.3-0.5h-0.1v1h-1.3v-8.7h1.3V26h0.1c0.1-0.1,0.2-0.3,0.3-0.5
		s0.3-0.3,0.6-0.5s0.6-0.2,1-0.2c0.5,0,1,0.1,1.4,0.4s0.7,0.7,1,1.2s0.4,1.1,0.4,1.8c0,0.7-0.1,1.3-0.4,1.8s-0.6,0.9-1,1.2
		S654.2,31.6,653.7,31.6z"/>
        <path style="clip-path:url(#SVGID_00000148649937076223281600000014377743951031838123_);fill:#C81E1E;" d="M660,31.6
		c-0.4,0-0.8-0.1-1.2-0.3s-0.6-0.5-0.8-0.8s-0.3-0.8-0.3-1.4v-4.2h1.3v4c0,0.5,0.1,0.8,0.4,1.1s0.6,0.4,1,0.4c0.3,0,0.6-0.1,0.8-0.2
		s0.4-0.3,0.5-0.6s0.2-0.5,0.2-0.9v-3.9h1.3v6.6h-1.2l0-1.6h0.1c-0.2,0.6-0.5,1-0.8,1.3S660.5,31.6,660,31.6z"/>
        <path style="clip-path:url(#SVGID_00000148649937076223281600000014377743951031838123_);fill:#C81E1E;" d="M667.8,30.3
		c0.4,0,0.7-0.1,0.9-0.3s0.4-0.4,0.6-0.7s0.2-0.7,0.2-1.2c0-0.4-0.1-0.8-0.2-1.2s-0.3-0.6-0.6-0.8s-0.6-0.3-0.9-0.3
		c-0.4,0-0.7,0.1-0.9,0.3s-0.4,0.5-0.6,0.8s-0.2,0.7-0.2,1.1c0,0.4,0.1,0.8,0.2,1.1s0.3,0.6,0.6,0.8S667.4,30.3,667.8,30.3z
		 M667.8,34.1c-0.5,0-0.9-0.1-1.3-0.2s-0.7-0.3-0.9-0.5s-0.4-0.5-0.5-0.7l1.1-0.5c0.1,0.1,0.2,0.3,0.3,0.4s0.3,0.3,0.5,0.4
		s0.5,0.1,0.9,0.1c0.5,0,0.9-0.1,1.2-0.4s0.5-0.6,0.5-1.1v-1.3h-0.1c-0.1,0.1-0.2,0.3-0.3,0.5s-0.3,0.3-0.6,0.4s-0.6,0.2-1,0.2
		c-0.5,0-1-0.1-1.4-0.4s-0.7-0.6-1-1.1s-0.4-1.1-0.4-1.8s0.1-1.3,0.4-1.8s0.6-0.9,1-1.1s0.9-0.4,1.4-0.4c0.4,0,0.7,0.1,1,0.2
		s0.4,0.3,0.6,0.5s0.3,0.3,0.3,0.5h0.1v-1.1h1.3v6.6c0,0.6-0.1,1-0.4,1.4s-0.6,0.6-1.1,0.8S668.3,34.1,667.8,34.1z"/>

        <rect x="686.6" y="21.4"
              style="clip-path:url(#SVGID_00000148649937076223281600000014377743951031838123_);fill:none;stroke:#D1D5DB;stroke-width:0.75;"
              width="0.8" height="11.2"/>

        <rect x="799.1" y="21.4"
              style="clip-path:url(#SVGID_00000148649937076223281600000014377743951031838123_);fill:none;stroke:#D1D5DB;stroke-width:0.75;"
              width="0.8" height="11.2"/>
</g>
    <g>
	<defs>
		<rect id="SVGID_00000021841745611121477780000002300704432608620678_" x="815.2" y="19.5" width="15" height="15"/>
	</defs>
        <clipPath id="SVGID_00000059284363610607833190000013538280727990765742_">
		<use xlink:href="#SVGID_00000021841745611121477780000002300704432608620678_" style="overflow:visible;"/>
	</clipPath>
        <path style="clip-path:url(#SVGID_00000059284363610607833190000013538280727990765742_);fill:#F9FAFB;" d="M824.4,27.8h-3.3
		c-0.3,0-0.5,0-0.8,0.1c-0.3,0.1-0.5,0.1-0.8,0.2c-0.3,0.1-0.5,0.2-0.7,0.4c-0.2,0.2-0.4,0.3-0.6,0.5c-0.2,0.2-0.4,0.4-0.5,0.6
		c-0.2,0.2-0.3,0.5-0.4,0.7c-0.1,0.3-0.2,0.5-0.2,0.8c-0.1,0.3-0.1,0.5-0.1,0.8v1.7c0,0.2,0.1,0.4,0.2,0.6s0.4,0.2,0.6,0.2h10
		c0.2,0,0.4-0.1,0.6-0.2s0.2-0.4,0.2-0.6V32c0-0.3,0-0.5-0.1-0.8c-0.1-0.3-0.1-0.5-0.2-0.8c-0.1-0.3-0.2-0.5-0.4-0.7
		s-0.3-0.4-0.5-0.6c-0.2-0.2-0.4-0.4-0.6-0.5c-0.2-0.2-0.5-0.3-0.7-0.4c-0.3-0.1-0.5-0.2-0.8-0.2C825,27.9,824.7,27.8,824.4,27.8z
		 M822.7,27c0.5,0,1-0.1,1.4-0.3s0.9-0.5,1.2-0.8c0.4-0.4,0.6-0.8,0.8-1.2s0.3-0.9,0.3-1.4s-0.1-1-0.3-1.4s-0.5-0.9-0.8-1.2
		c-0.4-0.4-0.8-0.6-1.2-0.8s-0.9-0.3-1.4-0.3c-0.5,0-1,0.1-1.4,0.3c-0.5,0.2-0.9,0.5-1.2,0.8s-0.6,0.8-0.8,1.2s-0.3,0.9-0.3,1.4
		s0.1,1,0.3,1.4s0.5,0.9,0.8,1.2c0.4,0.4,0.8,0.6,1.2,0.8C821.8,26.9,822.3,27,822.7,27z"/>
</g>
    <g>
	<defs>
		<rect id="SVGID_00000031180724337728207870000000983944319872065464_" x="702.7" y="18" width="18" height="18"/>
	</defs>
        <clipPath id="SVGID_00000034807853623178536710000008787531321878673840_">
		<use xlink:href="#SVGID_00000031180724337728207870000000983944319872065464_" style="overflow:visible;"/>
	</clipPath>
        <path style="clip-path:url(#SVGID_00000034807853623178536710000008787531321878673840_);fill:#FFFFFF;" d="M704,20.6h15.4
		c0.2,0,0.3,0,0.5,0.1c0.2,0.1,0.3,0.2,0.4,0.3c0.1,0.1,0.2,0.3,0.3,0.4s0.1,0.3,0.1,0.5v10.3c0,0.2,0,0.3-0.1,0.5
		c-0.1,0.2-0.2,0.3-0.3,0.4c-0.1,0.1-0.3,0.2-0.4,0.3c-0.2,0.1-0.3,0.1-0.5,0.1H704c-0.2,0-0.3,0-0.5-0.1c-0.2-0.1-0.3-0.2-0.4-0.3
		s-0.2-0.3-0.3-0.4c-0.1-0.2-0.1-0.3-0.1-0.5V21.9c0-0.2,0-0.3,0.1-0.5c0.1-0.2,0.2-0.3,0.3-0.4s0.3-0.2,0.4-0.3
		C703.7,20.6,703.9,20.6,704,20.6z"/>
        <g style="clip-path:url(#SVGID_00000034807853623178536710000008787531321878673840_);enable-background:new    ;">
		<g>
			<defs>
				<rect id="SVGID_00000116914052323076546390000015688207162624710799_" x="702.7" y="20.2" width="18.2"
                      height="13.7"/>
			</defs>
            <clipPath id="SVGID_00000171715684765369451270000007680104911978466998_">
				<use xlink:href="#SVGID_00000116914052323076546390000015688207162624710799_" style="overflow:visible;"/>
			</clipPath>
            <defs>

					<filter id="Adobe_OpacityMaskFilter_00000140736488229352331130000007923900859752482962_"
                            filterUnits="userSpaceOnUse" x="702.7" y="20.2" width="18.2" height="13.7">

						<feColorMatrix type="matrix" values="-1 0 0 0 1  0 -1 0 0 1  0 0 -1 0 1  0 0 0 1 0"
                                       color-interpolation-filters="sRGB" result="source"/>
                        <feFlood style="flood-color:white;flood-opacity:1" result="back"/>
                        <feBlend in="source" in2="back" mode="normal"/>
				</filter>
			</defs>

            <mask maskUnits="userSpaceOnUse" x="702.7" y="20.2" width="18.2" height="13.7"
                  id="SVGID_00000133530722763404109540000017121096034582937497_">
				<g style="filter:url(#Adobe_OpacityMaskFilter_00000140736488229352331130000007923900859752482962_);">

						<rect x="702.7" y="20.2"
                              style="clip-path:url(#SVGID_00000171715684765369451270000007680104911978466998_);"
                              width="18.2" height="13.7"/>
				</g>
			</mask>

            <g style="clip-path:url(#SVGID_00000171715684765369451270000007680104911978466998_);mask:url(#SVGID_00000133530722763404109540000017121096034582937497_);enable-background:new    ;">
				<g>
					<defs>
						<rect id="SVGID_00000107579624413673081910000009514619720223541401_" x="702.7" y="20.2"
                              width="18.2" height="13.7"/>
					</defs>
                    <clipPath id="SVGID_00000164488118896426439070000015119694966651669682_">
						<use xlink:href="#SVGID_00000107579624413673081910000009514619720223541401_"
                             style="overflow:visible;"/>
					</clipPath>
                    <g style="clip-path:url(#SVGID_00000164488118896426439070000015119694966651669682_);">
						<defs>
							<rect id="SVGID_00000012471599804583872900000007051316257235301558_" x="702.8" y="20.2"
                                  width="18" height="13.5"/>
						</defs>
                        <clipPath id="SVGID_00000069367392732013339930000006250446684028382081_">
							<use xlink:href="#SVGID_00000012471599804583872900000007051316257235301558_"
                                 style="overflow:visible;"/>
						</clipPath>

                        <path
                            style="clip-path:url(#SVGID_00000069367392732013339930000006250446684028382081_);fill-rule:evenodd;clip-rule:evenodd;fill:#D02F44;"
                            d="
							M720.8,32.6h-18v0.9h18V32.6z M702.8,30.9h18v0.9h-18V30.9z M720.8,29.1h-18V30h18V29.1z M702.8,27.4h18v0.9h-18V27.4z
							 M720.8,25.7h-18v0.9h18V25.7z M702.8,24h18v0.9h-18V24z M720.8,22.3h-18v0.9h18V22.3z M720.8,20.6h-18v0.9h18V20.6z"/>

                        <rect x="702.8" y="20.6"
                              style="clip-path:url(#SVGID_00000069367392732013339930000006250446684028382081_);fill:#46467F;"
                              width="7.7" height="6"/>
                        <g style="clip-path:url(#SVGID_00000069367392732013339930000006250446684028382081_);">
							<defs>
								<rect id="SVGID_00000180366754742139553460000008954041028258714034_" x="703.2" y="21.1"
                                      width="6.7" height="5.5"/>
							</defs>
                            <clipPath id="SVGID_00000171678292720635688850000018019526426860194190_">
								<use xlink:href="#SVGID_00000180366754742139553460000008954041028258714034_"
                                     style="overflow:visible;"/>
							</clipPath>
                            <g style="clip-path:url(#SVGID_00000171678292720635688850000018019526426860194190_);">

									<image style="overflow:visible;" width="28" height="23" xlink:href="FC9FC879.png"
                                           transform="matrix(0.24 0 0 0.24 703.2 21.1199)">
								</image>
							</g>
						</g>
					</g>
				</g>
			</g>
            <defs>

					<filter id="Adobe_OpacityMaskFilter_00000145048548516330481220000013623703855446884254_"
                            filterUnits="userSpaceOnUse" x="702.7" y="20.2" width="18.2" height="13.7">
					<feColorMatrix type="matrix" values="1 0 0 0 0  0 1 0 0 0  0 0 1 0 0  0 0 0 1 0"/>
				</filter>
			</defs>

            <mask maskUnits="userSpaceOnUse" x="702.7" y="20.2" width="18.2" height="13.7"
                  id="SVGID_00000153670200430341164650000015750367812491827124_">
				<g style="filter:url(#Adobe_OpacityMaskFilter_00000145048548516330481220000013623703855446884254_);">
					<g class="st9">
						<g>
							<defs>
								<rect id="SVGID_00000150085125986563163780000007377047379443721140_" x="702.7" y="20.3"
                                      width="18" height="13.5"/>
							</defs>

                            <clipPath id="SVGID_00000029006648721370362220000008176753341075639983_"
                                      style="clip-path:url(#SVGID_00000171715684765369451270000007680104911978466998_);">
								<use xlink:href="#SVGID_00000150085125986563163780000007377047379443721140_"
                                     style="overflow:visible;"/>
							</clipPath>
                            <g>
								<defs>
									<rect id="SVGID_00000003077997585182686810000000805226298364828817_" x="702.7"
                                          y="20.2" width="18.2" height="13.7"/>
								</defs>

                                <clipPath id="SVGID_00000059289624177463761620000017577659976544439725_"
                                          style="clip-path:url(#SVGID_00000029006648721370362220000008176753341075639983_);">
									<use xlink:href="#SVGID_00000003077997585182686810000000805226298364828817_"
                                         style="overflow:visible;"/>
								</clipPath>
                                <g style="clip-path:url(#SVGID_00000059289624177463761620000017577659976544439725_);">

										<image style="overflow:visible;" width="76" height="57"
                                               xlink:href="FC9FC87F.png"
                                               transform="matrix(0.24 0 0 0.24 702.7197 20.1602)">
									</image>
								</g>
							</g>
						</g>
					</g>
				</g>
			</mask>

            <g style="clip-path:url(#SVGID_00000171715684765369451270000007680104911978466998_);mask:url(#SVGID_00000153670200430341164650000015750367812491827124_);enable-background:new    ;">
				<g>
					<defs>
						<rect id="SVGID_00000012431252007466692880000016513555275230835085_" x="702.7" y="20.2"
                              width="18.2" height="13.7"/>
					</defs>
                    <clipPath id="SVGID_00000057113102490348246820000010604480673184509574_">
						<use xlink:href="#SVGID_00000012431252007466692880000016513555275230835085_"
                             style="overflow:visible;"/>
					</clipPath>
                    <g style="clip-path:url(#SVGID_00000057113102490348246820000010604480673184509574_);">
						<defs>
							<rect id="SVGID_00000084517353088648216300000004495005488672725902_" x="702.8" y="20.2"
                                  width="18" height="13.5"/>
						</defs>
                        <clipPath id="SVGID_00000153685528592312840380000000591196799426218376_">
							<use xlink:href="#SVGID_00000084517353088648216300000004495005488672725902_"
                                 style="overflow:visible;"/>
						</clipPath>

                        <path
                            style="clip-path:url(#SVGID_00000153685528592312840380000000591196799426218376_);fill-rule:evenodd;clip-rule:evenodd;fill:#D02F44;"
                            d="
							M720.8,32.6h-18v0.9h18V32.6z M702.8,30.9h18v0.9h-18V30.9z M720.8,29.1h-18V30h18V29.1z M702.8,27.4h18v0.9h-18V27.4z
							 M720.8,25.7h-18v0.9h18V25.7z M702.8,24h18v0.9h-18V24z M720.8,22.3h-18v0.9h18V22.3z M720.8,20.6h-18v0.9h18V20.6z"/>

                        <rect x="702.8" y="20.6"
                              style="clip-path:url(#SVGID_00000153685528592312840380000000591196799426218376_);fill:#46467F;"
                              width="7.7" height="6"/>
                        <g style="clip-path:url(#SVGID_00000153685528592312840380000000591196799426218376_);">
							<defs>
								<rect id="SVGID_00000030471392247627923640000004657970218626215073_" x="703.2" y="21.1"
                                      width="6.7" height="5.5"/>
							</defs>
                            <clipPath id="SVGID_00000079468050393066719820000002302666644316361403_">
								<use xlink:href="#SVGID_00000030471392247627923640000004657970218626215073_"
                                     style="overflow:visible;"/>
							</clipPath>
                            <g style="clip-path:url(#SVGID_00000079468050393066719820000002302666644316361403_);">

									<image style="overflow:visible;" width="28" height="23" xlink:href="FC9FC87A.png"
                                           transform="matrix(0.24 0 0 0.24 703.2 21.1199)">
								</image>
							</g>
						</g>
					</g>
				</g>
			</g>
		</g>
	</g>
</g>
    <g>
	<defs>
		<rect id="SVGID_00000048494095481704011990000016890670490038539650_" width="841.9" height="595.2"/>
	</defs>
        <clipPath id="SVGID_00000047751637323565257210000017730661276954516888_">
		<use xlink:href="#SVGID_00000048494095481704011990000016890670490038539650_" style="overflow:visible;"/>
	</clipPath>
        <polygon style="clip-path:url(#SVGID_00000047751637323565257210000017730661276954516888_);fill:#FFFFFF;"
                 points="728.1,31.5
		728.1,22.8 733.6,22.8 733.6,23.9 729.4,23.9 729.4,26.5 733.3,26.5 733.3,27.7 729.4,27.7 729.4,30.4 733.6,30.4 733.6,31.5 	"/>
        <path style="clip-path:url(#SVGID_00000047751637323565257210000017730661276954516888_);fill:#FFFFFF;" d="M736.5,27.6v3.9h-1.3
		v-6.6h1.2l0,1.6h-0.1c0.2-0.6,0.5-1,0.8-1.3s0.8-0.4,1.3-0.4c0.4,0,0.8,0.1,1.2,0.3s0.6,0.5,0.8,0.8s0.3,0.8,0.3,1.4v4.2h-1.3v-4
		c0-0.5-0.1-0.8-0.4-1.1s-0.6-0.4-1-0.4c-0.3,0-0.5,0.1-0.8,0.2s-0.4,0.3-0.5,0.6S736.5,27.3,736.5,27.6z"/>
        <path style="clip-path:url(#SVGID_00000047751637323565257210000017730661276954516888_);fill:#FFFFFF;" d="M745.2,30.3
		c0.4,0,0.7-0.1,0.9-0.3s0.4-0.4,0.6-0.7s0.2-0.7,0.2-1.2c0-0.4-0.1-0.8-0.2-1.2s-0.3-0.6-0.6-0.8s-0.6-0.3-0.9-0.3
		c-0.4,0-0.7,0.1-0.9,0.3s-0.4,0.5-0.6,0.8s-0.2,0.7-0.2,1.1c0,0.4,0.1,0.8,0.2,1.1s0.3,0.6,0.6,0.8S744.8,30.3,745.2,30.3z
		 M745.2,34.1c-0.5,0-0.9-0.1-1.3-0.2s-0.7-0.3-0.9-0.5s-0.4-0.5-0.5-0.7l1.1-0.5c0.1,0.1,0.2,0.3,0.3,0.4s0.3,0.3,0.5,0.4
		s0.5,0.1,0.9,0.1c0.5,0,0.9-0.1,1.2-0.4s0.5-0.6,0.5-1.1v-1.3h-0.1c-0.1,0.1-0.2,0.3-0.3,0.5s-0.3,0.3-0.6,0.4s-0.6,0.2-1,0.2
		c-0.5,0-1-0.1-1.4-0.4s-0.7-0.6-1-1.1s-0.4-1.1-0.4-1.8s0.1-1.3,0.4-1.8s0.6-0.9,1-1.1s0.9-0.4,1.4-0.4c0.4,0,0.7,0.1,1,0.2
		s0.4,0.3,0.6,0.5s0.3,0.3,0.3,0.5h0.1v-1.1h1.3v6.6c0,0.6-0.1,1-0.4,1.4s-0.6,0.6-1.1,0.8S745.7,34.1,745.2,34.1z"/>

        <rect x="749.9" y="22.8"
              style="clip-path:url(#SVGID_00000047751637323565257210000017730661276954516888_);fill:#FFFFFF;"
              width="1.3" height="8.7"/>
        <path style="clip-path:url(#SVGID_00000047751637323565257210000017730661276954516888_);fill:#FFFFFF;" d="M753.5,23.9
		c-0.2,0-0.4-0.1-0.6-0.2s-0.2-0.3-0.2-0.5c0-0.2,0.1-0.4,0.2-0.5s0.3-0.2,0.6-0.2c0.2,0,0.4,0.1,0.6,0.2s0.2,0.3,0.2,0.5
		c0,0.2-0.1,0.4-0.2,0.5S753.8,23.9,753.5,23.9z M752.9,31.5v-6.6h1.3l0,6.6H752.9z"/>
        <path style="clip-path:url(#SVGID_00000047751637323565257210000017730661276954516888_);fill:#FFFFFF;" d="M758.3,31.6
		c-0.5,0-0.9-0.1-1.3-0.2s-0.7-0.3-0.9-0.6s-0.4-0.6-0.5-1l1.2-0.3c0.1,0.3,0.3,0.6,0.5,0.8s0.6,0.2,0.9,0.2c0.4,0,0.7-0.1,1-0.3
		s0.4-0.4,0.4-0.6c0-0.2-0.1-0.4-0.2-0.5s-0.4-0.2-0.7-0.3l-1.1-0.3c-0.6-0.1-1.1-0.4-1.4-0.7s-0.4-0.7-0.4-1.2c0-0.4,0.1-0.7,0.3-1
		s0.5-0.5,0.9-0.7s0.8-0.2,1.3-0.2c0.5,0,0.9,0.1,1.2,0.2s0.6,0.3,0.8,0.6s0.4,0.5,0.4,0.9l-1.2,0.3c-0.1-0.2-0.2-0.4-0.4-0.6
		s-0.5-0.3-0.9-0.3c-0.4,0-0.7,0.1-0.9,0.2s-0.4,0.4-0.4,0.6c0,0.2,0.1,0.4,0.2,0.5s0.4,0.2,0.8,0.3l1.1,0.2
		c0.6,0.1,1.1,0.4,1.3,0.6s0.4,0.7,0.4,1.1c0,0.4-0.1,0.8-0.3,1.1s-0.5,0.5-0.9,0.7S758.8,31.6,758.3,31.6z"/>
        <path style="clip-path:url(#SVGID_00000047751637323565257210000017730661276954516888_);fill:#FFFFFF;" d="M763.7,27.6v3.9h-1.3
		v-8.7h1.3v3.8h-0.2c0.2-0.6,0.5-1,0.8-1.3s0.8-0.4,1.3-0.4c0.4,0,0.8,0.1,1.2,0.3s0.6,0.5,0.8,0.8s0.3,0.8,0.3,1.4v4.2h-1.3v-4
		c0-0.5-0.1-0.8-0.4-1.1s-0.6-0.4-1-0.4c-0.3,0-0.5,0.1-0.8,0.2s-0.4,0.3-0.5,0.6S763.7,27.3,763.7,27.6z"/>
</g>
    <g>
	<defs>
		<rect id="SVGID_00000136394473960583035080000010915493436708640147_" x="776.2" y="23.2" width="7.5"
              height="7.5"/>
	</defs>
        <clipPath id="SVGID_00000014612659533256839760000003854593757024794251_">
		<use xlink:href="#SVGID_00000136394473960583035080000010915493436708640147_" style="overflow:visible;"/>
	</clipPath>

        <polyline
            style="clip-path:url(#SVGID_00000014612659533256839760000003854593757024794251_);fill:none;stroke:#FFFFFF;stroke-width:1.5;stroke-linecap:round;stroke-linejoin:round;"
            points="
		777,25.5 780,28.5 783,25.5 	"/>
</g>
</svg>
