<?xml version="1.0" encoding="utf-8"?>
<svg xmlns:xlink="http://www.w3.org/1999/xlink" version="1.1" id="Layer_1" xmlns="http://www.w3.org/2000/svg" x="0px"
     y="0px"
     viewBox="0 0 409.5 312.8" style="enable-background:new 0 0 409.5 312.8;" xml:space="preserve">
<style type="text/css">
	.st0{clip-path:url(#SVGID_00000168834213562789667520000003184019377021002156_);fill:#1F2937;}
	.st1{clip-path:url(#SVGID_00000168834213562789667520000003184019377021002156_);fill:#AA0000;}
	.st2{clip-path:url(#SVGID_00000168834213562789667520000003184019377021002156_);fill:none;stroke:#AA0000;stroke-width:0.75;}
	.st3{clip-path:url(#SVGID_00000168834213562789667520000003184019377021002156_);fill:none;stroke:#4B5563;stroke-width:0.75;}
	.st4{clip-path:url(#SVGID_00000080906099793410404630000005788880557787554963_);enable-background:new    ;}
	.st5{filter:url(#Adobe_OpacityMaskFilter);}
	.st6{clip-path:url(#SVGID_00000086661492340477442430000013714742374306353078_);}

		.st7{clip-path:url(#SVGID_00000086661492340477442430000013714742374306353078_);mask:url(#SVGID_00000001624652784663251990000007010877854294528932_);enable-background:new    ;}
	.st8{clip-path:url(#SVGID_00000145048080192212005600000007300417824749158812_);}

		.st9{clip-path:url(#SVGID_00000057109562624184729280000007072480566443922085_);fill-rule:evenodd;clip-rule:evenodd;fill:#AA0000;}
	.st10{clip-path:url(#SVGID_00000057109562624184729280000007072480566443922085_);fill:#AA0000;}
	.st11{filter:url(#Adobe_OpacityMaskFilter_00000068646041526982066670000006600140898544816283_);}
	.st12{enable-background:new    ;}
	.st13{clip-path:url(#SVGID_00000038399195823183319720000011368268739059303090_);}

		.st14{clip-path:url(#SVGID_00000086661492340477442430000013714742374306353078_);mask:url(#SVGID_00000009577666596542275560000009435822071708345526_);enable-background:new    ;}
	.st15{clip-path:url(#SVGID_00000084530856834732345120000003124791547765517458_);}

		.st16{clip-path:url(#SVGID_00000120526233340422295020000002502109859750557083_);fill-rule:evenodd;clip-rule:evenodd;fill:#AA0000;}
	.st17{clip-path:url(#SVGID_00000120526233340422295020000002502109859750557083_);fill:#AA0000;}
	.st18{clip-path:url(#SVGID_00000092436784227111985450000012481994153288019359_);fill:#FFFFFF;}
	.st19{clip-path:url(#SVGID_00000091017272186906907910000003504033985931674755_);fill:#FFFFFF;}
	.st20{clip-path:url(#SVGID_00000091017272186906907910000003504033985931674755_);fill:#6B7280;}
	.st21{clip-path:url(#SVGID_00000101814913760133941720000002308208814396281248_);}
	.st22{clip-path:url(#SVGID_00000038387184295370189090000018010670180259254420_);fill:#6B7280;}
	.st23{clip-path:url(#SVGID_00000181799852712707899730000014468630798723863449_);fill:#6B7280;}
	.st24{clip-path:url(#SVGID_00000181799852712707899730000014468630798723863449_);fill:#FFFFFF;}
</style>
    <g>
	<defs>
		<rect id="SVGID_1_" x="-54" y="-141" width="841.9" height="595.2"/>
	</defs>
        <clipPath id="SVGID_00000000186010005118341910000009437850856457146271_">
		<use xlink:href="#SVGID_1_" style="overflow:visible;"/>
	</clipPath>
        <path style="clip-path:url(#SVGID_00000000186010005118341910000009437850856457146271_);fill:#1F2937;" d="M0,306.8V6
		c0-0.4,0-0.8,0.1-1.2c0.1-0.4,0.2-0.8,0.3-1.1C0.6,3.3,0.8,3,1,2.7S1.5,2,1.8,1.8C2,1.5,2.3,1.2,2.7,1c0.3-0.2,0.7-0.4,1-0.6
		c0.4-0.2,0.7-0.3,1.1-0.3C5.2,0,5.6,0,6,0h397.5c0.4,0,0.8,0,1.2,0.1c0.4,0.1,0.8,0.2,1.1,0.3c0.4,0.2,0.7,0.3,1,0.6
		c0.3,0.2,0.6,0.5,0.9,0.7c0.3,0.3,0.5,0.6,0.7,0.9s0.4,0.7,0.6,1c0.2,0.4,0.3,0.7,0.3,1.1s0.1,0.8,0.1,1.2v300.8
		c0,0.4,0,0.8-0.1,1.2c-0.1,0.4-0.2,0.8-0.3,1.1c-0.2,0.4-0.3,0.7-0.6,1c-0.2,0.3-0.5,0.6-0.7,0.9c-0.3,0.3-0.6,0.5-0.9,0.7
		c-0.3,0.2-0.7,0.4-1,0.6c-0.4,0.2-0.7,0.3-1.1,0.3c-0.4,0.1-0.8,0.1-1.2,0.1H6c-0.4,0-0.8,0-1.2-0.1c-0.4-0.1-0.8-0.2-1.1-0.3
		c-0.4-0.2-0.7-0.3-1-0.6c-0.3-0.2-0.6-0.5-0.9-0.7c-0.3-0.3-0.5-0.6-0.7-0.9c-0.2-0.3-0.4-0.7-0.6-1c-0.2-0.4-0.3-0.7-0.3-1.1
		C0,307.5,0,307.1,0,306.8z"/>
        <path style="clip-path:url(#SVGID_00000000186010005118341910000009437850856457146271_);fill:#AA0000;" d="M30.4,233.2v-19.5
		c0-0.4,0-0.7,0.1-1.1c0.1-0.4,0.2-0.7,0.3-1.1s0.3-0.7,0.5-1c0.2-0.3,0.4-0.6,0.7-0.9c0.3-0.3,0.5-0.5,0.9-0.7
		c0.3-0.2,0.6-0.4,1-0.5c0.3-0.1,0.7-0.2,1.1-0.3s0.7-0.1,1.1-0.1h337.5c0.4,0,0.7,0,1.1,0.1c0.4,0.1,0.7,0.2,1.1,0.3
		c0.3,0.1,0.7,0.3,1,0.5c0.3,0.2,0.6,0.4,0.9,0.7c0.3,0.3,0.5,0.5,0.7,0.9c0.2,0.3,0.4,0.6,0.5,1c0.1,0.3,0.2,0.7,0.3,1.1
		c0.1,0.4,0.1,0.7,0.1,1.1v19.5c0,0.4,0,0.7-0.1,1.1c-0.1,0.4-0.2,0.7-0.3,1.1c-0.1,0.3-0.3,0.7-0.5,1c-0.2,0.3-0.4,0.6-0.7,0.9
		c-0.3,0.3-0.5,0.5-0.9,0.7s-0.6,0.4-1,0.5s-0.7,0.2-1.1,0.3c-0.4,0.1-0.7,0.1-1.1,0.1H36c-0.4,0-0.7,0-1.1-0.1
		c-0.4-0.1-0.7-0.2-1.1-0.3s-0.7-0.3-1-0.5c-0.3-0.2-0.6-0.4-0.9-0.7s-0.5-0.5-0.7-0.9c-0.2-0.3-0.4-0.6-0.5-1s-0.2-0.7-0.3-1.1
		C30.4,234,30.4,233.6,30.4,233.2z"/>

        <path
            style="clip-path:url(#SVGID_00000000186010005118341910000009437850856457146271_);fill:none;stroke:#AA0000;stroke-width:0.75;"
            d="
		M30.4,233.2v-19.5c0-0.4,0-0.7,0.1-1.1c0.1-0.4,0.2-0.7,0.3-1.1s0.3-0.7,0.5-1c0.2-0.3,0.4-0.6,0.7-0.9c0.3-0.3,0.5-0.5,0.9-0.7
		c0.3-0.2,0.6-0.4,1-0.5c0.3-0.1,0.7-0.2,1.1-0.3s0.7-0.1,1.1-0.1h337.5c0.4,0,0.7,0,1.1,0.1c0.4,0.1,0.7,0.2,1.1,0.3
		c0.3,0.1,0.7,0.3,1,0.5c0.3,0.2,0.6,0.4,0.9,0.7c0.3,0.3,0.5,0.5,0.7,0.9c0.2,0.3,0.4,0.6,0.5,1c0.1,0.3,0.2,0.7,0.3,1.1
		c0.1,0.4,0.1,0.7,0.1,1.1v19.5c0,0.4,0,0.7-0.1,1.1c-0.1,0.4-0.2,0.7-0.3,1.1c-0.1,0.3-0.3,0.7-0.5,1c-0.2,0.3-0.4,0.6-0.7,0.9
		c-0.3,0.3-0.5,0.5-0.9,0.7s-0.6,0.4-1,0.5s-0.7,0.2-1.1,0.3c-0.4,0.1-0.7,0.1-1.1,0.1H36c-0.4,0-0.7,0-1.1-0.1
		c-0.4-0.1-0.7-0.2-1.1-0.3s-0.7-0.3-1-0.5c-0.3-0.2-0.6-0.4-0.9-0.7s-0.5-0.5-0.7-0.9c-0.2-0.3-0.4-0.6-0.5-1s-0.2-0.7-0.3-1.1
		C30.4,234,30.4,233.6,30.4,233.2z"/>

        <path
            style="clip-path:url(#SVGID_00000000186010005118341910000009437850856457146271_);fill:none;stroke:#4B5563;stroke-width:0.75;"
            d="
		M30.4,276.8v-19.5c0-0.4,0-0.7,0.1-1.1c0.1-0.4,0.2-0.7,0.3-1.1c0.1-0.3,0.3-0.7,0.5-1c0.2-0.3,0.4-0.6,0.7-0.9
		c0.3-0.3,0.5-0.5,0.9-0.7c0.3-0.2,0.6-0.4,1-0.5c0.3-0.1,0.7-0.2,1.1-0.3s0.7-0.1,1.1-0.1h337.5c0.4,0,0.7,0,1.1,0.1
		c0.4,0.1,0.7,0.2,1.1,0.3c0.3,0.1,0.7,0.3,1,0.5c0.3,0.2,0.6,0.4,0.9,0.7c0.3,0.3,0.5,0.5,0.7,0.9c0.2,0.3,0.4,0.6,0.5,1
		c0.1,0.3,0.2,0.7,0.3,1.1c0.1,0.4,0.1,0.7,0.1,1.1v19.5c0,0.4,0,0.7-0.1,1.1c-0.1,0.4-0.2,0.7-0.3,1.1c-0.1,0.3-0.3,0.7-0.5,1
		s-0.4,0.6-0.7,0.9c-0.3,0.3-0.5,0.5-0.9,0.7c-0.3,0.2-0.6,0.4-1,0.5c-0.3,0.1-0.7,0.2-1.1,0.3c-0.4,0.1-0.7,0.1-1.1,0.1H36
		c-0.4,0-0.7,0-1.1-0.1c-0.4-0.1-0.7-0.2-1.1-0.3c-0.3-0.1-0.7-0.3-1-0.5c-0.3-0.2-0.6-0.4-0.9-0.7c-0.3-0.3-0.5-0.5-0.7-0.9
		c-0.2-0.3-0.4-0.6-0.5-1c-0.1-0.3-0.2-0.7-0.3-1.1C30.4,277.5,30.4,277.1,30.4,276.8z"/>
</g>
    <g>
	<defs>
		<rect id="SVGID_00000017494531473324580000000016327319787039352454_" x="30" y="30" width="216" height="57.8"/>
	</defs>
        <clipPath id="SVGID_00000114039963330976189250000003572342095832932744_">
		<use xlink:href="#SVGID_00000017494531473324580000000016327319787039352454_" style="overflow:visible;"/>
	</clipPath>
        <g style="clip-path:url(#SVGID_00000114039963330976189250000003572342095832932744_);enable-background:new    ;">
		<g>
			<defs>
				<rect id="SVGID_00000064336702352143540230000015559793624425528964_" x="30" y="29.9" width="216"
                      height="58.1"/>
			</defs>
            <clipPath id="SVGID_00000143610229957490151260000003397721319662312890_">
				<use xlink:href="#SVGID_00000064336702352143540230000015559793624425528964_" style="overflow:visible;"/>
			</clipPath>
            <defs>
				<filter id="Adobe_OpacityMaskFilter" filterUnits="userSpaceOnUse" x="30" y="29.9" width="216"
                        height="58.1">

						<feColorMatrix type="matrix" values="-1 0 0 0 1  0 -1 0 0 1  0 0 -1 0 1  0 0 0 1 0"
                                       color-interpolation-filters="sRGB" result="source"/>
                    <feFlood style="flood-color:white;flood-opacity:1" result="back"/>
                    <feBlend in="source" in2="back" mode="normal"/>
				</filter>
			</defs>

            <mask maskUnits="userSpaceOnUse" x="30" y="29.9" width="216" height="58.1"
                  id="SVGID_00000080190780430902119590000004479922876786092719_">
				<g class="st5">

						<rect x="30" y="29.9"
                              style="clip-path:url(#SVGID_00000143610229957490151260000003397721319662312890_);"
                              width="216" height="58.1"/>
				</g>
			</mask>

            <g style="clip-path:url(#SVGID_00000143610229957490151260000003397721319662312890_);mask:url(#SVGID_00000080190780430902119590000004479922876786092719_);enable-background:new    ;">
				<g>
					<defs>
						<rect id="SVGID_00000152224536365505389650000015416071107617821624_" x="30" y="29.9" width="216"
                              height="58.1"/>
					</defs>
                    <clipPath id="SVGID_00000066510125173122645050000016675262644578444201_">
						<use xlink:href="#SVGID_00000152224536365505389650000015416071107617821624_"
                             style="overflow:visible;"/>
					</clipPath>
                    <g style="clip-path:url(#SVGID_00000066510125173122645050000016675262644578444201_);">
						<defs>
							<rect id="SVGID_00000029739197528373188380000002531894711819176862_" x="30" y="30"
                                  width="216" height="57.8"/>
						</defs>
                        <clipPath id="SVGID_00000112616531123099508950000011042637764905624992_">
							<use xlink:href="#SVGID_00000029739197528373188380000002531894711819176862_"
                                 style="overflow:visible;"/>
						</clipPath>

                        <path
                            style="clip-path:url(#SVGID_00000112616531123099508950000011042637764905624992_);fill-rule:evenodd;clip-rule:evenodd;fill:#AA0000;"
                            d="
							M55,49.7l6.7,3.9c0.3,0.2,0.4,0.6,0.2,0.9l-2.2,3.8c-0.2,0.3-0.6,0.4-0.9,0.2l-6.7-3.9v7.8c0,0.4-0.3,0.7-0.7,0.7h-4.4
							c-0.4,0-0.7-0.3-0.7-0.7v-7.8l-6.7,3.9c-0.3,0.2-0.7,0.1-0.9-0.2l-2.2-3.8c-0.2-0.3-0.1-0.7,0.2-0.9l6.7-3.9l-6.7-3.9
							c-0.3-0.2-0.4-0.6-0.2-0.9l2.2-3.8c0.2-0.3,0.6-0.4,0.9-0.2l6.7,3.9v-7.8c0-0.4,0.3-0.7,0.7-0.7h4.4c0.4,0,0.7,0.3,0.7,0.7
							v7.8l6.7-3.9c0.3-0.2,0.7-0.1,0.9,0.2l2.2,3.8c0.2,0.3,0.1,0.7-0.2,0.9L55,49.7z M58.3,77.1h0.4c0.1,0,0.2,0,0.3-0.1
							s0.1-0.1,0.1-0.2V76c0-0.1,0-0.2-0.1-0.2c-0.1-0.1-0.2-0.1-0.3-0.1h-0.4V77.1L58.3,77.1z M57.3,79.5v-4.7h1.4
							c0.4,0,0.8,0.1,1,0.3c0.3,0.2,0.4,0.5,0.4,0.8v0.8c0,0.2-0.1,0.4-0.2,0.6c-0.1,0.1-0.1,0.2-0.2,0.3c0.1,0,0.2,0.1,0.2,0.2
							c0.1,0.1,0.2,0.3,0.2,0.5v1.3h-1v-1.3c0-0.1,0-0.2-0.1-0.2c-0.1-0.1-0.2-0.1-0.3-0.1h-0.4v1.6H57.3z M56.4,75.7v-0.8H54v4.7
							h2.4v-0.8H55v-1.2h1.1v-0.8H55v-0.9H56.4z M50.1,79.5v-4.7h0.8l1,2.4v-2.4h1v4.7h-0.8l-1-2.4v2.4H50.1z M46.2,74.8v4.7h1v-2.4
							l1,2.4H49v-4.7h-1v2.4l-1-2.4H46.2z M45.1,74.8v3.6c0,0.3-0.1,0.6-0.4,0.8c-0.3,0.2-0.6,0.3-1,0.3c-0.4,0-0.8-0.1-1-0.3
							c-0.3-0.2-0.4-0.5-0.4-0.8v-3.6h1v3.6c0,0.1,0,0.2,0.1,0.2c0.1,0.1,0.2,0.1,0.3,0.1c0.1,0,0.2,0,0.3-0.1
							c0.1-0.1,0.1-0.1,0.1-0.2v-3.6H45.1z M39.9,77.1h-0.4v0v-1.4h0.4c0.1,0,0.2,0,0.3,0.1c0.1,0.1,0.1,0.1,0.1,0.2v0.8
							c0,0.1,0,0.2-0.1,0.2S40,77.1,39.9,77.1z M38.5,74.8v4.7h1v-1.6h0.4c0.1,0,0.2,0,0.3,0.1s0.1,0.1,0.1,0.2v1.3h1v-1.3
							c0-0.2-0.1-0.3-0.2-0.5c-0.1-0.1-0.1-0.1-0.2-0.2c0.1-0.1,0.2-0.2,0.2-0.3c0.1-0.2,0.2-0.4,0.2-0.6V76c0-0.3-0.1-0.6-0.4-0.8
							c-0.3-0.2-0.6-0.3-1-0.3H38.5z M56.7,72.8h0.7c0.2,0,0.4-0.1,0.6-0.2c0.1-0.1,0.2-0.2,0.2-0.4V68c0-0.2-0.1-0.3-0.2-0.4
							c-0.1-0.1-0.3-0.2-0.6-0.2h-0.7V72.8L56.7,72.8z M54.7,74.3V66h2.8c0.8,0,1.5,0.2,2,0.6c0.5,0.4,0.7,0.9,0.7,1.5v4.3
							c0,0.6-0.2,1.1-0.7,1.5c-0.5,0.4-1.2,0.6-2,0.6H54.7z M52.9,67.5V66v0h-4.6v8.4h4.6v-1.5h-2.6v-2.2h2.2v-1.5h-2.2v-1.7H52.9z
							 M38.5,74.3V66h1.8l2.1,5.8l2.1-5.8h1.8v8.4h-1.9v-3.6l-1.3,3.6h-1.3l-1.3-3.6v3.6H38.5z M68.6,49.4C68.6,38.7,60,30,49.3,30
							C38.7,30,30,38.7,30,49.4l4.1,31.1c0.1,0.9,0.8,1.6,1.6,1.9l12.5,3.4c0.7,0.2,1.5,0.2,2.2,0l12.5-3.4c0.9-0.2,1.5-1,1.6-1.9
							L68.6,49.4L68.6,49.4z"/>
                        <polygon
                            style="clip-path:url(#SVGID_00000112616531123099508950000011042637764905624992_);fill:#AA0000;"
                            points="
							82.7,72.7 82.7,44.8 87.2,44.8 92.9,66.4 91.7,66.4 97.4,44.8 101.8,44.8 101.8,72.7 97.2,72.7 97.2,58.6 97.8,58.7
							93.8,72.7 90.7,72.7 86.7,58.7 87.3,58.6 87.3,72.7 						"/>
                        <polygon
                            style="clip-path:url(#SVGID_00000112616531123099508950000011042637764905624992_);fill:#AA0000;"
                            points="
							118.7,44.8 118.7,49.8 112.2,49.8 112.2,55.4 117.7,55.4 117.7,60.4 112.2,60.4 112.2,67.7 118.7,67.7 118.7,72.7 107.2,72.7
							107.2,44.8 						"/>
                        <path
                            style="clip-path:url(#SVGID_00000112616531123099508950000011042637764905624992_);fill:#AA0000;"
                            d="M128,67.7h1.8
							c0.6,0,1-0.2,1.4-0.5s0.5-0.8,0.5-1.4V51.7c0-0.6-0.2-1-0.5-1.4c-0.3-0.3-0.8-0.5-1.4-0.5H128V67.7z M123,72.7V44.8h6.8
							c2.1,0,3.8,0.6,5,1.9c1.2,1.3,1.8,2.9,1.8,5v14.2c0,2.1-0.6,3.7-1.8,5c-1.2,1.3-2.9,1.9-5,1.9H123z"/>
                        <path
                            style="clip-path:url(#SVGID_00000112616531123099508950000011042637764905624992_);fill:#AA0000;"
                            d="M146.5,58h1.8
							c0.6,0,1-0.2,1.4-0.5c0.3-0.3,0.5-0.8,0.5-1.4v-4.5c0-0.6-0.2-1-0.5-1.4c-0.3-0.3-0.8-0.5-1.4-0.5h-1.8V58z M141.5,72.7V44.8
							h6.8c2.1,0,3.8,0.6,5,1.9c1.2,1.3,1.8,2.9,1.8,5v4.5c0,1.3-0.3,2.5-0.8,3.5c-0.5,1-1.3,1.8-2.2,2.4l-0.4-1.6
							c1.1,0.4,1.9,1,2.5,1.7c0.6,0.8,0.9,1.7,0.9,2.8v7.8h-5v-7.8c0-0.6-0.2-1-0.5-1.4c-0.3-0.3-0.8-0.5-1.4-0.5h-1.8v9.7H141.5z"
                        />
                        <path
                            style="clip-path:url(#SVGID_00000112616531123099508950000011042637764905624992_);fill:#AA0000;"
                            d="M173.7,44.8v21.6
							c0,2.1-0.6,3.7-1.8,5c-1.2,1.3-2.9,1.9-5,1.9c-2.1,0-3.7-0.6-5-1.9c-1.2-1.3-1.9-2.9-1.9-5V44.8h5v21.6c0,0.6,0.2,1,0.5,1.4
							c0.3,0.3,0.8,0.5,1.4,0.5s1-0.2,1.4-0.5c0.3-0.3,0.5-0.8,0.5-1.4V44.8H173.7z"/>
                        <polygon
                            style="clip-path:url(#SVGID_00000112616531123099508950000011042637764905624992_);fill:#AA0000;"
                            points="
							178.9,72.7 178.9,44.8 182.6,44.8 188.9,62.9 187.6,62.9 187.6,44.8 192.2,44.8 192.2,72.7 188.5,72.7 182.2,54.6 183.5,54.6
							183.5,72.7 						"/>
                        <polygon
                            style="clip-path:url(#SVGID_00000112616531123099508950000011042637764905624992_);fill:#AA0000;"
                            points="
							197.6,72.7 197.6,44.8 201.3,44.8 207.6,62.9 206.3,62.9 206.3,44.8 210.9,44.8 210.9,72.7 207.2,72.7 200.9,54.6 202.2,54.6
							202.2,72.7 						"/>
                        <polygon
                            style="clip-path:url(#SVGID_00000112616531123099508950000011042637764905624992_);fill:#AA0000;"
                            points="
							227.8,44.8 227.8,49.8 221.3,49.8 221.3,55.4 226.8,55.4 226.8,60.4 221.3,60.4 221.3,67.7 227.8,67.7 227.8,72.7 216.3,72.7
							216.3,44.8 						"/>
                        <path
                            style="clip-path:url(#SVGID_00000112616531123099508950000011042637764905624992_);fill:#AA0000;"
                            d="M237.1,58h1.8
							c0.6,0,1-0.2,1.4-0.5c0.3-0.3,0.5-0.8,0.5-1.4v-4.5c0-0.6-0.2-1-0.5-1.4c-0.3-0.3-0.8-0.5-1.4-0.5h-1.8V58z M232.1,72.7V44.8
							h6.8c2.1,0,3.8,0.6,5,1.9c1.2,1.3,1.8,2.9,1.8,5v4.5c0,1.3-0.3,2.5-0.8,3.5c-0.5,1-1.3,1.8-2.2,2.4l-0.4-1.6
							c1.1,0.4,1.9,1,2.5,1.7c0.6,0.8,0.9,1.7,0.9,2.8v7.8h-5v-7.8c0-0.6-0.2-1-0.5-1.4c-0.3-0.3-0.8-0.5-1.4-0.5h-1.8v9.7H232.1z"
                        />
					</g>
				</g>
			</g>
            <defs>

					<filter id="Adobe_OpacityMaskFilter_00000174567623446482697310000014371987808963595148_"
                            filterUnits="userSpaceOnUse" x="30" y="29.9" width="216" height="58.1">
					<feColorMatrix type="matrix" values="1 0 0 0 0  0 1 0 0 0  0 0 1 0 0  0 0 0 1 0"/>
				</filter>
			</defs>

            <mask maskUnits="userSpaceOnUse" x="30" y="29.9" width="216" height="58.1"
                  id="SVGID_00000096780535377359981690000000523728731368541351_">
				<g style="filter:url(#Adobe_OpacityMaskFilter_00000174567623446482697310000014371987808963595148_);">
					<g class="st12">
						<g>
							<defs>
								<rect id="SVGID_00000067228327897892461140000007072243007069991827_" x="30" y="30"
                                      width="216" height="57.8"/>
							</defs>

                            <clipPath id="SVGID_00000005953303444720642830000000991378271514747820_"
                                      style="clip-path:url(#SVGID_00000143610229957490151260000003397721319662312890_);">
								<use xlink:href="#SVGID_00000067228327897892461140000007072243007069991827_"
                                     style="overflow:visible;"/>
							</clipPath>
                            <g>
								<defs>
									<rect id="SVGID_00000095331718688727996380000009351109162943447200_" x="30" y="29.9"
                                          width="216" height="58.1"/>
								</defs>

                                <clipPath id="SVGID_00000109738126742322156940000008726490050259387270_"
                                          style="clip-path:url(#SVGID_00000005953303444720642830000000991378271514747820_);">
									<use xlink:href="#SVGID_00000095331718688727996380000009351109162943447200_"
                                         style="overflow:visible;"/>
								</clipPath>
                                <g style="clip-path:url(#SVGID_00000109738126742322156940000008726490050259387270_);">

										<image style="overflow:visible;" width="900" height="242"
                                               xlink:href="ECA3C255.png" transform="matrix(0.24 0 0 0.24 30 29.8799)">
									</image>
								</g>
							</g>
						</g>
					</g>
				</g>
			</mask>

            <g style="clip-path:url(#SVGID_00000143610229957490151260000003397721319662312890_);mask:url(#SVGID_00000096780535377359981690000000523728731368541351_);enable-background:new    ;">
				<g>
					<defs>
						<rect id="SVGID_00000130620577575252135450000013618770884947864991_" x="30" y="29.9" width="216"
                              height="58.1"/>
					</defs>
                    <clipPath id="SVGID_00000141425624018079578760000001038817156530850433_">
						<use xlink:href="#SVGID_00000130620577575252135450000013618770884947864991_"
                             style="overflow:visible;"/>
					</clipPath>
                    <g style="clip-path:url(#SVGID_00000141425624018079578760000001038817156530850433_);">
						<defs>
							<rect id="SVGID_00000100354511358786411890000017430464761501893560_" x="30" y="30"
                                  width="216" height="57.8"/>
						</defs>
                        <clipPath id="SVGID_00000014602035712400643200000013223701829475767170_">
							<use xlink:href="#SVGID_00000100354511358786411890000017430464761501893560_"
                                 style="overflow:visible;"/>
						</clipPath>

                        <path
                            style="clip-path:url(#SVGID_00000014602035712400643200000013223701829475767170_);fill-rule:evenodd;clip-rule:evenodd;fill:#AA0000;"
                            d="
							M55,49.7l6.7,3.9c0.3,0.2,0.4,0.6,0.2,0.9l-2.2,3.8c-0.2,0.3-0.6,0.4-0.9,0.2l-6.7-3.9v7.8c0,0.4-0.3,0.7-0.7,0.7h-4.4
							c-0.4,0-0.7-0.3-0.7-0.7v-7.8l-6.7,3.9c-0.3,0.2-0.7,0.1-0.9-0.2l-2.2-3.8c-0.2-0.3-0.1-0.7,0.2-0.9l6.7-3.9l-6.7-3.9
							c-0.3-0.2-0.4-0.6-0.2-0.9l2.2-3.8c0.2-0.3,0.6-0.4,0.9-0.2l6.7,3.9v-7.8c0-0.4,0.3-0.7,0.7-0.7h4.4c0.4,0,0.7,0.3,0.7,0.7
							v7.8l6.7-3.9c0.3-0.2,0.7-0.1,0.9,0.2l2.2,3.8c0.2,0.3,0.1,0.7-0.2,0.9L55,49.7z M58.3,77.1h0.4c0.1,0,0.2,0,0.3-0.1
							s0.1-0.1,0.1-0.2V76c0-0.1,0-0.2-0.1-0.2c-0.1-0.1-0.2-0.1-0.3-0.1h-0.4V77.1L58.3,77.1z M57.3,79.5v-4.7h1.4
							c0.4,0,0.8,0.1,1,0.3c0.3,0.2,0.4,0.5,0.4,0.8v0.8c0,0.2-0.1,0.4-0.2,0.6c-0.1,0.1-0.1,0.2-0.2,0.3c0.1,0,0.2,0.1,0.2,0.2
							c0.1,0.1,0.2,0.3,0.2,0.5v1.3h-1v-1.3c0-0.1,0-0.2-0.1-0.2c-0.1-0.1-0.2-0.1-0.3-0.1h-0.4v1.6H57.3z M56.4,75.7v-0.8H54v4.7
							h2.4v-0.8H55v-1.2h1.1v-0.8H55v-0.9H56.4z M50.1,79.5v-4.7h0.8l1,2.4v-2.4h1v4.7h-0.8l-1-2.4v2.4H50.1z M46.2,74.8v4.7h1v-2.4
							l1,2.4H49v-4.7h-1v2.4l-1-2.4H46.2z M45.1,74.8v3.6c0,0.3-0.1,0.6-0.4,0.8c-0.3,0.2-0.6,0.3-1,0.3c-0.4,0-0.8-0.1-1-0.3
							c-0.3-0.2-0.4-0.5-0.4-0.8v-3.6h1v3.6c0,0.1,0,0.2,0.1,0.2c0.1,0.1,0.2,0.1,0.3,0.1c0.1,0,0.2,0,0.3-0.1
							c0.1-0.1,0.1-0.1,0.1-0.2v-3.6H45.1z M39.9,77.1h-0.4v0v-1.4h0.4c0.1,0,0.2,0,0.3,0.1c0.1,0.1,0.1,0.1,0.1,0.2v0.8
							c0,0.1,0,0.2-0.1,0.2S40,77.1,39.9,77.1z M38.5,74.8v4.7h1v-1.6h0.4c0.1,0,0.2,0,0.3,0.1s0.1,0.1,0.1,0.2v1.3h1v-1.3
							c0-0.2-0.1-0.3-0.2-0.5c-0.1-0.1-0.1-0.1-0.2-0.2c0.1-0.1,0.2-0.2,0.2-0.3c0.1-0.2,0.2-0.4,0.2-0.6V76c0-0.3-0.1-0.6-0.4-0.8
							c-0.3-0.2-0.6-0.3-1-0.3H38.5z M56.7,72.8h0.7c0.2,0,0.4-0.1,0.6-0.2c0.1-0.1,0.2-0.2,0.2-0.4V68c0-0.2-0.1-0.3-0.2-0.4
							c-0.1-0.1-0.3-0.2-0.6-0.2h-0.7V72.8L56.7,72.8z M54.7,74.3V66h2.8c0.8,0,1.5,0.2,2,0.6c0.5,0.4,0.7,0.9,0.7,1.5v4.3
							c0,0.6-0.2,1.1-0.7,1.5c-0.5,0.4-1.2,0.6-2,0.6H54.7z M52.9,67.5V66v0h-4.6v8.4h4.6v-1.5h-2.6v-2.2h2.2v-1.5h-2.2v-1.7H52.9z
							 M38.5,74.3V66h1.8l2.1,5.8l2.1-5.8h1.8v8.4h-1.9v-3.6l-1.3,3.6h-1.3l-1.3-3.6v3.6H38.5z M68.6,49.4C68.6,38.7,60,30,49.3,30
							C38.7,30,30,38.7,30,49.4l4.1,31.1c0.1,0.9,0.8,1.6,1.6,1.9l12.5,3.4c0.7,0.2,1.5,0.2,2.2,0l12.5-3.4c0.9-0.2,1.5-1,1.6-1.9
							L68.6,49.4L68.6,49.4z"/>
                        <polygon
                            style="clip-path:url(#SVGID_00000014602035712400643200000013223701829475767170_);fill:#AA0000;"
                            points="
							82.7,72.7 82.7,44.8 87.2,44.8 92.9,66.4 91.7,66.4 97.4,44.8 101.8,44.8 101.8,72.7 97.2,72.7 97.2,58.6 97.8,58.7
							93.8,72.7 90.7,72.7 86.7,58.7 87.3,58.6 87.3,72.7 						"/>
                        <polygon
                            style="clip-path:url(#SVGID_00000014602035712400643200000013223701829475767170_);fill:#AA0000;"
                            points="
							118.7,44.8 118.7,49.8 112.2,49.8 112.2,55.4 117.7,55.4 117.7,60.4 112.2,60.4 112.2,67.7 118.7,67.7 118.7,72.7 107.2,72.7
							107.2,44.8 						"/>
                        <path
                            style="clip-path:url(#SVGID_00000014602035712400643200000013223701829475767170_);fill:#AA0000;"
                            d="M128,67.7h1.8
							c0.6,0,1-0.2,1.4-0.5s0.5-0.8,0.5-1.4V51.7c0-0.6-0.2-1-0.5-1.4c-0.3-0.3-0.8-0.5-1.4-0.5H128V67.7z M123,72.7V44.8h6.8
							c2.1,0,3.8,0.6,5,1.9c1.2,1.3,1.8,2.9,1.8,5v14.2c0,2.1-0.6,3.7-1.8,5c-1.2,1.3-2.9,1.9-5,1.9H123z"/>
                        <path
                            style="clip-path:url(#SVGID_00000014602035712400643200000013223701829475767170_);fill:#AA0000;"
                            d="M146.5,58h1.8
							c0.6,0,1-0.2,1.4-0.5c0.3-0.3,0.5-0.8,0.5-1.4v-4.5c0-0.6-0.2-1-0.5-1.4c-0.3-0.3-0.8-0.5-1.4-0.5h-1.8V58z M141.5,72.7V44.8
							h6.8c2.1,0,3.8,0.6,5,1.9c1.2,1.3,1.8,2.9,1.8,5v4.5c0,1.3-0.3,2.5-0.8,3.5c-0.5,1-1.3,1.8-2.2,2.4l-0.4-1.6
							c1.1,0.4,1.9,1,2.5,1.7c0.6,0.8,0.9,1.7,0.9,2.8v7.8h-5v-7.8c0-0.6-0.2-1-0.5-1.4c-0.3-0.3-0.8-0.5-1.4-0.5h-1.8v9.7H141.5z"
                        />
                        <path
                            style="clip-path:url(#SVGID_00000014602035712400643200000013223701829475767170_);fill:#AA0000;"
                            d="M173.7,44.8v21.6
							c0,2.1-0.6,3.7-1.8,5c-1.2,1.3-2.9,1.9-5,1.9c-2.1,0-3.7-0.6-5-1.9c-1.2-1.3-1.9-2.9-1.9-5V44.8h5v21.6c0,0.6,0.2,1,0.5,1.4
							c0.3,0.3,0.8,0.5,1.4,0.5s1-0.2,1.4-0.5c0.3-0.3,0.5-0.8,0.5-1.4V44.8H173.7z"/>
                        <polygon
                            style="clip-path:url(#SVGID_00000014602035712400643200000013223701829475767170_);fill:#AA0000;"
                            points="
							178.9,72.7 178.9,44.8 182.6,44.8 188.9,62.9 187.6,62.9 187.6,44.8 192.2,44.8 192.2,72.7 188.5,72.7 182.2,54.6 183.5,54.6
							183.5,72.7 						"/>
                        <polygon
                            style="clip-path:url(#SVGID_00000014602035712400643200000013223701829475767170_);fill:#AA0000;"
                            points="
							197.6,72.7 197.6,44.8 201.3,44.8 207.6,62.9 206.3,62.9 206.3,44.8 210.9,44.8 210.9,72.7 207.2,72.7 200.9,54.6 202.2,54.6
							202.2,72.7 						"/>
                        <polygon
                            style="clip-path:url(#SVGID_00000014602035712400643200000013223701829475767170_);fill:#AA0000;"
                            points="
							227.8,44.8 227.8,49.8 221.3,49.8 221.3,55.4 226.8,55.4 226.8,60.4 221.3,60.4 221.3,67.7 227.8,67.7 227.8,72.7 216.3,72.7
							216.3,44.8 						"/>
                        <path
                            style="clip-path:url(#SVGID_00000014602035712400643200000013223701829475767170_);fill:#AA0000;"
                            d="M237.1,58h1.8
							c0.6,0,1-0.2,1.4-0.5c0.3-0.3,0.5-0.8,0.5-1.4v-4.5c0-0.6-0.2-1-0.5-1.4c-0.3-0.3-0.8-0.5-1.4-0.5h-1.8V58z M232.1,72.7V44.8
							h6.8c2.1,0,3.8,0.6,5,1.9c1.2,1.3,1.8,2.9,1.8,5v4.5c0,1.3-0.3,2.5-0.8,3.5c-0.5,1-1.3,1.8-2.2,2.4l-0.4-1.6
							c1.1,0.4,1.9,1,2.5,1.7c0.6,0.8,0.9,1.7,0.9,2.8v7.8h-5v-7.8c0-0.6-0.2-1-0.5-1.4c-0.3-0.3-0.8-0.5-1.4-0.5h-1.8v9.7H232.1z"
                        />
					</g>
				</g>
			</g>
		</g>
	</g>
</g>
    <g>
	<defs>
		<rect id="SVGID_00000021805509814000312670000012168445574939077028_" x="364.5" y="51.8" width="15" height="15"/>
	</defs>
        <clipPath id="SVGID_00000121965040056615292320000008663522372474652079_">
		<use xlink:href="#SVGID_00000021805509814000312670000012168445574939077028_" style="overflow:visible;"/>
	</clipPath>
        <path style="clip-path:url(#SVGID_00000121965040056615292320000008663522372474652079_);fill:#FFFFFF;" d="M378.8,63h-7.8
		c-0.2-0.5-0.5-0.9-0.9-1.2c-0.4-0.3-0.9-0.5-1.4-0.5c-0.5,0-1,0.2-1.4,0.5c-0.4,0.3-0.7,0.7-0.9,1.2h-1.1c-0.2,0-0.4,0.1-0.5,0.2
		c-0.1,0.1-0.2,0.3-0.2,0.5c0,0.2,0.1,0.4,0.2,0.5c0.1,0.1,0.3,0.2,0.5,0.2h1.1c0.2,0.5,0.5,0.9,0.9,1.2c0.4,0.3,0.9,0.5,1.4,0.5
		c0.5,0,1-0.2,1.4-0.5c0.4-0.3,0.7-0.7,0.9-1.2h7.8c0.2,0,0.4-0.1,0.5-0.2c0.1-0.1,0.2-0.3,0.2-0.5c0-0.2-0.1-0.4-0.2-0.5
		C379.1,63.1,379,63,378.8,63z M378.8,58.5h-1.1c-0.2-0.5-0.5-0.9-0.9-1.2c-0.4-0.3-0.9-0.5-1.4-0.5c-0.5,0-1,0.2-1.4,0.5
		c-0.4,0.3-0.7,0.7-0.9,1.2h-7.8c-0.2,0-0.4,0.1-0.5,0.2c-0.1,0.1-0.2,0.3-0.2,0.5c0,0.2,0.1,0.4,0.2,0.5c0.1,0.1,0.3,0.2,0.5,0.2
		h7.8c0.2,0.5,0.5,0.9,0.9,1.2c0.4,0.3,0.9,0.5,1.4,0.5c0.5,0,1-0.2,1.4-0.5c0.4-0.3,0.7-0.7,0.9-1.2h1.1c0.2,0,0.4-0.1,0.5-0.2
		c0.1-0.1,0.2-0.3,0.2-0.5c0-0.2-0.1-0.4-0.2-0.5C379.1,58.6,379,58.5,378.8,58.5z M365.2,55.5h1.1c0.2,0.5,0.5,0.9,0.9,1.2
		c0.4,0.3,0.9,0.5,1.4,0.5c0.5,0,1-0.2,1.4-0.5c0.4-0.3,0.7-0.7,0.9-1.2h7.8c0.2,0,0.4-0.1,0.5-0.2c0.1-0.1,0.2-0.3,0.2-0.5
		c0-0.2-0.1-0.4-0.2-0.5c-0.1-0.1-0.3-0.2-0.5-0.2h-7.8c-0.2-0.5-0.5-0.9-0.9-1.2c-0.4-0.3-0.9-0.5-1.4-0.5c-0.5,0-1,0.2-1.4,0.5
		c-0.4,0.3-0.7,0.7-0.9,1.2h-1.1c-0.2,0-0.4,0.1-0.5,0.2c-0.1,0.1-0.2,0.3-0.2,0.5c0,0.2,0.1,0.4,0.2,0.5
		C364.9,55.4,365,55.5,365.2,55.5z"/>
</g>
    <g>
	<defs>
		<rect id="SVGID_00000159441785794171724140000001488493159756466574_" x="-54" y="-141" width="841.9"
              height="595.2"/>
	</defs>
        <clipPath id="SVGID_00000031174233669770607480000004680421230751790503_">
		<use xlink:href="#SVGID_00000159441785794171724140000001488493159756466574_" style="overflow:visible;"/>
	</clipPath>
        <polygon style="clip-path:url(#SVGID_00000031174233669770607480000004680421230751790503_);fill:#FFFFFF;"
                 points="32.7,132
		30.6,115.1 33.7,115.1 34.9,126.8 34.6,126.8 36.4,115.1 38.9,115.1 40.8,126.8 40.4,126.8 41.6,115.1 44.7,115.1 42.6,132
		39.3,132 37.4,121.9 37.9,121.9 36,132 	"/>
        <path style="clip-path:url(#SVGID_00000031174233669770607480000004680421230751790503_);fill:#FFFFFF;" d="M50.2,132.3
		c-0.8,0-1.5-0.2-2.1-0.5c-0.6-0.3-1-0.8-1.4-1.5c-0.3-0.6-0.5-1.4-0.5-2.2v-4.6c0-0.8,0.2-1.6,0.5-2.2c0.3-0.6,0.8-1.1,1.4-1.5
		c0.6-0.3,1.3-0.5,2.1-0.5c1.2,0,2.2,0.4,2.9,1.1c0.7,0.8,1.1,1.8,1.1,3v3h-5.4v-2.6h2.6v-0.7c0-0.3-0.1-0.6-0.3-0.8
		c-0.2-0.2-0.5-0.3-0.8-0.3s-0.6,0.1-0.8,0.3c-0.2,0.2-0.3,0.5-0.3,0.8v5.1c0,0.3,0.1,0.6,0.3,0.8s0.5,0.3,0.8,0.3s0.6-0.1,0.8-0.3
		s0.3-0.5,0.3-0.8v-0.5h2.8v0.2c0,1.2-0.4,2.2-1.1,3C52.4,131.9,51.4,132.3,50.2,132.3z"/>

        <rect x="56.4" y="115.1"
              style="clip-path:url(#SVGID_00000031174233669770607480000004680421230751790503_);fill:#FFFFFF;"
              width="2.8" height="16.9"/>
        <path style="clip-path:url(#SVGID_00000031174233669770607480000004680421230751790503_);fill:#FFFFFF;" d="M65.5,132.3
		c-0.8,0-1.5-0.2-2.1-0.5c-0.6-0.3-1-0.8-1.4-1.5c-0.3-0.6-0.5-1.4-0.5-2.2v-4.6c0-0.8,0.2-1.6,0.5-2.2c0.3-0.6,0.8-1.1,1.4-1.5
		c0.6-0.3,1.3-0.5,2.1-0.5c1.2,0,2.2,0.4,2.9,1.1c0.7,0.8,1.1,1.8,1.1,3v0.2h-2.8v-0.5c0-0.3-0.1-0.6-0.3-0.8
		c-0.2-0.2-0.5-0.3-0.8-0.3s-0.6,0.1-0.8,0.3c-0.2,0.2-0.3,0.5-0.3,0.8v5.1c0,0.3,0.1,0.6,0.3,0.8s0.5,0.3,0.8,0.3s0.6-0.1,0.8-0.3
		s0.3-0.5,0.3-0.8v-0.5h2.8v0.2c0,1.2-0.4,2.2-1.1,3C67.6,131.9,66.7,132.3,65.5,132.3z"/>
        <path style="clip-path:url(#SVGID_00000031174233669770607480000004680421230751790503_);fill:#FFFFFF;" d="M74.9,129.5
		c0.4,0,0.6-0.1,0.8-0.3c0.2-0.2,0.3-0.5,0.3-0.8v-5.1c0-0.3-0.1-0.6-0.3-0.8c-0.2-0.2-0.5-0.3-0.8-0.3s-0.6,0.1-0.8,0.3
		c-0.2,0.2-0.3,0.5-0.3,0.8v5.1c0,0.3,0.1,0.6,0.3,0.8C74.3,129.4,74.5,129.5,74.9,129.5z M74.9,132.3c-0.8,0-1.5-0.2-2.1-0.5
		c-0.6-0.3-1-0.8-1.4-1.5c-0.3-0.6-0.5-1.4-0.5-2.2v-4.6c0-0.8,0.2-1.6,0.5-2.2c0.3-0.6,0.8-1.1,1.4-1.5c0.6-0.3,1.3-0.5,2.1-0.5
		c1.2,0,2.2,0.4,2.9,1.1c0.7,0.8,1.1,1.8,1.1,3v4.6c0,1.2-0.4,2.2-1.1,3C77.1,131.9,76.1,132.3,74.9,132.3z"/>
        <path style="clip-path:url(#SVGID_00000031174233669770607480000004680421230751790503_);fill:#FFFFFF;" d="M81.1,132v-12.4H84v1.9
		l-0.5-0.7c0.2-0.5,0.6-0.9,1-1.1c0.4-0.3,1-0.4,1.6-0.4c0.6,0,1.3,0.2,1.8,0.5c0.6,0.4,0.9,1,1.1,1.9l-0.7-0.2
		c0.2-0.7,0.5-1.2,1-1.6s1.1-0.6,1.9-0.6c0.5,0,1,0.1,1.4,0.3s0.8,0.5,1.1,1c0.3,0.5,0.4,1.1,0.4,2v9.4h-2.8v-8.7
		c0-0.3-0.1-0.6-0.3-0.8c-0.2-0.2-0.5-0.3-0.8-0.3s-0.6,0.1-0.8,0.3c-0.2,0.2-0.3,0.5-0.3,0.8v8.7h-2.8v-8.7c0-0.3-0.1-0.6-0.3-0.8
		c-0.2-0.2-0.5-0.3-0.8-0.3s-0.6,0.1-0.8,0.3c-0.2,0.2-0.3,0.5-0.3,0.8v8.7H81.1z"/>
        <path style="clip-path:url(#SVGID_00000031174233669770607480000004680421230751790503_);fill:#FFFFFF;" d="M100.2,132.3
		c-0.8,0-1.5-0.2-2.1-0.5c-0.6-0.3-1-0.8-1.4-1.5s-0.5-1.4-0.5-2.2v-4.6c0-0.8,0.2-1.6,0.5-2.2s0.8-1.1,1.4-1.5
		c0.6-0.3,1.3-0.5,2.1-0.5c1.2,0,2.2,0.4,2.9,1.1c0.7,0.8,1.1,1.8,1.1,3v3h-5.4v-2.6h2.6v-0.7c0-0.3-0.1-0.6-0.3-0.8
		c-0.2-0.2-0.5-0.3-0.8-0.3s-0.6,0.1-0.8,0.3c-0.2,0.2-0.3,0.5-0.3,0.8v5.1c0,0.3,0.1,0.6,0.3,0.8c0.2,0.2,0.5,0.3,0.8,0.3
		s0.6-0.1,0.8-0.3c0.2-0.2,0.3-0.5,0.3-0.8v-0.5h2.8v0.2c0,1.2-0.4,2.2-1.1,3C102.4,131.9,101.4,132.3,100.2,132.3z"/>
        <path style="clip-path:url(#SVGID_00000031174233669770607480000004680421230751790503_);fill:#FFFFFF;" d="M31.2,144.6h1.5v7.1
		c0,0.3,0.1,0.5,0.2,0.6s0.3,0.2,0.6,0.2c0.1,0,0.2,0,0.3,0s0.2,0,0.3-0.1l0.3,1.2c-0.2,0.1-0.3,0.1-0.5,0.1s-0.3,0-0.5,0
		c-0.7,0-1.2-0.2-1.6-0.5s-0.6-0.8-0.6-1.5V144.6z M34.1,146.4v1.2h-4v-1.2H34.1z"/>
        <path style="clip-path:url(#SVGID_00000031174233669770607480000004680421230751790503_);fill:#FFFFFF;" d="M38.5,152.7
		c0.4,0,0.8-0.1,1.1-0.4s0.5-0.5,0.7-0.9s0.2-0.8,0.2-1.3c0-0.5-0.1-0.9-0.2-1.3s-0.4-0.7-0.7-0.9s-0.7-0.4-1.1-0.4
		c-0.4,0-0.8,0.1-1.1,0.4s-0.5,0.5-0.6,0.9s-0.2,0.8-0.2,1.3c0,0.5,0.1,0.9,0.2,1.3s0.4,0.7,0.6,0.9S38.1,152.7,38.5,152.7z
		 M38.5,153.9c-0.7,0-1.3-0.2-1.8-0.5s-0.9-0.8-1.2-1.3s-0.4-1.2-0.4-2c0-0.8,0.1-1.4,0.4-2s0.7-1,1.2-1.3s1.1-0.5,1.8-0.5
		c0.7,0,1.3,0.2,1.8,0.5s0.9,0.8,1.2,1.3s0.4,1.2,0.4,2c0,0.8-0.1,1.4-0.4,2s-0.7,1-1.2,1.3S39.2,153.9,38.5,153.9z"/>
        <path style="clip-path:url(#SVGID_00000031174233669770607480000004680421230751790503_);fill:#FFFFFF;" d="M47.4,144.6h1.5v7.1
		c0,0.3,0.1,0.5,0.2,0.6s0.3,0.2,0.6,0.2c0.1,0,0.2,0,0.3,0s0.2,0,0.3-0.1l0.3,1.2c-0.2,0.1-0.3,0.1-0.5,0.1s-0.3,0-0.5,0
		c-0.7,0-1.2-0.2-1.6-0.5s-0.6-0.8-0.6-1.5V144.6z M50.3,146.4v1.2h-4v-1.2H50.3z"/>
        <path style="clip-path:url(#SVGID_00000031174233669770607480000004680421230751790503_);fill:#FFFFFF;" d="M53.2,149.4v4.4h-1.5
		v-9.8h1.4v4.3H53c0.2-0.7,0.5-1.1,0.9-1.4s0.9-0.5,1.5-0.5c0.5,0,0.9,0.1,1.3,0.3s0.7,0.5,0.9,0.9s0.3,0.9,0.3,1.5v4.7h-1.5v-4.5
		c0-0.5-0.1-0.9-0.4-1.2s-0.7-0.4-1.1-0.4c-0.3,0-0.6,0.1-0.9,0.2s-0.5,0.4-0.6,0.6S53.2,149,53.2,149.4z"/>
        <path style="clip-path:url(#SVGID_00000031174233669770607480000004680421230751790503_);fill:#FFFFFF;" d="M63.1,153.9
		c-0.7,0-1.4-0.2-1.9-0.5s-0.9-0.8-1.2-1.3s-0.4-1.2-0.4-2c0-0.8,0.1-1.4,0.4-2s0.7-1,1.2-1.3s1.1-0.5,1.8-0.5
		c0.4,0,0.8,0.1,1.2,0.2s0.7,0.4,1.1,0.6s0.6,0.7,0.7,1.1s0.3,1,0.3,1.7v0.5h-5.9v-1.1h5.1l-0.7,0.4c0-0.5-0.1-0.9-0.2-1.2
		s-0.3-0.6-0.6-0.8s-0.6-0.3-1-0.3c-0.4,0-0.8,0.1-1,0.3s-0.5,0.5-0.7,0.8s-0.2,0.7-0.2,1.1v0.7c0,0.5,0.1,0.9,0.3,1.3
		s0.4,0.6,0.7,0.8s0.7,0.3,1.1,0.3c0.3,0,0.5,0,0.7-0.1s0.4-0.2,0.6-0.3s0.3-0.3,0.4-0.6l1.4,0.3c-0.1,0.4-0.3,0.7-0.6,1
		s-0.6,0.5-1,0.7S63.6,153.9,63.1,153.9z"/>
        <path style="clip-path:url(#SVGID_00000031174233669770607480000004680421230751790503_);fill:#FFFFFF;" d="M71.6,153.8v-9.8h2.2
		l2.1,5.6c0.1,0.2,0.1,0.4,0.2,0.6s0.2,0.5,0.2,0.8s0.2,0.6,0.2,0.9s0.1,0.6,0.2,0.8h-0.3c0.1-0.2,0.1-0.5,0.2-0.8s0.2-0.6,0.2-0.9
		s0.2-0.6,0.2-0.8s0.1-0.5,0.2-0.6l2.1-5.6h2.2v9.8h-1.5v-5.3c0-0.2,0-0.4,0-0.7s0-0.6,0-0.9s0-0.6,0-1s0-0.6,0-0.9h0.1
		c-0.1,0.3-0.2,0.7-0.3,1s-0.2,0.7-0.3,1s-0.2,0.6-0.3,0.9s-0.2,0.5-0.2,0.6l-2,5.3H76l-2-5.3c-0.1-0.2-0.1-0.4-0.2-0.6
		s-0.2-0.5-0.3-0.9s-0.2-0.6-0.3-1s-0.2-0.7-0.3-1H73c0,0.3,0,0.6,0,0.9s0,0.6,0,1s0,0.6,0,0.9s0,0.5,0,0.8v5.3H71.6z"/>
        <path style="clip-path:url(#SVGID_00000031174233669770607480000004680421230751790503_);fill:#FFFFFF;" d="M86.9,153.9
		c-0.7,0-1.4-0.2-1.9-0.5s-0.9-0.8-1.2-1.3s-0.4-1.2-0.4-2c0-0.8,0.1-1.4,0.4-2s0.7-1,1.2-1.3s1.1-0.5,1.8-0.5
		c0.4,0,0.8,0.1,1.2,0.2s0.7,0.4,1.1,0.6s0.6,0.7,0.7,1.1s0.3,1,0.3,1.7v0.5h-5.9v-1.1h5.1l-0.7,0.4c0-0.5-0.1-0.9-0.2-1.2
		s-0.3-0.6-0.6-0.8s-0.6-0.3-1-0.3c-0.4,0-0.8,0.1-1,0.3s-0.5,0.5-0.7,0.8s-0.2,0.7-0.2,1.1v0.7c0,0.5,0.1,0.9,0.3,1.3
		s0.4,0.6,0.7,0.8s0.7,0.3,1.1,0.3c0.3,0,0.5,0,0.7-0.1s0.4-0.2,0.6-0.3s0.3-0.3,0.4-0.6L90,152c-0.1,0.4-0.3,0.7-0.6,1
		s-0.6,0.5-1,0.7S87.5,153.9,86.9,153.9z"/>
        <path style="clip-path:url(#SVGID_00000031174233669770607480000004680421230751790503_);fill:#FFFFFF;" d="M94.8,152.7
		c0.4,0,0.8-0.1,1-0.3s0.5-0.5,0.6-0.9s0.2-0.8,0.2-1.3c0-0.5-0.1-1-0.2-1.3s-0.4-0.7-0.6-0.9s-0.6-0.3-1.1-0.3
		c-0.4,0-0.8,0.1-1.1,0.3s-0.5,0.5-0.6,0.9s-0.2,0.8-0.2,1.3c0,0.5,0.1,0.9,0.2,1.3s0.4,0.7,0.6,0.9S94.3,152.7,94.8,152.7z
		 M94.4,153.9c-0.6,0-1.1-0.2-1.6-0.5s-0.8-0.7-1.1-1.3s-0.4-1.2-0.4-2c0-0.8,0.1-1.5,0.4-2.1s0.6-1,1.1-1.3s1-0.4,1.6-0.4
		c0.5,0,0.8,0.1,1.1,0.2s0.5,0.3,0.7,0.5s0.3,0.4,0.4,0.5h0.1v-3.7h1.5v9.8h-1.4v-1.2h-0.1c-0.1,0.2-0.2,0.3-0.4,0.5
		s-0.4,0.4-0.7,0.5S94.9,153.9,94.4,153.9z"/>
        <path style="clip-path:url(#SVGID_00000031174233669770607480000004680421230751790503_);fill:#FFFFFF;" d="M100,153.8v-7.4h1.4
		v1.2h0.1c0.1-0.4,0.4-0.7,0.7-0.9s0.7-0.3,1.2-0.3c0.1,0,0.2,0,0.3,0s0.2,0,0.3,0v1.4c-0.1,0-0.2,0-0.3-0.1s-0.3,0-0.5,0
		c-0.3,0-0.6,0.1-0.9,0.2s-0.5,0.3-0.6,0.6s-0.2,0.5-0.2,0.9v4.5H100z"/>
        <path style="clip-path:url(#SVGID_00000031174233669770607480000004680421230751790503_);fill:#FFFFFF;" d="M107.8,153.8
		c-0.5,0-0.9-0.1-1.3-0.3s-0.7-0.5-0.9-0.9s-0.3-0.9-0.3-1.5v-4.7h1.5v4.5c0,0.5,0.1,0.9,0.4,1.2s0.7,0.4,1.1,0.4
		c0.3,0,0.6-0.1,0.9-0.2s0.5-0.4,0.6-0.6s0.2-0.6,0.2-1v-4.4h1.5v7.4H110l0-1.8h0.1c-0.2,0.7-0.5,1.2-0.9,1.5
		S108.3,153.8,107.8,153.8z"/>
        <path style="clip-path:url(#SVGID_00000031174233669770607480000004680421230751790503_);fill:#FFFFFF;" d="M114.8,149.4v4.4h-1.5
		v-7.4h1.4l0,1.8h-0.2c0.2-0.7,0.5-1.1,0.9-1.4s0.9-0.5,1.5-0.5c0.5,0,0.9,0.1,1.3,0.3s0.7,0.5,0.9,0.9s0.3,0.9,0.3,1.5v4.7h-1.5
		v-4.5c0-0.5-0.1-0.9-0.4-1.2s-0.7-0.4-1.1-0.4c-0.3,0-0.6,0.1-0.9,0.2s-0.5,0.4-0.6,0.6S114.8,149,114.8,149.4z"/>
        <path style="clip-path:url(#SVGID_00000031174233669770607480000004680421230751790503_);fill:#FFFFFF;" d="M123,149.4v4.4h-1.5
		v-7.4h1.4l0,1.8h-0.2c0.2-0.7,0.5-1.1,0.9-1.4s0.9-0.5,1.5-0.5c0.5,0,0.9,0.1,1.3,0.3s0.7,0.5,0.9,0.9s0.3,0.9,0.3,1.5v4.7h-1.5
		v-4.5c0-0.5-0.1-0.9-0.4-1.2s-0.7-0.4-1.1-0.4c-0.3,0-0.6,0.1-0.9,0.2s-0.5,0.4-0.6,0.6S123,149,123,149.4z"/>
        <path style="clip-path:url(#SVGID_00000031174233669770607480000004680421230751790503_);fill:#FFFFFF;" d="M132.8,153.9
		c-0.7,0-1.4-0.2-1.9-0.5s-0.9-0.8-1.2-1.3s-0.4-1.2-0.4-2c0-0.8,0.1-1.4,0.4-2s0.7-1,1.2-1.3s1.1-0.5,1.8-0.5
		c0.4,0,0.8,0.1,1.2,0.2s0.7,0.4,1.1,0.6s0.6,0.7,0.7,1.1s0.3,1,0.3,1.7v0.5h-5.9v-1.1h5.1l-0.7,0.4c0-0.5-0.1-0.9-0.2-1.2
		s-0.3-0.6-0.6-0.8s-0.6-0.3-1-0.3c-0.4,0-0.8,0.1-1,0.3s-0.5,0.5-0.7,0.8s-0.2,0.7-0.2,1.1v0.7c0,0.5,0.1,0.9,0.3,1.3
		s0.4,0.6,0.7,0.8s0.7,0.3,1.1,0.3c0.3,0,0.5,0,0.7-0.1s0.4-0.2,0.6-0.3s0.3-0.3,0.4-0.6l1.4,0.3c-0.1,0.4-0.3,0.7-0.6,1
		s-0.6,0.5-1,0.7S133.3,153.9,132.8,153.9z"/>
        <path style="clip-path:url(#SVGID_00000031174233669770607480000004680421230751790503_);fill:#FFFFFF;" d="M137.6,153.8v-7.4h1.4
		v1.2h0.1c0.1-0.4,0.4-0.7,0.7-0.9s0.7-0.3,1.2-0.3c0.1,0,0.2,0,0.3,0s0.2,0,0.3,0v1.4c-0.1,0-0.2,0-0.3-0.1s-0.3,0-0.5,0
		c-0.3,0-0.6,0.1-0.9,0.2s-0.5,0.3-0.6,0.6s-0.2,0.5-0.2,0.9v4.5H137.6z"/>
        <polygon style="clip-path:url(#SVGID_00000031174233669770607480000004680421230751790503_);fill:#FFFFFF;"
                 points="146.5,153.8
		146.5,143.9 152.7,143.9 152.7,145.2 148,145.2 148,148.1 152.3,148.2 152.3,149.4 148,149.4 148,152.5 152.7,152.5 152.7,153.8
		"/>
        <path style="clip-path:url(#SVGID_00000031174233669770607480000004680421230751790503_);fill:#FFFFFF;" d="M154.5,153.8v-7.4h1.4
		l0,1.7h-0.1c0.1-0.4,0.3-0.8,0.5-1s0.5-0.5,0.8-0.6s0.6-0.2,0.9-0.2c0.5,0,1,0.2,1.3,0.5s0.6,0.8,0.7,1.4h-0.2
		c0.1-0.4,0.3-0.7,0.5-1s0.5-0.5,0.9-0.6s0.7-0.2,1.1-0.2c0.4,0,0.8,0.1,1.2,0.3s0.6,0.5,0.8,0.8s0.3,0.8,0.3,1.4v5h-1.5v-4.8
		c0-0.5-0.1-0.8-0.4-1.1s-0.6-0.3-1-0.3c-0.3,0-0.6,0.1-0.8,0.2s-0.4,0.3-0.5,0.5s-0.2,0.5-0.2,0.8v4.7h-1.4v-4.9
		c0-0.4-0.1-0.7-0.4-0.9s-0.6-0.4-1-0.4c-0.3,0-0.5,0.1-0.7,0.2s-0.4,0.3-0.6,0.6s-0.2,0.5-0.2,0.9v4.6H154.5z"/>
        <path style="clip-path:url(#SVGID_00000031174233669770607480000004680421230751790503_);fill:#FFFFFF;" d="M169.7,153.9
		c-0.7,0-1.4-0.2-1.9-0.5s-0.9-0.8-1.2-1.3s-0.4-1.2-0.4-2c0-0.8,0.1-1.4,0.4-2s0.7-1,1.2-1.3s1.1-0.5,1.8-0.5
		c0.4,0,0.8,0.1,1.2,0.2s0.7,0.4,1.1,0.6s0.6,0.7,0.7,1.1s0.3,1,0.3,1.7v0.5H167v-1.1h5.1l-0.7,0.4c0-0.5-0.1-0.9-0.2-1.2
		s-0.3-0.6-0.6-0.8s-0.6-0.3-1-0.3c-0.4,0-0.8,0.1-1,0.3s-0.5,0.5-0.7,0.8s-0.2,0.7-0.2,1.1v0.7c0,0.5,0.1,0.9,0.3,1.3
		s0.4,0.6,0.7,0.8s0.7,0.3,1.1,0.3c0.3,0,0.5,0,0.7-0.1s0.4-0.2,0.6-0.3s0.3-0.3,0.4-0.6l1.4,0.3c-0.1,0.4-0.3,0.7-0.6,1
		s-0.6,0.5-1,0.7S170.2,153.9,169.7,153.9z"/>
        <path style="clip-path:url(#SVGID_00000031174233669770607480000004680421230751790503_);fill:#FFFFFF;" d="M174.4,153.8v-7.4h1.4
		v1.2h0.1c0.1-0.4,0.4-0.7,0.7-0.9s0.7-0.3,1.2-0.3c0.1,0,0.2,0,0.3,0s0.2,0,0.3,0v1.4c-0.1,0-0.2,0-0.3-0.1s-0.3,0-0.5,0
		c-0.3,0-0.6,0.1-0.9,0.2s-0.5,0.3-0.6,0.6s-0.2,0.5-0.2,0.9v4.5H174.4z"/>
        <path style="clip-path:url(#SVGID_00000031174233669770607480000004680421230751790503_);fill:#FFFFFF;" d="M182.5,152.4
		c0.4,0,0.8-0.1,1-0.3s0.5-0.5,0.6-0.8s0.2-0.8,0.2-1.3c0-0.5-0.1-0.9-0.2-1.3s-0.4-0.7-0.6-0.9s-0.6-0.3-1-0.3
		c-0.4,0-0.8,0.1-1.1,0.3s-0.5,0.5-0.6,0.9s-0.2,0.8-0.2,1.3c0,0.5,0.1,0.9,0.2,1.3s0.4,0.6,0.6,0.8S182,152.4,182.5,152.4z
		 M182.5,156.7c-0.6,0-1.1-0.1-1.5-0.2s-0.8-0.3-1-0.6s-0.5-0.5-0.6-0.8l1.2-0.6c0.1,0.1,0.2,0.3,0.4,0.4s0.3,0.3,0.6,0.4
		s0.6,0.2,1,0.2c0.6,0,1-0.1,1.4-0.4s0.5-0.7,0.5-1.2v-1.4h-0.1c-0.1,0.2-0.2,0.3-0.4,0.5s-0.4,0.4-0.7,0.5s-0.6,0.2-1.1,0.2
		c-0.6,0-1.1-0.1-1.6-0.4s-0.8-0.7-1.1-1.2s-0.4-1.2-0.4-2s0.1-1.5,0.4-2s0.6-1,1.1-1.3s1-0.4,1.6-0.4c0.5,0,0.8,0.1,1.1,0.2
		s0.5,0.3,0.7,0.5s0.3,0.4,0.4,0.5h0.1v-1.2h1.4v7.5c0,0.6-0.1,1.2-0.4,1.6s-0.7,0.7-1.2,0.9S183.1,156.7,182.5,156.7z"/>
        <path style="clip-path:url(#SVGID_00000031174233669770607480000004680421230751790503_);fill:#FFFFFF;" d="M190.9,153.9
		c-0.7,0-1.4-0.2-1.9-0.5s-0.9-0.8-1.2-1.3s-0.4-1.2-0.4-2c0-0.8,0.1-1.4,0.4-2s0.7-1,1.2-1.3s1.1-0.5,1.8-0.5
		c0.4,0,0.8,0.1,1.2,0.2s0.7,0.4,1.1,0.6s0.6,0.7,0.7,1.1s0.3,1,0.3,1.7v0.5h-5.9v-1.1h5.1l-0.7,0.4c0-0.5-0.1-0.9-0.2-1.2
		s-0.3-0.6-0.6-0.8s-0.6-0.3-1-0.3c-0.4,0-0.8,0.1-1,0.3s-0.5,0.5-0.7,0.8s-0.2,0.7-0.2,1.1v0.7c0,0.5,0.1,0.9,0.3,1.3
		s0.4,0.6,0.7,0.8s0.7,0.3,1.1,0.3c0.3,0,0.5,0,0.7-0.1s0.4-0.2,0.6-0.3s0.3-0.3,0.4-0.6l1.4,0.3c-0.1,0.4-0.3,0.7-0.6,1
		s-0.6,0.5-1,0.7S191.5,153.9,190.9,153.9z"/>
        <path style="clip-path:url(#SVGID_00000031174233669770607480000004680421230751790503_);fill:#FFFFFF;" d="M197.1,149.4v4.4h-1.5
		v-7.4h1.4l0,1.8h-0.2c0.2-0.7,0.5-1.1,0.9-1.4s0.9-0.5,1.5-0.5c0.5,0,0.9,0.1,1.3,0.3s0.7,0.5,0.9,0.9s0.3,0.9,0.3,1.5v4.7h-1.5
		v-4.5c0-0.5-0.1-0.9-0.4-1.2s-0.7-0.4-1.1-0.4c-0.3,0-0.6,0.1-0.9,0.2s-0.5,0.4-0.6,0.6S197.1,149,197.1,149.4z"/>
        <path style="clip-path:url(#SVGID_00000031174233669770607480000004680421230751790503_);fill:#FFFFFF;" d="M206.9,153.9
		c-0.7,0-1.3-0.2-1.8-0.5s-0.9-0.8-1.2-1.3s-0.4-1.2-0.4-2c0-0.8,0.1-1.4,0.4-2s0.7-1,1.2-1.3s1.1-0.5,1.8-0.5c0.4,0,0.7,0,1.1,0.1
		s0.6,0.2,0.9,0.4s0.5,0.4,0.7,0.7s0.3,0.6,0.4,0.9l-1.4,0.3c0-0.2-0.1-0.4-0.2-0.5s-0.2-0.3-0.4-0.4s-0.3-0.2-0.5-0.3
		s-0.4-0.1-0.6-0.1c-0.4,0-0.8,0.1-1.1,0.4s-0.5,0.5-0.7,0.9s-0.2,0.8-0.2,1.3c0,0.5,0.1,0.9,0.2,1.3s0.4,0.7,0.7,0.9
		s0.7,0.3,1.1,0.3c0.2,0,0.4,0,0.6-0.1s0.4-0.2,0.5-0.3s0.3-0.3,0.4-0.4s0.2-0.3,0.2-0.5l1.4,0.3c-0.1,0.3-0.2,0.7-0.4,0.9
		s-0.4,0.5-0.7,0.7s-0.6,0.3-0.9,0.4S207.3,153.9,206.9,153.9z"/>
        <path style="clip-path:url(#SVGID_00000031174233669770607480000004680421230751790503_);fill:#FFFFFF;" d="M211.3,156.4l0.4-1.2
		l0.2,0c0.3,0.1,0.5,0.1,0.7,0.1s0.4-0.1,0.5-0.3s0.3-0.4,0.4-0.7l0.2-0.5l-2.8-7.4h1.6l1.5,4.2c0.2,0.5,0.3,0.9,0.4,1.4
		s0.2,0.9,0.4,1.4H214c0.1-0.5,0.2-0.9,0.4-1.4s0.3-0.9,0.4-1.4l1.5-4.2h1.6l-3.2,8.4c-0.1,0.4-0.3,0.7-0.6,1s-0.5,0.5-0.8,0.6
		s-0.6,0.2-1,0.2c-0.2,0-0.4,0-0.6,0S211.3,156.4,211.3,156.4z"/>
        <path style="clip-path:url(#SVGID_00000031174233669770607480000004680421230751790503_);fill:#FFFFFF;" d="M222.8,153.8v-9.8h3.5
		c0.8,0,1.4,0.1,1.9,0.4s0.9,0.7,1.1,1.1s0.4,1,0.4,1.6s-0.1,1.2-0.4,1.6s-0.6,0.9-1.1,1.1s-1.1,0.4-1.9,0.4h-2.4V149h2.3
		c0.5,0,0.9-0.1,1.2-0.3s0.5-0.4,0.7-0.7s0.2-0.6,0.2-1c0-0.4-0.1-0.7-0.2-1s-0.4-0.5-0.7-0.7s-0.7-0.2-1.2-0.2h-1.8v8.5H222.8z"/>
        <path style="clip-path:url(#SVGID_00000031174233669770607480000004680421230751790503_);fill:#FFFFFF;" d="M234.4,152.7
		c0.4,0,0.8-0.1,1.1-0.4s0.5-0.5,0.7-0.9s0.2-0.8,0.2-1.3c0-0.5-0.1-0.9-0.2-1.3s-0.4-0.7-0.7-0.9s-0.7-0.4-1.1-0.4
		c-0.4,0-0.8,0.1-1.1,0.4s-0.5,0.5-0.6,0.9s-0.2,0.8-0.2,1.3c0,0.5,0.1,0.9,0.2,1.3s0.4,0.7,0.6,0.9S233.9,152.7,234.4,152.7z
		 M234.4,153.9c-0.7,0-1.3-0.2-1.8-0.5s-0.9-0.8-1.2-1.3s-0.4-1.2-0.4-2c0-0.8,0.1-1.4,0.4-2s0.7-1,1.2-1.3s1.1-0.5,1.8-0.5
		c0.7,0,1.3,0.2,1.8,0.5s0.9,0.8,1.2,1.3s0.4,1.2,0.4,2c0,0.8-0.1,1.4-0.4,2s-0.7,1-1.2,1.3S235.1,153.9,234.4,153.9z"/>
        <path style="clip-path:url(#SVGID_00000031174233669770607480000004680421230751790503_);fill:#FFFFFF;" d="M239.4,153.8v-7.4h1.4
		v1.2h0.1c0.1-0.4,0.4-0.7,0.7-0.9s0.7-0.3,1.2-0.3c0.1,0,0.2,0,0.3,0s0.2,0,0.3,0v1.4c-0.1,0-0.2,0-0.3-0.1s-0.3,0-0.5,0
		c-0.3,0-0.6,0.1-0.9,0.2s-0.5,0.3-0.6,0.6s-0.2,0.5-0.2,0.9v4.5H239.4z"/>
        <path style="clip-path:url(#SVGID_00000031174233669770607480000004680421230751790503_);fill:#FFFFFF;" d="M245.1,144.6h1.5v7.1
		c0,0.3,0.1,0.5,0.2,0.6s0.3,0.2,0.6,0.2c0.1,0,0.2,0,0.3,0s0.2,0,0.3-0.1l0.3,1.2c-0.2,0.1-0.3,0.1-0.5,0.1s-0.3,0-0.5,0
		c-0.7,0-1.2-0.2-1.6-0.5s-0.6-0.8-0.6-1.5V144.6z M248,146.4v1.2h-4v-1.2H248z"/>
        <path style="clip-path:url(#SVGID_00000031174233669770607480000004680421230751790503_);fill:#FFFFFF;" d="M251.9,152.7
		c0.4,0,0.7-0.1,1-0.2s0.5-0.4,0.6-0.6s0.2-0.5,0.2-0.8v-0.9c-0.1,0.1-0.2,0.1-0.3,0.1s-0.3,0.1-0.5,0.1s-0.4,0.1-0.5,0.1
		s-0.3,0-0.4,0.1c-0.3,0-0.5,0.1-0.7,0.2s-0.4,0.2-0.5,0.4s-0.2,0.4-0.2,0.6c0,0.2,0.1,0.4,0.2,0.6s0.3,0.3,0.5,0.4
		S251.7,152.7,251.9,152.7z M251.6,153.9c-0.5,0-0.9-0.1-1.3-0.3s-0.7-0.4-0.9-0.8s-0.3-0.7-0.3-1.2c0-0.4,0.1-0.8,0.2-1
		s0.4-0.5,0.7-0.6s0.6-0.3,0.9-0.4s0.7-0.1,1-0.2c0.4-0.1,0.8-0.1,1.1-0.1s0.5-0.1,0.6-0.2s0.2-0.2,0.2-0.4v0c0-0.3-0.1-0.5-0.2-0.7
		s-0.3-0.3-0.5-0.4s-0.5-0.2-0.8-0.2c-0.3,0-0.6,0-0.8,0.1s-0.4,0.2-0.6,0.4s-0.2,0.3-0.3,0.5l-1.4-0.4c0.2-0.4,0.4-0.8,0.7-1.1
		s0.7-0.5,1.1-0.6s0.8-0.2,1.3-0.2c0.3,0,0.6,0,0.9,0.1s0.6,0.2,0.9,0.4s0.5,0.4,0.7,0.8s0.3,0.8,0.3,1.3v4.9h-1.4v-1h-0.1
		c-0.1,0.2-0.2,0.4-0.4,0.6s-0.4,0.3-0.7,0.4S252,153.9,251.6,153.9z"/>

        <rect x="257.2" y="143.9"
              style="clip-path:url(#SVGID_00000031174233669770607480000004680421230751790503_);fill:#FFFFFF;"
              width="1.4" height="9.8"/>
        <path style="clip-path:url(#SVGID_00000031174233669770607480000004680421230751790503_);fill:#FFFFFF;" d="M261.7,153.8
		c-0.3,0-0.5-0.1-0.7-0.3s-0.3-0.4-0.3-0.7c0-0.3,0.1-0.5,0.3-0.7s0.4-0.3,0.7-0.3c0.3,0,0.5,0.1,0.7,0.3s0.3,0.4,0.3,0.7
		c0,0.3-0.1,0.5-0.3,0.7S262,153.8,261.7,153.8z"/>
        <polygon style="clip-path:url(#SVGID_00000031174233669770607480000004680421230751790503_);fill:#6B7280;"
                 points="31.1,179.2
		31.1,170.5 32.2,170.5 32.2,178.3 36.2,178.3 36.2,179.2 	"/>
        <path style="clip-path:url(#SVGID_00000031174233669770607480000004680421230751790503_);fill:#6B7280;" d="M40.5,179.4
		c-0.6,0-1.2-0.1-1.6-0.4s-0.8-0.7-1.1-1.2s-0.4-1.1-0.4-1.8s0.1-1.3,0.4-1.8s0.6-0.9,1-1.2s1-0.4,1.6-0.4c0.3,0,0.7,0.1,1,0.2
		s0.6,0.3,0.9,0.6s0.5,0.6,0.7,1s0.2,0.9,0.2,1.5v0.4h-5.1v-0.9h4.5l-0.5,0.3c0-0.4-0.1-0.8-0.2-1.1s-0.3-0.6-0.6-0.8
		s-0.6-0.3-1-0.3s-0.7,0.1-1,0.3s-0.5,0.4-0.6,0.8s-0.2,0.6-0.2,1v0.6c0,0.5,0.1,0.9,0.3,1.2s0.4,0.6,0.7,0.8s0.7,0.3,1.1,0.3
		c0.3,0,0.5,0,0.7-0.1s0.4-0.2,0.5-0.3s0.3-0.3,0.4-0.6l1,0.3c-0.1,0.3-0.3,0.6-0.5,0.9s-0.5,0.4-0.9,0.6S40.9,179.4,40.5,179.4z"/>
        <path style="clip-path:url(#SVGID_00000031174233669770607480000004680421230751790503_);fill:#6B7280;" d="M46.8,178.5
		c0.4,0,0.7-0.1,1-0.2s0.5-0.4,0.6-0.6s0.2-0.5,0.2-0.8V176c0,0.1-0.1,0.1-0.3,0.1s-0.3,0.1-0.5,0.1s-0.4,0.1-0.5,0.1s-0.3,0-0.4,0
		c-0.3,0-0.5,0.1-0.7,0.2s-0.4,0.2-0.5,0.3s-0.2,0.3-0.2,0.6c0,0.2,0.1,0.4,0.2,0.6s0.3,0.3,0.5,0.3S46.6,178.5,46.8,178.5z
		 M46.7,179.4c-0.4,0-0.8-0.1-1.1-0.2s-0.6-0.4-0.8-0.7s-0.3-0.7-0.3-1.1c0-0.4,0.1-0.7,0.2-0.9s0.3-0.4,0.6-0.6s0.5-0.2,0.8-0.3
		s0.6-0.1,0.9-0.2c0.4-0.1,0.7-0.1,1-0.1s0.4-0.1,0.5-0.1s0.2-0.2,0.2-0.3v0c0-0.3-0.1-0.5-0.2-0.7s-0.3-0.3-0.5-0.4
		s-0.5-0.2-0.8-0.2c-0.3,0-0.6,0-0.8,0.1s-0.4,0.2-0.5,0.4s-0.2,0.3-0.3,0.4l-1-0.3c0.2-0.4,0.4-0.7,0.7-0.9s0.6-0.4,0.9-0.5
		s0.7-0.1,1-0.1c0.2,0,0.5,0,0.7,0.1s0.5,0.2,0.8,0.3s0.5,0.4,0.6,0.7s0.3,0.7,0.3,1.2v4.3h-1v-0.9h-0.1c-0.1,0.2-0.2,0.3-0.4,0.5
		s-0.4,0.3-0.6,0.4S47,179.4,46.7,179.4z"/>
        <path style="clip-path:url(#SVGID_00000031174233669770607480000004680421230751790503_);fill:#6B7280;" d="M51.6,179.2v-6.6h1v1
		h0.1c0.1-0.3,0.3-0.6,0.6-0.8s0.7-0.3,1.1-0.3c0.1,0,0.2,0,0.3,0s0.2,0,0.3,0v1.1c0,0-0.1,0-0.2,0s-0.3,0-0.4,0
		c-0.3,0-0.6,0.1-0.8,0.2s-0.4,0.3-0.6,0.5s-0.2,0.5-0.2,0.8v4.1H51.6z"/>
        <path style="clip-path:url(#SVGID_00000031174233669770607480000004680421230751790503_);fill:#6B7280;" d="M57.3,175.3v3.9h-1.1
		v-6.6h1l0,1.6h-0.1c0.2-0.6,0.5-1,0.9-1.3s0.8-0.4,1.3-0.4c0.4,0,0.8,0.1,1.2,0.3s0.6,0.5,0.8,0.8s0.3,0.8,0.3,1.4v4.2h-1.1v-4.1
		c0-0.5-0.1-0.9-0.4-1.2s-0.6-0.4-1.1-0.4c-0.3,0-0.6,0.1-0.8,0.2s-0.4,0.3-0.6,0.6S57.3,174.9,57.3,175.3z"/>
        <path style="clip-path:url(#SVGID_00000031174233669770607480000004680421230751790503_);fill:#6B7280;" d="M66.7,179.2v-6.6h1
		l0,1.5h-0.1c0.1-0.4,0.2-0.6,0.4-0.9s0.4-0.4,0.7-0.5s0.5-0.2,0.8-0.2c0.5,0,0.9,0.1,1.2,0.4s0.5,0.7,0.6,1.2h-0.1
		c0.1-0.3,0.2-0.6,0.4-0.8s0.5-0.4,0.8-0.6s0.6-0.2,1-0.2c0.4,0,0.7,0.1,1,0.2s0.6,0.4,0.7,0.7s0.3,0.8,0.3,1.3v4.4h-1.1v-4.4
		c0-0.5-0.1-0.8-0.4-1s-0.6-0.3-0.9-0.3c-0.3,0-0.5,0.1-0.8,0.2s-0.4,0.3-0.5,0.5s-0.2,0.5-0.2,0.7v4.3h-1.1v-4.5
		c0-0.4-0.1-0.7-0.4-0.9s-0.5-0.3-0.9-0.3c-0.3,0-0.5,0.1-0.7,0.2s-0.4,0.3-0.5,0.5s-0.2,0.5-0.2,0.9v4.1H66.7z"/>
        <path style="clip-path:url(#SVGID_00000031174233669770607480000004680421230751790503_);fill:#6B7280;" d="M79.9,178.4
		c0.4,0,0.8-0.1,1.1-0.3s0.5-0.5,0.6-0.9s0.2-0.8,0.2-1.2c0-0.4-0.1-0.8-0.2-1.2s-0.3-0.7-0.6-0.9s-0.6-0.3-1.1-0.3
		c-0.4,0-0.8,0.1-1.1,0.3s-0.5,0.5-0.6,0.9S78,175.6,78,176c0,0.4,0.1,0.8,0.2,1.2s0.3,0.7,0.6,0.9S79.5,178.4,79.9,178.4z
		 M79.9,179.4c-0.6,0-1.1-0.1-1.6-0.4s-0.8-0.7-1-1.2s-0.4-1.1-0.4-1.8c0-0.7,0.1-1.3,0.4-1.8s0.6-0.9,1-1.2s1-0.4,1.6-0.4
		c0.6,0,1.1,0.1,1.6,0.4s0.8,0.7,1,1.2s0.4,1.1,0.4,1.8c0,0.7-0.1,1.3-0.4,1.8s-0.6,0.9-1,1.2S80.5,179.4,79.9,179.4z"/>
        <path style="clip-path:url(#SVGID_00000031174233669770607480000004680421230751790503_);fill:#6B7280;" d="M84.4,179.2v-6.6h1v1
		h0.1c0.1-0.3,0.3-0.6,0.6-0.8s0.7-0.3,1.1-0.3c0.1,0,0.2,0,0.3,0s0.2,0,0.3,0v1.1c0,0-0.1,0-0.2,0s-0.3,0-0.4,0
		c-0.3,0-0.6,0.1-0.8,0.2s-0.4,0.3-0.6,0.5s-0.2,0.5-0.2,0.8v4.1H84.4z"/>
        <path style="clip-path:url(#SVGID_00000031174233669770607480000004680421230751790503_);fill:#6B7280;" d="M91.5,179.4
		c-0.6,0-1.2-0.1-1.6-0.4s-0.8-0.7-1.1-1.2s-0.4-1.1-0.4-1.8s0.1-1.3,0.4-1.8s0.6-0.9,1-1.2s1-0.4,1.6-0.4c0.3,0,0.7,0.1,1,0.2
		s0.6,0.3,0.9,0.6s0.5,0.6,0.7,1s0.2,0.9,0.2,1.5v0.4h-5.1v-0.9h4.5l-0.5,0.3c0-0.4-0.1-0.8-0.2-1.1s-0.3-0.6-0.6-0.8
		s-0.6-0.3-1-0.3s-0.7,0.1-1,0.3s-0.5,0.4-0.6,0.8s-0.2,0.6-0.2,1v0.6c0,0.5,0.1,0.9,0.3,1.2s0.4,0.6,0.7,0.8s0.7,0.3,1.1,0.3
		c0.3,0,0.5,0,0.7-0.1s0.4-0.2,0.5-0.3s0.3-0.3,0.4-0.6l1,0.3c-0.1,0.3-0.3,0.6-0.5,0.9s-0.5,0.4-0.9,0.6S92,179.4,91.5,179.4z"/>
        <path style="clip-path:url(#SVGID_00000031174233669770607480000004680421230751790503_);fill:#6B7280;" d="M101.1,178.5
		c0.4,0,0.7-0.1,1-0.2s0.5-0.4,0.6-0.6s0.2-0.5,0.2-0.8V176c0,0.1-0.1,0.1-0.3,0.1s-0.3,0.1-0.5,0.1s-0.4,0.1-0.5,0.1s-0.3,0-0.4,0
		c-0.3,0-0.5,0.1-0.7,0.2s-0.4,0.2-0.5,0.3s-0.2,0.3-0.2,0.6c0,0.2,0.1,0.4,0.2,0.6s0.3,0.3,0.5,0.3S100.9,178.5,101.1,178.5z
		 M101,179.4c-0.4,0-0.8-0.1-1.1-0.2s-0.6-0.4-0.8-0.7s-0.3-0.7-0.3-1.1c0-0.4,0.1-0.7,0.2-0.9s0.3-0.4,0.6-0.6s0.5-0.2,0.8-0.3
		s0.6-0.1,0.9-0.2c0.4-0.1,0.7-0.1,1-0.1s0.4-0.1,0.5-0.1s0.2-0.2,0.2-0.3v0c0-0.3-0.1-0.5-0.2-0.7s-0.3-0.3-0.5-0.4
		s-0.5-0.2-0.8-0.2c-0.3,0-0.6,0-0.8,0.1s-0.4,0.2-0.5,0.4s-0.2,0.3-0.3,0.4l-1-0.3c0.2-0.4,0.4-0.7,0.7-0.9s0.6-0.4,0.9-0.5
		s0.7-0.1,1-0.1c0.2,0,0.5,0,0.7,0.1s0.5,0.2,0.8,0.3s0.5,0.4,0.6,0.7s0.3,0.7,0.3,1.2v4.3h-1v-0.9h-0.1c-0.1,0.2-0.2,0.3-0.4,0.5
		s-0.4,0.3-0.6,0.4S101.3,179.4,101,179.4z"/>
        <path style="clip-path:url(#SVGID_00000031174233669770607480000004680421230751790503_);fill:#6B7280;" d="M108.8,178.4
		c0.4,0,0.8-0.1,1-0.3s0.5-0.5,0.6-0.9s0.2-0.8,0.2-1.2c0-0.5-0.1-0.9-0.2-1.2s-0.3-0.7-0.6-0.9s-0.6-0.3-1-0.3
		c-0.4,0-0.7,0.1-1,0.3s-0.5,0.5-0.6,0.8s-0.2,0.8-0.2,1.3s0.1,0.9,0.2,1.3s0.3,0.7,0.6,0.9S108.4,178.4,108.8,178.4z M108.9,179.4
		c-0.4,0-0.7-0.1-1-0.2s-0.4-0.3-0.6-0.5s-0.2-0.3-0.3-0.5h-0.1v1h-1v-8.7h1.1v3.2h0.1c0.1-0.1,0.2-0.3,0.3-0.4s0.3-0.3,0.6-0.5
		s0.6-0.2,1-0.2c0.5,0,1,0.1,1.4,0.4s0.7,0.7,1,1.2s0.4,1.1,0.4,1.8c0,0.7-0.1,1.3-0.4,1.8s-0.6,0.9-1,1.2S109.5,179.4,108.9,179.4z
		"/>
        <path style="clip-path:url(#SVGID_00000031174233669770607480000004680421230751790503_);fill:#6B7280;" d="M115.9,178.4
		c0.4,0,0.8-0.1,1.1-0.3s0.5-0.5,0.6-0.9s0.2-0.8,0.2-1.2c0-0.4-0.1-0.8-0.2-1.2s-0.3-0.7-0.6-0.9s-0.6-0.3-1.1-0.3
		c-0.4,0-0.8,0.1-1.1,0.3s-0.5,0.5-0.6,0.9s-0.2,0.8-0.2,1.2c0,0.4,0.1,0.8,0.2,1.2s0.3,0.7,0.6,0.9S115.4,178.4,115.9,178.4z
		 M115.9,179.4c-0.6,0-1.1-0.1-1.6-0.4s-0.8-0.7-1-1.2s-0.4-1.1-0.4-1.8c0-0.7,0.1-1.3,0.4-1.8s0.6-0.9,1-1.2s1-0.4,1.6-0.4
		c0.6,0,1.1,0.1,1.6,0.4s0.8,0.7,1,1.2s0.4,1.1,0.4,1.8c0,0.7-0.1,1.3-0.4,1.8s-0.6,0.9-1,1.2S116.5,179.4,115.9,179.4z"/>
        <path style="clip-path:url(#SVGID_00000031174233669770607480000004680421230751790503_);fill:#6B7280;" d="M122.6,179.3
		c-0.4,0-0.8-0.1-1.2-0.3s-0.6-0.5-0.8-0.8s-0.3-0.8-0.3-1.4v-4.2h1.1v4.1c0,0.5,0.1,0.9,0.4,1.2s0.6,0.4,1.1,0.4
		c0.3,0,0.6-0.1,0.8-0.2s0.4-0.3,0.6-0.6s0.2-0.6,0.2-1v-3.9h1.1v6.6h-1v-1.6h0.1c-0.2,0.6-0.5,1-0.9,1.3S123.1,179.3,122.6,179.3z"
        />
        <path style="clip-path:url(#SVGID_00000031174233669770607480000004680421230751790503_);fill:#6B7280;" d="M127.7,171.1h1.1v6.4
		c0,0.3,0.1,0.5,0.2,0.6s0.3,0.2,0.6,0.2c0.1,0,0.2,0,0.3,0s0.2,0,0.3,0l0.2,0.9c-0.1,0-0.2,0.1-0.4,0.1s-0.3,0-0.4,0
		c-0.6,0-1-0.1-1.3-0.4s-0.5-0.7-0.5-1.3V171.1z M130.1,172.7v0.9h-3.4v-0.9H130.1z"/>
        <path style="clip-path:url(#SVGID_00000031174233669770607480000004680421230751790503_);fill:#6B7280;" d="M134.9,179.2v-8.7h1.6
		l2.2,5.5c0.1,0.1,0.1,0.3,0.2,0.5s0.1,0.4,0.2,0.6s0.1,0.5,0.2,0.7s0.1,0.4,0.2,0.6h-0.2c0.1-0.2,0.1-0.4,0.2-0.6s0.1-0.4,0.2-0.7
		s0.1-0.4,0.2-0.6s0.1-0.4,0.2-0.5l2.1-5.5h1.6v8.7h-1.1v-5c0-0.2,0-0.4,0-0.6s0-0.5,0-0.7s0-0.5,0-0.8s0-0.5,0-0.8h0.1
		c-0.1,0.3-0.2,0.5-0.3,0.8s-0.2,0.5-0.3,0.8s-0.2,0.5-0.2,0.7s-0.1,0.4-0.2,0.5l-2,5h-1l-2-5c-0.1-0.1-0.1-0.3-0.2-0.5
		s-0.2-0.4-0.2-0.7s-0.2-0.5-0.3-0.8s-0.2-0.6-0.3-0.9h0.1c0,0.2,0,0.5,0,0.7s0,0.5,0,0.8s0,0.5,0,0.8s0,0.5,0,0.6v5H134.9z"/>
        <path style="clip-path:url(#SVGID_00000031174233669770607480000004680421230751790503_);fill:#6B7280;" d="M148.4,179.4
		c-0.6,0-1.2-0.1-1.6-0.4s-0.8-0.7-1.1-1.2s-0.4-1.1-0.4-1.8s0.1-1.3,0.4-1.8s0.6-0.9,1-1.2s1-0.4,1.6-0.4c0.3,0,0.7,0.1,1,0.2
		s0.6,0.3,0.9,0.6s0.5,0.6,0.7,1s0.2,0.9,0.2,1.5v0.4H146v-0.9h4.5l-0.5,0.3c0-0.4-0.1-0.8-0.2-1.1s-0.3-0.6-0.6-0.8s-0.6-0.3-1-0.3
		s-0.7,0.1-1,0.3s-0.5,0.4-0.6,0.8s-0.2,0.6-0.2,1v0.6c0,0.5,0.1,0.9,0.3,1.2s0.4,0.6,0.7,0.8s0.7,0.3,1.1,0.3c0.3,0,0.5,0,0.7-0.1
		s0.4-0.2,0.5-0.3s0.3-0.3,0.4-0.6l1,0.3c-0.1,0.3-0.3,0.6-0.5,0.9s-0.5,0.4-0.9,0.6S148.8,179.4,148.4,179.4z"/>
        <path style="clip-path:url(#SVGID_00000031174233669770607480000004680421230751790503_);fill:#6B7280;" d="M155.3,178.4
		c0.4,0,0.7-0.1,1-0.3s0.5-0.5,0.6-0.9s0.2-0.8,0.2-1.3s-0.1-0.9-0.2-1.3s-0.3-0.6-0.6-0.8s-0.6-0.3-1-0.3c-0.4,0-0.8,0.1-1,0.3
		s-0.5,0.5-0.6,0.9s-0.2,0.8-0.2,1.2c0,0.5,0.1,0.9,0.2,1.2s0.3,0.7,0.6,0.9S154.8,178.4,155.3,178.4z M155.1,179.4
		c-0.5,0-1-0.1-1.4-0.4s-0.7-0.7-1-1.2s-0.4-1.1-0.4-1.8c0-0.7,0.1-1.3,0.4-1.8s0.6-0.9,1-1.2s0.9-0.4,1.4-0.4c0.4,0,0.8,0.1,1,0.2
		s0.4,0.3,0.6,0.5s0.2,0.3,0.3,0.4h0.1v-3.2h1.1v8.7h-1v-1H157c-0.1,0.1-0.2,0.3-0.3,0.5s-0.3,0.3-0.6,0.5S155.5,179.4,155.1,179.4z
		"/>
        <path style="clip-path:url(#SVGID_00000031174233669770607480000004680421230751790503_);fill:#6B7280;" d="M160,179.2v-6.6h1v1
		h0.1c0.1-0.3,0.3-0.6,0.6-0.8s0.7-0.3,1.1-0.3c0.1,0,0.2,0,0.3,0s0.2,0,0.3,0v1.1c0,0-0.1,0-0.2,0s-0.3,0-0.4,0
		c-0.3,0-0.6,0.1-0.8,0.2s-0.4,0.3-0.6,0.5s-0.2,0.5-0.2,0.8v4.1H160z"/>
        <path style="clip-path:url(#SVGID_00000031174233669770607480000004680421230751790503_);fill:#6B7280;" d="M166.7,179.3
		c-0.4,0-0.8-0.1-1.2-0.3s-0.6-0.5-0.8-0.8s-0.3-0.8-0.3-1.4v-4.2h1.1v4.1c0,0.5,0.1,0.9,0.4,1.2s0.6,0.4,1.1,0.4
		c0.3,0,0.6-0.1,0.8-0.2s0.4-0.3,0.6-0.6s0.2-0.6,0.2-1v-3.9h1.1v6.6h-1v-1.6h0.1c-0.2,0.6-0.5,1-0.9,1.3S167.2,179.3,166.7,179.3z"
        />
        <path style="clip-path:url(#SVGID_00000031174233669770607480000004680421230751790503_);fill:#6B7280;" d="M172.7,175.3v3.9h-1.1
		v-6.6h1l0,1.6h-0.1c0.2-0.6,0.5-1,0.9-1.3s0.8-0.4,1.3-0.4c0.4,0,0.8,0.1,1.2,0.3s0.6,0.5,0.8,0.8s0.3,0.8,0.3,1.4v4.2h-1.1v-4.1
		c0-0.5-0.1-0.9-0.4-1.2s-0.6-0.4-1.1-0.4c-0.3,0-0.6,0.1-0.8,0.2s-0.4,0.3-0.6,0.6S172.7,174.9,172.7,175.3z"/>
        <path style="clip-path:url(#SVGID_00000031174233669770607480000004680421230751790503_);fill:#6B7280;" d="M179.7,175.3v3.9h-1.1
		v-6.6h1l0,1.6h-0.1c0.2-0.6,0.5-1,0.9-1.3s0.8-0.4,1.3-0.4c0.4,0,0.8,0.1,1.2,0.3s0.6,0.5,0.8,0.8s0.3,0.8,0.3,1.4v4.2h-1.1v-4.1
		c0-0.5-0.1-0.9-0.4-1.2s-0.6-0.4-1.1-0.4c-0.3,0-0.6,0.1-0.8,0.2s-0.4,0.3-0.6,0.6S179.7,174.9,179.7,175.3z"/>
        <path style="clip-path:url(#SVGID_00000031174233669770607480000004680421230751790503_);fill:#6B7280;" d="M188.5,179.4
		c-0.6,0-1.2-0.1-1.6-0.4s-0.8-0.7-1.1-1.2s-0.4-1.1-0.4-1.8s0.1-1.3,0.4-1.8s0.6-0.9,1-1.2s1-0.4,1.6-0.4c0.3,0,0.7,0.1,1,0.2
		s0.6,0.3,0.9,0.6s0.5,0.6,0.7,1s0.2,0.9,0.2,1.5v0.4h-5.1v-0.9h4.5l-0.5,0.3c0-0.4-0.1-0.8-0.2-1.1s-0.3-0.6-0.6-0.8
		s-0.6-0.3-1-0.3s-0.7,0.1-1,0.3s-0.5,0.4-0.6,0.8s-0.2,0.6-0.2,1v0.6c0,0.5,0.1,0.9,0.3,1.2s0.4,0.6,0.7,0.8s0.7,0.3,1.1,0.3
		c0.3,0,0.5,0,0.7-0.1s0.4-0.2,0.5-0.3s0.3-0.3,0.4-0.6l1,0.3c-0.1,0.3-0.3,0.6-0.5,0.9s-0.5,0.4-0.9,0.6S189,179.4,188.5,179.4z"/>
        <path style="clip-path:url(#SVGID_00000031174233669770607480000004680421230751790503_);fill:#6B7280;" d="M192.8,179.2v-6.6h1v1
		h0.1c0.1-0.3,0.3-0.6,0.6-0.8s0.7-0.3,1.1-0.3c0.1,0,0.2,0,0.3,0s0.2,0,0.3,0v1.1c0,0-0.1,0-0.2,0s-0.3,0-0.4,0
		c-0.3,0-0.6,0.1-0.8,0.2s-0.4,0.3-0.6,0.5s-0.2,0.5-0.2,0.8v4.1H192.8z"/>
        <path style="clip-path:url(#SVGID_00000031174233669770607480000004680421230751790503_);fill:#6B7280;" d="M202.7,178.5
		c0.4,0,0.7-0.1,1-0.2s0.5-0.4,0.6-0.6s0.2-0.5,0.2-0.8V176c0,0.1-0.1,0.1-0.3,0.1s-0.3,0.1-0.5,0.1s-0.4,0.1-0.5,0.1s-0.3,0-0.4,0
		c-0.3,0-0.5,0.1-0.7,0.2s-0.4,0.2-0.5,0.3s-0.2,0.3-0.2,0.6c0,0.2,0.1,0.4,0.2,0.6s0.3,0.3,0.5,0.3S202.4,178.5,202.7,178.5z
		 M202.5,179.4c-0.4,0-0.8-0.1-1.1-0.2s-0.6-0.4-0.8-0.7s-0.3-0.7-0.3-1.1c0-0.4,0.1-0.7,0.2-0.9s0.3-0.4,0.6-0.6s0.5-0.2,0.8-0.3
		s0.6-0.1,0.9-0.2c0.4-0.1,0.7-0.1,1-0.1s0.4-0.1,0.5-0.1s0.2-0.2,0.2-0.3v0c0-0.3-0.1-0.5-0.2-0.7s-0.3-0.3-0.5-0.4
		s-0.5-0.2-0.8-0.2c-0.3,0-0.6,0-0.8,0.1s-0.4,0.2-0.5,0.4s-0.2,0.3-0.3,0.4l-1-0.3c0.2-0.4,0.4-0.7,0.7-0.9s0.6-0.4,0.9-0.5
		s0.7-0.1,1-0.1c0.2,0,0.5,0,0.7,0.1s0.5,0.2,0.8,0.3s0.5,0.4,0.6,0.7s0.3,0.7,0.3,1.2v4.3h-1v-0.9h-0.1c-0.1,0.2-0.2,0.3-0.4,0.5
		s-0.4,0.3-0.6,0.4S202.9,179.4,202.5,179.4z"/>
        <path style="clip-path:url(#SVGID_00000031174233669770607480000004680421230751790503_);fill:#6B7280;" d="M207.6,171.1h1.1v6.4
		c0,0.3,0.1,0.5,0.2,0.6s0.3,0.2,0.6,0.2c0.1,0,0.2,0,0.3,0s0.2,0,0.3,0l0.2,0.9c-0.1,0-0.2,0.1-0.4,0.1s-0.3,0-0.4,0
		c-0.6,0-1-0.1-1.3-0.4s-0.5-0.7-0.5-1.3V171.1z M210,172.7v0.9h-3.4v-0.9H210z"/>
</g>
    <g>
	<defs>
		<rect id="SVGID_00000168089870774040127880000003822231042651947938_" x="-54" y="-141" width="841.9"
              height="595.2"/>
	</defs>
        <clipPath id="SVGID_00000096042216794282007030000010969548463158992550_">
		<use xlink:href="#SVGID_00000168089870774040127880000003822231042651947938_" style="overflow:visible;"/>
	</clipPath>
        <g style="clip-path:url(#SVGID_00000096042216794282007030000010969548463158992550_);">
		<defs>
			<path id="SVGID_00000029728566464537565720000016422811653999865012_" d="M287.8,179.5h-3.5v1.9h3.5V179.5z M787.9-141H-54v595.2
				h841.9V-141z"/>
		</defs>
            <clipPath id="SVGID_00000114072920575491260310000012214984078151611555_">
			<use xlink:href="#SVGID_00000029728566464537565720000016422811653999865012_" style="overflow:visible;"/>
		</clipPath>

            <rect x="213.4" y="180"
                  style="clip-path:url(#SVGID_00000114072920575491260310000012214984078151611555_);fill:#6B7280;"
                  width="99.3" height="0.8"/>
	</g>
</g>
    <g>
	<defs>
		<rect id="SVGID_00000018930866906339468840000015034145512624423813_" x="-54" y="-141" width="841.9"
              height="595.2"/>
	</defs>
        <clipPath id="SVGID_00000147939600298344864840000016952658398088582308_">
		<use xlink:href="#SVGID_00000018930866906339468840000015034145512624423813_" style="overflow:visible;"/>
	</clipPath>
        <path style="clip-path:url(#SVGID_00000147939600298344864840000016952658398088582308_);fill:#6B7280;" d="M214.3,179.2v-6.6h1
		l0,1.5h-0.1c0.1-0.4,0.2-0.6,0.4-0.9s0.4-0.4,0.7-0.5s0.5-0.2,0.8-0.2c0.5,0,0.9,0.1,1.2,0.4s0.5,0.7,0.6,1.2h-0.1
		c0.1-0.3,0.2-0.6,0.4-0.8s0.5-0.4,0.8-0.6s0.6-0.2,1-0.2c0.4,0,0.7,0.1,1,0.2s0.6,0.4,0.7,0.7s0.3,0.8,0.3,1.3v4.4h-1.1v-4.4
		c0-0.5-0.1-0.8-0.4-1s-0.6-0.3-0.9-0.3c-0.3,0-0.5,0.1-0.8,0.2s-0.4,0.3-0.5,0.5s-0.2,0.5-0.2,0.7v4.3h-1.1v-4.5
		c0-0.4-0.1-0.7-0.4-0.9s-0.5-0.3-0.9-0.3c-0.3,0-0.5,0.1-0.7,0.2s-0.4,0.3-0.5,0.5s-0.2,0.5-0.2,0.9v4.1H214.3z"/>
        <path style="clip-path:url(#SVGID_00000147939600298344864840000016952658398088582308_);fill:#6B7280;" d="M227.6,179.4
		c-0.6,0-1.2-0.1-1.6-0.4s-0.8-0.7-1.1-1.2s-0.4-1.1-0.4-1.8s0.1-1.3,0.4-1.8s0.6-0.9,1-1.2s1-0.4,1.6-0.4c0.3,0,0.7,0.1,1,0.2
		s0.6,0.3,0.9,0.6s0.5,0.6,0.7,1s0.2,0.9,0.2,1.5v0.4h-5.1v-0.9h4.5l-0.5,0.3c0-0.4-0.1-0.8-0.2-1.1s-0.3-0.6-0.6-0.8
		s-0.6-0.3-1-0.3s-0.7,0.1-1,0.3s-0.5,0.4-0.6,0.8s-0.2,0.6-0.2,1v0.6c0,0.5,0.1,0.9,0.3,1.2s0.4,0.6,0.7,0.8s0.7,0.3,1.1,0.3
		c0.3,0,0.5,0,0.7-0.1s0.4-0.2,0.5-0.3s0.3-0.3,0.4-0.6l1,0.3c-0.1,0.3-0.3,0.6-0.5,0.9s-0.5,0.4-0.9,0.6S228.1,179.4,227.6,179.4z"
        />
        <path style="clip-path:url(#SVGID_00000147939600298344864840000016952658398088582308_);fill:#6B7280;" d="M234.5,178.4
		c0.4,0,0.7-0.1,1-0.3s0.5-0.5,0.6-0.9s0.2-0.8,0.2-1.3s-0.1-0.9-0.2-1.3s-0.3-0.6-0.6-0.8s-0.6-0.3-1-0.3c-0.4,0-0.8,0.1-1,0.3
		s-0.5,0.5-0.6,0.9s-0.2,0.8-0.2,1.2c0,0.5,0.1,0.9,0.2,1.2s0.3,0.7,0.6,0.9S234.1,178.4,234.5,178.4z M234.3,179.4
		c-0.5,0-1-0.1-1.4-0.4s-0.7-0.7-1-1.2s-0.4-1.1-0.4-1.8c0-0.7,0.1-1.3,0.4-1.8s0.6-0.9,1-1.2s0.9-0.4,1.4-0.4c0.4,0,0.8,0.1,1,0.2
		s0.4,0.3,0.6,0.5s0.2,0.3,0.3,0.4h0.1v-3.2h1.1v8.7h-1v-1h-0.1c-0.1,0.1-0.2,0.3-0.3,0.5s-0.3,0.3-0.6,0.5S234.7,179.4,234.3,179.4
		z"/>
        <path style="clip-path:url(#SVGID_00000147939600298344864840000016952658398088582308_);fill:#6B7280;" d="M239.2,179.2v-6.6h1v1
		h0.1c0.1-0.3,0.3-0.6,0.6-0.8s0.7-0.3,1.1-0.3c0.1,0,0.2,0,0.3,0s0.2,0,0.3,0v1.1c0,0-0.1,0-0.2,0s-0.3,0-0.4,0
		c-0.3,0-0.6,0.1-0.8,0.2s-0.4,0.3-0.6,0.5s-0.2,0.5-0.2,0.8v4.1H239.2z"/>
        <path style="clip-path:url(#SVGID_00000147939600298344864840000016952658398088582308_);fill:#6B7280;" d="M245.9,179.3
		c-0.4,0-0.8-0.1-1.2-0.3s-0.6-0.5-0.8-0.8s-0.3-0.8-0.3-1.4v-4.2h1.1v4.1c0,0.5,0.1,0.9,0.4,1.2s0.6,0.4,1.1,0.4
		c0.3,0,0.6-0.1,0.8-0.2s0.4-0.3,0.6-0.6s0.2-0.6,0.2-1v-3.9h1.1v6.6h-1v-1.6h0.1c-0.2,0.6-0.5,1-0.9,1.3S246.4,179.3,245.9,179.3z"
        />
        <path style="clip-path:url(#SVGID_00000147939600298344864840000016952658398088582308_);fill:#6B7280;" d="M251.9,175.3v3.9h-1.1
		v-6.6h1l0,1.6h-0.1c0.2-0.6,0.5-1,0.9-1.3s0.8-0.4,1.3-0.4c0.4,0,0.8,0.1,1.2,0.3s0.6,0.5,0.8,0.8s0.3,0.8,0.3,1.4v4.2H255v-4.1
		c0-0.5-0.1-0.9-0.4-1.2s-0.6-0.4-1.1-0.4c-0.3,0-0.6,0.1-0.8,0.2s-0.4,0.3-0.6,0.6S251.9,174.9,251.9,175.3z"/>
        <path style="clip-path:url(#SVGID_00000147939600298344864840000016952658398088582308_);fill:#6B7280;" d="M258.9,175.3v3.9h-1.1
		v-6.6h1l0,1.6h-0.1c0.2-0.6,0.5-1,0.9-1.3s0.8-0.4,1.3-0.4c0.4,0,0.8,0.1,1.2,0.3s0.6,0.5,0.8,0.8s0.3,0.8,0.3,1.4v4.2h-1.1v-4.1
		c0-0.5-0.1-0.9-0.4-1.2s-0.6-0.4-1.1-0.4c-0.3,0-0.6,0.1-0.8,0.2s-0.4,0.3-0.6,0.6S258.9,174.9,258.9,175.3z"/>
        <path style="clip-path:url(#SVGID_00000147939600298344864840000016952658398088582308_);fill:#6B7280;" d="M267.7,179.4
		c-0.6,0-1.2-0.1-1.6-0.4s-0.8-0.7-1.1-1.2s-0.4-1.1-0.4-1.8s0.1-1.3,0.4-1.8s0.6-0.9,1-1.2s1-0.4,1.6-0.4c0.3,0,0.7,0.1,1,0.2
		s0.6,0.3,0.9,0.6s0.5,0.6,0.7,1s0.2,0.9,0.2,1.5v0.4h-5.1v-0.9h4.5l-0.5,0.3c0-0.4-0.1-0.8-0.2-1.1s-0.3-0.6-0.6-0.8
		s-0.6-0.3-1-0.3s-0.7,0.1-1,0.3s-0.5,0.4-0.6,0.8s-0.2,0.6-0.2,1v0.6c0,0.5,0.1,0.9,0.3,1.2s0.4,0.6,0.7,0.8s0.7,0.3,1.1,0.3
		c0.3,0,0.5,0,0.7-0.1s0.4-0.2,0.5-0.3s0.3-0.3,0.4-0.6l1,0.3c-0.1,0.3-0.3,0.6-0.5,0.9s-0.5,0.4-0.9,0.6S268.2,179.4,267.7,179.4z"
        />
        <path style="clip-path:url(#SVGID_00000147939600298344864840000016952658398088582308_);fill:#6B7280;" d="M272,179.2v-6.6h1v1
		h0.1c0.1-0.3,0.3-0.6,0.6-0.8s0.7-0.3,1.1-0.3c0.1,0,0.2,0,0.3,0s0.2,0,0.3,0v1.1c0,0-0.1,0-0.2,0s-0.3,0-0.4,0
		c-0.3,0-0.6,0.1-0.8,0.2s-0.4,0.3-0.6,0.5s-0.2,0.5-0.2,0.8v4.1H272z"/>
        <path style="clip-path:url(#SVGID_00000147939600298344864840000016952658398088582308_);fill:#6B7280;" d="M276.6,179.3
		c-0.2,0-0.4-0.1-0.6-0.2s-0.2-0.3-0.2-0.6s0.1-0.4,0.2-0.6s0.3-0.2,0.6-0.2s0.4,0.1,0.6,0.2s0.2,0.3,0.2,0.6s-0.1,0.4-0.2,0.6
		S276.8,179.3,276.6,179.3z"/>
        <path style="clip-path:url(#SVGID_00000147939600298344864840000016952658398088582308_);fill:#6B7280;" d="M281.4,179.4
		c-0.4,0-0.8-0.1-1.2-0.2s-0.6-0.3-0.9-0.6s-0.4-0.6-0.5-0.9l1-0.2c0.1,0.4,0.3,0.6,0.5,0.8s0.6,0.3,1,0.3c0.5,0,0.8-0.1,1.1-0.3
		s0.4-0.4,0.4-0.7c0-0.2-0.1-0.4-0.2-0.6s-0.4-0.3-0.7-0.3l-1.1-0.3c-0.6-0.1-1-0.4-1.3-0.7s-0.4-0.7-0.4-1.1c0-0.4,0.1-0.7,0.3-1
		s0.5-0.5,0.9-0.7s0.8-0.2,1.2-0.2c0.4,0,0.8,0.1,1.1,0.2s0.6,0.3,0.8,0.6s0.3,0.5,0.4,0.8l-1,0.2c-0.1-0.2-0.2-0.4-0.4-0.6
		s-0.5-0.3-0.9-0.3c-0.4,0-0.7,0.1-1,0.3s-0.4,0.4-0.4,0.7c0,0.2,0.1,0.4,0.3,0.6s0.5,0.3,0.8,0.4l1,0.2c0.6,0.1,1,0.4,1.3,0.7
		s0.4,0.7,0.4,1.1c0,0.4-0.1,0.7-0.3,1s-0.5,0.5-0.9,0.7S281.9,179.4,281.4,179.4z"/>
        <path style="clip-path:url(#SVGID_00000147939600298344864840000016952658398088582308_);fill:#6B7280;" d="M288.4,178.4
		c0.4,0,0.8-0.1,1-0.3s0.5-0.5,0.6-0.9s0.2-0.8,0.2-1.2c0-0.5-0.1-0.9-0.2-1.2s-0.3-0.7-0.6-0.9s-0.6-0.3-1-0.3
		c-0.4,0-0.7,0.1-1,0.3s-0.5,0.5-0.6,0.8s-0.2,0.8-0.2,1.3s0.1,0.9,0.2,1.3s0.3,0.7,0.6,0.9S288,178.4,288.4,178.4z M285.5,181.7v-9
		h1v1h0.1c0.1-0.1,0.2-0.3,0.3-0.4s0.3-0.3,0.6-0.5s0.6-0.2,1-0.2c0.5,0,1,0.1,1.4,0.4s0.7,0.7,1,1.2s0.4,1.1,0.4,1.8
		c0,0.7-0.1,1.3-0.4,1.8s-0.6,0.9-1,1.2s-0.9,0.4-1.4,0.4c-0.4,0-0.7-0.1-1-0.2s-0.4-0.3-0.6-0.5s-0.2-0.3-0.3-0.5h-0.1v3.5H285.5z"
        />
        <path style="clip-path:url(#SVGID_00000147939600298344864840000016952658398088582308_);fill:#6B7280;" d="M295,178.5
		c0.4,0,0.7-0.1,1-0.2s0.5-0.4,0.6-0.6s0.2-0.5,0.2-0.8V176c0,0.1-0.1,0.1-0.3,0.1s-0.3,0.1-0.5,0.1s-0.4,0.1-0.5,0.1s-0.3,0-0.4,0
		c-0.3,0-0.5,0.1-0.7,0.2s-0.4,0.2-0.5,0.3s-0.2,0.3-0.2,0.6c0,0.2,0.1,0.4,0.2,0.6s0.3,0.3,0.5,0.3S294.8,178.5,295,178.5z
		 M294.8,179.4c-0.4,0-0.8-0.1-1.1-0.2s-0.6-0.4-0.8-0.7s-0.3-0.7-0.3-1.1c0-0.4,0.1-0.7,0.2-0.9s0.3-0.4,0.6-0.6s0.5-0.2,0.8-0.3
		s0.6-0.1,0.9-0.2c0.4-0.1,0.7-0.1,1-0.1s0.4-0.1,0.5-0.1s0.2-0.2,0.2-0.3v0c0-0.3-0.1-0.5-0.2-0.7s-0.3-0.3-0.5-0.4
		s-0.5-0.2-0.8-0.2c-0.3,0-0.6,0-0.8,0.1s-0.4,0.2-0.5,0.4s-0.2,0.3-0.3,0.4l-1-0.3c0.2-0.4,0.4-0.7,0.7-0.9s0.6-0.4,0.9-0.5
		s0.7-0.1,1-0.1c0.2,0,0.5,0,0.7,0.1s0.5,0.2,0.8,0.3s0.5,0.4,0.6,0.7s0.3,0.7,0.3,1.2v4.3h-1v-0.9h-0.1c-0.1,0.2-0.2,0.3-0.4,0.5
		s-0.4,0.3-0.6,0.4S295.2,179.4,294.8,179.4z"/>
        <path style="clip-path:url(#SVGID_00000147939600298344864840000016952658398088582308_);fill:#6B7280;" d="M302.4,179.4
		c-0.6,0-1.1-0.1-1.6-0.4s-0.8-0.7-1-1.2s-0.4-1.1-0.4-1.8c0-0.7,0.1-1.3,0.4-1.8s0.6-0.9,1-1.2s1-0.4,1.6-0.4c0.3,0,0.6,0,0.9,0.1
		s0.5,0.2,0.8,0.4s0.4,0.3,0.6,0.6s0.3,0.5,0.4,0.8l-1,0.3c0-0.2-0.1-0.3-0.2-0.5s-0.2-0.3-0.4-0.4s-0.3-0.2-0.5-0.2
		s-0.4-0.1-0.6-0.1c-0.4,0-0.8,0.1-1.1,0.3s-0.5,0.5-0.6,0.9s-0.2,0.8-0.2,1.2c0,0.4,0.1,0.8,0.2,1.2s0.3,0.7,0.6,0.9
		s0.6,0.3,1.1,0.3c0.2,0,0.4,0,0.6-0.1s0.3-0.1,0.5-0.2s0.3-0.2,0.4-0.4s0.2-0.3,0.2-0.5l1,0.3c-0.1,0.3-0.2,0.6-0.4,0.8
		s-0.4,0.4-0.6,0.6s-0.5,0.3-0.8,0.4S302.7,179.4,302.4,179.4z"/>
        <path style="clip-path:url(#SVGID_00000147939600298344864840000016952658398088582308_);fill:#6B7280;" d="M309.4,179.4
		c-0.6,0-1.2-0.1-1.6-0.4s-0.8-0.7-1.1-1.2s-0.4-1.1-0.4-1.8s0.1-1.3,0.4-1.8s0.6-0.9,1-1.2s1-0.4,1.6-0.4c0.3,0,0.7,0.1,1,0.2
		s0.6,0.3,0.9,0.6s0.5,0.6,0.7,1s0.2,0.9,0.2,1.5v0.4H307v-0.9h4.5l-0.5,0.3c0-0.4-0.1-0.8-0.2-1.1s-0.3-0.6-0.6-0.8s-0.6-0.3-1-0.3
		s-0.7,0.1-1,0.3s-0.5,0.4-0.6,0.8s-0.2,0.6-0.2,1v0.6c0,0.5,0.1,0.9,0.3,1.2s0.4,0.6,0.7,0.8s0.7,0.3,1.1,0.3c0.3,0,0.5,0,0.7-0.1
		s0.4-0.2,0.5-0.3s0.3-0.3,0.4-0.6l1,0.3c-0.1,0.3-0.3,0.6-0.5,0.9s-0.5,0.4-0.9,0.6S309.8,179.4,309.4,179.4z"/>
        <path style="clip-path:url(#SVGID_00000147939600298344864840000016952658398088582308_);fill:#6B7280;" d="M314.4,179.3
		c-0.2,0-0.4-0.1-0.6-0.2s-0.2-0.3-0.2-0.6s0.1-0.4,0.2-0.6s0.3-0.2,0.6-0.2s0.4,0.1,0.6,0.2s0.2,0.3,0.2,0.6s-0.1,0.4-0.2,0.6
		S314.6,179.3,314.4,179.3z"/>
        <polygon style="clip-path:url(#SVGID_00000147939600298344864840000016952658398088582308_);fill:#FFFFFF;"
                 points="157.4,227.2
		157.4,219.6 158.6,219.6 158.6,226.2 162,226.2 162,227.2 	"/>
        <path style="clip-path:url(#SVGID_00000147939600298344864840000016952658398088582308_);fill:#FFFFFF;" d="M165.6,226.4
		c0.3,0,0.6-0.1,0.9-0.3s0.4-0.4,0.5-0.7s0.2-0.6,0.2-1c0-0.4-0.1-0.7-0.2-1s-0.3-0.6-0.5-0.7s-0.5-0.3-0.9-0.3
		c-0.3,0-0.6,0.1-0.9,0.3s-0.4,0.4-0.5,0.7s-0.2,0.6-0.2,1c0,0.4,0.1,0.7,0.2,1s0.3,0.5,0.5,0.7S165.3,226.4,165.6,226.4z
		 M165.6,227.4c-0.5,0-1-0.1-1.4-0.4s-0.7-0.6-0.9-1s-0.3-1-0.3-1.5c0-0.6,0.1-1.1,0.3-1.6s0.5-0.8,0.9-1s0.9-0.4,1.4-0.4
		c0.5,0,1,0.1,1.4,0.4s0.7,0.6,0.9,1s0.3,1,0.3,1.6c0,0.6-0.1,1.1-0.3,1.5s-0.5,0.8-0.9,1S166.2,227.4,165.6,227.4z"/>
        <path style="clip-path:url(#SVGID_00000147939600298344864840000016952658398088582308_);fill:#FFFFFF;" d="M172,226.2
		c0.3,0,0.6-0.1,0.8-0.2s0.4-0.4,0.5-0.6s0.2-0.6,0.2-1c0-0.4-0.1-0.7-0.2-1s-0.3-0.5-0.5-0.7s-0.5-0.2-0.8-0.2
		c-0.3,0-0.6,0.1-0.8,0.3s-0.4,0.4-0.5,0.7s-0.2,0.6-0.2,1c0,0.4,0.1,0.7,0.2,1s0.3,0.5,0.5,0.7S171.6,226.2,172,226.2z M172,229.5
		c-0.4,0-0.8-0.1-1.1-0.2s-0.6-0.3-0.8-0.5s-0.4-0.4-0.5-0.6l0.9-0.4c0.1,0.1,0.2,0.2,0.3,0.3s0.3,0.2,0.5,0.3s0.4,0.1,0.7,0.1
		c0.4,0,0.8-0.1,1.1-0.3s0.4-0.5,0.4-1v-1.1h-0.1c-0.1,0.1-0.2,0.3-0.3,0.4s-0.3,0.3-0.5,0.4s-0.5,0.2-0.8,0.2
		c-0.5,0-0.9-0.1-1.2-0.3s-0.6-0.5-0.9-0.9s-0.3-0.9-0.3-1.5s0.1-1.1,0.3-1.6s0.5-0.8,0.9-1s0.8-0.3,1.2-0.3c0.4,0,0.6,0.1,0.9,0.2
		s0.4,0.3,0.5,0.4s0.2,0.3,0.3,0.4h0.1v-0.9h1.1v5.8c0,0.5-0.1,0.9-0.3,1.2s-0.5,0.6-0.9,0.7S172.5,229.5,172,229.5z"/>
        <path style="clip-path:url(#SVGID_00000147939600298344864840000016952658398088582308_);fill:#FFFFFF;" d="M179.5,220.6
		c-0.2,0-0.4-0.1-0.5-0.2s-0.2-0.3-0.2-0.5c0-0.2,0.1-0.3,0.2-0.5s0.3-0.2,0.5-0.2c0.2,0,0.4,0.1,0.5,0.2s0.2,0.3,0.2,0.5
		c0,0.2-0.1,0.3-0.2,0.5S179.6,220.6,179.5,220.6z M178.9,227.2v-5.7h1.1l0,5.7H178.9z"/>
        <path style="clip-path:url(#SVGID_00000147939600298344864840000016952658398088582308_);fill:#FFFFFF;" d="M182.7,223.9v3.4h-1.1
		v-5.7h1.1l0,1.4h-0.1c0.2-0.5,0.4-0.9,0.7-1.1s0.7-0.4,1.2-0.4c0.4,0,0.7,0.1,1,0.2s0.5,0.4,0.7,0.7s0.2,0.7,0.2,1.2v3.6h-1.1v-3.5
		c0-0.4-0.1-0.7-0.3-1s-0.5-0.3-0.9-0.3c-0.3,0-0.5,0.1-0.7,0.2s-0.4,0.3-0.5,0.5S182.7,223.6,182.7,223.9z"/>
        <path style="clip-path:url(#SVGID_00000147939600298344864840000016952658398088582308_);fill:#FFFFFF;" d="M191.9,227.2l-1.7-5.7
		h1.2l0.6,2.4c0.1,0.4,0.2,0.8,0.3,1.2s0.2,0.9,0.3,1.5h-0.2c0.1-0.5,0.2-1,0.3-1.4s0.2-0.8,0.3-1.2l0.6-2.4h1.1l0.6,2.4
		c0.1,0.4,0.2,0.8,0.3,1.2s0.2,0.9,0.3,1.5h-0.2c0.1-0.5,0.2-1,0.3-1.5s0.2-0.8,0.3-1.2l0.6-2.4h1.2l-1.7,5.7h-1.1l-0.7-2.5
		c-0.1-0.2-0.1-0.5-0.2-0.8s-0.1-0.5-0.2-0.8s-0.1-0.6-0.2-0.8h0.2c-0.1,0.3-0.1,0.6-0.2,0.8s-0.1,0.6-0.2,0.8s-0.1,0.5-0.2,0.8
		l-0.7,2.5H191.9z"/>
        <path style="clip-path:url(#SVGID_00000147939600298344864840000016952658398088582308_);fill:#FFFFFF;" d="M199.9,220.6
		c-0.2,0-0.4-0.1-0.5-0.2s-0.2-0.3-0.2-0.5c0-0.2,0.1-0.3,0.2-0.5s0.3-0.2,0.5-0.2c0.2,0,0.4,0.1,0.5,0.2s0.2,0.3,0.2,0.5
		c0,0.2-0.1,0.3-0.2,0.5S200.1,220.6,199.9,220.6z M199.3,227.2v-5.7h1.1l0,5.7H199.3z"/>
        <path style="clip-path:url(#SVGID_00000147939600298344864840000016952658398088582308_);fill:#FFFFFF;" d="M202.2,220.2h1.1v5.5
		c0,0.2,0,0.4,0.1,0.5s0.3,0.2,0.5,0.2c0.1,0,0.1,0,0.2,0s0.2,0,0.2,0l0.2,0.9c-0.1,0-0.2,0.1-0.4,0.1s-0.3,0-0.4,0
		c-0.5,0-0.9-0.1-1.2-0.4s-0.4-0.6-0.4-1.1V220.2z M204.4,221.5v0.9h-3.1v-0.9H204.4z"/>
        <path style="clip-path:url(#SVGID_00000147939600298344864840000016952658398088582308_);fill:#FFFFFF;" d="M206.7,223.9v3.4h-1.1
		v-7.6h1.1v3.3h-0.1c0.2-0.5,0.4-0.9,0.7-1.1s0.7-0.4,1.2-0.4c0.4,0,0.7,0.1,1,0.2s0.5,0.4,0.7,0.7s0.2,0.7,0.2,1.2v3.6h-1.1v-3.5
		c0-0.4-0.1-0.7-0.3-1s-0.5-0.3-0.9-0.3c-0.3,0-0.5,0.1-0.7,0.2s-0.4,0.3-0.5,0.5S206.7,223.6,206.7,223.9z"/>
        <path style="clip-path:url(#SVGID_00000147939600298344864840000016952658398088582308_);fill:#FFFFFF;" d="M215.9,219.6v7.6h-1.2
		v-7.6H215.9z M217.3,227.2h-1.9v-1h1.8c0.6,0,1.1-0.1,1.4-0.3s0.7-0.5,0.9-1s0.3-0.9,0.3-1.5c0-0.6-0.1-1.1-0.3-1.5
		s-0.5-0.7-0.8-0.9s-0.8-0.3-1.4-0.3h-1.9v-1h2c0.8,0,1.4,0.2,1.9,0.5s0.9,0.7,1.2,1.3s0.4,1.3,0.4,2c0,0.8-0.1,1.5-0.4,2.1
		s-0.7,1-1.3,1.3S218,227.2,217.3,227.2z"/>
        <path style="clip-path:url(#SVGID_00000147939600298344864840000016952658398088582308_);fill:#FFFFFF;" d="M222.8,220.6
		c-0.2,0-0.4-0.1-0.5-0.2s-0.2-0.3-0.2-0.5c0-0.2,0.1-0.3,0.2-0.5s0.3-0.2,0.5-0.2c0.2,0,0.4,0.1,0.5,0.2s0.2,0.3,0.2,0.5
		c0,0.2-0.1,0.3-0.2,0.5S223,220.6,222.8,220.6z M222.3,227.2v-5.7h1.1l0,5.7H222.3z"/>
        <path style="clip-path:url(#SVGID_00000147939600298344864840000016952658398088582308_);fill:#FFFFFF;" d="M227,227.4
		c-0.4,0-0.8-0.1-1.1-0.2s-0.6-0.3-0.8-0.5s-0.3-0.5-0.4-0.9l1.1-0.2c0.1,0.3,0.2,0.5,0.4,0.7s0.5,0.2,0.8,0.2
		c0.4,0,0.7-0.1,0.9-0.2s0.3-0.3,0.3-0.5c0-0.2-0.1-0.3-0.2-0.5s-0.3-0.2-0.6-0.3l-1-0.2c-0.5-0.1-0.9-0.3-1.2-0.6s-0.4-0.6-0.4-1
		c0-0.3,0.1-0.6,0.3-0.9s0.5-0.5,0.8-0.6s0.7-0.2,1.1-0.2c0.4,0,0.8,0.1,1.1,0.2s0.5,0.3,0.7,0.5s0.3,0.5,0.4,0.7l-1,0.2
		c-0.1-0.2-0.2-0.4-0.4-0.5s-0.4-0.2-0.8-0.2c-0.3,0-0.6,0.1-0.8,0.2s-0.3,0.3-0.3,0.5c0,0.2,0.1,0.3,0.2,0.5s0.4,0.2,0.7,0.3
		l0.9,0.2c0.5,0.1,0.9,0.3,1.2,0.6s0.4,0.6,0.4,1c0,0.3-0.1,0.7-0.3,0.9s-0.5,0.5-0.8,0.6S227.4,227.4,227,227.4z"/>
        <path style="clip-path:url(#SVGID_00000147939600298344864840000016952658398088582308_);fill:#FFFFFF;" d="M233,227.4
		c-0.5,0-1-0.1-1.4-0.4s-0.7-0.6-0.9-1s-0.3-1-0.3-1.5c0-0.6,0.1-1.1,0.3-1.6s0.5-0.8,0.9-1s0.9-0.4,1.4-0.4c0.3,0,0.6,0,0.8,0.1
		s0.5,0.2,0.7,0.3s0.4,0.3,0.5,0.5s0.3,0.4,0.3,0.7l-1.1,0.3c0-0.1-0.1-0.3-0.2-0.4s-0.2-0.2-0.3-0.3s-0.2-0.2-0.4-0.2
		s-0.3-0.1-0.5-0.1c-0.3,0-0.6,0.1-0.9,0.3s-0.4,0.4-0.5,0.7s-0.2,0.6-0.2,1c0,0.4,0.1,0.7,0.2,1s0.3,0.5,0.5,0.7s0.5,0.3,0.9,0.3
		c0.2,0,0.3,0,0.5-0.1s0.3-0.1,0.4-0.2s0.2-0.2,0.3-0.3s0.1-0.3,0.2-0.4l1.1,0.3c-0.1,0.3-0.2,0.5-0.3,0.7s-0.3,0.4-0.5,0.5
		s-0.4,0.3-0.7,0.3S233.3,227.4,233,227.4z"/>
        <path style="clip-path:url(#SVGID_00000147939600298344864840000016952658398088582308_);fill:#FFFFFF;" d="M239,226.4
		c0.3,0,0.6-0.1,0.9-0.3s0.4-0.4,0.5-0.7s0.2-0.6,0.2-1c0-0.4-0.1-0.7-0.2-1s-0.3-0.6-0.5-0.7s-0.5-0.3-0.9-0.3
		c-0.3,0-0.6,0.1-0.9,0.3s-0.4,0.4-0.5,0.7s-0.2,0.6-0.2,1c0,0.4,0.1,0.7,0.2,1s0.3,0.5,0.5,0.7S238.7,226.4,239,226.4z M239,227.4
		c-0.5,0-1-0.1-1.4-0.4s-0.7-0.6-0.9-1s-0.3-1-0.3-1.5c0-0.6,0.1-1.1,0.3-1.6s0.5-0.8,0.9-1s0.9-0.4,1.4-0.4c0.5,0,1,0.1,1.4,0.4
		s0.7,0.6,0.9,1s0.3,1,0.3,1.6c0,0.6-0.1,1.1-0.3,1.5s-0.5,0.8-0.9,1S239.6,227.4,239,227.4z"/>
        <path style="clip-path:url(#SVGID_00000147939600298344864840000016952658398088582308_);fill:#FFFFFF;" d="M243,227.2v-5.7h1.1
		v0.9h0.1c0.1-0.3,0.3-0.6,0.6-0.7s0.6-0.3,0.9-0.3c0.1,0,0.2,0,0.2,0s0.2,0,0.2,0v1.1c0,0-0.1,0-0.2,0s-0.2,0-0.4,0
		c-0.3,0-0.5,0.1-0.7,0.2s-0.4,0.3-0.5,0.5s-0.2,0.4-0.2,0.7v3.5H243z"/>
        <path style="clip-path:url(#SVGID_00000147939600298344864840000016952658398088582308_);fill:#FFFFFF;" d="M249.2,226.4
		c0.3,0,0.6-0.1,0.8-0.3s0.4-0.4,0.5-0.7s0.2-0.7,0.2-1c0-0.4-0.1-0.7-0.2-1s-0.3-0.5-0.5-0.7s-0.5-0.2-0.8-0.2
		c-0.3,0-0.6,0.1-0.8,0.3s-0.4,0.4-0.5,0.7s-0.2,0.6-0.2,1c0,0.4,0.1,0.7,0.2,1s0.3,0.5,0.5,0.7S248.9,226.4,249.2,226.4z
		 M249,227.4c-0.5,0-0.9-0.1-1.2-0.4s-0.6-0.6-0.9-1s-0.3-1-0.3-1.6c0-0.6,0.1-1.2,0.3-1.6s0.5-0.8,0.9-1s0.8-0.3,1.2-0.3
		c0.4,0,0.6,0.1,0.9,0.2s0.4,0.3,0.5,0.4s0.2,0.3,0.3,0.4h0.1v-2.8h1.1v7.6h-1.1v-0.9h-0.1c-0.1,0.1-0.2,0.3-0.3,0.4
		s-0.3,0.3-0.5,0.4S249.3,227.4,249,227.4z"/>
        <path style="clip-path:url(#SVGID_00000147939600298344864840000016952658398088582308_);fill:#FFFFFF;" d="M156.3,270.8l-1.9-3.5
		h1.3l1.9,3.5H156.3z M152,270.8v-7.6h2.7c0.6,0,1.1,0.1,1.5,0.3s0.7,0.5,0.9,0.8s0.3,0.8,0.3,1.2c0,0.5-0.1,0.9-0.3,1.2
		s-0.5,0.6-0.9,0.8s-0.9,0.3-1.5,0.3h-2.1v-1h1.9c0.4,0,0.7-0.1,0.9-0.2s0.4-0.3,0.5-0.5s0.2-0.4,0.2-0.7c0-0.3-0.1-0.5-0.2-0.7
		s-0.3-0.4-0.5-0.5s-0.5-0.2-0.9-0.2h-1.4v6.6H152z"/>
        <path style="clip-path:url(#SVGID_00000147939600298344864840000016952658398088582308_);fill:#FFFFFF;" d="M161,270.9
		c-0.6,0-1.1-0.1-1.5-0.4s-0.7-0.6-0.9-1s-0.3-1-0.3-1.6c0-0.6,0.1-1.1,0.3-1.6s0.5-0.8,0.9-1s0.9-0.4,1.4-0.4
		c0.3,0,0.6,0.1,0.9,0.2s0.6,0.3,0.8,0.5s0.4,0.5,0.6,0.9s0.2,0.8,0.2,1.3v0.4h-4.6v-0.8h4l-0.5,0.3c0-0.4-0.1-0.7-0.2-0.9
		s-0.3-0.5-0.5-0.6s-0.5-0.2-0.8-0.2c-0.3,0-0.6,0.1-0.8,0.2s-0.4,0.4-0.5,0.6s-0.2,0.5-0.2,0.8v0.6c0,0.4,0.1,0.7,0.2,1
		s0.3,0.5,0.6,0.6s0.5,0.2,0.8,0.2c0.2,0,0.4,0,0.6-0.1s0.3-0.2,0.4-0.3s0.2-0.3,0.3-0.4l1.1,0.3c-0.1,0.3-0.2,0.6-0.5,0.8
		s-0.5,0.4-0.8,0.5S161.4,270.9,161,270.9z"/>
        <path style="clip-path:url(#SVGID_00000147939600298344864840000016952658398088582308_);fill:#FFFFFF;" d="M167.1,269.7
		c0.3,0,0.6-0.1,0.8-0.2s0.4-0.4,0.5-0.6s0.2-0.6,0.2-1c0-0.4-0.1-0.7-0.2-1s-0.3-0.5-0.5-0.7s-0.5-0.2-0.8-0.2
		c-0.3,0-0.6,0.1-0.8,0.3s-0.4,0.4-0.5,0.7s-0.2,0.6-0.2,1c0,0.4,0.1,0.7,0.2,1s0.3,0.5,0.5,0.7S166.8,269.7,167.1,269.7z
		 M167.1,273c-0.4,0-0.8-0.1-1.1-0.2s-0.6-0.3-0.8-0.5s-0.4-0.4-0.5-0.6l0.9-0.4c0.1,0.1,0.2,0.2,0.3,0.3s0.3,0.2,0.5,0.3
		s0.4,0.1,0.7,0.1c0.4,0,0.8-0.1,1.1-0.3s0.4-0.5,0.4-1v-1.1h-0.1c-0.1,0.1-0.2,0.3-0.3,0.4s-0.3,0.3-0.5,0.4s-0.5,0.2-0.8,0.2
		c-0.5,0-0.9-0.1-1.2-0.3s-0.6-0.5-0.9-0.9s-0.3-0.9-0.3-1.5s0.1-1.1,0.3-1.6s0.5-0.8,0.9-1s0.8-0.3,1.2-0.3c0.4,0,0.6,0.1,0.9,0.2
		s0.4,0.3,0.5,0.4s0.2,0.3,0.3,0.4h0.1V265h1.1v5.8c0,0.5-0.1,0.9-0.3,1.2s-0.5,0.6-0.9,0.7S167.6,273,167.1,273z"/>
        <path style="clip-path:url(#SVGID_00000147939600298344864840000016952658398088582308_);fill:#FFFFFF;" d="M171.8,264.1
		c-0.2,0-0.4-0.1-0.5-0.2s-0.2-0.3-0.2-0.5c0-0.2,0.1-0.3,0.2-0.5s0.3-0.2,0.5-0.2c0.2,0,0.4,0.1,0.5,0.2s0.2,0.3,0.2,0.5
		c0,0.2-0.1,0.3-0.2,0.5S172,264.1,171.8,264.1z M171.2,270.8V265h1.1l0,5.7H171.2z"/>
        <path style="clip-path:url(#SVGID_00000147939600298344864840000016952658398088582308_);fill:#FFFFFF;" d="M175.9,270.9
		c-0.4,0-0.8-0.1-1.1-0.2s-0.6-0.3-0.8-0.5s-0.3-0.5-0.4-0.9l1.1-0.2c0.1,0.3,0.2,0.5,0.4,0.7s0.5,0.2,0.8,0.2
		c0.4,0,0.7-0.1,0.9-0.2s0.3-0.3,0.3-0.5c0-0.2-0.1-0.3-0.2-0.5s-0.3-0.2-0.6-0.3l-1-0.2c-0.5-0.1-0.9-0.3-1.2-0.6s-0.4-0.6-0.4-1
		c0-0.3,0.1-0.6,0.3-0.9s0.5-0.5,0.8-0.6s0.7-0.2,1.1-0.2c0.4,0,0.8,0.1,1.1,0.2s0.5,0.3,0.7,0.5s0.3,0.5,0.4,0.7l-1,0.2
		c-0.1-0.2-0.2-0.4-0.4-0.5s-0.4-0.2-0.8-0.2c-0.3,0-0.6,0.1-0.8,0.2s-0.3,0.3-0.3,0.5c0,0.2,0.1,0.3,0.2,0.5s0.4,0.2,0.7,0.3
		l0.9,0.2c0.5,0.1,0.9,0.3,1.2,0.6s0.4,0.6,0.4,1c0,0.3-0.1,0.7-0.3,0.9s-0.5,0.5-0.8,0.6S176.4,270.9,175.9,270.9z"/>
        <path style="clip-path:url(#SVGID_00000147939600298344864840000016952658398088582308_);fill:#FFFFFF;" d="M179.7,263.7h1.1v5.5
		c0,0.2,0,0.4,0.1,0.5s0.3,0.2,0.5,0.2c0.1,0,0.1,0,0.2,0s0.2,0,0.2,0l0.2,0.9c-0.1,0-0.2,0.1-0.4,0.1s-0.3,0-0.4,0
		c-0.5,0-0.9-0.1-1.2-0.4s-0.4-0.6-0.4-1.1V263.7z M182,265v0.9h-3.1V265H182z"/>
        <path style="clip-path:url(#SVGID_00000147939600298344864840000016952658398088582308_);fill:#FFFFFF;" d="M185.5,270.9
		c-0.6,0-1.1-0.1-1.5-0.4s-0.7-0.6-0.9-1s-0.3-1-0.3-1.6c0-0.6,0.1-1.1,0.3-1.6s0.5-0.8,0.9-1s0.9-0.4,1.4-0.4
		c0.3,0,0.6,0.1,0.9,0.2s0.6,0.3,0.8,0.5s0.4,0.5,0.6,0.9s0.2,0.8,0.2,1.3v0.4h-4.6v-0.8h4l-0.5,0.3c0-0.4-0.1-0.7-0.2-0.9
		s-0.3-0.5-0.5-0.6s-0.5-0.2-0.8-0.2c-0.3,0-0.6,0.1-0.8,0.2s-0.4,0.4-0.5,0.6s-0.2,0.5-0.2,0.8v0.6c0,0.4,0.1,0.7,0.2,1
		s0.3,0.5,0.6,0.6s0.5,0.2,0.8,0.2c0.2,0,0.4,0,0.6-0.1s0.3-0.2,0.4-0.3s0.2-0.3,0.3-0.4l1.1,0.3c-0.1,0.3-0.2,0.6-0.5,0.8
		s-0.5,0.4-0.8,0.5S185.9,270.9,185.5,270.9z"/>
        <path style="clip-path:url(#SVGID_00000147939600298344864840000016952658398088582308_);fill:#FFFFFF;" d="M189.2,270.8V265h1.1
		v0.9h0.1c0.1-0.3,0.3-0.6,0.6-0.7s0.6-0.3,0.9-0.3c0.1,0,0.2,0,0.2,0s0.2,0,0.2,0v1.1c0,0-0.1,0-0.2,0s-0.2,0-0.4,0
		c-0.3,0-0.5,0.1-0.7,0.2s-0.4,0.3-0.5,0.5s-0.2,0.4-0.2,0.7v3.5H189.2z"/>
        <path style="clip-path:url(#SVGID_00000147939600298344864840000016952658398088582308_);fill:#FFFFFF;" d="M197.3,270.8l-1.7-5.7
		h1.2l0.6,2.4c0.1,0.4,0.2,0.8,0.3,1.2s0.2,0.9,0.3,1.5h-0.2c0.1-0.5,0.2-1,0.3-1.4s0.2-0.8,0.3-1.2l0.6-2.4h1.1l0.6,2.4
		c0.1,0.4,0.2,0.8,0.3,1.2s0.2,0.9,0.3,1.5h-0.2c0.1-0.5,0.2-1,0.3-1.5s0.2-0.8,0.3-1.2l0.6-2.4h1.2l-1.7,5.7h-1.1l-0.7-2.5
		c-0.1-0.2-0.1-0.5-0.2-0.8s-0.1-0.5-0.2-0.8s-0.1-0.6-0.2-0.8h0.2c-0.1,0.3-0.1,0.6-0.2,0.8s-0.1,0.6-0.2,0.8s-0.1,0.5-0.2,0.8
		l-0.7,2.5H197.3z"/>
        <path style="clip-path:url(#SVGID_00000147939600298344864840000016952658398088582308_);fill:#FFFFFF;" d="M205.3,264.1
		c-0.2,0-0.4-0.1-0.5-0.2s-0.2-0.3-0.2-0.5c0-0.2,0.1-0.3,0.2-0.5s0.3-0.2,0.5-0.2c0.2,0,0.4,0.1,0.5,0.2s0.2,0.3,0.2,0.5
		c0,0.2-0.1,0.3-0.2,0.5S205.5,264.1,205.3,264.1z M204.7,270.8V265h1.1l0,5.7H204.7z"/>
        <path style="clip-path:url(#SVGID_00000147939600298344864840000016952658398088582308_);fill:#FFFFFF;" d="M207.6,263.7h1.1v5.5
		c0,0.2,0,0.4,0.1,0.5s0.3,0.2,0.5,0.2c0.1,0,0.1,0,0.2,0s0.2,0,0.2,0l0.2,0.9c-0.1,0-0.2,0.1-0.4,0.1s-0.3,0-0.4,0
		c-0.5,0-0.9-0.1-1.2-0.4s-0.4-0.6-0.4-1.1V263.7z M209.8,265v0.9h-3.1V265H209.8z"/>
        <path style="clip-path:url(#SVGID_00000147939600298344864840000016952658398088582308_);fill:#FFFFFF;" d="M212.1,267.4v3.4H211
		v-7.6h1.1v3.3h-0.1c0.2-0.5,0.4-0.9,0.7-1.1s0.7-0.4,1.2-0.4c0.4,0,0.7,0.1,1,0.2s0.5,0.4,0.7,0.7s0.2,0.7,0.2,1.2v3.6h-1.1v-3.5
		c0-0.4-0.1-0.7-0.3-1s-0.5-0.3-0.9-0.3c-0.3,0-0.5,0.1-0.7,0.2s-0.4,0.3-0.5,0.5S212.1,267.1,212.1,267.4z"/>
        <path style="clip-path:url(#SVGID_00000147939600298344864840000016952658398088582308_);fill:#FFFFFF;" d="M221.3,263.1v7.6h-1.2
		v-7.6H221.3z M222.7,270.8h-1.9v-1h1.8c0.6,0,1.1-0.1,1.4-0.3s0.7-0.5,0.9-1s0.3-0.9,0.3-1.5c0-0.6-0.1-1.1-0.3-1.5
		s-0.5-0.7-0.8-0.9s-0.8-0.3-1.4-0.3h-1.9v-1h2c0.8,0,1.4,0.2,1.9,0.5s0.9,0.7,1.2,1.3s0.4,1.3,0.4,2c0,0.8-0.1,1.5-0.4,2.1
		s-0.7,1-1.3,1.3S223.4,270.8,222.7,270.8z"/>
        <path style="clip-path:url(#SVGID_00000147939600298344864840000016952658398088582308_);fill:#FFFFFF;" d="M228.2,264.1
		c-0.2,0-0.4-0.1-0.5-0.2s-0.2-0.3-0.2-0.5c0-0.2,0.1-0.3,0.2-0.5s0.3-0.2,0.5-0.2c0.2,0,0.4,0.1,0.5,0.2s0.2,0.3,0.2,0.5
		c0,0.2-0.1,0.3-0.2,0.5S228.4,264.1,228.2,264.1z M227.7,270.8V265h1.1l0,5.7H227.7z"/>
        <path style="clip-path:url(#SVGID_00000147939600298344864840000016952658398088582308_);fill:#FFFFFF;" d="M232.4,270.9
		c-0.4,0-0.8-0.1-1.1-0.2s-0.6-0.3-0.8-0.5s-0.3-0.5-0.4-0.9l1.1-0.2c0.1,0.3,0.2,0.5,0.4,0.7s0.5,0.2,0.8,0.2
		c0.4,0,0.7-0.1,0.9-0.2s0.3-0.3,0.3-0.5c0-0.2-0.1-0.3-0.2-0.5s-0.3-0.2-0.6-0.3l-1-0.2c-0.5-0.1-0.9-0.3-1.2-0.6s-0.4-0.6-0.4-1
		c0-0.3,0.1-0.6,0.3-0.9s0.5-0.5,0.8-0.6s0.7-0.2,1.1-0.2c0.4,0,0.8,0.1,1.1,0.2s0.5,0.3,0.7,0.5s0.3,0.5,0.4,0.7l-1,0.2
		c-0.1-0.2-0.2-0.4-0.4-0.5s-0.4-0.2-0.8-0.2c-0.3,0-0.6,0.1-0.8,0.2s-0.3,0.3-0.3,0.5c0,0.2,0.1,0.3,0.2,0.5s0.4,0.2,0.7,0.3
		l0.9,0.2c0.5,0.1,0.9,0.3,1.2,0.6s0.4,0.6,0.4,1c0,0.3-0.1,0.7-0.3,0.9s-0.5,0.5-0.8,0.6S232.8,270.9,232.4,270.9z"/>
        <path style="clip-path:url(#SVGID_00000147939600298344864840000016952658398088582308_);fill:#FFFFFF;" d="M238.4,270.9
		c-0.5,0-1-0.1-1.4-0.4s-0.7-0.6-0.9-1s-0.3-1-0.3-1.5c0-0.6,0.1-1.1,0.3-1.6s0.5-0.8,0.9-1s0.9-0.4,1.4-0.4c0.3,0,0.6,0,0.8,0.1
		s0.5,0.2,0.7,0.3s0.4,0.3,0.5,0.5s0.3,0.4,0.3,0.7l-1.1,0.3c0-0.1-0.1-0.3-0.2-0.4s-0.2-0.2-0.3-0.3s-0.2-0.2-0.4-0.2
		s-0.3-0.1-0.5-0.1c-0.3,0-0.6,0.1-0.9,0.3s-0.4,0.4-0.5,0.7s-0.2,0.6-0.2,1c0,0.4,0.1,0.7,0.2,1s0.3,0.5,0.5,0.7s0.5,0.3,0.9,0.3
		c0.2,0,0.3,0,0.5-0.1s0.3-0.1,0.4-0.2s0.2-0.2,0.3-0.3s0.1-0.3,0.2-0.4l1.1,0.3c-0.1,0.3-0.2,0.5-0.3,0.7s-0.3,0.4-0.5,0.5
		s-0.4,0.3-0.7,0.3S238.7,270.9,238.4,270.9z"/>
        <path style="clip-path:url(#SVGID_00000147939600298344864840000016952658398088582308_);fill:#FFFFFF;" d="M244.4,269.9
		c0.3,0,0.6-0.1,0.9-0.3s0.4-0.4,0.5-0.7s0.2-0.6,0.2-1c0-0.4-0.1-0.7-0.2-1s-0.3-0.6-0.5-0.7s-0.5-0.3-0.9-0.3
		c-0.3,0-0.6,0.1-0.9,0.3s-0.4,0.4-0.5,0.7s-0.2,0.6-0.2,1c0,0.4,0.1,0.7,0.2,1s0.3,0.5,0.5,0.7S244.1,269.9,244.4,269.9z
		 M244.4,270.9c-0.5,0-1-0.1-1.4-0.4s-0.7-0.6-0.9-1s-0.3-1-0.3-1.5c0-0.6,0.1-1.1,0.3-1.6s0.5-0.8,0.9-1s0.9-0.4,1.4-0.4
		c0.5,0,1,0.1,1.4,0.4s0.7,0.6,0.9,1s0.3,1,0.3,1.6c0,0.6-0.1,1.1-0.3,1.5s-0.5,0.8-0.9,1S245,270.9,244.4,270.9z"/>
        <path style="clip-path:url(#SVGID_00000147939600298344864840000016952658398088582308_);fill:#FFFFFF;" d="M248.4,270.8V265h1.1
		v0.9h0.1c0.1-0.3,0.3-0.6,0.6-0.7s0.6-0.3,0.9-0.3c0.1,0,0.2,0,0.2,0s0.2,0,0.2,0v1.1c0,0-0.1,0-0.2,0s-0.2,0-0.4,0
		c-0.3,0-0.5,0.1-0.7,0.2s-0.4,0.3-0.5,0.5s-0.2,0.4-0.2,0.7v3.5H248.4z"/>
        <path style="clip-path:url(#SVGID_00000147939600298344864840000016952658398088582308_);fill:#FFFFFF;" d="M254.6,269.9
		c0.3,0,0.6-0.1,0.8-0.3s0.4-0.4,0.5-0.7s0.2-0.7,0.2-1c0-0.4-0.1-0.7-0.2-1s-0.3-0.5-0.5-0.7s-0.5-0.2-0.8-0.2
		c-0.3,0-0.6,0.1-0.8,0.3s-0.4,0.4-0.5,0.7s-0.2,0.6-0.2,1c0,0.4,0.1,0.7,0.2,1s0.3,0.5,0.5,0.7S254.3,269.9,254.6,269.9z
		 M254.4,270.9c-0.5,0-0.9-0.1-1.2-0.4s-0.6-0.6-0.9-1s-0.3-1-0.3-1.6c0-0.6,0.1-1.2,0.3-1.6s0.5-0.8,0.9-1s0.8-0.3,1.2-0.3
		c0.4,0,0.6,0.1,0.9,0.2s0.4,0.3,0.5,0.4s0.2,0.3,0.3,0.4h0.1v-2.8h1.1v7.6h-1.1v-0.9H256c-0.1,0.1-0.2,0.3-0.3,0.4
		s-0.3,0.3-0.5,0.4S254.7,270.9,254.4,270.9z"/>
</g>
</svg>
