<?xml version="1.0" encoding="utf-8"?>
<svg version="1.1" id="Layer_1" xmlns="http://www.w3.org/2000/svg" xmlns:xlink="http://www.w3.org/1999/xlink" x="0px" y="0px"
	 viewBox="0 0 612.3 163.2" style="enable-background:new 0 0 612.3 163.2;" xml:space="preserve">
<style type="text/css">
	.st0{fill-rule:evenodd;clip-rule:evenodd;fill:#A91E22;}
	.st1{fill-rule:evenodd;clip-rule:evenodd;fill:#FFFFFF;}
	.st2{fill:#FFFFFF;}
</style>
<g>
	<rect x="14.8" y="17.7" class="st0" width="81" height="130.9"/>
	<path class="st1" d="M110.4,55.4C110.4,24.8,85.7,0,55.2,0S0,24.8,0,55.4L11.7,144c0.3,2.5,2.2,4.6,4.6,5.3l35.8,9.7
		c2.1,0.6,4.2,0.6,6.3,0l35.8-9.7c2.5-0.7,4.3-2.8,4.6-5.3L110.4,55.4L110.4,55.4z M24.2,126.5v-23.9h5.1l5.9,16.6l5.9-16.6h5.1
		v23.9h-5.3v-10.2L37,126.5h-3.7l-3.8-10.2v10.2H24.2L24.2,126.5z M65.5,106.8v-4.3l0,0H52.4v23.9h13.2v-4.3h-7.5v-6.2h6.3v-4.3
		h-6.3v-4.8C58.1,106.8,65.5,106.8,65.5,106.8z M70.5,126.5v-23.9h7.9c2.4,0,4.3,0.5,5.7,1.6s2.1,2.5,2.1,4.3v12.1
		c0,1.8-0.7,3.2-2.1,4.3c-1.4,1.1-3.3,1.6-5.7,1.6H70.5L70.5,126.5z M76.3,122.2h2.1c0.7,0,1.2-0.1,1.6-0.4s0.6-0.7,0.6-1.2v-12.1
		c0-0.5-0.2-0.9-0.6-1.2s-0.9-0.4-1.6-0.4h-2.1V122.2L76.3,122.2z M24.2,127.9v13.4h3v-4.6h1.1c0.4,0,0.6,0.1,0.8,0.2
		s0.3,0.4,0.3,0.6v3.7h3v-3.7c0-0.5-0.2-1-0.5-1.3c-0.2-0.2-0.4-0.3-0.6-0.5c0.3-0.2,0.5-0.5,0.7-0.7c0.3-0.5,0.5-1,0.5-1.7v-2.1
		c0-1-0.4-1.8-1.1-2.4c-0.7-0.6-1.7-0.9-3-0.9H24.2L24.2,127.9z M28.2,134.2h-1.1l0,0v-3.9h1.1c0.4,0,0.6,0.1,0.8,0.2
		s0.3,0.4,0.3,0.6v2.1c0,0.3-0.1,0.5-0.3,0.6S28.6,134.2,28.2,134.2z M43.3,127.9v10.4c0,1-0.4,1.8-1.1,2.4c-0.7,0.6-1.7,0.9-3,0.9
		c-1.2,0-2.2-0.3-3-0.9c-0.7-0.6-1.1-1.4-1.1-2.4v-10.4h3v10.4c0,0.3,0.1,0.5,0.3,0.6s0.5,0.2,0.8,0.2s0.6-0.1,0.8-0.2
		s0.3-0.4,0.3-0.6v-10.4H43.3z M46.4,127.9v13.4h2.8v-6.8l3,6.8h2.2v-13.4h-2.7v6.8l-3-6.8C48.7,127.9,46.4,127.9,46.4,127.9z
		 M57.5,141.2v-13.4h2.2l3,6.8v-6.8h2.8v13.4h-2.2l-3-6.8v6.8L57.5,141.2L57.5,141.2z M75.4,130.3v-2.4h-6.8v13.4h6.8v-2.4h-3.8
		v-3.5h3.2V133h-3.2v-2.7H75.4L75.4,130.3z M78,141.2v-13.4h4.1c1.2,0,2.2,0.3,3,0.9c0.7,0.6,1.1,1.4,1.1,2.4v2.1
		c0,0.6-0.2,1.2-0.5,1.7c-0.2,0.3-0.4,0.5-0.7,0.7c0.2,0.1,0.4,0.3,0.6,0.5c0.3,0.4,0.5,0.8,0.5,1.3v3.7h-3v-3.7
		c0-0.3-0.1-0.5-0.3-0.6c-0.2-0.2-0.5-0.2-0.8-0.2h-1v4.6H78L78,141.2z M81,134.2h1.1c0.3,0,0.6-0.1,0.8-0.2
		c0.2-0.2,0.3-0.4,0.3-0.6v-2.1c0-0.3-0.1-0.5-0.3-0.6c-0.2-0.2-0.5-0.2-0.8-0.2H81V134.2L81,134.2z M71.6,56.1l19.2,11.1
		c0.9,0.5,1.2,1.7,0.7,2.6l-6.3,10.9c-0.5,0.9-1.7,1.2-2.6,0.7l-19.2-11v22.3c0,1.1-0.9,1.9-1.9,1.9H48.9c-1,0-1.9-0.9-1.9-1.9V70.4
		L27.8,81.5c-0.9,0.5-2.1,0.2-2.6-0.7l-6.3-10.9c-0.5-0.9-0.2-2.1,0.7-2.6l19.2-11.1L19.6,45c-0.9-0.5-1.2-1.7-0.7-2.6l6.3-10.9
		c0.5-0.9,1.7-1.2,2.6-0.7L47,41.9V19.6c0-1.1,0.9-1.9,1.9-1.9h12.5c1,0,1.9,0.9,1.9,1.9v22.3l19.2-11.1c0.9-0.5,2.1-0.2,2.6,0.7
		l6.3,10.9c0.5,0.9,0.2,2.1-0.7,2.6L71.6,56.1z"/>
</g>
<g>
	<polygon class="st2" points="149.3,120.8 149.3,41.8 161.9,41.8 178,103 174.7,103 190.8,41.8 203.4,41.8 203.4,120.8 190.3,120.8
		190.3,80.7 192,81 180.8,120.8 171.8,120.8 160.7,81 162.4,80.7 162.4,120.8 	"/>
	<polygon class="st2" points="251.1,41.8 251.1,56.1 232.8,56.1 232.8,71.8 248.3,71.8 248.3,86 232.8,86 232.8,106.6 251.1,106.6
		251.1,120.8 218.7,120.8 218.7,41.8 	"/>
	<path class="st2" d="M277.6,106.6h5.2c1.7,0,3-0.5,3.9-1.4c0.9-1,1.4-2.2,1.4-3.8v-40c0-1.6-0.5-2.9-1.4-3.8
		c-0.9-1-2.2-1.4-3.9-1.4h-5.2V106.6z M263.4,120.8v-79h19.4c5.9,0,10.7,1.8,14.1,5.3c3.5,3.6,5.2,8.3,5.2,14.1v40
		c0,5.8-1.7,10.5-5.2,14.1s-8.2,5.4-14.1,5.4L263.4,120.8L263.4,120.8z"/>
	<path class="st2" d="M330,79.2h5.2c1.7,0,3-0.5,3.9-1.4c0.9-1,1.4-2.2,1.4-3.8V61.3c0-1.6-0.5-2.9-1.4-3.8c-0.9-1-2.2-1.4-3.9-1.4
		H330V79.2z M315.9,120.8v-79h19.4c5.9,0,10.7,1.8,14.1,5.3c3.5,3.6,5.2,8.3,5.2,14.1v12.6c0,3.7-0.7,7-2.2,9.8s-3.6,5.1-6.3,6.9
		l-1-4.6c3,1.1,5.4,2.7,7,4.8c1.7,2.1,2.5,4.7,2.5,7.8v22.1h-14.1V98.5c0-1.6-0.5-2.9-1.4-3.8c-0.9-1-2.2-1.4-3.9-1.4H330v27.4
		L315.9,120.8L315.9,120.8z"/>
	<path class="st2" d="M407,41.8v61.1c0,5.8-1.7,10.5-5.2,14.1s-8.2,5.4-14.1,5.4s-10.6-1.8-14.1-5.4s-5.3-8.3-5.3-14.1V41.8h14.1
		v61.1c0,1.6,0.5,2.9,1.4,3.8c0.9,1,2.2,1.4,3.9,1.4s3-0.5,3.9-1.4c0.9-1,1.4-2.2,1.4-3.8V41.8H407z"/>
	<polygon class="st2" points="421.7,120.8 421.7,41.8 432.2,41.8 450.1,93 446.4,93.1 446.4,41.8 459.4,41.8 459.4,120.8 449,120.8
		431,69.6 434.8,69.5 434.8,120.8 	"/>
	<polygon class="st2" points="474.7,120.8 474.7,41.8 485.2,41.8 503.1,93 499.4,93.1 499.4,41.8 512.5,41.8 512.5,120.8 502,120.8
		484.1,69.6 487.8,69.5 487.8,120.8 	"/>
	<polygon class="st2" points="560.2,41.8 560.2,56.1 541.9,56.1 541.9,71.8 557.4,71.8 557.4,86 541.9,86 541.9,106.6 560.2,106.6
		560.2,120.8 527.8,120.8 527.8,41.8 	"/>
	<path class="st2" d="M586.6,79.2h5.2c1.7,0,3-0.5,3.9-1.4c0.9-1,1.4-2.2,1.4-3.8V61.3c0-1.6-0.5-2.9-1.4-3.8
		c-0.9-1-2.2-1.4-3.9-1.4h-5.2V79.2z M572.5,120.8v-79h19.4c5.9,0,10.7,1.8,14.1,5.3c3.5,3.6,5.2,8.3,5.2,14.1v12.6
		c0,3.7-0.7,7-2.2,9.8s-3.6,5.1-6.3,6.9l-1-4.6c3,1.1,5.4,2.7,7,4.8c1.7,2.1,2.5,4.7,2.5,7.8v22.1h-14.1V98.5c0-1.6-0.5-2.9-1.4-3.8
		c-0.9-1-2.2-1.4-3.9-1.4h-5.2v27.4L572.5,120.8L572.5,120.8z"/>
</g>
</svg>
