<?xml version="1.0" encoding="utf-8"?>
<svg version="1.1" id="Layer_1" xmlns="http://www.w3.org/2000/svg" x="0px" y="0px"
     viewBox="0 0 370.1 617.5" style="enable-background:new 0 0 370.1 617.5;" xml:space="preserve">
<style type="text/css">
	.st0{fill-rule:evenodd;clip-rule:evenodd;fill:#A91E22;}
</style>
    <g>
	<polygon class="st0" points="206.4,549.8 195.5,549.8 195.5,616 209.2,616 209.2,582.1 223.9,616 234.8,616 234.8,549.8
		221.1,549.8 221.1,583.7 	"/>
        <path class="st0" d="M84.5,549.7v51.4c0,4.9,1.9,8.9,5.5,11.9c3.6,3,8.6,4.5,14.7,4.5c6.1,0,11.1-1.5,14.7-4.5
		c3.7-3.1,5.5-7,5.5-11.9v-51.4H110v51.4c0,1.3-0.5,2.4-1.4,3.2c-0.9,0.8-2.3,1.2-4,1.2s-3.1-0.4-4-1.2c-0.9-0.8-1.4-1.9-1.4-3.2
		v-51.4H84.5z"/>
        <polygon class="st0" points="166,583.6 151.3,549.7 140.3,549.7 140.3,616 154,616 154,582 168.7,616 179.6,616 179.6,549.7
		166,549.7 	"/>
        <polygon class="st0" points="235.5,445.2 235.5,423.8 170,423.8 170,542.7 235.5,542.7 235.5,521.2 198.5,521.2 198.5,490.3
		229.8,490.3 229.8,468.9 198.5,468.9 198.5,445.2 	"/>
        <path class="st0" d="M30,549.7V616h14.7v-23h5.5c1.8,0,3.1,0.4,4,1.2c0.9,0.8,1.4,1.9,1.4,3.2V616h14.7v-18.6
		c0-2.6-0.9-4.8-2.6-6.5c-0.8-0.9-1.8-1.6-3-2.3c1.3-1.1,2.4-2.3,3.3-3.7c1.5-2.4,2.3-5.1,2.3-8.3V566c0-4.9-1.8-8.9-5.5-11.9
		c-3.6-3-8.5-4.5-14.7-4.5L30,549.7L30,549.7z M44.7,561.5h5.5c1.8,0,3.1,0.4,4,1.2c0.9,0.8,1.4,1.9,1.4,3.2v10.6
		c0,1.3-0.5,2.4-1.4,3.2c-0.9,0.8-2.2,1.3-4,1.3h-5.5V561.5z"/>
        <path class="st0" d="M143.5,12.2v110.5L48.2,67.5c-4.5-2.6-10.4-1.1-13,3.5L4.1,125.1c-2.6,4.6-1,10.5,3.5,13.1l95.3,55.3
		L7.6,248.8c-4.6,2.7-6.1,8.5-3.5,13.1L35.3,316c2.6,4.5,8.5,6.1,13,3.5l95.3-55.2v110.5c0,5.3,4.3,9.6,9.5,9.6h62.3
		c5.2,0,9.5-4.3,9.5-9.6V264.2l95.4,55.1c4.5,2.6,10.4,1.1,13-3.5l31.1-54.1c2.6-4.6,1-10.5-3.5-13.1l-95.3-55.2l95.1-55.2
		c4.5-2.7,6.1-8.5,3.5-13.1L333.1,71c-2.6-4.6-8.5-6.1-13-3.5l-95.3,55.2V12.2c0-4.9-3.6-8.9-8.2-9.5h-64.9
		C147.1,3.4,143.5,7.4,143.5,12.2z"/>
        <polygon class="st0" points="139.1,423.8 113.6,423.8 84.5,506.3 55.4,423.8 30,423.8 30,542.7 56.5,542.6 56.5,491.8 75.5,542.6
		93.7,542.6 112.7,491.8 112.7,542.6 139.1,542.6 	"/>
        <path class="st0" d="M385.4,652.7L385.4,652.7L385.4,652.7C385.4,652.6,385.4,652.6,385.4,652.7z"/>
        <polygon class="st0" points="250.8,616 284.6,616 284.6,604.1 265.5,604.1 265.5,586.9 281.6,586.9 281.6,575 265.5,575
		265.5,561.7 284.6,561.7 284.6,561.7 284.6,549.8 250.8,549.8 	"/>
        <path class="st0" d="M337.7,616v-18.6c0-2.5-0.9-4.7-2.6-6.5c-0.9-0.9-1.8-1.6-3-2.3c1.3-1.1,2.4-2.3,3.3-3.7
		c1.5-2.4,2.3-5.2,2.3-8.3v-10.6c0-4.9-1.9-8.9-5.5-11.9c-3.6-3-8.5-4.5-14.7-4.5h-20.2V616v0.1h14.8v-23h5.5c1.7,0,3,0.4,4,1.2
		c0.9,0.8,1.4,1.9,1.4,3.2V616H337.7z M323,576.6c0,1.3-0.4,2.4-1.4,3.2c-0.9,0.8-2.3,1.2-4,1.2h-5.5v-19.4h5.5c1.7,0,3,0.4,4,1.2
		c0.9,0.8,1.4,1.9,1.4,3.2V576.6z"/>
        <path class="st0" d="M385.4,3.2V2.8H385C385.2,2.9,385.3,3,385.4,3.2z"/>
        <path class="st0" d="M338.4,453.1c0-8.9-3.6-16-10.6-21.3s-16.5-8-28.5-8h-39.1v118.8h39.1c12,0,21.5-2.7,28.5-8.1
		c7.1-5.4,10.6-12.4,10.6-21.2V453.1z M309.9,513.3c0,2.4-1,4.3-2.8,5.8s-4.4,2.2-7.8,2.2h-10.6v-76.2h10.6c3.4,0,5.9,0.7,7.8,2.2
		c1.9,1.5,2.8,3.4,2.8,5.8V513.3z"/>
</g>
</svg>
