<?xml version="1.0" encoding="utf-8"?>
<svg version="1.1" id="Layer_1" xmlns="http://www.w3.org/2000/svg" xmlns:xlink="http://www.w3.org/1999/xlink" x="0px" y="0px"
	 viewBox="0 0 462.6 79.9" style="enable-background:new 0 0 462.6 79.9;" xml:space="preserve">
<style type="text/css">
	.st0{fill:#A91E22;}
</style>
<g>
	<g>
		<g>
			<polygon class="st0" points="0,79.5 0,0.5 12.6,0.5 28.7,61.7 25.4,61.7 41.5,0.5 54.1,0.5 54.1,79.5 41,79.5 41,39.4 42.7,39.7
				31.5,79.5 22.5,79.5 11.4,39.7 13.1,39.4 13.1,79.5 			"/>
		</g>
	</g>
	<g>
		<g>
			<polygon class="st0" points="101.8,0.5 101.8,14.8 83.5,14.8 83.5,30.5 99,30.5 99,44.7 83.5,44.7 83.5,65.3 101.8,65.3
				101.8,79.5 69.4,79.5 69.4,0.5 			"/>
		</g>
	</g>
	<g>
		<g>
			<path class="st0" d="M128.3,65.3h5.2c1.7,0,3-0.5,3.9-1.4c0.9-1,1.4-2.2,1.4-3.8v-40c0-1.6-0.5-2.9-1.4-3.8
				c-0.9-1-2.2-1.4-3.9-1.4h-5.2V65.3z M114.1,79.5v-79h19.4c5.9,0,10.7,1.8,14.1,5.3c3.5,3.6,5.2,8.3,5.2,14.1v40
				c0,5.8-1.7,10.5-5.2,14.1s-8.2,5.4-14.1,5.4L114.1,79.5L114.1,79.5z"/>
		</g>
	</g>
	<g>
		<g>
			<path class="st0" d="M180.7,37.9h5.2c1.7,0,3-0.5,3.9-1.4c0.9-1,1.4-2.2,1.4-3.8V20c0-1.6-0.5-2.9-1.4-3.8
				c-0.9-1-2.2-1.4-3.9-1.4h-5.2V37.9z M166.6,79.5v-79H186c5.9,0,10.7,1.8,14.1,5.3c3.5,3.6,5.2,8.3,5.2,14.1v12.6
				c0,3.7-0.7,7-2.2,9.8s-3.6,5.1-6.3,6.9l-1-4.6c3,1.1,5.4,2.7,7,4.8c1.7,2.1,2.5,4.7,2.5,7.8v22.1h-14.1V57.2
				c0-1.6-0.5-2.9-1.4-3.8c-0.9-1-2.2-1.4-3.9-1.4h-5.2v27.4L166.6,79.5L166.6,79.5z"/>
		</g>
	</g>
	<g>
		<g>
			<path class="st0" d="M257.7,0.5v60.2c0,5.7-1.7,10.3-5.2,13.9s-8.2,5.3-14.1,5.3s-10.6-1.8-14.1-5.3s-5.3-8.2-5.3-13.9V0.5h14.1
				v60.2c0,1.6,0.5,2.9,1.4,3.7c0.9,1,2.2,1.4,3.9,1.4s3-0.5,3.9-1.4c0.9-1,1.4-2.2,1.4-3.7V0.5H257.7z"/>
		</g>
	</g>
	<g>
		<g>
			<polygon class="st0" points="272.4,79.5 272.4,0.5 282.9,0.5 300.8,51.7 297.1,51.8 297.1,0.5 310.1,0.5 310.1,79.5 299.7,79.5
				281.7,28.3 285.5,28.2 285.5,79.5 			"/>
		</g>
	</g>
	<g>
		<g>
			<polygon class="st0" points="325.4,79.5 325.4,0.5 335.9,0.5 353.8,51.7 350.1,51.8 350.1,0.5 363.2,0.5 363.2,79.5 352.7,79.5
				334.8,28.3 338.5,28.2 338.5,79.5 			"/>
		</g>
	</g>
	<g>
		<g>
			<polygon class="st0" points="410.9,0.5 410.9,14.8 392.6,14.8 392.6,30.5 408.1,30.5 408.1,44.7 392.6,44.7 392.6,65.3
				410.9,65.3 410.9,79.5 378.5,79.5 378.5,0.5 			"/>
		</g>
	</g>
	<g>
		<g>
			<path class="st0" d="M437.3,37.9h5.2c1.7,0,3-0.5,3.9-1.4c0.9-1,1.4-2.2,1.4-3.8V20c0-1.6-0.5-2.9-1.4-3.8
				c-0.9-1-2.2-1.4-3.9-1.4h-5.2V37.9z M423.2,79.5v-79h19.4c5.9,0,10.7,1.8,14.1,5.3c3.5,3.6,5.2,8.3,5.2,14.1v12.6
				c0,3.7-0.7,7-2.2,9.8s-3.6,5.1-6.3,6.9l-1-4.6c3,1.1,5.4,2.7,7,4.8c1.7,2.1,2.5,4.7,2.5,7.8v22.1h-14.1V57.2
				c0-1.6-0.5-2.9-1.4-3.8c-0.9-1-2.2-1.4-3.9-1.4h-5.2v27.4L423.2,79.5L423.2,79.5z"/>
		</g>
	</g>
</g>
</svg>
