<?xml version="1.0" encoding="utf-8"?>
<svg version="1.1" id="Layer_1" xmlns="http://www.w3.org/2000/svg" xmlns:xlink="http://www.w3.org/1999/xlink" x="0px" y="0px"
	 viewBox="0 0 24 24" style="enable-background:new 0 0 24 24;" xml:space="preserve">
<style type="text/css">
	.st0{fill:#FBC646;stroke:#000000;stroke-width:2;}
</style>
<g>
	<path class="st0" d="M17.2,3L11,2L5,4L4,8l-2,4l3,8l7,2l4-1h4l2-5l-1-4V7L17.2,3z"/>
	<path d="M17.2,3L16,4.2L14,5l-1,3L8,9.7L7.3,13L9,17.7L8.5,21l3.5,1l4-1h4l2-5l-1-4V7L17.2,3z M12,10l1,2l-1.2,0.5L10,12L12,10z"/>
</g>
</svg>
