<?xml version="1.0" encoding="utf-8"?>
<svg version="1.1" id="Layer_1" xmlns="http://www.w3.org/2000/svg" xmlns:xlink="http://www.w3.org/1999/xlink" x="0px" y="0px"
	 viewBox="0 0 115 24" style="enable-background:new 0 0 115 24;" xml:space="preserve">
<style type="text/css">
	.st0{fill:#FBC646;stroke:#000000;stroke-width:2;}
	.st1{fill:#FBC646;}
</style>
<g>
	<path class="st0" d="M16.9,3l-6.2-1l-6,2l-1,4l-2,4l3,8l7,2l4-1h4l2-5l-1-4V7L16.9,3z"/>
	<path d="M16.9,3l-1.2,1.2l-2,0.8l-1,3l-5,1.7L7,13l1.7,4.7L8.2,21l3.5,1l4-1h4l2-5l-1-4V7L16.9,3z M11.7,10l1,2l-1.2,0.5L9.7,12
		L11.7,10z"/>
</g>
<g>
	<g>
		<path class="st1" d="M30.3,12.3v3.2h-1.6V7h2.9C32,7,32.4,7,32.8,7.1s0.7,0.3,1,0.5c0.3,0.2,0.5,0.5,0.6,0.8s0.2,0.7,0.2,1.1
			c0,0.3,0,0.6-0.1,0.8s-0.2,0.5-0.3,0.7c-0.1,0.2-0.3,0.4-0.5,0.5s-0.4,0.3-0.6,0.4l1.8,3.5v0.1h-1.8l-1.6-3.2H30.3z M31.5,11
			c0.3,0,0.5,0,0.7-0.1s0.4-0.2,0.5-0.3c0.1-0.1,0.2-0.2,0.2-0.4S33,9.8,33,9.7c0-0.2,0-0.4-0.1-0.6s-0.2-0.3-0.3-0.4
			c-0.1-0.1-0.3-0.2-0.4-0.2s-0.4-0.1-0.6-0.1h-1.2V11H31.5z"/>
		<path class="st1" d="M37.6,15.4c-0.4-0.2-0.7-0.4-1-0.7c-0.3-0.3-0.5-0.6-0.7-1s-0.2-0.8-0.2-1.2v-0.2c0-0.5,0.1-0.9,0.2-1.3
			s0.4-0.7,0.6-1s0.6-0.5,1-0.7S38.3,9,38.8,9c0.5,0,0.9,0.1,1.2,0.2s0.7,0.4,0.9,0.6c0.2,0.3,0.4,0.6,0.6,1s0.2,0.8,0.2,1.3v0.7
			h-4.3v0c0.1,0.3,0.1,0.5,0.2,0.6s0.2,0.3,0.3,0.4c0.1,0.1,0.3,0.2,0.5,0.3s0.4,0.1,0.6,0.1c0.3,0,0.6-0.1,0.9-0.2s0.5-0.3,0.7-0.5
			l0.8,0.9c-0.2,0.3-0.5,0.6-1,0.8s-1,0.4-1.6,0.4C38.5,15.6,38,15.5,37.6,15.4z M38.3,10.5c-0.2,0.1-0.3,0.2-0.4,0.3
			c-0.1,0.1-0.2,0.3-0.3,0.4s-0.1,0.4-0.2,0.6h2.7v-0.1c0-0.2,0-0.3-0.1-0.5s-0.1-0.3-0.3-0.4c-0.1-0.1-0.2-0.2-0.4-0.3
			s-0.3-0.1-0.5-0.1C38.6,10.4,38.4,10.4,38.3,10.5z"/>
		<path class="st1" d="M43.1,11c0.1-0.4,0.3-0.7,0.5-1s0.5-0.5,0.8-0.7S45.1,9,45.5,9c0.2,0,0.4,0,0.6,0.1s0.3,0.1,0.5,0.2
			c0.1,0.1,0.2,0.1,0.3,0.2s0.2,0.2,0.3,0.3l0.1-0.6h1.5v6.1c0,0.4-0.1,0.8-0.2,1.1s-0.4,0.6-0.6,0.8c-0.3,0.2-0.6,0.4-1,0.5
			S46.1,18,45.7,18c-0.2,0-0.4,0-0.6-0.1s-0.4-0.1-0.7-0.2s-0.4-0.2-0.6-0.3s-0.4-0.3-0.5-0.5l0.7-1c0.1,0.1,0.2,0.2,0.3,0.3
			s0.2,0.2,0.4,0.2c0.1,0.1,0.3,0.1,0.4,0.1s0.3,0,0.4,0c0.2,0,0.5,0,0.6-0.1s0.3-0.2,0.5-0.3c0.1-0.1,0.2-0.3,0.3-0.4
			s0.1-0.4,0.1-0.6V15c-0.1,0.1-0.2,0.2-0.2,0.2s-0.2,0.1-0.3,0.2c-0.1,0.1-0.3,0.1-0.5,0.2s-0.4,0.1-0.6,0.1
			c-0.4,0-0.7-0.1-1.1-0.2s-0.6-0.4-0.8-0.7s-0.4-0.6-0.5-1s-0.2-0.8-0.2-1.3v-0.1C42.9,11.8,43,11.4,43.1,11z M44.6,13.2
			c0.1,0.2,0.1,0.4,0.2,0.6c0.1,0.2,0.2,0.3,0.4,0.4s0.4,0.1,0.6,0.1c0.1,0,0.3,0,0.4,0s0.2-0.1,0.3-0.1c0.1-0.1,0.2-0.1,0.3-0.2
			s0.1-0.2,0.2-0.3V11c-0.1-0.1-0.1-0.2-0.2-0.3s-0.2-0.1-0.3-0.2c-0.1,0-0.2-0.1-0.3-0.1s-0.2,0-0.3,0c-0.2,0-0.4,0-0.6,0.1
			s-0.3,0.2-0.4,0.4c-0.1,0.2-0.2,0.4-0.3,0.6s-0.1,0.5-0.1,0.7v0.1C44.6,12.7,44.6,12.9,44.6,13.2z"/>
		<path class="st1" d="M50.3,11c0.1-0.4,0.3-0.7,0.6-1c0.3-0.3,0.6-0.5,0.9-0.7S52.6,9,53.1,9s0.9,0.1,1.3,0.2S55,9.7,55.3,10
			c0.3,0.3,0.4,0.6,0.6,1s0.2,0.8,0.2,1.3v0.1c0,0.5-0.1,0.9-0.2,1.3s-0.3,0.7-0.6,1s-0.6,0.5-0.9,0.7s-0.8,0.2-1.3,0.2
			c-0.5,0-0.9-0.1-1.3-0.2s-0.7-0.4-0.9-0.7c-0.3-0.3-0.5-0.6-0.6-1s-0.2-0.8-0.2-1.3v-0.1C50.1,11.8,50.1,11.4,50.3,11z M51.8,13.1
			c0.1,0.2,0.1,0.4,0.2,0.6c0.1,0.2,0.3,0.3,0.4,0.4s0.4,0.2,0.6,0.2c0.2,0,0.4-0.1,0.6-0.2s0.3-0.2,0.4-0.4
			c0.1-0.2,0.2-0.4,0.2-0.6s0.1-0.5,0.1-0.7v-0.1c0-0.3,0-0.5-0.1-0.7s-0.1-0.4-0.2-0.6c-0.1-0.2-0.2-0.3-0.4-0.4s-0.4-0.2-0.6-0.2
			c-0.2,0-0.4,0.1-0.6,0.2s-0.3,0.2-0.4,0.4s-0.2,0.4-0.2,0.6s-0.1,0.5-0.1,0.7v0.1C51.7,12.7,51.7,12.9,51.8,13.1z"/>
		<path class="st1" d="M61.4,6.5v7.7h1.8v1.3h-5.4v-1.3h1.9V7.8h-1.9V6.5H61.4z"/>
		<path class="st1" d="M68.6,9.2v5h1.7v1.3h-5.2v-1.3h1.8v-3.7h-1.8V9.2H68.6z M66.9,7.2c0-0.1,0.1-0.2,0.2-0.3
			c0.1-0.1,0.2-0.1,0.3-0.2s0.2-0.1,0.4-0.1c0.3,0,0.5,0.1,0.7,0.2s0.3,0.4,0.3,0.6S68.6,8,68.4,8.2S68,8.4,67.8,8.4
			c-0.1,0-0.3,0-0.4-0.1s-0.2-0.1-0.3-0.2C67,8.1,66.9,8,66.9,7.9s-0.1-0.2-0.1-0.3S66.8,7.3,66.9,7.2z"/>
		<path class="st1" d="M74.9,9.2h2.4v1.2h-2.4v2.7c0,0.2,0,0.4,0.1,0.6s0.1,0.3,0.2,0.4c0.1,0.1,0.2,0.2,0.4,0.2s0.3,0.1,0.5,0.1
			c0.1,0,0.3,0,0.4,0s0.3,0,0.4,0c0.1,0,0.2,0,0.3-0.1s0.2,0,0.3-0.1l0.2,1.1c-0.1,0.1-0.2,0.1-0.4,0.2s-0.3,0.1-0.5,0.1
			s-0.4,0.1-0.5,0.1s-0.4,0-0.5,0c-0.3,0-0.7,0-0.9-0.1s-0.5-0.2-0.7-0.4c-0.2-0.2-0.4-0.4-0.5-0.7s-0.2-0.7-0.2-1.1v-2.9h-1.4V9.2
			h1.4V7.6h1.6V9.2z"/>
		<path class="st1" d="M81,9.7c0.1-0.1,0.2-0.2,0.3-0.3c0.2-0.1,0.4-0.2,0.6-0.3S82.3,9,82.5,9c0.3,0,0.6,0,0.9,0.1s0.5,0.3,0.7,0.5
			s0.4,0.5,0.5,0.8s0.2,0.7,0.2,1.2v3.8h-1.6v-3.8c0-0.2,0-0.4-0.1-0.6s-0.1-0.3-0.2-0.4s-0.2-0.2-0.4-0.2s-0.3-0.1-0.5-0.1
			c-0.1,0-0.3,0-0.4,0s-0.2,0.1-0.3,0.1c-0.1,0-0.2,0.1-0.3,0.2s-0.1,0.1-0.2,0.2v4.6h-1.6v-9h1.6V10C80.8,9.9,80.9,9.8,81,9.7z"/>
		<path class="st1" d="M99.1,14c-0.2,0.3-0.4,0.6-0.6,0.9s-0.6,0.4-0.9,0.6s-0.8,0.2-1.2,0.2c-0.4,0-0.7,0-1-0.1s-0.6-0.2-0.8-0.4
			c-0.2-0.2-0.4-0.4-0.6-0.6s-0.3-0.5-0.4-0.8c-0.1-0.3-0.2-0.6-0.3-0.9s-0.1-0.7-0.1-1v-1.1c0-0.3,0-0.7,0.1-1s0.1-0.6,0.2-0.9
			C93.6,8.5,93.8,8.2,94,8s0.4-0.5,0.7-0.6c0.2-0.1,0.5-0.3,0.8-0.3s0.6-0.1,0.9-0.1c0.5,0,0.9,0.1,1.3,0.2s0.7,0.3,0.9,0.6
			s0.5,0.5,0.6,0.9s0.2,0.8,0.3,1.2h-1.6c0-0.3-0.1-0.5-0.1-0.7s-0.1-0.4-0.3-0.5c-0.1-0.1-0.3-0.2-0.4-0.3s-0.4-0.1-0.6-0.1
			c-0.1,0-0.2,0-0.4,0s-0.2,0.1-0.3,0.1c-0.2,0.1-0.3,0.2-0.4,0.4S95,9.1,95,9.4c-0.1,0.2-0.1,0.4-0.1,0.6s0,0.5,0,0.7v1.2
			c0,0.3,0,0.6,0.1,0.9s0.1,0.5,0.2,0.7c0.1,0.1,0.1,0.3,0.2,0.4s0.2,0.2,0.3,0.3c0.1,0.1,0.2,0.1,0.4,0.2s0.3,0.1,0.4,0.1
			c0.2,0,0.4,0,0.6-0.1s0.3-0.1,0.4-0.3s0.2-0.3,0.3-0.5s0.1-0.4,0.1-0.7h1.6C99.3,13.3,99.2,13.7,99.1,14z"/>
		<path class="st1" d="M100.7,11c0.1-0.4,0.3-0.7,0.6-1c0.3-0.3,0.6-0.5,0.9-0.7S103,9,103.5,9s0.9,0.1,1.3,0.2s0.7,0.4,0.9,0.7
			c0.3,0.3,0.4,0.6,0.6,1s0.2,0.8,0.2,1.3v0.1c0,0.5-0.1,0.9-0.2,1.3s-0.3,0.7-0.6,1s-0.6,0.5-0.9,0.7s-0.8,0.2-1.3,0.2
			c-0.5,0-0.9-0.1-1.3-0.2s-0.7-0.4-0.9-0.7c-0.3-0.3-0.5-0.6-0.6-1s-0.2-0.8-0.2-1.3v-0.1C100.5,11.8,100.5,11.4,100.7,11z
			 M102.2,13.1c0.1,0.2,0.1,0.4,0.2,0.6c0.1,0.2,0.3,0.3,0.4,0.4s0.4,0.2,0.6,0.2c0.2,0,0.4-0.1,0.6-0.2s0.3-0.2,0.4-0.4
			c0.1-0.2,0.2-0.4,0.2-0.6s0.1-0.5,0.1-0.7v-0.1c0-0.3,0-0.5-0.1-0.7s-0.1-0.4-0.2-0.6c-0.1-0.2-0.2-0.3-0.4-0.4s-0.4-0.2-0.6-0.2
			c-0.2,0-0.4,0.1-0.6,0.2s-0.3,0.2-0.4,0.4s-0.2,0.4-0.2,0.6s-0.1,0.5-0.1,0.7v0.1C102.1,12.7,102.1,12.9,102.2,13.1z"/>
		<path class="st1" d="M109.9,13.8c0.2-0.2,0.5-0.3,0.8-0.3c0.4,0,0.6,0.1,0.8,0.3s0.3,0.5,0.3,0.8s-0.1,0.6-0.3,0.8
			s-0.5,0.3-0.8,0.3c-0.3,0-0.6-0.1-0.8-0.3s-0.3-0.5-0.3-0.8S109.7,14,109.9,13.8z"/>
	</g>
</g>
</svg>
