<svg xmlns="http://www.w3.org/2000/svg" version="1.1" xmlns:xlink="http://www.w3.org/1999/xlink" width="1024" height="1024"><svg width="1024" height="1024" viewBox="0 0 1024 1024" version="1.1" id="SvgjsSvg1150" xml:space="preserve" inkscape:version="1.4.2 (f4327f4, 2025-05-13)" sodipodi:docname="Arkanis_Icon_v2-dark.svg" inkscape:export-filename="Arkanis_Icon_v2.png" inkscape:export-xdpi="1" inkscape:export-ydpi="1" xmlns:inkscape="http://www.inkscape.org/namespaces/inkscape" xmlns:sodipodi="http://sodipodi.sourceforge.net/DTD/sodipodi-0.dtd" xmlns="http://www.w3.org/2000/svg" xmlns:svg="http://www.w3.org/2000/svg"><sodipodi:namedview id="SvgjsSodipodi:namedview1149" pagecolor="#505050" bordercolor="#ffffff" borderopacity="1" inkscape:showpageshadow="0" inkscape:pageopacity="0" inkscape:pagecheckerboard="1" inkscape:deskcolor="#505050" inkscape:document-units="px" inkscape:zoom="0.35355339" inkscape:cx="671.75144" inkscape:cy="346.48232" inkscape:window-width="1274" inkscape:window-height="1211" inkscape:window-x="673" inkscape:window-y="675" inkscape:window-maximized="0" inkscape:current-layer="g340" showguides="true" inkscape:export-bgcolor="#333b3f00"></sodipodi:namedview><defs id="SvgjsDefs1148"><rect x="-987.12109" y="1524.5222" width="1988.3843" height="118.79394" id="SvgjsRect1147"></rect><rect x="-623.66815" y="1579.6765" width="502.04581" height="62.225391" id="SvgjsRect1146"></rect><rect x="-1004.0916" y="1265.7211" width="2033.6392" height="181.01933" id="SvgjsRect1145"></rect></defs><g inkscape:groupmode="layer" id="SvgjsG1144" inkscape:label="Vector" style="display:inline" transform="translate(512,443.48551)"><g id="SvgjsG1143" inkscape:label="Icon" transform="matrix(1.678688,0,0,1.678688,-859.48826,-790.97377)"><g id="SvgjsG1142" inkscape:label="Rings" style="display:inline" transform="translate(2.7083335e-6)"><ellipse style="display:inline;fill:#000000;stroke-width:0.0385918" id="SvgjsEllipse1141" cx="512" cy="511.97375" rx="16" ry="15.973746" inkscape:label="center"></ellipse><path id="SvgjsPath1140" style="display:inline;fill:#000000;stroke-width:0.275943" d="M 512.00026,464 A 47.999903,47.999903 0 0 0 464,511.99975 47.999903,47.999903 0 0 0 512.00026,560 47.999903,47.999903 0 0 0 560,511.99975 47.999903,47.999903 0 0 0 512.00026,464 Z m 0.35729,13.76511 a 33.877026,33.877026 0 0 1 33.87734,33.87734 33.877026,33.877026 0 0 1 -33.87734,33.87682 33.877026,33.877026 0 0 1 -33.87682,-33.87682 33.877026,33.877026 0 0 1 33.87682,-33.87734 z" inkscape:label="ring1"></path><path id="SvgjsPath1139" style="display:inline;fill:#000000;stroke-width:0.266315" d="M 512.00001,416 A 96.000078,95.999818 0 0 0 416,512.00027 96.000078,95.999818 0 0 0 512.00001,608 96.000078,95.999818 0 0 0 608,512.00027 96.000078,95.999818 0 0 0 512.00001,416 Z m 0,12.67774 a 83.322557,83.322331 0 0 1 83.32274,83.32253 83.322557,83.322331 0 0 1 -83.32274,83.32199 83.322557,83.322331 0 0 1 -83.32224,-83.32199 83.322557,83.322331 0 0 1 83.32224,-83.32253 z" inkscape:label="ring2"></path><path d="m 474.49996,341.08175 c -30.87308,6.75104 -58.71146,21.61236 -81.12476,42.29354 l 10.60659,10.60659 c 19.63504,-17.98118 43.76904,-31.12605 70.51817,-37.5543 z m 75.00008,0 v 15.34583 c 26.74913,6.42825 50.88313,19.57312 70.51817,37.5543 l 10.60659,-10.60659 c -22.4133,-20.68118 -50.25168,-35.5425 -81.12476,-42.29354 z M 383.37529,393.3752 c -20.68138,22.41339 -35.54309,50.25157 -42.29406,81.12476 h 15.34687 c 6.42842,-26.74885 19.57316,-50.88268 37.5543,-70.51766 z m 257.24942,0 -10.60711,10.6071 c 17.98114,19.63498 31.12588,43.76881 37.5543,70.51766 h 15.34687 C 676.1678,443.62677 661.30609,415.78859 640.62471,393.3752 Z M 341.08175,549.50004 c 6.75116,30.87299 21.61276,58.71097 42.29406,81.12424 L 393.9824,620.0177 c -17.98123,-19.63497 -31.12643,-43.76873 -37.55482,-70.51766 z m 326.49067,0 c -6.42839,26.74893 -19.57359,50.88269 -37.55482,70.51766 l 10.60659,10.60658 c 20.6813,-22.41327 35.5429,-50.25125 42.29406,-81.12424 z M 403.9823,630.0176 393.37572,640.62419 c 22.41323,20.68108 50.25141,35.54246 81.12424,42.29354 V 667.5719 c -26.74878,-6.4283 -50.88274,-19.57327 -70.51766,-37.5543 z m 216.0354,0 c -19.63492,17.98103 -43.76888,31.126 -70.51766,37.5543 v 15.34583 c 30.87283,-6.75107 58.71101,-21.61245 81.12424,-42.29354 z" style="baseline-shift:baseline;display:inline;overflow:visible;vector-effect:none;fill:#000000;enable-background:accumulate;stop-color:#000000;stop-opacity:1" id="SvgjsPath1138" inkscape:label="ring3"></path><path id="SvgjsPath1137" style="baseline-shift:baseline;display:inline;overflow:visible;opacity:1;fill:none;fill-opacity:1;stroke:#000000;stroke-width:9.979;stroke-linecap:butt;stroke-linejoin:miter;stroke-miterlimit:4;stroke-dasharray:none;stroke-opacity:1;paint-order:normal;enable-background:accumulate;stop-color:#000000;stop-opacity:1" d="m 461.99995,257.60002 c -45.58746,8.9792 -88.18277,29.9868 -123.1129,61.2867 l 35.31413,35.31413 c 25.32329,-22.08293 55.49836,-37.46515 87.79877,-45.41325 z m 100.0001,0 v 51.18758 c 32.29508,7.9468 62.40363,23.41053 87.72436,45.48766 l 35.29862,-35.29862 C 650.09557,287.68376 607.58129,266.578 562.00005,257.60002 Z m -243.10971,81.29065 c -33.01235,36.82592 -54.69459,82.1427 -62.76516,130.53829 h 50.85426 c 7.30516,-35.11505 23.42872,-67.9706 47.21882,-95.23037 z m 386.21932,0 -35.39526,35.39526 c 23.7832,27.25693 40.00226,60.03415 47.30616,95.14303 h 50.85426 c -8.07059,-48.39558 -29.75288,-93.71237 -62.76516,-130.53829 z m -449.0067,215.54757 c 8.05317,48.44647 29.7261,93.82866 62.76981,130.68866 l 35.32549,-35.32549 C 330.37783,622.50719 314.24233,589.60349 306.9505,554.43824 Z m 460.94654,0 c -7.29056,35.15903 -23.52164,67.98447 -47.3351,95.27583 l 35.39474,35.39474 c 33.04237,-36.85955 54.7349,-82.22524 62.7879,-130.67057 z m -67.32302,115.28857 c -25.32824,22.10681 -55.41556,37.71291 -87.72643,45.66646 v 51.14055 c 45.59316,-8.97649 88.09154,-30.19738 123.02453,-61.50891 z m -275.52634,0.0734 -35.32756,35.32756 c 34.93601,31.31939 77.52723,52.4282 123.12737,61.40607 v -51.14055 c -32.31592,-7.95478 -62.46912,-23.4808 -87.79981,-45.59308 z" inkscape:label="ring4"></path><path id="SvgjsPath1136" style="baseline-shift:baseline;display:inline;overflow:visible;vector-effect:none;fill:#000000;enable-background:accumulate;stop-color:#000000;stop-opacity:1" d="m 466.9999,215.53903 c -60.5756,9.21113 -117.22701,36.7357 -162.0082,79.45303 l 10.60659,10.60659 c 41.94734,-39.91483 94.81732,-65.83774 151.40161,-74.90654 z m 89.99968,0 v 15.15308 c 56.58429,9.06876 109.4542,34.9917 151.40161,74.90654 l 10.60659,-10.60659 C 674.22657,252.27489 617.5751,224.75019 556.99958,215.53903 Z M 294.9918,304.99196 c -44.47833,46.62728 -72.54441,106.11135 -80.55271,169.508 h 15.10399 c 7.90583,-59.40906 34.37961,-115.10353 76.05531,-158.90141 z m 434.01588,0 -10.60659,10.60659 c 41.67586,43.7979 68.14992,99.4923 76.05583,158.90141 h 15.10399 c -8.00837,-63.39672 -36.0747,-122.8807 -80.55323,-169.508 z M 214.43909,549.50004 c 8.00832,63.39655 36.07454,122.8807 80.55271,169.508 l 10.60659,-10.60659 C 263.92268,664.60349 237.44886,608.90911 229.54308,549.50004 Z m 580.01783,0 c -7.90575,59.40923 -34.37946,115.10392 -76.05531,158.90193 l 10.60659,10.60658 c 44.47842,-46.62736 72.54448,-106.1117 80.55271,-169.50851 z M 315.59829,718.40135 304.9917,729.00794 c 44.78121,42.71752 101.43254,70.24234 162.0082,79.45355 v -15.15308 c -56.58432,-9.0689 -109.45425,-34.99208 -151.40161,-74.90706 z m 392.80342,5.2e-4 c -41.94746,39.91497 -94.81768,65.83781 -151.40213,74.90654 v 15.15308 c 60.57576,-9.21107 117.22745,-36.73562 162.00871,-79.45303 z" inkscape:label="ring5"></path></g><g id="SvgjsG1135" inkscape:label="DotsInner" style="display:inline;fill:#000000"><circle style="display:inline;fill:#000000;stroke-width:0.267318" id="SvgjsCircle1134" cx="467" cy="467" r="5" inkscape:label="dot-inner-06-nw"></circle><circle style="display:inline;fill:#000000;stroke-width:0.267318" id="SvgjsCircle1133" cx="445" cy="512" r="5" inkscape:label="dot-inner-05-w"></circle><circle style="display:inline;fill:#000000;stroke-width:0.267318" id="SvgjsCircle1132" cx="467" cy="557" r="5" transform="translate(2.7083335e-6)" inkscape:label="dot-inner-04-sw"></circle><circle style="display:inline;fill:#000000;stroke-width:0.267318" id="SvgjsCircle1131" cx="557" cy="557" r="5" transform="translate(2.7083335e-6)" inkscape:label="dot-inner-03-se"></circle><circle style="display:inline;fill:#000000;stroke-width:0.267318" id="SvgjsCircle1130" cx="579" cy="512" r="5" transform="translate(2.7083335e-6)" inkscape:label="dot-inner-02-e"></circle><circle style="display:inline;fill:#000000;stroke-width:0.267318" id="SvgjsCircle1129" cx="557" cy="467" r="5" transform="translate(2.7083335e-6)" inkscape:label="dot-inner-01-ne"></circle></g><g id="SvgjsG1128" inkscape:label="DotsOuter" style="display:inline;fill:#000000"><path id="SvgjsPath1127" style="display:inline;fill:#000000;stroke-width:0.271613" d="M 257.00002,232 A 25,25 0 0 0 232,257.00003 a 25,25 0 0 0 25.00002,24.9995 25,25 0 0 0 25.00003,-24.9995 A 25,25 0 0 0 257.00002,232 Z m 0,13.49995 a 11.5,11.5 0 0 1 11.50008,11.50008 11.5,11.5 0 0 1 -11.50008,11.49955 11.5,11.5 0 0 1 -11.50007,-11.49955 11.5,11.5 0 0 1 11.50007,-11.50008 z" inkscape:label="dot-outer-04-sw"></path><path id="SvgjsPath1126" style="display:inline;fill:#000000;stroke-width:0.271613" d="M 257.00002,742 A 25,25 0 0 0 232,767.00003 a 25,25 0 0 0 25.00002,24.9995 25,25 0 0 0 25.00003,-24.9995 A 25,25 0 0 0 257.00002,742 Z m 0,13.49995 a 11.5,11.5 0 0 1 11.50008,11.50008 11.5,11.5 0 0 1 -11.50008,11.49955 11.5,11.5 0 0 1 -11.50007,-11.49955 11.5,11.5 0 0 1 11.50007,-11.50008 z" inkscape:label="dot-outer-03-nw"></path><path id="SvgjsPath1125" style="display:inline;fill:#000000;stroke-width:0.271613" d="M 767.00002,742 A 25,25 0 0 0 742,767.00003 a 25,25 0 0 0 25.00002,24.9995 25,25 0 0 0 25.00003,-24.9995 A 25,25 0 0 0 767.00002,742 Z m 0,13.49995 a 11.5,11.5 0 0 1 11.50008,11.50008 11.5,11.5 0 0 1 -11.50008,11.49955 11.5,11.5 0 0 1 -11.50007,-11.49955 11.5,11.5 0 0 1 11.50007,-11.50008 z" inkscape:label="dot-outer-02-se"></path><path id="SvgjsPath1124" style="display:inline;fill:#000000;stroke-width:0.271613" d="M 767.00002,232 A 25,25 0 0 0 742,257.00003 a 25,25 0 0 0 25.00002,24.9995 25,25 0 0 0 25.00003,-24.9995 A 25,25 0 0 0 767.00002,232 Z m 0,13.49995 a 11.5,11.5 0 0 1 11.50008,11.50008 11.5,11.5 0 0 1 -11.50008,11.49955 11.5,11.5 0 0 1 -11.50007,-11.49955 11.5,11.5 0 0 1 11.50007,-11.50008 z" inkscape:label="dot-outer-01-ne"></path></g><g id="SvgjsG1123" inkscape:label="LinesDiagonal" transform="translate(0.12499859)" style="display:inline;fill:#000000"><path d="m 281.87509,275.53536 -6.46472,6.46473 18.36632,18.36632 c 2.12318,-2.1876 4.27712,-4.34154 6.46472,-6.46473 z m 34.59478,34.59479 c -2.19023,2.12048 -4.34424,4.27449 -6.46472,6.46472 l 9.24492,9.24492 c 2.11881,-2.19183 4.27289,-4.34592 6.46472,-6.46472 z m 55.84311,55.8431 c -2.20368,2.10655 -4.35817,4.26105 -6.46472,6.46473 l 16.31683,16.31683 c 2.10031,-2.20967 4.25506,-4.36441 6.46472,-6.46472 z m 32.6223,32.6223 c -2.21978,2.09384 -4.37089,4.24495 -6.46473,6.46472 l 31.90348,31.90348 c 2.06815,-2.24405 4.22066,-4.39658 6.46472,-6.46472 z" style="baseline-shift:baseline;display:inline;overflow:visible;vector-effect:none;fill:#000000;enable-background:accumulate;stop-color:#000000;stop-opacity:1" id="SvgjsPath1122"></path><path d="m 430.37403,587.03625 -31.90348,31.90348 c 2.09384,2.21977 4.24495,4.37088 6.46473,6.46472 l 31.90347,-31.90348 c -2.24413,-2.06821 -4.39651,-4.22059 -6.46472,-6.46472 z m -48.20894,48.20894 -16.31683,16.31683 c 2.10655,2.20368 4.26104,4.35818 6.46472,6.46473 l 16.31683,-16.31684 c -2.20961,-2.10027 -4.36445,-4.2551 -6.46472,-6.46472 z m -62.91502,62.91502 -9.24543,9.24543 c 2.12048,2.19024 4.27448,4.34425 6.46472,6.46473 l 9.24543,-9.24544 c -2.19183,-2.1188 -4.34591,-4.27289 -6.46472,-6.46472 z m -25.47338,25.47338 -18.36632,18.36632 6.46472,6.46473 18.36632,-18.36632 c -2.18755,-2.12314 -4.34159,-4.27718 -6.46472,-6.46473 z" style="baseline-shift:baseline;display:inline;overflow:visible;vector-effect:none;fill:#000000;enable-background:accumulate;stop-color:#000000;stop-opacity:1" id="SvgjsPath1121"></path><path d="m 593.37597,587.03625 c -2.0682,2.24413 -4.22059,4.39651 -6.46472,6.46472 l 31.90348,31.90348 c 2.21977,-2.09384 4.37088,-4.24495 6.46472,-6.46472 z m 48.20894,48.20894 c -2.10027,2.20962 -4.2551,4.36445 -6.46472,6.46472 l 16.31735,16.31735 c 2.20372,-2.10658 4.35762,-4.26152 6.46421,-6.46524 z m 62.91503,62.91502 c -2.11878,2.1918 -4.27293,4.34594 -6.46473,6.46472 l 9.24544,9.24544 c 2.19023,-2.12048 4.34424,-4.27449 6.46472,-6.46473 z m 25.47338,25.47338 c -2.12319,2.1876 -4.27713,4.34154 -6.46472,6.46473 l 18.36632,18.36632 6.46472,-6.46473 z" style="baseline-shift:baseline;display:inline;overflow:visible;vector-effect:none;fill:#000000;enable-background:accumulate;stop-color:#000000;stop-opacity:1" id="SvgjsPath1120"></path><path d="m 741.87492,275.53536 -18.36632,18.36632 c 2.18754,2.12314 4.34158,4.27718 6.46472,6.46473 l 18.36632,-18.36632 z m -34.59427,34.59427 -9.24544,9.24544 c 2.1918,2.11878 4.34595,4.27292 6.46473,6.46472 l 9.24543,-9.24543 c -2.12048,-2.19024 -4.27449,-4.34425 -6.46472,-6.46473 z m -55.84311,55.84311 -16.31735,16.31735 c 2.20966,2.10031 4.36441,4.25505 6.46472,6.46472 l 16.31684,-16.31683 c -2.10659,-2.20372 -4.26049,-4.35866 -6.46421,-6.46524 z m -32.62281,32.62281 -31.90348,31.90348 c 2.24407,2.06814 4.39657,4.22067 6.46472,6.46472 l 31.90348,-31.90348 c -2.09384,-2.21977 -4.24495,-4.37088 -6.46472,-6.46472 z" style="baseline-shift:baseline;display:inline;overflow:visible;vector-effect:none;fill:#000000;enable-background:accumulate;stop-color:#000000;stop-opacity:1" id="SvgjsPath1119"></path></g><g id="SvgjsG1118" inkscape:label="LinesOrthogonal" style="display:inline;fill:#000000"><g id="SvgjsG1117" inkscape:label="Left" transform="rotate(180,512.0001,512)" style="display:inline;fill:#000000"><path id="SvgjsPath1116" style="display:inline;fill:#000000;stroke-width:0.24153" d="m 712.0002,537.00002 h 105.0001 v -9.9999 H 712.0002 c -9.54534,0 -18.45502,-6.00015 -28.00036,-6.00015 h -64.99965 v 12.50001 h 64.99965 c 9.40609,0 18.59427,3.50004 28.00036,3.50004 z" sodipodi:nodetypes="sccssccss"></path><path id="SvgjsPath1115" style="display:inline;fill:#000000;stroke-width:0.258768" d="m 712,507 h 105.0001 v 10 H 712 Z" sodipodi:nodetypes="ccccc"></path><path id="SvgjsPath1114" style="display:inline;fill:#000000;stroke-width:0.258768" d="m 712.0002,496.99988 h 105.0001 v -9.9999 H 712.0002 c -9.40609,0 -18.59427,3.50004 -28.00036,3.50004 h -64.99965 v 12.50001 h 64.99965 c 9.54534,0 18.45502,-6.00015 28.00036,-6.00015 z" sodipodi:nodetypes="sccssccss"></path></g><g id="SvgjsG1113" inkscape:label="Bottom" style="display:inline;fill:#000000" transform="translate(-2.0336426e-4)"><path id="SvgjsPath1112" style="display:inline;fill:#000000;stroke-width:0.24153" d="m 516.8002,810 h 9.2 v -78 c 0,-9.54534 4,-60.45466 4,-70 v -43.5 h -13.2 z m 0,0 h 9.2 v -78 c 0,-9.54534 4,-60.45466 4,-70 v -43.50001 h -13.2 z" sodipodi:nodetypes="ccssccc"></path><path id="SvgjsPath1111" style="display:inline;fill:#000000;stroke-width:0.24153" d="m 507.2002,810 h -9.2 v -78 c 0,-9.54534 -4,-60.45466 -4,-70 v -43.5 h 13.2 z m 0,0 h -9.2 v -78 c 0,-9.54534 -4,-60.45466 -4,-70 v -43.50001 h 13.2 z" sodipodi:nodetypes="ccssccc"></path><rect style="font-variation-settings:normal;opacity:1;vector-effect:none;fill:#000000;fill-opacity:1;stroke-width:0.264583;stroke-linecap:butt;stroke-linejoin:miter;stroke-miterlimit:4;stroke-dasharray:none;stroke-dashoffset:0;stroke-opacity:1;-inkscape-stroke:none" id="SvgjsRect1110" width="8.5" height="90" x="-543.00018" y="-809" transform="scale(-1)"></rect><rect style="font-variation-settings:normal;display:inline;vector-effect:none;fill:#000000;fill-opacity:1;stroke-width:0.264583;stroke-linecap:butt;stroke-linejoin:miter;stroke-miterlimit:4;stroke-dasharray:none;stroke-dashoffset:0;stroke-opacity:1;-inkscape-stroke:none" id="SvgjsRect1109" width="8.5" height="90" x="-489.50021" y="-809" transform="scale(-1)"></rect></g><g id="SvgjsG1108" inkscape:label="Right" style="display:inline;fill:#000000" transform="translate(2.7083335e-6)"><path id="SvgjsPath1107" style="display:inline;fill:#000000;stroke-width:0.24153" d="m 712.0002,537.00002 h 104.9999 v -9.9999 H 712.0002 c -9.54534,0 -18.45502,-6.00015 -28.00036,-6.00015 h -64.99965 v 12.50001 h 64.99965 c 9.40609,0 18.59427,3.50004 28.00036,3.50004 z" sodipodi:nodetypes="sccssccss"></path><path id="SvgjsPath1106" style="display:inline;fill:#000000;stroke-width:0.258768" d="m 712,507 h 104.9999 v 10 H 712 c 0,-3.33333 0,-6.66667 0,-10 z" sodipodi:nodetypes="ccccc"></path><path id="SvgjsPath1105" style="display:inline;fill:#000000;stroke-width:0.258768" d="m 712.0002,496.99988 h 104.9999 v -9.9999 H 712.0002 c -9.40609,0 -18.59427,3.50004 -28.00036,3.50004 h -64.99965 v 12.50001 h 64.99965 c 9.54534,0 18.45502,-6.00015 28.00036,-6.00015 z" sodipodi:nodetypes="sccssccss"></path></g><g id="SvgjsG1104" inkscape:label="Top" style="display:inline;fill:#000000" transform="rotate(180,512.0001,512)"><path id="SvgjsPath1103" style="display:inline;fill:#000000;stroke-width:0.24153" d="m 516.8002,810 h 9.2 v -78 c 0,-9.54534 4,-60.45466 4,-70 v -43.5 h -13.2 z m 0,0 h 9.2 v -78 c 0,-9.54534 4,-60.45466 4,-70 v -43.50001 h -13.2 z" sodipodi:nodetypes="ccssccc"></path><path id="SvgjsPath1102" style="display:inline;fill:#000000;stroke-width:0.24153" d="m 507.2002,810 h -9.2 v -78 c 0,-9.54534 -4,-60.45466 -4,-70 v -43.5 h 13.2 z m 0,0 h -9.2 v -78 c 0,-9.54534 -4,-60.45466 -4,-70 v -43.50001 h 13.2 z" sodipodi:nodetypes="ccssccc"></path><rect style="font-variation-settings:normal;opacity:1;vector-effect:none;fill:#000000;fill-opacity:1;stroke-width:0.264583;stroke-linecap:butt;stroke-linejoin:miter;stroke-miterlimit:4;stroke-dasharray:none;stroke-dashoffset:0;stroke-opacity:1;-inkscape-stroke:none" id="SvgjsRect1101" width="8.5" height="90" x="-543.00018" y="-809" transform="scale(-1)"></rect><rect style="font-variation-settings:normal;display:inline;vector-effect:none;fill:#000000;fill-opacity:1;stroke-width:0.264583;stroke-linecap:butt;stroke-linejoin:miter;stroke-miterlimit:4;stroke-dasharray:none;stroke-dashoffset:0;stroke-opacity:1;-inkscape-stroke:none" id="SvgjsRect1100" width="8.5" height="90" x="-489.50021" y="-809" transform="scale(-1)"></rect></g></g></g></g></svg><style>@media (prefers-color-scheme: light) { :root { filter: none; } }
@media (prefers-color-scheme: dark) { :root { filter: invert(100%); } }
</style></svg>